<?xml version="1.0" encoding="UTF-8" standalone="no"?>
<svg
   xmlns:dc="http://purl.org/dc/elements/1.1/"
   xmlns:cc="http://creativecommons.org/ns#"
   xmlns:rdf="http://www.w3.org/1999/02/22-rdf-syntax-ns#"
   xmlns:svg="http://www.w3.org/2000/svg"
   xmlns="http://www.w3.org/2000/svg"
   viewBox="0 0 122.5 177.5"
   height="177.5"
   width="122.5"
   xml:space="preserve"
   version="1.1"
   id="svg2"><metadata
     id="metadata8"><rdf:RDF><cc:Work
         rdf:about=""><dc:format>image/svg+xml</dc:format><dc:type
           rdf:resource="http://purl.org/dc/dcmitype/StillImage" /></cc:Work></rdf:RDF></metadata><defs
     id="defs6" /><g
     transform="matrix(1.25,0,0,-1.25,0,177.5)"
     id="g10"><g
       transform="scale(0.1,0.1)"
       id="g12"><path
         id="path14"
         style="fill:#356aa7;fill-opacity:1;fill-rule:nonzero;stroke:none"
         d="m 516.828,1299.34 c 9.496,9.5 15.996,20.49 18.492,33.99 11.496,60.47 -15.492,88.46 -80.965,83.46 C 364.391,1355.32 287.922,1279.35 224.945,1188.38 166.969,1104.92 121.988,1014.45 89.5,916.992 60.0117,828.527 39.5195,738.066 27.5234,645.602 18.5273,577.129 14.5313,508.156 16.0313,438.184 c 0.996,-59.477 1.996,-118.95 2.496,-178.426 1,-55.481 21.4922,-103.961 61.4766,-144.445 C 117.988,76.8281 161.973,50.8398 211.453,37.8438 439.859,-21.6328 651.773,12.8555 847.195,142.305 c 65.477,42.98 103.461,102.957 113.957,179.425 6.996,48.981 11.496,98.461 13.993,148.942 4.5,98.461 -11.997,191.922 -49.481,280.387 -28.488,66.972 -77.969,91.964 -148.937,75.472 -8.997,-7.5 -15.497,-17.496 -19.493,-28.988 -14.496,-45.484 0.996,-75.473 46.481,-89.965 21.492,-39.984 33.984,-83.469 36.484,-130.449 2.5,-44.981 5.5,-89.965 8.996,-135.445 3,-46.981 -5.996,-90.465 -27.488,-129.95 C 797.215,266.254 759.73,231.766 710.25,207.277 571.309,138.805 426.363,119.313 275.426,149.301 c -31.988,6.496 -60.477,19.992 -85.465,41.484 -26.492,22.988 -40.484,50.977 -42.484,83.465 -5.497,91.465 -4.497,181.93 2,271.891 4.996,61.476 12.496,122.953 21.992,183.925 18.492,112.457 56.476,218.914 114.453,319.374 58.476,101.46 135.445,184.43 230.906,249.9" /></g></g></svg>