<?xml version="1.0" standalone="no"?>
<!DOCTYPE svg PUBLIC "-//W3C//DTD SVG 20010904//EN"
 "http://www.w3.org/TR/2001/REC-SVG-20010904/DTD/svg10.dtd">
<svg version="1.0" xmlns="http://www.w3.org/2000/svg"
 width="2400.000000pt" height="1600.000000pt" viewBox="0 0 2400.000000 1600.000000"
 preserveAspectRatio="xMidYMid meet">
<metadata>
Created by potrace 1.13, written by Peter Selinger 2001-2015
</metadata>
<g transform="translate(0.000000,1600.000000) scale(0.100000,-0.100000)"
fill="#000000" stroke="none">
<path d="M1103 15976 c-34 -13 -85 -38 -114 -57 -35 -22 -62 -32 -81 -30 -16
1 -50 -3 -76 -10 -41 -10 -59 -9 -135 10 -203 50 -530 91 -567 71 -24 -13 -26
-37 -4 -61 14 -16 11 -20 -55 -59 l-71 -42 0 -324 0 -324 58 0 57 0 20 -53
c18 -47 26 -55 74 -78 31 -14 58 -35 62 -47 10 -26 54 -56 73 -49 12 5 13 13
5 39 -12 43 -12 48 5 48 8 0 24 -20 36 -44 27 -56 41 -68 93 -76 23 -4 49 -10
58 -14 22 -9 49 19 49 50 0 29 4 29 38 6 40 -28 93 -44 107 -32 16 13 25 2 25
-31 0 -24 7 -30 57 -49 32 -12 79 -24 105 -27 43 -5 48 -4 48 14 0 11 -9 28
-20 38 -27 24 -25 29 11 42 29 11 35 10 78 -25 25 -20 52 -45 59 -55 39 -52
102 -81 125 -58 11 11 3 55 -17 101 -5 12 5 15 53 17 57 2 60 1 85 -32 43 -56
132 -70 156 -24 6 10 20 19 30 19 13 0 20 7 20 20 0 11 7 20 15 20 19 0 47 43
40 61 -2 8 -1 20 4 28 7 11 33 5 140 -34 128 -46 178 -52 151 -20 -7 8 -68 42
-136 76 -114 57 -123 64 -109 79 19 21 19 47 0 57 -11 7 5 17 60 41 87 37 101
39 108 12 4 -15 14 -20 40 -20 74 0 130 42 125 93 l-3 32 -200 0 c-191 1 -202
2 -237 24 -21 13 -38 28 -38 34 0 6 18 32 41 59 22 27 39 56 37 66 -6 29 -93
20 -177 -18 -39 -18 -74 -31 -77 -28 -3 3 9 10 25 16 17 6 46 22 63 35 70 52
189 101 255 105 58 4 67 2 91 -21 38 -36 93 -67 118 -67 12 0 33 9 47 20 15
12 40 20 64 20 48 0 63 14 63 57 0 18 5 33 10 33 6 0 10 -3 10 -7 1 -19 59
-48 106 -53 l51 -6 -10 26 c-5 14 -36 47 -69 73 l-60 47 89 0 c98 0 111 -6
222 -92 34 -25 84 -54 113 -62 29 -9 68 -21 86 -27 18 -6 46 -7 63 -4 30 7 89
-10 89 -25 0 -5 -11 -17 -25 -28 -34 -27 -31 -48 10 -89 36 -36 71 -41 69 -10
-1 12 6 17 28 17 16 0 38 5 49 11 16 8 25 7 38 -5 25 -23 86 -46 121 -46 35 0
90 46 90 75 0 15 -109 75 -137 75 -11 0 -43 48 -43 64 0 2 25 16 55 30 45 20
65 24 107 19 42 -5 53 -3 64 11 7 10 10 24 7 32 -4 11 5 14 36 14 37 0 41 2
41 24 0 14 -4 28 -10 31 -5 3 -10 14 -10 24 0 33 -27 42 -153 52 -104 7 -132
13 -169 34 -32 18 -58 25 -100 25 -32 0 -58 4 -58 8 0 11 44 52 56 52 14 0 37
41 27 50 -4 4 -22 11 -39 14 -25 6 -38 2 -61 -18 -17 -14 -36 -38 -42 -53 -11
-27 -13 -28 -80 -25 -42 2 -89 -2 -122 -12 -29 -9 -85 -16 -124 -16 -68 0 -72
1 -71 23 1 21 -2 22 -64 20 -73 -3 -195 -26 -286 -54 -56 -17 -64 -18 -90 -4
-16 8 -39 15 -51 15 -13 0 -23 6 -23 14 0 27 -29 44 -89 51 -57 7 -64 5 -154
-39 -107 -53 -243 -157 -302 -233 -38 -49 -42 -52 -90 -53 -27 -1 -77 -9 -110
-19 -60 -17 -60 -17 -113 7 -39 18 -65 23 -93 19 -25 -3 -39 -1 -39 6 0 6 -9
20 -20 32 l-19 21 74 39 c52 28 77 48 84 65 11 32 84 103 155 151 30 20 60 41
67 48 8 6 25 20 39 31 l25 19 -25 0 c-14 0 -53 -10 -87 -23z"/>
<path d="M7953 14283 c-7 -2 -13 -16 -13 -29 0 -19 -5 -24 -24 -24 -49 0 -80
-71 -37 -85 24 -7 30 -41 23 -118 l-5 -60 -19 37 c-15 28 -24 36 -41 34 -24
-3 -26 -22 -12 -110 7 -41 5 -48 -9 -48 -22 0 -21 -46 2 -59 19 -12 13 -14
-38 -15 -33 -1 -35 -3 -38 -36 -2 -19 -14 -46 -26 -60 -47 -51 -42 -83 19
-120 25 -15 35 -28 33 -42 -3 -16 -12 -20 -60 -22 -32 -2 -68 -10 -82 -20 -26
-17 -35 -50 -16 -61 12 -8 12 -16 0 -35 -8 -13 -14 -10 -35 15 -30 37 -31 47
-5 70 44 40 3 105 -66 105 -29 0 -34 3 -34 23 0 32 -30 57 -67 57 -48 0 -67
-46 -61 -148 4 -62 2 -82 -8 -82 -7 0 -27 -12 -44 -26 -23 -20 -30 -34 -28
-53 3 -23 8 -26 45 -29 24 -2 55 4 73 13 36 18 117 12 165 -14 17 -8 54 -25
84 -36 53 -20 54 -21 54 -60 l0 -39 -39 2 c-50 3 -66 -8 -62 -44 2 -23 10 -31
36 -39 36 -10 39 -17 17 -35 -8 -7 -15 -23 -15 -36 0 -27 34 -40 75 -30 19 5
28 1 41 -19 9 -15 30 -27 50 -31 19 -3 34 -10 34 -14 0 -4 -7 -42 -16 -85 -9
-42 -13 -83 -10 -91 8 -21 42 -17 59 9 16 22 16 22 16 1 1 -21 -27 -54 -46
-54 -6 0 -27 16 -47 36 -30 30 -38 34 -56 24 -15 -8 -20 -21 -20 -51 0 -36 -3
-41 -35 -55 -54 -22 -56 -18 -19 37 19 28 34 57 34 65 0 19 -49 30 -72 15 -16
-10 -18 -8 -18 14 0 24 -31 65 -49 65 -17 0 -29 -26 -35 -80 -7 -59 -26 -104
-26 -62 0 29 -11 28 -44 -3 -15 -14 -36 -25 -47 -25 -26 0 -35 -26 -22 -61 11
-27 10 -29 -24 -38 -20 -6 -46 -20 -59 -32 -24 -23 -32 -63 -14 -74 5 -3 7
-19 4 -34 -11 -53 53 -65 95 -19 12 13 29 18 47 16 24 -3 30 -10 42 -50 11
-39 17 -48 36 -48 42 0 78 69 44 83 -7 3 -4 6 7 7 11 0 44 9 73 19 29 10 55
14 58 10 3 -5 21 -9 40 -9 28 0 34 -4 34 -21 0 -17 -4 -20 -22 -15 -13 4 -53
9 -90 13 l-68 6 0 -44 c0 -25 7 -55 16 -67 22 -32 9 -45 -37 -37 -25 4 -39 3
-39 -4 0 -6 -17 -11 -37 -11 -20 0 -45 -7 -55 -17 -21 -19 -56 -40 -80 -49
-20 -7 -25 -58 -8 -69 16 -10 12 -55 -5 -55 -22 0 -28 -22 -15 -55 10 -26 13
-27 55 -22 40 6 45 5 45 -13 0 -11 5 -20 10 -20 6 0 10 -19 10 -42 0 -82 30
-150 87 -201 29 -25 63 -52 75 -58 l23 -12 -23 -10 c-16 -7 -22 -19 -22 -42 0
-29 5 -35 55 -60 60 -31 61 -32 42 -57 -9 -11 -18 -14 -28 -7 -8 5 -29 9 -47
9 -30 0 -32 -3 -30 -26 5 -43 -18 -39 -51 10 -34 49 -64 64 -86 46 -20 -17
-19 -38 5 -82 l19 -37 -31 13 c-23 10 -36 26 -49 61 -10 27 -34 65 -54 85 -19
20 -35 41 -35 47 0 7 17 17 38 22 47 14 69 14 77 1 12 -20 35 -10 35 15 0 14
7 28 15 31 18 7 20 55 3 72 -7 7 -29 12 -49 12 -36 0 -37 1 -29 28 4 15 15 41
24 57 9 17 16 39 16 50 -1 25 -23 55 -40 55 -8 0 -22 -8 -33 -17 -13 -12 -36
-18 -66 -18 l-46 0 0 -48 c0 -47 0 -48 -62 -87 -45 -28 -70 -52 -91 -89 -16
-28 -31 -48 -34 -45 -13 13 -49 -18 -46 -39 2 -15 -4 -23 -22 -28 -51 -14 -65
-10 -77 22 -10 25 -16 30 -40 27 -27 -3 -28 -6 -33 -68 -5 -71 -12 -75 -72
-44 -15 8 -46 14 -69 14 l-42 0 7 -77 c18 -202 24 -222 66 -223 8 0 40 27 71
60 l56 60 45 -30 c35 -23 45 -35 41 -50 -4 -14 0 -20 11 -20 9 0 16 8 16 20 0
11 6 20 14 20 8 0 18 -9 21 -20 5 -16 15 -20 49 -20 43 0 45 -2 185 -151 78
-83 140 -153 138 -156 -11 -10 -54 10 -62 30 -6 13 -21 23 -37 25 -22 3 -32
-4 -54 -38 -26 -39 -27 -40 -41 -20 -30 43 -92 12 -64 -32 13 -21 7 -38 -14
-38 -33 0 -33 -64 0 -86 26 -17 32 -43 14 -61 -6 -6 -9 -21 -7 -34 3 -21 8
-24 40 -23 34 1 36 0 26 -21 -12 -26 4 -65 27 -65 21 0 45 41 45 77 0 38 11
41 52 12 21 -15 26 -25 19 -32 -6 -6 -11 -21 -11 -34 0 -19 -5 -23 -29 -23
-26 0 -41 -14 -41 -41 0 -4 25 -20 56 -35 l55 -26 -7 -54 c-8 -68 7 -76 69
-39 29 16 48 22 52 15 3 -5 16 -10 27 -10 19 0 18 -2 -8 -22 -40 -31 -53 -49
-54 -75 0 -17 -6 -23 -23 -23 -13 0 -28 -5 -33 -10 -8 -8 -19 -7 -38 1 -29 14
-41 8 -33 -16 4 -8 17 -15 30 -15 39 0 53 -25 32 -56 -12 -19 -22 -24 -38 -20
-12 3 -34 6 -49 6 -25 0 -28 4 -28 34 0 65 -67 111 -101 70 -12 -14 -14 -14
-26 2 -18 24 -16 34 5 34 9 0 32 9 50 20 33 21 42 50 19 69 -11 9 -122 30
-162 31 -6 0 -16 14 -23 30 -14 32 -46 55 -61 45 -5 -3 -12 -19 -16 -35 -6
-26 -10 -29 -31 -24 -18 5 -31 -1 -54 -24 -44 -45 -39 -86 14 -100 l27 -7 -26
-50 c-29 -58 -31 -78 -10 -95 23 -19 42 -5 71 52 31 60 41 51 24 -22 -13 -56
-7 -73 24 -68 13 2 32 -8 50 -24 l29 -28 -64 0 c-157 -2 -400 -19 -469 -35
-185 -41 -204 -51 -264 -149 -18 -31 -45 -56 -77 -75 -105 -60 -211 -254 -243
-444 -11 -62 -15 -72 -34 -75 -21 -3 -112 -100 -112 -119 0 -6 -9 -22 -20 -35
-39 -50 -95 -251 -124 -448 -32 -206 -49 -981 -40 -1815 12 -1200 10 -2315 -4
-2510 -16 -213 -22 -265 -32 -265 -4 0 -15 20 -24 45 -34 88 -59 40 -37 -72
l8 -41 -43 -12 c-39 -11 -46 -10 -73 9 -29 21 -30 22 -15 57 8 20 14 38 12 39
-12 12 -89 -31 -121 -67 -21 -24 -33 -33 -27 -20 6 13 40 54 76 91 63 68 75
96 52 119 -27 27 -50 9 -161 -124 l-112 -137 -3 39 c-5 74 -42 115 -83 93 -21
-11 -21 -16 -17 -135 l5 -123 -38 -26 c-22 -14 -41 -21 -44 -15 -3 6 -21 10
-40 10 -24 0 -39 -7 -54 -26 l-21 -27 0 64 c0 74 -22 119 -66 138 -16 6 -36
26 -44 44 -10 21 -24 33 -39 35 l-24 4 6 -99 c4 -68 15 -128 36 -197 17 -54
31 -109 31 -122 0 -22 -4 -24 -43 -24 -52 0 -249 19 -296 29 l-34 6 77 34 c64
29 76 38 76 58 0 24 -2 24 -57 18 -32 -4 -86 -13 -121 -21 -35 -8 -66 -14 -69
-14 -3 0 63 55 147 123 l152 122 -37 3 c-31 3 -52 -6 -131 -59 -52 -34 -126
-86 -166 -115 -39 -30 -75 -54 -80 -54 -19 0 -5 40 42 120 54 92 58 105 34
114 -27 10 -33 7 -63 -35 -16 -22 -33 -40 -38 -40 -4 1 -8 82 -9 181 0 112 -4
184 -11 191 -7 7 -13 -25 -18 -107 -4 -65 -11 -138 -15 -163 l-7 -46 -11 28
c-8 18 -12 91 -12 193 0 132 -3 164 -14 164 -19 0 -25 -48 -33 -277 l-6 -203
-32 0 c-31 0 -34 3 -56 68 -19 54 -29 68 -47 70 -22 3 -23 1 -16 -35 3 -21 17
-80 30 -131 13 -51 24 -94 24 -97 0 -12 -69 -3 -81 11 -7 9 -21 13 -34 10 -17
-4 -36 9 -87 59 -61 61 -68 65 -111 65 -51 0 -68 15 -101 89 -19 40 -56 59
-56 27 0 -32 41 -144 70 -189 16 -26 30 -51 30 -56 0 -4 -64 -11 -142 -14 -79
-4 -162 -9 -186 -13 -39 -6 -43 -5 -40 12 2 15 -3 19 -24 18 -32 0 -33 5 -13
71 15 53 13 65 -14 65 -16 0 -16 6 -8 70 9 64 6 92 -8 78 -3 -3 -10 -34 -16
-69 -16 -100 -39 -201 -53 -234 l-14 -30 -27 60 c-37 82 -109 276 -139 377
-14 46 -54 166 -90 268 -35 102 -90 273 -121 380 -31 107 -62 198 -67 201 -19
12 60 170 133 267 40 53 93 134 118 181 l45 86 4 309 c3 310 3 310 28 356 21
38 35 51 77 68 29 12 86 25 128 30 90 11 141 36 192 92 30 34 37 49 37 83 0
52 -5 59 -56 85 -23 12 -55 33 -72 47 -16 14 -35 25 -40 25 -6 0 -31 28 -56
63 -56 79 -79 99 -100 91 -9 -3 -16 -10 -16 -15 0 -5 -13 -3 -30 6 -36 18 -36
18 -6 120 16 51 29 80 38 79 7 -1 51 -9 97 -18 111 -21 279 -22 287 -1 9 21
-14 45 -42 45 l-23 0 23 25 c13 14 28 25 35 25 6 0 11 9 11 20 0 30 -26 25
-108 -20 l-72 -40 -78 15 c-42 8 -78 15 -80 15 -2 0 -1 4 2 8 3 5 50 17 106
27 56 10 108 24 117 30 20 15 9 35 -18 35 -11 0 -30 7 -44 16 -18 12 -35 14
-71 8 l-48 -7 28 34 29 34 151 0 c150 1 232 13 320 50 l31 13 -25 10 c-14 6
-38 13 -53 17 -25 5 -28 9 -23 30 9 36 -24 33 -67 -5 -47 -41 -74 -49 -142
-41 l-60 7 40 21 c58 31 102 80 87 95 -10 10 -29 7 -89 -15 l-76 -27 26 33
c35 44 115 197 138 265 17 50 18 58 4 71 -25 25 -57 -3 -69 -59 -11 -53 -118
-209 -265 -385 -146 -176 -214 -239 -279 -259 -20 -7 -22 -4 -23 31 -1 21 -1
54 0 74 2 23 -4 42 -14 53 -31 30 -50 15 -58 -44 -3 -25 -12 -76 -21 -115 -10
-47 -12 -73 -5 -81 5 -7 9 -40 7 -75 -3 -61 -4 -62 -38 -74 -30 -10 -38 -9
-61 7 l-25 19 17 115 c10 63 23 140 29 171 10 46 9 58 -2 70 -22 21 -52 -11
-68 -69 -12 -47 -23 -58 -35 -38 -4 6 -39 32 -78 59 -105 71 -126 97 -137 167
-6 34 -6 81 -1 113 5 29 6 62 4 72 -7 26 -36 24 -68 -3 -23 -21 -25 -30 -27
-113 -2 -69 2 -97 15 -122 l17 -32 -35 20 c-68 40 -124 131 -150 243 -8 35
-24 93 -35 130 -18 57 -24 66 -45 66 -21 0 -25 -6 -31 -46 -9 -61 3 -165 26
-230 22 -64 18 -65 -65 -25 -59 28 -62 31 -135 154 -41 70 -79 125 -85 123 -5
-2 -9 -27 -9 -56 2 -39 12 -73 43 -134 62 -124 69 -130 212 -184 86 -33 139
-59 169 -85 36 -30 40 -37 23 -37 -42 0 -153 41 -204 76 -45 30 -54 33 -67 21
-12 -13 -10 -20 18 -58 40 -57 118 -105 189 -119 31 -6 78 -15 104 -21 27 -5
61 -9 77 -9 46 0 154 -38 193 -67 38 -29 53 -72 19 -58 -76 33 -217 46 -240
23 -18 -18 -15 -33 17 -80 31 -46 149 -164 193 -192 l27 -18 -27 -41 c-23 -34
-27 -51 -27 -111 0 -63 3 -76 31 -116 30 -44 31 -48 23 -104 -6 -32 -7 -61 -5
-64 7 -6 -18 -54 -72 -138 -45 -70 -48 -72 -94 -77 -105 -13 -321 -83 -448
-145 -63 -31 -119 -55 -124 -54 -5 2 -54 7 -108 12 -91 8 -105 12 -167 49 -55
34 -84 44 -147 53 -121 16 -409 22 -479 8 -84 -15 -274 -111 -328 -164 -39
-39 -47 -43 -110 -50 -38 -4 -86 -14 -108 -22 -37 -15 -139 -114 -139 -135 0
-6 -11 -25 -25 -43 -20 -27 -25 -44 -25 -94 0 -55 3 -64 39 -109 21 -26 57
-65 80 -86 22 -21 41 -44 41 -52 0 -10 10 -15 31 -15 17 0 40 -5 51 -11 41
-22 43 6 4 86 -71 147 -83 251 -41 332 30 57 49 73 76 66 19 -5 17 -10 -21
-48 -56 -57 -65 -97 -43 -198 20 -98 50 -134 217 -259 118 -88 122 -93 166
-177 25 -47 53 -97 62 -110 22 -32 16 -43 -86 -151 -44 -47 -90 -102 -101
-123 -11 -20 -27 -37 -36 -37 -9 0 -21 -6 -27 -13 -11 -14 -29 -211 -39 -434
-6 -140 -8 -153 -25 -153 -12 0 -18 -7 -18 -23 0 -13 -4 -27 -9 -32 -4 -6 -6
-27 -4 -48 4 -27 11 -39 27 -43 18 -4 21 -13 23 -63 l2 -59 -34 -4 c-19 -2
-36 1 -39 7 -2 6 -8 6 -17 -2 -20 -20 -39 -15 -39 10 -1 61 -47 61 -52 0 l-3
-37 -90 -21 -90 -20 -3 -423 -2 -422 4040 0 4040 0 0 5713 c-1 5582 -1 5711
-19 5690 l-19 -23 -11 32 c-11 31 -48 79 -60 77 -3 0 -12 -3 -18 -6z m-710
-2970 c44 -13 53 -21 103 -97 29 -46 61 -86 69 -90 14 -5 22 -46 9 -46 -12 0
-167 137 -239 210 -70 71 -70 71 -30 54 22 -9 62 -23 88 -31z m-674 -1336 c19
-24 -39 -62 -142 -92 -31 -9 -63 -23 -71 -31 -16 -16 -32 -18 -40 -6 -9 14 32
90 56 103 60 33 178 48 197 26z m41 -136 c0 -18 -66 -65 -146 -103 -45 -21
-89 -47 -99 -58 -19 -21 -45 -27 -45 -10 0 19 93 111 132 131 32 16 125 46
151 48 4 1 7 -3 7 -8z m-280 -1986 c-6 -286 -15 -837 -20 -1225 -6 -388 -15
-759 -21 -825 -6 -66 -12 -238 -13 -382 0 -145 -4 -263 -7 -263 -3 0 -13 8
-21 18 -34 38 -47 471 -28 877 5 99 13 455 19 790 18 992 28 1276 61 1720 17
225 23 227 33 10 5 -125 4 -394 -3 -720z m-329 523 c-14 -412 -25 -598 -52
-818 -17 -145 -92 -620 -104 -660 -6 -22 4 352 16 570 22 422 73 922 115 1125
13 66 24 124 24 129 0 5 3 7 6 3 3 -3 1 -160 -5 -349z m610 -569 c-6 -146 -11
-381 -11 -521 0 -192 -3 -264 -13 -288 l-14 -32 -13 32 c-10 25 -12 104 -7
378 9 487 25 910 36 931 5 9 13 73 18 141 8 120 8 115 11 -125 2 -137 -2 -370
-7 -516z m340 330 c53 -26 60 -33 55 -52 -4 -12 -10 -93 -13 -179 -3 -87 -7
-158 -9 -158 -2 0 -23 21 -47 47 -85 90 -93 6 -9 -106 l25 -34 -26 -19 c-21
-15 -27 -30 -33 -77 -5 -50 -10 -60 -36 -75 -37 -22 -32 -40 13 -44 19 -2 42
-11 52 -20 17 -15 15 -18 -33 -60 -60 -52 -56 -74 10 -52 46 15 57 10 39 -18
-7 -11 -9 -27 -6 -36 12 -30 42 -17 81 35 23 31 41 48 47 42 5 -5 12 -34 16
-64 7 -63 18 -89 38 -89 8 0 18 -12 21 -27 14 -57 68 -149 121 -204 l54 -57
-8 -94 c-7 -81 -10 -93 -28 -96 -11 -2 -30 -13 -43 -25 -21 -20 -23 -20 -35
-3 -21 29 -61 17 -67 -19 l-6 -30 -22 35 c-12 19 -22 41 -22 48 0 13 -19 16
-44 6 -26 -10 -19 -43 23 -104 l38 -58 -38 -15 c-28 -11 -39 -21 -39 -36 0
-12 6 -21 14 -21 13 0 31 -40 18 -40 -4 -1 -17 -9 -29 -19 -29 -24 -44 -131
-18 -131 9 0 36 16 59 35 65 53 160 88 121 45 -10 -11 -22 -20 -27 -20 -5 0
-32 -10 -59 -21 -34 -15 -49 -27 -49 -40 0 -15 7 -19 34 -19 18 0 54 -3 79 -6
43 -6 45 -8 36 -31 -17 -46 -12 -65 17 -61 23 3 31 13 54 71 15 37 30 70 33
74 20 20 -12 -225 -48 -371 -23 -91 -25 -95 -36 -68 -17 44 -69 36 -69 -12 -1
-19 -2 -19 -11 -3 -7 11 -22 17 -48 17 -33 0 -40 -4 -45 -24 -7 -28 2 -84 15
-92 23 -14 4 -20 -53 -16 -68 4 -106 -12 -95 -40 3 -9 31 -28 62 -43 l57 -28
-30 -13 c-28 -11 -51 -48 -38 -61 3 -3 45 1 93 9 48 8 91 13 96 11 16 -9 6
-51 -18 -73 -28 -26 -30 -63 -4 -68 9 -1 48 22 88 53 39 30 73 55 76 55 10 0
75 -129 75 -149 0 -12 -10 -50 -22 -84 -25 -74 -31 -229 -9 -290 12 -36 12
-39 -20 -74 -40 -47 -66 -104 -74 -169 l-7 -51 -77 -31 c-56 -23 -81 -40 -94
-61 -15 -25 -24 -30 -68 -33 -33 -2 -54 1 -61 10 -6 7 -23 12 -37 10 -26 -3
-26 -4 -25 -78 2 -78 22 -141 66 -203 l22 -30 -30 -24 c-16 -13 -48 -36 -71
-50 -27 -18 -43 -36 -47 -55 -10 -50 -23 -30 -30 45 -20 234 -30 563 -57 1867
-11 547 -6 2025 7 2116 l6 42 74 -44 c41 -24 102 -58 135 -75z m-1218 -115 c8
-84 -5 -296 -29 -478 -8 -61 -14 -115 -15 -120 -1 -30 -18 41 -29 124 -13 97
-29 465 -22 488 2 6 13 12 24 12 13 0 24 11 31 30 18 48 31 29 40 -56z m814
-1185 c12 -12 6 -268 -6 -282 -4 -4 -14 -1 -24 5 -11 10 -20 48 -32 140 -9 70
-13 132 -10 138 8 13 58 13 72 -1z m-87 -739 c7 -127 7 -243 -2 -422 -7 -136
-15 -245 -18 -242 -3 3 -5 218 -5 477 0 473 5 514 25 187z m-536 110 c8 -52
18 -140 22 -195 6 -86 4 -102 -10 -114 -8 -7 -22 -11 -30 -8 -17 7 -34 119
-43 279 -5 106 -4 120 12 138 25 27 29 18 49 -100z m71 -713 c18 -174 20 -499
4 -787 -12 -219 -21 -253 -56 -217 -15 15 -17 44 -17 269 1 139 6 305 12 368
6 63 14 196 17 295 6 173 11 232 20 223 2 -2 11 -70 20 -151z m-4595 -522 c36
-19 232 -67 365 -90 64 -11 104 -24 112 -34 7 -9 13 -44 13 -78 0 -74 20 -185
49 -271 25 -73 31 -251 12 -362 -5 -36 -13 -113 -17 -172 l-7 -108 -38 0 -39
0 27 55 c15 30 24 58 20 62 -12 11 -77 -28 -106 -64 -14 -18 -34 -33 -43 -33
-25 0 -24 54 2 90 21 29 18 40 -12 40 -11 0 -23 13 -33 36 -14 33 -18 36 -44
31 -18 -4 -31 -2 -33 5 -2 6 -12 9 -21 5 -12 -5 -17 -19 -18 -54 l-1 -48 -12
37 c-6 21 -19 45 -29 55 -16 16 -17 15 -17 -31 0 -42 -2 -47 -17 -41 -10 4
-33 9 -50 12 -33 6 -33 5 -33 -36 0 -30 -4 -41 -15 -41 -8 0 -17 -11 -21 -25
-5 -20 -14 -25 -52 -30 -26 -4 -90 -15 -142 -26 -52 -10 -95 -17 -96 -16 -1 1
-8 39 -15 84 -14 84 -28 105 -55 82 -8 -6 -14 -20 -14 -30 0 -11 -4 -19 -9
-19 -6 0 -11 -19 -13 -42 l-3 -43 -19 60 c-10 33 -33 125 -52 205 -33 139 -33
146 -16 160 55 46 248 272 265 310 11 25 27 50 35 56 13 10 13 15 -4 45 -10
19 -22 36 -26 40 -8 5 -78 178 -78 191 0 5 19 8 43 8 23 0 74 9 112 19 88 24
109 25 145 6z m887 -211 c16 -38 59 -117 95 -175 35 -57 77 -127 92 -154 15
-28 55 -84 89 -125 59 -71 64 -81 91 -184 31 -118 31 -116 -26 -138 -16 -5
-28 -14 -28 -18 0 -10 -69 -88 -70 -78 0 4 7 37 16 74 8 37 14 76 12 88 -3 20
-6 19 -36 -13 l-32 -33 0 45 c0 43 -18 147 -25 147 -2 0 -11 -3 -20 -6 -14 -6
-15 -19 -9 -103 6 -82 4 -98 -10 -110 -11 -9 -16 -30 -16 -65 l0 -51 -28 60
c-33 68 -77 125 -98 125 -19 0 -18 -15 6 -83 27 -75 26 -80 -11 -62 -16 9 -52
19 -80 22 -44 5 -49 4 -49 -14 0 -14 12 -25 38 -36 l37 -15 -62 -1 c-60 -1
-62 0 -65 27 -2 15 12 115 29 222 18 107 38 242 43 300 19 189 27 234 56 332
15 54 29 96 30 95 1 -1 15 -34 31 -73z m3803 -124 c11 -11 32 -20 48 -20 35 0
72 -25 72 -49 0 -32 -39 -71 -71 -71 -37 0 -129 83 -129 117 0 41 48 55 80 23z
m-289 -46 c23 -21 25 -71 3 -102 -12 -18 -25 -22 -64 -22 -64 0 -84 19 -77 74
7 53 39 80 86 72 18 -3 42 -13 52 -22z m-5102 -170 c-28 -87 -29 -99 -16 -109
10 -7 22 -48 32 -106 9 -52 27 -138 41 -192 20 -81 24 -111 18 -173 -6 -63 -9
-74 -25 -74 -13 0 -19 7 -19 21 0 29 -67 91 -94 87 -22 -3 -25 -26 -11 -94 7
-30 5 -31 -31 -37 -25 -4 -41 -2 -46 6 -20 32 -13 327 13 506 18 123 22 137
55 183 37 49 106 106 112 89 1 -4 -11 -53 -29 -107z m5674 27 c34 -13 41 -42
22 -87 -33 -80 -75 -95 -126 -45 -35 35 -38 77 -8 115 22 28 65 35 112 17z
m-487 -111 c8 0 25 -11 38 -23 27 -27 25 -65 -5 -93 -42 -38 -130 14 -114 68
10 33 36 60 53 53 7 -3 20 -5 28 -5z m-4131 -908 c160 -16 465 -20 523 -7 14
4 21 2 18 -4 -17 -28 -126 -33 -546 -28 -387 5 -508 12 -625 34 l-40 8 60 6
c132 13 443 9 610 -9z"/>
<path d="M170 13929 c-49 -13 -91 -18 -122 -14 l-48 6 0 -331 0 -331 23 6 c12
4 46 18 75 32 28 13 82 29 118 34 36 5 77 15 92 23 43 22 75 62 69 85 -6 23
-5 23 105 45 104 21 113 21 138 -14 21 -30 62 -41 75 -20 3 6 30 10 58 10 29
0 79 7 110 15 60 15 122 43 115 51 -3 2 -31 9 -64 15 -116 21 -166 62 -135
110 16 26 14 64 -4 79 -9 7 -44 23 -79 34 -60 20 -63 23 -50 41 15 20 19 57 7
69 -5 4 -8 17 -8 29 0 42 -99 46 -176 7 -50 -26 -154 -29 -145 -4 9 25 -12 44
-48 43 -17 -1 -65 -10 -106 -20z"/>
<path d="M1060 12185 c-96 -31 -170 -77 -170 -106 0 -15 11 -25 40 -37 l41
-15 -32 -14 c-17 -7 -61 -13 -98 -13 -83 0 -115 -15 -119 -55 -2 -24 -13 -35
-53 -58 -27 -15 -54 -38 -60 -51 -7 -14 -32 -32 -64 -45 -29 -12 -61 -31 -70
-42 -10 -10 -30 -19 -44 -19 -15 0 -56 -15 -91 -34 -36 -19 -84 -39 -107 -44
-39 -9 -44 -8 -58 14 -8 13 -22 24 -30 24 -12 0 -12 5 1 35 20 48 18 94 -8
140 -12 22 -25 63 -29 92 -14 97 -48 135 -90 97 -18 -16 -19 -35 -19 -436 0
-328 3 -418 13 -418 6 0 39 8 71 18 59 18 61 18 140 -6 104 -30 216 -41 216
-21 0 26 -15 36 -97 63 -71 24 -83 31 -83 50 0 12 -5 27 -12 34 -9 9 -3 12 29
12 26 0 43 5 46 14 3 8 18 16 33 18 15 2 36 15 47 30 l21 28 -29 30 c-37 38
-29 47 80 85 95 33 105 40 105 72 0 19 8 28 41 41 30 11 42 22 46 43 5 26 7
27 88 31 52 3 92 10 107 20 22 15 30 15 96 -1 42 -10 81 -26 95 -39 18 -17 34
-23 58 -20 29 2 34 7 37 31 3 23 -2 30 -31 42 -18 7 -40 21 -47 31 -13 14 -9
21 30 54 35 30 47 35 55 25 21 -27 335 -60 335 -36 0 18 -61 60 -96 67 -35 6
-54 28 -54 62 0 27 -28 49 -72 57 -41 8 -49 20 -19 28 19 5 38 68 26 87 -8 13
-51 13 -76 -1 -19 -9 -19 -9 -10 10 9 15 7 23 -5 35 -20 21 -34 20 -124 -9z"/>
<path d="M0 9899 l0 -261 30 6 c17 3 30 1 30 -4 0 -13 -37 -50 -50 -50 -6 0
-10 -122 -10 -345 l0 -345 28 0 c85 0 257 93 257 139 0 18 11 26 70 45 38 13
77 33 86 45 10 12 26 21 37 21 11 0 34 11 50 25 l29 24 46 -24 c25 -14 55 -25
67 -25 16 0 169 -78 190 -97 3 -3 -8 -16 -25 -29 -47 -39 -186 -137 -188 -133
-33 62 -56 64 -93 9 -51 -75 -181 -234 -215 -266 -19 -17 -55 -39 -82 -48 -83
-31 -138 -76 -153 -125 -7 -24 -33 -70 -58 -102 l-46 -59 2 -280 3 -281 44 68
c24 37 58 98 75 135 30 65 32 67 68 68 20 0 43 3 52 6 23 9 20 41 -4 49 -26 8
-26 25 0 25 10 0 35 14 55 31 27 24 35 39 35 64 0 25 5 35 20 40 25 8 44 41
30 50 -6 4 9 24 35 47 25 22 45 46 45 55 0 20 87 141 111 154 30 16 24 55 -11
71 -30 13 -39 31 -20 43 6 4 34 -1 62 -11 56 -18 169 -15 208 6 38 20 20 44
-39 52 -68 8 -86 24 -44 38 36 13 49 47 27 71 -13 14 -8 20 45 57 67 48 111
95 130 139 14 34 47 53 91 53 16 0 51 5 78 11 44 9 50 14 56 41 7 33 -13 74
-40 85 -29 11 8 23 71 23 35 0 83 9 115 21 71 26 184 33 201 13 17 -21 64 -44
87 -44 27 0 34 23 15 49 -12 18 -12 25 -2 37 11 13 36 15 146 13 153 -3 178 5
131 46 -36 31 -126 49 -200 41 -32 -4 -58 -3 -58 1 0 15 204 87 307 108 36 7
48 30 34 68 -8 20 -6 28 12 45 37 33 63 42 122 42 55 0 117 18 129 38 3 6 -10
19 -29 31 -37 21 -45 45 -20 55 20 7 20 62 -1 70 -9 3 -31 6 -49 6 -19 0 -37
5 -40 10 -3 6 -22 10 -41 10 -29 0 -34 -3 -34 -24 0 -23 -44 -66 -67 -66 -11
0 -246 -142 -289 -175 -18 -14 -45 -25 -60 -25 -14 0 -58 -11 -97 -25 -95 -35
-483 -152 -529 -160 -30 -6 -37 -4 -42 13 -4 11 -1 32 5 46 11 22 10 29 -4 43
-20 21 -46 11 -126 -51 -54 -42 -57 -43 -91 -31 -20 7 -60 25 -89 40 -42 21
-62 25 -90 20 -56 -10 -134 -49 -179 -89 -36 -33 -42 -35 -66 -25 -14 7 -26
15 -26 18 0 3 16 19 35 34 41 33 45 60 10 83 -14 9 -25 26 -25 38 0 30 -18 46
-52 46 -18 0 -28 5 -28 15 0 8 6 15 14 15 12 0 22 19 40 73 5 15 19 17 115 17
l111 0 6 28 c3 15 7 32 9 37 1 6 26 18 55 28 67 24 150 75 150 93 0 7 -9 18
-21 24 -11 7 -30 21 -41 32 -15 15 -28 19 -51 14 -18 -3 -63 -10 -102 -16 -96
-14 -170 -36 -234 -71 -57 -30 -80 -34 -36 -5 14 9 25 23 25 31 0 21 -45 52
-88 59 -32 5 -42 12 -53 37 -7 18 -22 43 -34 58 -12 14 -28 43 -34 63 -7 21
-17 40 -22 43 -5 4 -9 -97 -9 -256z"/>
</g>
</svg>
