<?xml version="1.0" standalone="no"?>
<!DOCTYPE svg PUBLIC "-//W3C//DTD SVG 20010904//EN"
 "http://www.w3.org/TR/2001/REC-SVG-20010904/DTD/svg10.dtd">
<svg version="1.0" xmlns="http://www.w3.org/2000/svg"
 width="2400.000000pt" height="1600.000000pt" viewBox="0 0 2400.000000 1600.000000"
 preserveAspectRatio="xMidYMid meet">
<metadata>
Created by potrace 1.13, written by Peter Selinger 2001-2015
</metadata>
<g transform="translate(0.000000,1600.000000) scale(0.100000,-0.100000)"
fill="#000000" stroke="none">
<path d="M0 15626 l0 -373 45 -13 c25 -7 45 -17 45 -21 0 -5 16 -17 35 -26 32
-15 38 -15 89 2 51 17 56 18 80 2 32 -21 60 -22 77 -1 9 11 10 20 3 32 -13 20
4 72 24 72 7 0 27 -15 46 -32 93 -93 165 -118 139 -48 -10 26 -9 32 3 36 8 2
21 6 30 9 10 3 14 14 12 32 -2 22 3 32 25 45 15 10 27 22 27 28 0 6 11 5 28
-3 39 -20 215 -32 244 -16 13 7 25 16 28 20 3 5 24 -1 47 -12 56 -27 117 -23
121 9 2 12 10 22 18 22 8 0 14 10 14 25 0 23 4 25 44 25 47 0 59 12 49 48 -6
24 14 37 75 46 56 8 82 -6 82 -45 0 -26 3 -30 23 -27 13 2 22 10 22 21 0 11
12 24 31 32 29 12 50 39 45 59 -1 5 8 6 21 2 13 -3 26 -6 31 -6 4 0 7 -13 7
-30 0 -54 53 -85 101 -60 17 9 19 7 19 -18 0 -31 16 -52 39 -52 9 -1 28 -19
43 -40 22 -31 34 -40 57 -40 38 0 48 26 20 56 -14 15 -19 29 -14 43 6 20 8 20
28 6 12 -8 28 -15 35 -15 8 0 30 -13 49 -30 26 -23 43 -30 75 -30 l40 0 -4 60
c-6 80 14 79 29 -1 16 -85 59 -153 99 -157 30 -3 31 -2 38 46 4 31 14 56 27
68 20 18 21 18 39 -6 14 -19 27 -24 72 -25 30 -1 60 -5 66 -9 6 -3 23 -6 39
-6 15 0 45 -3 66 -6 41 -7 47 4 26 50 -9 20 -9 29 1 41 12 14 16 13 39 -8 32
-31 64 -47 89 -47 23 0 35 23 20 38 -8 8 -6 24 6 57 17 42 17 47 2 70 -21 31
-10 32 28 2 28 -23 29 -24 12 -50 -17 -26 -17 -27 9 -53 20 -20 33 -25 55 -21
24 5 29 2 34 -18 7 -28 31 -32 60 -10 39 30 104 16 128 -26 21 -36 82 -65 155
-75 62 -8 73 5 55 63 l-11 35 32 -6 c83 -15 145 -18 166 -7 28 15 61 69 61 99
0 45 25 16 33 -39 4 -30 16 -65 26 -79 16 -22 26 -25 77 -25 l59 0 8 48 c8 50
32 97 49 97 5 0 21 -9 35 -20 14 -11 36 -20 49 -20 20 0 24 -5 24 -29 0 -21 9
-37 32 -56 27 -23 38 -26 72 -21 50 7 70 -4 71 -41 0 -24 5 -28 31 -31 19 -2
36 3 44 12 18 23 27 20 65 -20 19 -20 40 -34 47 -32 8 3 14 25 16 54 2 40 -1
54 -18 69 -14 13 -20 30 -20 62 0 33 -6 50 -25 68 l-24 25 23 0 c18 0 27 -8
35 -30 8 -23 16 -30 37 -30 15 0 54 -5 86 -12 72 -15 89 -5 71 43 -9 24 -9 42
-1 78 15 57 13 54 37 46 11 -3 29 -22 40 -41 17 -28 26 -35 47 -32 21 2 29 12
43 56 10 29 21 55 24 58 3 3 28 -3 56 -13 39 -13 53 -15 62 -6 16 16 1 33 -56
70 -32 20 -45 35 -48 58 -3 16 -3 32 0 35 3 3 64 5 136 5 137 0 157 4 157 34
0 15 -27 22 -172 49 -181 34 -228 39 -228 22 0 -5 -24 -10 -54 -10 -30 0 -58
-4 -61 -10 -3 -5 -22 -10 -41 -10 -31 0 -34 2 -29 23 10 40 -26 81 -96 108
l-64 24 -2097 3 -2098 2 0 -374z"/>
<path d="M2002 14884 c-12 -8 -32 -12 -44 -9 -18 4 -37 -7 -85 -53 -77 -71
-83 -101 -28 -128 19 -9 35 -19 35 -23 0 -3 -10 -25 -22 -49 -19 -35 -27 -42
-43 -36 -37 12 -147 14 -160 4 -7 -6 -16 -27 -19 -48 -4 -20 -10 -46 -13 -56
-5 -19 -6 -19 -18 -2 -8 10 -23 16 -37 14 -19 -2 -24 -10 -26 -39 -3 -34 -6
-38 -47 -48 -59 -15 -58 -15 -39 18 21 35 13 61 -19 61 -13 0 -70 -20 -127
-45 -57 -25 -112 -45 -122 -45 -11 0 -53 11 -94 25 -71 24 -145 32 -178 19
-25 -10 -19 -37 19 -81 20 -23 31 -44 26 -47 -5 -4 -13 -35 -16 -71 -6 -55
-10 -65 -27 -65 -26 0 -74 -26 -81 -45 -11 -26 -34 -16 -87 36 -44 46 -56 53
-100 57 -61 6 -108 -12 -116 -44 -7 -29 2 -44 27 -44 25 0 24 -24 -2 -59 -29
-40 -22 -72 21 -93 33 -17 35 -20 32 -59 -4 -39 -7 -42 -56 -64 -28 -12 -62
-26 -76 -30 l-24 -8 27 36 c52 68 29 107 -65 107 -31 0 -45 6 -60 25 -11 14
-29 25 -41 25 -27 0 -110 -48 -156 -89 -18 -17 -45 -31 -58 -31 -13 0 -42 -14
-64 -32 l-39 -31 0 -753 0 -752 25 -16 c47 -31 88 -19 115 34 17 34 17 39 4
66 -8 16 -29 43 -46 61 -17 17 -27 36 -24 42 12 18 23 12 36 -18 15 -38 58
-78 93 -86 37 -10 36 16 -3 75 -37 56 -40 85 -8 75 53 -16 66 -16 81 0 13 13
15 21 6 36 -8 16 -7 26 6 45 20 31 13 54 -15 54 -13 0 -20 7 -20 20 0 28 62
53 95 38 33 -15 74 -2 87 28 11 23 16 25 52 18 23 -3 49 -10 58 -15 30 -16 67
-10 82 14 18 27 71 55 111 59 22 2 31 9 33 25 4 24 4 24 -113 48 -44 9 -88 19
-97 21 -25 7 -23 56 2 79 11 10 20 26 20 37 0 10 6 36 12 58 12 38 15 40 45
34 25 -5 39 0 67 21 41 31 40 38 -24 102 l-43 42 43 53 c24 29 47 57 51 62 5
5 19 1 35 -8 28 -19 50 -18 135 5 42 11 48 16 58 51 8 26 20 42 37 48 13 5 29
21 34 35 6 17 20 27 40 31 16 4 35 12 41 20 8 10 -1 16 -45 29 -34 10 -56 22
-56 31 0 8 -3 14 -7 14 -5 0 -16 7 -27 15 -17 13 -17 15 9 49 32 42 36 43 75
15 35 -27 91 -21 126 12 l23 21 3 -33 c3 -30 7 -34 36 -37 24 -2 32 1 32 12 0
9 9 16 20 16 11 0 20 -4 20 -9 0 -23 34 -19 69 9 37 30 38 30 74 15 20 -8 55
-15 77 -15 33 0 40 3 40 20 0 14 -17 28 -60 50 -64 32 -66 35 -48 75 14 31 6
40 -21 25 -27 -14 -26 -5 1 48 19 34 28 42 51 42 38 0 66 16 77 46 11 29 30
32 30 5 0 -30 85 -81 134 -81 65 0 88 10 83 32 -4 15 3 23 31 35 50 20 72 42
72 68 0 18 7 24 36 30 29 5 41 2 59 -15 50 -47 103 4 56 54 -14 15 -17 26 -11
36 6 10 3 21 -11 36 -16 17 -17 23 -6 32 10 8 29 6 76 -8 76 -24 137 -26 145
-5 4 10 -8 22 -37 37 l-42 22 33 9 c30 9 35 8 60 -22 15 -18 36 -32 47 -31 32
1 58 0 95 -3 32 -2 35 0 38 28 5 40 22 62 34 41 4 -8 22 -17 39 -21 18 -4 35
-16 41 -31 6 -14 22 -27 35 -30 27 -7 100 27 124 58 14 18 26 21 78 19 78 -3
79 12 4 47 -55 26 -66 27 -211 27 -135 1 -155 3 -164 18 -5 10 -19 26 -31 37
-14 14 -18 23 -11 30 13 13 165 50 205 50 16 0 63 10 105 22 57 17 79 20 92
11 10 -6 33 -14 51 -18 64 -14 119 -46 174 -100 30 -30 64 -55 75 -55 33 0 52
11 52 30 0 11 12 22 30 29 17 5 30 15 30 20 0 7 16 8 43 5 34 -5 47 -2 61 11
9 10 14 21 9 25 -4 4 -63 29 -130 55 -110 43 -125 47 -147 36 -20 -11 -28 -11
-45 1 -20 14 -20 15 17 39 32 22 37 29 37 64 0 22 8 54 17 71 13 23 14 34 5
43 -30 30 -172 -7 -294 -77 -52 -30 -63 -41 -63 -63 0 -25 -2 -26 -72 -32 -39
-3 -105 -4 -147 0 -55 4 -88 1 -121 -10 -24 -9 -45 -15 -46 -14 -2 1 29 22 67
47 51 34 69 51 69 68 0 30 -18 28 -99 -12 -66 -34 -68 -34 -64 -12 8 38 -34
77 -90 83 -34 4 -45 9 -38 16 33 33 -26 37 -83 6 -31 -17 -40 -18 -47 -7 -5 7
-9 16 -9 19 0 15 -29 17 -48 3z"/>
<path d="M7735 13940 c-48 -48 -66 -60 -91 -60 -23 0 -33 -5 -37 -20 -3 -12
-14 -20 -26 -20 -16 0 -21 -6 -21 -28 0 -16 -9 -37 -19 -46 -11 -10 -22 -30
-26 -44 -3 -15 -15 -37 -27 -48 -12 -14 -18 -32 -16 -50 3 -25 8 -29 38 -32
65 -6 66 -36 4 -102 -50 -53 -66 -59 -91 -34 -17 16 -68 13 -105 -7 -26 -14
-24 -59 3 -59 17 0 54 -14 67 -26 2 -1 -15 -26 -38 -55 -50 -64 -73 -106 -64
-120 3 -6 22 -18 42 -26 26 -11 32 -17 23 -26 -14 -14 -14 -54 -1 -62 11 -7 4
-25 -10 -25 -4 0 -13 14 -19 30 -5 17 -16 30 -23 30 -7 0 -19 9 -26 21 -10 16
-20 20 -40 16 -21 -4 -101 9 -120 19 -1 1 13 25 33 54 28 41 33 56 24 66 -6 8
-15 14 -20 14 -4 0 -20 12 -35 27 -24 24 -26 31 -20 83 8 65 -7 90 -42 71 -19
-10 -52 -77 -52 -106 0 -10 -10 -15 -30 -15 -42 0 -78 -19 -82 -44 -2 -16 -12
-22 -38 -26 -29 -4 -36 -10 -38 -32 -3 -22 2 -28 32 -39 42 -15 43 -21 15 -60
-11 -16 -19 -37 -17 -47 4 -24 55 -28 79 -6 15 13 25 15 51 8 26 -8 41 -24 70
-74 21 -36 38 -68 38 -71 0 -3 -11 -4 -25 -1 -29 5 -81 -14 -89 -33 -11 -30
33 -50 126 -56 88 -6 129 -21 95 -35 -11 -4 -17 -17 -17 -36 l0 -30 55 7 c30
3 55 3 55 -2 0 -17 -16 -31 -40 -34 -35 -5 -56 -51 -40 -88 13 -32 121 -101
158 -101 24 0 24 0 -7 35 -36 42 -37 46 -12 69 21 19 41 14 41 -10 0 -9 11
-30 24 -47 13 -18 30 -47 39 -64 l15 -33 -35 15 c-37 16 -90 19 -118 9 -8 -4
-23 -20 -31 -36 -14 -27 -14 -31 2 -49 23 -25 5 -24 -50 3 -41 19 -44 24 -39
50 5 24 2 30 -16 35 -24 6 -26 14 -10 30 9 9 3 17 -26 34 l-37 22 23 18 24 19
-37 0 c-40 0 -48 10 -23 30 18 15 20 54 2 68 -9 8 -29 3 -72 -18 -33 -16 -73
-31 -90 -32 -29 -3 -30 -1 -36 49 -4 28 -16 65 -27 80 -26 37 -84 68 -107 59
-15 -5 -17 -14 -11 -60 3 -30 9 -62 13 -72 11 -28 -14 -12 -39 26 -13 19 -33
36 -45 38 -18 3 -21 9 -20 50 2 43 0 47 -23 50 -14 1 -42 -6 -62 -17 -21 -10
-38 -15 -38 -11 0 5 -2 14 -5 22 -3 8 29 50 75 98 114 122 106 151 -24 85 -73
-38 -106 -44 -106 -20 0 8 -14 30 -31 49 -26 30 -33 34 -55 26 -31 -12 -81
-13 -88 -2 -3 5 4 21 15 38 22 34 24 71 5 97 -24 31 -44 19 -76 -42 -35 -70
-45 -79 -60 -51 -8 15 -19 20 -38 18 -23 -3 -27 -8 -30 -39 -2 -27 -8 -38 -23
-42 -28 -8 -21 -48 11 -64 29 -14 29 -15 11 -66 -18 -54 -8 -87 27 -87 17 0
38 -10 51 -24 l23 -25 -22 -30 c-12 -17 -26 -31 -31 -31 -11 0 -11 0 2 39 6
17 8 38 5 47 -7 19 -88 -85 -118 -152 -12 -27 -36 -56 -68 -79 -45 -33 -50
-41 -50 -75 0 -21 7 -45 15 -54 8 -8 15 -27 15 -41 0 -18 6 -29 18 -32 16 -4
18 -12 14 -55 -5 -50 -4 -51 19 -45 115 27 133 38 125 73 -5 19 0 23 40 33 50
13 64 33 44 64 -10 17 -10 22 4 33 30 21 81 25 119 9 41 -17 45 -26 21 -46
-10 -8 -14 -22 -10 -41 3 -15 1 -30 -4 -33 -13 -8 -5 -162 10 -180 21 -26 58
-18 75 15 9 17 18 30 22 30 4 0 21 -16 39 -35 25 -28 39 -35 68 -35 53 0 57
23 10 64 l-38 33 69 5 c85 7 164 -19 197 -65 12 -16 39 -38 62 -48 32 -14 37
-19 23 -24 -12 -5 -17 -18 -17 -45 l0 -38 -37 19 c-44 22 -86 24 -102 5 -7 -8
-23 -17 -36 -20 -42 -11 -32 -47 29 -104 30 -28 64 -54 77 -57 19 -5 24 -13
26 -43 1 -20 -3 -40 -10 -44 -7 -4 -46 -8 -88 -8 -74 0 -147 17 -177 42 -12
10 -10 13 8 20 16 6 20 13 15 28 -5 16 -2 20 18 20 37 0 40 11 10 43 -26 26
-28 35 -28 105 0 72 -1 77 -20 73 -11 -2 -35 -4 -53 -5 -18 -1 -47 -13 -65
-28 -30 -23 -35 -24 -58 -12 -13 7 -32 13 -41 14 -22 0 -88 -31 -88 -42 0 -5
-11 -13 -25 -18 -18 -7 -35 -30 -55 -72 -16 -34 -33 -64 -38 -67 -4 -3 -18
-20 -30 -37 -18 -26 -31 -33 -72 -38 -43 -6 -52 -11 -61 -34 -9 -22 -7 -29 10
-43 29 -23 26 -29 -11 -29 -25 0 -42 9 -71 40 -36 38 -37 42 -28 82 7 31 6 50
-4 75 -17 41 -36 42 -68 3 -19 -22 -34 -30 -58 -30 -26 0 -30 3 -21 12 7 7 12
22 12 34 0 17 -8 24 -30 29 -16 4 -32 11 -35 16 -10 14 -45 10 -51 -6 -9 -21
-19 -19 -65 14 -72 53 -84 25 -39 -92 23 -56 23 -58 4 -78 -10 -12 -30 -25
-42 -30 -21 -8 -23 -13 -17 -52 9 -56 27 -74 59 -59 13 6 27 20 31 32 7 23 25
17 25 -9 0 -32 35 -54 74 -47 19 4 40 13 46 21 15 18 40 3 40 -24 0 -17 124
-151 140 -151 5 0 10 -10 12 -22 3 -21 9 -23 70 -26 61 -2 68 0 87 23 17 23
22 25 41 13 19 -11 24 -10 40 10 46 55 151 -7 180 -107 7 -24 4 -31 -16 -41
-19 -11 -31 -11 -61 -1 -38 12 -38 13 -35 61 4 46 2 50 -23 56 -15 4 -54 -1
-93 -12 -37 -10 -75 -17 -85 -15 -31 4 -47 -18 -47 -67 l0 -45 -62 6 c-35 4
-113 9 -175 13 -80 5 -113 11 -117 20 -3 8 -18 14 -34 14 -15 0 -37 6 -47 14
-26 19 -42 11 -98 -48 -69 -72 -78 -95 -75 -174 3 -64 4 -67 29 -70 19 -2 31
4 43 22 19 29 46 35 46 10 0 -14 7 -16 45 -11 34 5 45 3 45 -7 0 -21 40 -66
59 -66 34 0 40 19 19 66 -21 49 -18 64 15 64 27 0 86 35 93 55 5 12 29 15 124
15 l119 0 3 -36 c3 -34 7 -38 44 -49 22 -6 70 -15 107 -18 65 -6 68 -5 77 18
5 14 16 25 24 25 28 0 66 -23 66 -41 0 -9 6 -19 13 -22 17 -6 14 -8 -105 -71
l-107 -57 -7 25 c-11 47 -59 44 -69 -6 -7 -30 -10 -32 -57 -42 -18 -4 -33 -18
-43 -41 -15 -31 -15 -36 -1 -57 15 -21 15 -22 -17 -33 -38 -12 -50 -50 -18
-60 35 -11 46 -33 27 -53 -9 -10 -16 -32 -16 -49 0 -30 0 -30 66 -36 36 -2 78
0 94 6 26 10 33 7 76 -26 77 -60 103 -43 38 24 -27 28 -34 42 -29 58 3 12 14
21 23 21 33 0 93 21 98 35 7 17 -33 73 -57 80 -25 8 -29 28 -16 70 8 26 21 42
47 55 19 10 60 37 90 59 44 33 62 41 90 39 22 -2 36 -9 37 -18 11 -90 23 -108
64 -95 15 5 19 16 19 60 l0 54 53 26 c28 14 68 35 88 46 19 10 64 22 100 25
l64 6 -55 -56 c-46 -48 -60 -56 -91 -56 -53 0 -61 -15 -42 -83 10 -33 22 -57
30 -57 9 0 13 -13 13 -39 0 -41 20 -58 52 -46 12 5 17 -3 22 -29 6 -32 10 -36
37 -36 23 0 32 6 40 28 24 60 36 77 58 80 21 3 22 1 16 -40 -6 -38 -3 -47 24
-77 l30 -34 58 11 c50 9 280 18 366 13 34 -1 34 -14 2 -77 -35 -69 -33 -84 11
-84 29 0 44 7 68 33 31 33 48 35 84 11 2 -1 -5 -17 -14 -36 -12 -22 -18 -56
-19 -103 0 -58 -3 -70 -17 -73 -10 -2 -18 3 -18 11 0 7 -11 24 -25 37 -31 29
-57 19 -65 -25 l-5 -27 -27 25 c-15 14 -32 27 -39 29 -9 3 -9 9 1 25 28 45
-22 71 -73 39 -21 -14 -47 -20 -75 -17 -7 0 -26 15 -42 32 -41 46 -64 34 -57
-27 4 -40 2 -47 -14 -51 -23 -6 -25 -40 -3 -64 15 -17 15 -21 -5 -52 -26 -43
-28 -93 -2 -108 11 -8 16 -19 13 -31 -4 -17 0 -19 24 -16 20 2 30 9 32 23 2
11 20 35 40 54 29 27 37 31 46 19 29 -37 58 -47 120 -41 55 6 60 5 48 -10 -8
-9 -12 -26 -10 -39 3 -20 8 -23 52 -23 39 0 51 -4 63 -22 18 -27 61 -31 70 -7
3 9 -2 29 -11 45 l-17 29 59 0 c67 0 74 7 65 63 -3 22 1 45 11 63 14 26 15 27
16 7 0 -12 -4 -25 -10 -28 -15 -9 -12 -41 6 -56 9 -7 22 -30 31 -50 8 -20 32
-54 54 -74 22 -20 38 -40 34 -43 -3 -4 -21 10 -40 31 -26 28 -42 37 -67 37
-45 0 -78 -25 -78 -57 0 -27 -15 -84 -31 -115 -14 -28 -11 -54 10 -72 10 -9
21 -30 24 -46 7 -35 43 -70 72 -70 12 0 38 -16 58 -36 26 -26 42 -35 57 -31
27 7 25 -2 -11 -46 -28 -34 -69 -50 -69 -28 0 13 -34 23 -54 15 -20 -8 -21
-34 -1 -60 8 -10 15 -32 15 -49 0 -22 7 -34 29 -46 23 -14 27 -21 23 -48 -2
-17 1 -38 8 -46 15 -18 51 -20 68 -3 9 9 12 6 12 -13 0 -17 8 -30 26 -39 l25
-14 -25 -13 c-20 -11 -26 -21 -26 -48 0 -30 4 -35 33 -43 30 -8 32 -11 29 -49
-2 -31 1 -42 14 -47 23 -9 38 8 67 79 23 56 28 60 60 63 30 3 36 -1 45 -25 7
-19 11 563 11 1865 1 1040 -2 1892 -6 1892 -4 0 -17 -10 -30 -22 -23 -21 -23
-21 -23 -1 0 33 21 83 35 83 22 0 25 25 25 186 l0 154 -25 -6 c-14 -3 -25 -3
-25 0 0 4 11 29 25 56 24 47 25 57 25 231 0 180 0 182 -19 165 -19 -17 -22
-17 -71 -1 -34 11 -70 16 -101 13 -27 -3 -52 -1 -55 3 -13 21 -44 5 -99 -51z
m156 -921 c19 -6 40 -13 47 -15 10 -3 10 -7 0 -24 -9 -14 -10 -27 -2 -48 9
-24 8 -28 -7 -29 -10 -1 -39 -16 -63 -32 -25 -17 -47 -31 -49 -31 -3 0 -10 13
-16 29 -11 25 -9 33 13 65 13 20 27 50 31 66 4 17 8 30 9 30 2 0 18 -5 37 -11z
m-1591 -58 c0 -5 17 -16 39 -24 44 -18 72 -67 52 -91 -12 -15 -5 -66 9 -66 14
0 -2 -85 -19 -98 -14 -11 -17 -8 -22 30 -5 32 -2 48 9 61 15 17 15 20 -4 35
-11 9 -31 32 -43 50 -12 17 -28 32 -34 32 -7 0 -21 12 -31 27 -19 25 -19 26
-1 39 21 16 45 18 45 5z m1178 -1024 c18 -18 43 -47 54 -66 23 -37 21 -40 -43
-61 l-38 -13 -68 58 c-37 32 -71 62 -76 65 -4 4 4 27 18 52 l25 45 47 -24 c26
-13 63 -38 81 -56z m-250 -222 c28 -13 52 -29 52 -35 0 -11 -29 -25 -72 -34
-21 -5 -28 -12 -28 -31 0 -13 5 -27 10 -30 16 -10 12 -18 -30 -53 -38 -32 -41
-32 -69 -18 -19 10 -34 29 -41 53 -7 20 -22 52 -33 70 l-20 34 21 6 c13 3 23
16 28 37 3 17 8 34 10 37 7 12 119 -12 172 -36z m351 -261 c28 -14 51 -29 51
-33 0 -4 -11 -13 -25 -19 -26 -12 -35 -54 -15 -67 7 -4 7 -12 0 -25 -16 -30
-12 -68 8 -74 33 -11 63 -140 44 -188 -6 -16 -11 -14 -35 12 -16 17 -32 30
-37 30 -4 0 -13 14 -20 30 -7 17 -18 34 -25 38 -13 8 -65 83 -65 94 0 5 6 8
14 8 31 0 38 27 17 69 -12 22 -21 54 -21 70 0 16 -5 33 -12 37 -7 4 2 14 23
24 45 23 40 24 98 -6z m-447 -211 c3 -22 -1 -50 -8 -65 -8 -15 -14 -36 -14
-48 0 -16 -6 -20 -35 -20 -19 0 -35 -3 -35 -7 0 -5 -13 -23 -28 -41 -26 -31
-29 -32 -60 -21 -33 11 -34 12 -27 63 9 71 14 86 31 86 8 0 31 16 53 35 23 21
49 35 64 35 14 0 29 5 32 10 12 20 23 9 27 -27z"/>
<path d="M2215 12221 c-33 -16 -76 -42 -95 -59 -32 -28 -36 -29 -58 -14 -21
14 -25 13 -50 -5 -15 -11 -38 -43 -52 -71 -14 -28 -35 -56 -47 -61 -13 -6 -23
-16 -23 -23 0 -7 -18 -24 -40 -38 -52 -31 -55 -67 -7 -104 l32 -26 -58 0 c-79
0 -117 -20 -117 -63 0 -25 -8 -38 -36 -61 -27 -21 -35 -34 -31 -52 5 -30 0
-37 -53 -64 -83 -41 -105 -74 -79 -122 6 -11 8 -31 4 -45 l-6 -26 -23 22 c-32
30 -87 27 -193 -10 -194 -69 -236 -111 -115 -117 34 -2 62 -6 62 -10 0 -3 -12
-16 -27 -28 -31 -25 -26 -54 11 -54 19 0 25 -6 28 -31 7 -44 -22 -62 -68 -43
-18 8 -49 14 -69 14 -32 0 -35 -2 -35 -30 0 -27 4 -31 57 -45 32 -9 64 -18 72
-21 11 -3 7 -12 -14 -34 -19 -20 -26 -36 -23 -53 5 -24 2 -25 -61 -31 -36 -4
-93 -13 -125 -19 -41 -9 -77 -10 -115 -3 -31 5 -74 6 -95 2 -35 -7 -38 -9 -33
-35 5 -23 1 -30 -20 -40 -20 -9 -29 -9 -42 2 -28 25 -77 46 -97 42 -75 -15
-75 -15 -72 -38 2 -12 13 -26 26 -32 12 -5 22 -12 22 -16 0 -3 -33 -12 -72
-19 -40 -7 -78 -15 -85 -17 -7 -3 -10 3 -6 15 5 19 1 20 -57 15 l-63 -6 24 32
23 31 -37 31 c-20 17 -37 39 -37 50 0 30 -47 37 -103 14 -11 -5 -6 5 13 23 33
33 40 76 14 86 -26 10 -50 7 -108 -15 l-55 -22 -1 -272 0 -273 48 5 c56 6 132
28 187 56 22 11 56 21 75 22 19 2 55 10 79 19 69 26 158 31 211 11 25 -9 59
-20 75 -24 21 -4 31 -14 33 -29 2 -14 10 -22 22 -22 25 0 90 78 90 107 0 32
10 28 43 -14 18 -25 27 -48 27 -74 0 -27 5 -41 18 -48 41 -22 55 45 27 122
-11 32 -11 38 0 33 8 -3 31 -8 52 -12 21 -4 83 -33 139 -65 55 -33 110 -59
123 -59 44 0 31 13 -179 180 -19 15 -32 31 -29 34 4 4 55 20 114 37 156 43
317 128 294 155 -8 10 -2 27 26 69 20 30 40 57 44 60 9 5 80 -27 81 -36 0 -3
-11 -11 -24 -18 -34 -19 -53 -56 -37 -75 11 -12 8 -20 -13 -41 -42 -42 -29
-85 26 -85 23 0 28 -4 28 -24 0 -31 41 -46 126 -46 66 0 117 16 111 34 -2 6
-30 15 -61 20 l-58 9 53 18 c72 26 116 25 124 -1 4 -11 17 -28 31 -37 21 -13
31 -14 70 -3 l45 13 -6 47 c-9 64 8 79 65 56 60 -24 61 -19 3 15 -47 27 -53
34 -53 64 l0 34 98 3 c75 2 97 6 97 17 0 16 -53 36 -120 47 l-46 6 20 22 c12
12 21 28 21 34 0 6 15 19 33 28 42 21 67 53 67 87 0 42 26 45 63 8 25 -24 28
-31 14 -31 -13 0 -17 -8 -17 -34 0 -35 17 -50 45 -40 11 4 15 0 15 -16 0 -36
52 -80 95 -80 28 0 38 5 42 20 3 11 9 17 15 14 5 -3 15 -1 23 6 12 10 11 16
-6 43 -36 59 -30 63 76 59 81 -4 95 -2 95 11 0 9 -19 24 -43 35 -38 17 -45 25
-56 65 -8 27 -10 62 -6 86 6 38 5 41 -22 46 -47 11 -53 14 -53 27 1 7 31 34
68 61 37 26 90 67 117 92 45 40 48 44 26 45 -13 0 -59 -20 -102 -45 -43 -25
-84 -42 -92 -39 -8 3 -39 1 -68 -4 -58 -11 -75 -7 -46 10 18 9 18 11 -4 34
-12 13 -21 25 -18 27 2 2 31 14 64 28 69 29 82 54 41 86 l-24 20 29 17 c33 20
38 52 9 61 -20 6 -58 -10 -122 -53 -33 -21 -40 -23 -66 -11 -23 10 -27 17 -24
39 3 18 -5 37 -24 60 -15 18 -28 44 -29 58 0 17 -8 30 -23 38 l-23 11 31 13
c16 7 44 28 60 47 41 46 39 82 -4 74 -5 -1 -15 7 -23 19 -8 11 -22 20 -31 20
-12 1 -5 12 23 38 95 89 93 103 -10 53z m-182 -615 c3 -8 21 -19 41 -26 32
-10 36 -16 42 -58 5 -33 3 -47 -6 -50 -7 -3 -26 -17 -44 -32 -30 -28 -30 -29
-12 -49 10 -11 34 -25 53 -32 l35 -11 -22 -23 c-25 -27 -137 -72 -200 -81 -25
-3 -60 -10 -79 -16 -28 -9 -35 -8 -43 6 -6 10 -22 16 -48 16 -29 0 -40 4 -40
15 0 8 -4 15 -10 15 -18 0 -10 18 11 23 16 4 20 12 17 34 -2 22 -9 29 -33 34
-26 5 -16 10 73 38 93 29 102 34 102 56 0 18 -7 26 -27 31 -27 7 -27 7 12 21
88 30 125 54 125 79 0 19 5 24 24 24 13 0 26 -6 29 -14z"/>
<path d="M3427 10643 c-15 -14 -5 -77 20 -131 39 -83 116 -156 180 -171 29 -7
58 -9 65 -5 7 4 1 -4 -14 -19 -16 -14 -28 -35 -28 -46 0 -25 -59 -37 -222 -45
-64 -3 -125 -9 -135 -13 -10 -3 18 18 62 48 133 90 95 119 -57 44 -175 -88
-350 -198 -360 -227 l-9 -26 -54 19 c-77 27 -234 26 -312 -1 -72 -25 -74 -25
-97 7 -19 26 -19 27 2 41 14 9 22 25 22 43 0 34 -11 42 -41 31 -15 -6 -32 -4
-52 6 -40 20 -118 10 -187 -26 -53 -26 -55 -29 -55 -67 0 -37 2 -40 44 -56 53
-19 37 -29 -50 -29 -43 0 -59 -4 -59 -13 0 -20 33 -47 58 -47 46 0 27 -19 -56
-55 -48 -21 -95 -48 -104 -59 -18 -23 -7 -22 -283 -14 -82 2 -95 0 -145 -26
-30 -16 -66 -39 -78 -52 -28 -27 -100 -64 -127 -64 -12 0 -5 9 23 30 27 19 42
38 42 51 0 21 -4 21 -70 17 -70 -5 -100 -19 -100 -44 0 -9 12 -14 32 -14 31 0
29 -2 -26 -28 -41 -21 -70 -45 -102 -85 -24 -32 -48 -57 -52 -57 -4 0 -26 18
-47 40 -38 39 -39 40 -26 77 12 32 12 38 -3 48 -9 7 -16 18 -16 26 0 18 51 69
69 69 31 0 143 45 166 66 13 12 39 25 57 29 42 8 237 97 238 108 0 4 -18 16
-40 26 l-40 18 25 13 c39 21 33 44 -10 37 -26 -4 -35 -2 -35 8 0 17 -31 35
-58 35 -56 0 -142 -77 -142 -128 0 -10 -15 -33 -34 -51 -31 -30 -37 -32 -77
-26 -40 6 -47 4 -73 -24 -28 -29 -31 -30 -48 -15 -12 12 -28 15 -53 11 -19 -3
-35 -2 -35 3 0 6 -16 24 -35 42 -33 31 -35 35 -25 69 9 34 14 37 56 44 52 7
114 31 129 50 5 7 22 15 38 19 36 8 34 24 -4 38 -29 10 -29 11 -11 24 13 9 22
31 27 64 4 27 11 50 17 50 5 0 20 8 33 18 l22 18 -39 12 c-34 11 -45 10 -87
-9 -57 -24 -88 -54 -93 -89 -1 -14 -9 -26 -15 -26 -7 -1 -19 -2 -27 -3 -8 0
-29 -25 -47 -53 -19 -29 -37 -55 -42 -56 -4 -2 -14 -17 -23 -34 -8 -16 -28
-34 -45 -40 -18 -6 -29 -17 -29 -29 0 -10 -2 -19 -4 -19 -2 0 -30 16 -62 35
-63 38 -104 45 -104 19 0 -12 -5 -14 -17 -8 -10 4 -39 9 -65 12 -40 3 -48 1
-58 -18 -14 -26 4 -53 30 -45 17 5 30 -16 34 -55 1 -11 13 -15 43 -15 27 0 52
-8 72 -22 31 -24 95 -31 106 -13 10 16 22 12 28 -10 3 -12 14 -20 26 -20 27 0
65 -58 50 -77 -6 -7 -13 -39 -16 -72 l-6 -60 37 -17 c22 -11 36 -25 36 -36 0
-24 23 -32 50 -18 12 6 29 9 38 5 12 -4 7 -11 -21 -31 -46 -31 -52 -74 -12
-92 41 -19 30 -44 -38 -87 -34 -22 -108 -75 -164 -117 -88 -67 -111 -80 -180
-97 -67 -17 -155 -47 -264 -89 l-26 -10 9 45 c11 50 2 169 -13 179 -23 14 -58
-7 -70 -41 -10 -27 -19 -35 -37 -35 -14 0 -30 8 -37 17 -10 14 -19 15 -46 7
l-34 -10 -3 -378 -2 -378 62 60 c66 63 139 126 173 148 17 11 27 11 60 -1 76
-27 94 -14 67 46 -8 18 -21 53 -27 77 -12 41 -11 43 14 61 53 37 78 45 151 52
69 6 77 4 96 -16 13 -15 38 -24 74 -29 63 -8 95 -24 134 -65 32 -33 60 -40 69
-17 3 7 -1 23 -9 35 -14 20 -14 21 9 21 27 0 47 19 51 47 2 12 13 19 34 21 30
3 32 6 32 40 0 21 -4 52 -9 70 -10 34 -2 42 19 17 7 -8 26 -15 41 -15 39 0 57
41 34 76 -8 13 -15 30 -15 38 0 13 4 13 28 -1 16 -9 36 -13 46 -10 15 6 17 15
11 56 -6 48 -6 49 34 82 44 35 51 53 25 67 -13 7 -2 21 59 72 l74 62 83 2 c51
0 85 5 87 12 14 41 29 47 145 54 93 6 123 11 156 30 41 23 54 40 31 40 -7 0
-1 11 13 23 14 13 29 34 33 46 7 24 3 24 93 4 15 -4 22 -1 22 10 0 23 98 42
134 26 14 -7 26 -16 26 -20 0 -4 12 -21 26 -38 22 -27 33 -31 73 -31 35 0 53
5 66 20 11 12 31 20 51 20 41 0 51 15 29 40 -17 18 -16 20 8 31 26 12 52 63
41 80 -3 5 -19 9 -36 9 -29 0 -30 1 -16 22 13 19 25 23 69 23 45 0 54 3 51 17
-2 12 9 18 46 23 40 5 55 2 86 -16 39 -23 96 -22 135 3 15 9 29 7 69 -10 63
-27 132 -30 132 -5 0 9 -10 27 -21 40 -25 26 -22 28 55 37 78 9 196 86 196
128 0 12 -9 10 -105 -26 -38 -14 -62 -20 -51 -13 10 6 32 23 49 37 23 19 43
25 86 26 140 5 323 32 431 64 19 5 49 7 66 4 20 -4 43 0 64 11 l33 17 24 -31
c27 -34 57 -39 91 -15 32 22 29 68 -7 104 l-28 29 39 6 c26 5 53 20 80 46 40
37 41 40 35 88 -15 127 -95 173 -201 116 l-46 -24 0 31 c0 42 -15 26 -32 -36
l-14 -48 -18 46 c-22 58 -41 61 -33 5 l5 -40 -41 41 c-79 78 -192 131 -220
103z"/>
<path d="M602 7898 c-135 -130 -127 -126 -156 -92 -21 25 -22 31 -10 49 8 10
14 28 14 38 0 15 -6 18 -32 15 -29 -3 -37 -10 -60 -57 -20 -39 -28 -70 -28
-106 0 -46 -3 -54 -32 -75 -18 -14 -41 -23 -52 -21 -10 1 -34 0 -52 -4 -31 -5
-34 -9 -34 -39 0 -19 -7 -39 -15 -46 -19 -16 -19 -29 2 -52 15 -17 14 -18 -30
-12 -25 4 -62 3 -81 0 l-36 -7 0 -227 0 -227 55 62 c46 51 64 64 108 76 28 8
73 12 99 10 42 -4 48 -2 69 26 21 28 28 31 79 31 47 0 64 5 96 28 21 16 53 35
69 43 33 17 37 46 13 96 -13 26 -11 31 16 71 29 40 33 43 67 37 43 -7 70 14
44 35 -9 8 -24 30 -34 51 l-19 38 24 16 c13 8 24 22 24 29 0 7 7 19 15 26 12
10 20 7 46 -14 17 -14 35 -26 40 -26 23 0 49 22 49 41 0 20 5 21 88 17 l87 -3
3 28 c3 24 -2 30 -50 52 -29 14 -61 25 -70 25 -9 0 -20 5 -23 10 -3 6 -34 10
-68 10 -50 1 -68 5 -91 25 -25 20 -27 26 -17 39 15 18 11 68 -7 74 -7 2 -57
-38 -110 -90z"/>
<path d="M8020 6979 c-71 -14 -93 -45 -119 -172 -13 -60 -45 -186 -71 -280
-65 -229 -103 -406 -134 -617 -30 -200 -45 -281 -56 -295 -4 -5 -13 -32 -20
-60 -7 -27 -21 -64 -31 -80 -10 -17 -23 -62 -29 -100 -17 -112 -94 -235 -147
-235 -40 0 -64 -34 -62 -88 1 -37 -33 -198 -46 -210 -1 -1 -37 9 -80 23 -63
21 -110 28 -256 38 -199 12 -219 8 -241 -47 -7 -16 -39 -83 -71 -149 -56 -117
-58 -118 -110 -142 -28 -13 -64 -27 -79 -30 -26 -7 -28 -4 -39 39 -14 57 -65
136 -87 136 -10 0 -28 -19 -41 -42 -21 -37 -22 -44 -11 -79 12 -34 11 -41 -3
-57 -10 -10 -17 -26 -17 -34 0 -10 -14 -18 -42 -22 -65 -11 -122 -49 -147 -98
-11 -24 -21 -37 -21 -30 0 6 -11 22 -25 34 -14 12 -25 30 -25 40 0 26 -26 74
-43 81 -30 11 -37 -16 -38 -142 l-1 -126 -55 118 c-42 88 -61 117 -75 117 -29
0 -33 -28 -14 -99 16 -62 16 -66 0 -78 -15 -11 -16 -18 -5 -55 7 -24 26 -60
42 -80 31 -39 40 -98 16 -98 -8 0 -58 -22 -113 -48 -87 -43 -110 -50 -184 -55
-47 -4 -101 -9 -122 -13 l-36 -6 25 73 c44 129 21 264 -63 375 l-28 36 24 45
c13 25 40 56 61 68 35 23 57 65 44 85 -10 17 -64 11 -106 -10 -55 -29 -119
-89 -136 -127 -24 -59 -17 -95 28 -138 45 -44 83 -105 93 -148 11 -45 -12
-107 -55 -150 -21 -22 -39 -44 -39 -49 0 -13 -44 -9 -64 5 -15 11 -20 35 -26
133 -11 164 -50 272 -133 361 -52 57 -87 81 -153 108 l-54 22 25 33 c34 46 58
114 52 146 -3 15 -1 37 4 48 5 12 13 57 18 101 12 107 3 117 -70 79 -30 -14
-77 -42 -106 -60 -78 -49 -180 -61 -294 -34 -90 21 -154 26 -163 11 -13 -20
94 -214 137 -250 10 -7 17 -28 17 -46 0 -35 16 -53 70 -80 19 -10 36 -19 38
-20 2 -2 -10 -22 -27 -45 -63 -87 -77 -193 -32 -249 11 -14 37 -52 56 -84 32
-52 35 -65 35 -131 l0 -74 -35 -6 c-45 -9 -95 -51 -95 -81 0 -25 37 -55 68
-55 26 0 36 -37 11 -43 -10 -3 -20 1 -23 9 -3 8 -16 14 -30 14 -27 0 -41 -26
-30 -54 11 -29 -10 -17 -35 20 -32 46 -121 126 -135 121 -19 -7 -10 -99 13
-146 13 -24 20 -46 17 -49 -4 -3 -28 -9 -54 -12 -26 -4 -54 -9 -62 -11 -11 -3
-16 5 -18 26 -1 17 -9 63 -18 103 -13 63 -18 72 -38 72 -35 0 -44 -17 -68
-121 l-22 -97 -55 -11 c-31 -6 -76 -22 -100 -36 -48 -28 -55 -30 -46 -15 9 15
-14 40 -36 40 -9 0 -27 -13 -39 -30 -12 -16 -30 -30 -41 -30 -30 0 -73 -25
-102 -60 -22 -25 -33 -30 -71 -30 -35 0 -46 4 -46 15 0 12 -10 15 -40 13 -30
-1 -46 4 -62 20 -21 21 -21 22 -4 41 10 11 53 32 95 46 42 14 90 34 108 45 47
29 89 120 66 144 -4 4 -7 37 -8 74 0 59 -3 68 -22 77 -12 5 -23 19 -25 30 -3
17 -14 21 -71 29 -46 6 -72 5 -79 -2 -7 -7 -20 -1 -43 21 -26 26 -30 36 -23
53 12 26 -6 100 -26 107 -8 3 -17 28 -21 56 -11 80 -65 131 -138 131 -55 0
-98 -58 -132 -175 -10 -33 -26 -66 -36 -73 -11 -7 -19 -22 -19 -32 0 -17 -5
-19 -43 -14 -37 5 -47 2 -74 -20 -41 -34 -50 -67 -58 -201 -5 -79 -12 -117
-24 -135 -10 -14 -21 -33 -24 -42 -5 -14 -18 -18 -62 -18 -30 0 -55 3 -55 6 0
4 14 29 31 57 24 39 28 52 17 58 -18 12 -36 11 -44 -3 -5 -7 -10 -4 -15 10
-15 40 -36 25 -45 -30 l-9 -53 -49 -3 c-47 -3 -51 -1 -98 45 l-48 47 0 73 c0
62 -3 74 -20 83 -24 13 -54 0 -70 -30 -10 -19 -11 -19 -53 0 -23 11 -52 20
-65 20 -21 0 -23 -4 -21 -34 2 -19 0 -39 -5 -43 -4 -4 -61 -6 -127 -4 -109 3
-119 2 -125 -15 -3 -11 -14 -37 -25 -60 -10 -23 -19 -46 -19 -53 0 -6 -7 -11
-15 -11 -9 0 -18 -7 -21 -15 -4 -9 -19 -15 -41 -15 -27 0 -36 -5 -40 -21 -5
-16 -12 -19 -41 -17 -31 3 -37 7 -42 33 -9 39 -38 95 -51 95 -16 0 -30 -50
-27 -94 l3 -41 -39 2 c-21 2 -66 16 -99 33 -33 16 -66 30 -73 30 -26 0 -25
-22 2 -51 22 -23 24 -29 11 -29 -10 0 -34 11 -55 24 -23 14 -62 26 -100 31
l-62 7 -40 -40 c-28 -28 -52 -41 -80 -46 -44 -7 -50 2 -20 29 11 10 20 22 20
27 0 15 -52 8 -85 -12 l-33 -20 -7 45 c-8 60 -28 54 -37 -11 -9 -60 -28 -76
-90 -72 -37 2 -48 7 -48 19 0 9 -7 22 -15 29 -20 16 -45 -3 -45 -35 0 -25 -30
-35 -101 -35 -30 0 -42 6 -58 29 -12 16 -21 39 -21 52 0 12 -7 30 -15 39 -13
15 -14 22 -3 45 12 26 10 30 -28 64 l-41 36 18 40 c10 22 19 49 19 60 0 27 19
45 46 45 12 0 24 6 27 14 8 21 -21 56 -47 56 -20 0 -25 6 -29 38 -3 22 1 46 9
59 29 46 14 73 -42 73 -14 0 -24 6 -24 14 0 21 -27 27 -44 11 -22 -23 -44 -18
-58 13 -10 21 -21 28 -52 30 -21 2 -43 -1 -49 -7 -16 -16 -27 -13 -27 8 0 17
-45 71 -59 71 -4 0 -17 -7 -30 -16 -22 -16 -23 -21 -18 -97 5 -79 5 -81 -29
-131 l-34 -51 0 -642 0 -643 4040 0 4040 0 0 2095 c0 1152 -3 2095 -7 2094 -5
-1 -28 -5 -53 -10z"/>
</g>
</svg>
