<?xml version="1.0" standalone="no"?>
<!DOCTYPE svg PUBLIC "-//W3C//DTD SVG 20010904//EN"
 "http://www.w3.org/TR/2001/REC-SVG-20010904/DTD/svg10.dtd">
<svg version="1.0" xmlns="http://www.w3.org/2000/svg"
 width="2400.000000pt" height="1600.000000pt" viewBox="0 0 2400.000000 1600.000000"
 preserveAspectRatio="xMidYMid meet">
<metadata>
Created by potrace 1.13, written by Peter Selinger 2001-2015
</metadata>
<g transform="translate(0.000000,1600.000000) scale(0.100000,-0.100000)"
fill="#000000" stroke="none">
<path d="M730 15987 c0 -25 60 -104 100 -132 27 -19 40 -35 40 -51 0 -33 67
-65 147 -72 56 -4 70 -1 126 26 34 17 80 38 102 48 l40 16 -30 15 -30 14 30
-8 c39 -9 83 -9 118 1 20 6 27 5 27 -6 0 -16 33 -49 70 -69 14 -8 58 -16 99
-19 l74 -5 29 -77 c37 -98 65 -121 155 -126 35 -3 69 0 76 5 32 25 45 22 73
-20 23 -33 29 -53 29 -97 l0 -55 43 2 c49 2 118 32 154 67 12 12 47 30 76 40
l53 17 35 -31 c19 -16 46 -30 59 -30 18 0 25 -5 25 -20 0 -35 72 -24 208 32
74 31 92 56 55 76 -14 9 -14 10 4 16 12 4 49 24 82 46 107 69 135 80 204 80
56 0 71 4 113 33 91 60 142 183 107 256 l-18 36 -1237 3 c-1026 2 -1238 0
-1238 -11z"/>
<path d="M7254 13134 c-12 -17 -20 -22 -27 -15 -20 20 -37 12 -37 -18 0 -21
-6 -30 -21 -34 -22 -6 -22 -6 4 -36 14 -17 27 -47 30 -68 7 -47 4 -114 -6
-130 -4 -6 -9 -59 -12 -118 l-4 -107 -66 -69 c-69 -73 -86 -119 -45 -119 23 0
60 33 60 54 0 7 12 21 26 31 l26 17 -7 -44 c-9 -53 -19 -73 -47 -92 -12 -9
-19 -16 -14 -16 4 0 -1 -16 -13 -36 -12 -19 -21 -41 -21 -49 0 -21 29 -45 56
-45 13 0 24 -3 24 -8 0 -4 -34 -41 -75 -82 -70 -69 -75 -78 -75 -117 0 -53 22
-63 74 -32 64 37 30 -3 -52 -62 -54 -38 -110 -94 -185 -182 -93 -110 -106
-130 -97 -147 18 -34 48 -23 136 50 57 47 90 67 101 63 12 -5 -25 -47 -155
-175 -113 -111 -169 -174 -165 -183 8 -21 20 -19 81 16 l55 31 -24 -30 c-13
-16 -62 -73 -109 -127 -59 -69 -84 -105 -82 -120 2 -12 -4 -28 -12 -35 -20
-16 -20 -49 -1 -57 20 -7 113 55 167 112 35 37 49 45 79 45 20 0 42 7 49 15 7
8 23 15 35 15 17 0 42 27 101 106 76 103 79 105 85 78 12 -55 9 -62 -33 -87
-55 -32 -90 -66 -85 -80 2 -6 14 -14 28 -17 23 -6 21 -9 -43 -76 -36 -38 -87
-94 -113 -124 -27 -30 -56 -59 -66 -64 -11 -5 -19 -14 -19 -19 0 -6 -29 -41
-65 -78 -70 -73 -85 -100 -85 -159 0 -33 -5 -42 -42 -69 -23 -17 -47 -31 -54
-31 -14 0 -27 -28 -18 -41 3 -5 13 -9 22 -9 13 -1 11 -6 -9 -23 -26 -21 -31
-38 -46 -136 l-6 -44 47 6 c25 4 46 5 46 3 0 -2 -7 -20 -15 -40 -15 -36 -15
-36 10 -48 20 -9 34 -9 61 1 20 7 38 11 40 8 7 -7 -136 -112 -253 -187 -65
-41 -103 -71 -103 -82 0 -28 27 -21 126 32 51 27 91 44 88 37 -2 -7 -45 -47
-94 -88 -73 -60 -90 -79 -90 -101 0 -26 3 -28 40 -28 62 0 73 6 353 217 75 57
137 101 137 98 0 -3 -38 -46 -85 -97 -92 -99 -106 -132 -59 -144 26 -7 64 8
112 42 12 9 22 14 22 11 0 -3 -39 -34 -87 -68 -104 -74 -150 -114 -168 -150
-8 -14 -47 -46 -87 -69 -80 -48 -158 -115 -158 -136 0 -29 31 -17 190 74 15 8
11 3 -10 -15 -19 -15 -60 -50 -92 -76 -66 -55 -74 -77 -26 -77 l32 0 -53 -54
c-39 -40 -52 -59 -49 -77 3 -21 8 -24 48 -23 63 0 145 29 214 75 32 21 63 39
70 39 6 0 20 -12 30 -27 17 -23 17 -27 4 -37 -73 -55 -345 -294 -437 -385
l-116 -113 47 4 c26 3 51 1 56 -4 5 -5 20 -8 33 -6 17 2 25 11 29 31 6 33 185
200 231 216 16 5 29 8 29 6 0 -2 -29 -27 -65 -55 -71 -57 -85 -90 -37 -90 28
0 119 50 184 102 31 24 39 27 44 15 9 -23 -42 -103 -92 -143 -30 -25 -44 -44
-44 -61 0 -17 -21 -47 -61 -91 -66 -72 -94 -116 -83 -133 3 -6 -11 -25 -32
-42 -22 -18 -81 -70 -132 -116 -84 -75 -93 -87 -90 -115 3 -30 5 -31 47 -29
26 1 73 17 120 39 79 38 194 84 211 84 6 0 5 -14 -3 -32 -12 -28 -20 -34 -58
-39 -61 -9 -249 -125 -249 -154 0 -12 5 -26 12 -33 8 -8 2 -21 -25 -51 -20
-22 -45 -57 -56 -79 -11 -21 -27 -44 -35 -51 -24 -20 -19 -46 12 -61 l27 -14
-30 -3 c-16 -2 -39 -8 -50 -12 -11 -5 -34 -14 -51 -21 -54 -20 -91 -62 -103
-119 -13 -63 -14 -112 -2 -144 13 -34 3 -40 -28 -18 -14 10 -45 24 -68 32
l-41 14 14 40 c10 29 11 48 4 68 -7 21 -6 34 5 51 8 12 18 43 21 68 5 38 3 49
-15 67 -17 17 -26 19 -41 11 -24 -13 -57 -59 -65 -93 -7 -25 -11 -27 -59 -27
-47 0 -55 -4 -88 -37 -66 -70 -52 -111 42 -123 41 -4 45 -8 48 -34 2 -16 -4
-56 -13 -88 -9 -32 -13 -63 -10 -68 10 -16 29 -12 48 11 23 26 32 22 62 -27
l25 -42 -25 -16 c-44 -29 -86 -76 -83 -93 6 -29 55 -56 112 -61 46 -4 57 -1
72 17 23 26 34 27 27 1 -3 -11 -60 -59 -128 -107 -93 -67 -121 -91 -117 -105
6 -23 25 -23 104 2 84 26 87 25 50 -13 -18 -18 -32 -38 -32 -43 0 -6 -9 -19
-20 -29 -13 -11 -18 -25 -14 -39 4 -17 -4 -29 -34 -53 -23 -19 -42 -43 -45
-61 -4 -20 -21 -38 -60 -64 -56 -38 -91 -91 -85 -131 3 -19 10 -22 50 -25 26
-2 63 1 83 7 41 11 43 6 13 -26 -18 -19 -20 -27 -10 -48 6 -14 19 -25 28 -25
22 0 195 90 300 156 48 30 98 54 113 54 18 0 47 18 92 59 48 44 76 61 105 66
l39 6 -32 -29 c-50 -43 -41 -102 14 -102 13 0 23 -5 23 -10 0 -7 -18 -8 -50
-4 l-50 7 0 -30 c0 -26 5 -31 31 -37 17 -3 52 -6 77 -6 45 0 46 -1 24 -15 -19
-14 -105 -45 -125 -45 -5 0 -5 5 -2 10 11 17 -39 11 -72 -9 -17 -11 -42 -33
-54 -50 -12 -17 -37 -36 -56 -42 -18 -6 -51 -26 -74 -45 -22 -19 -47 -34 -54
-34 -25 0 -65 -41 -65 -67 l0 -25 123 4 c67 3 131 8 142 12 16 6 15 4 -5 -13
-14 -11 -52 -30 -85 -42 -61 -22 -270 -123 -292 -141 -7 -6 -13 -19 -13 -29 0
-23 28 -24 85 -4 22 8 41 15 43 15 10 0 -2 -36 -15 -47 -58 -45 -62 -47 -83
-28 -20 18 -22 18 -78 -5 -73 -30 -159 -77 -217 -118 -52 -36 -60 -68 -20 -78
25 -6 25 -6 -15 -35 -37 -27 -40 -32 -40 -79 0 -28 3 -50 6 -50 3 0 26 14 50
31 40 27 48 29 76 20 68 -24 233 -6 245 26 3 7 10 10 16 6 6 -4 27 -9 45 -12
l34 -6 -102 -69 c-56 -38 -104 -76 -107 -85 -3 -9 -28 -39 -56 -68 -70 -72
-54 -102 36 -68 40 16 13 -26 -63 -96 -71 -65 -80 -78 -78 -104 3 -33 27 -42
75 -30 20 5 24 10 19 33 -5 25 3 34 89 102 151 118 213 157 274 169 98 20 98
11 -1 -40 l-98 -49 0 -44 c0 -39 3 -45 28 -51 l27 -8 -24 -6 c-35 -9 -37 -27
-5 -44 l27 -14 -24 -16 c-13 -10 -33 -17 -44 -17 -11 0 -36 -10 -55 -21 -19
-12 -55 -27 -80 -35 -25 -7 -71 -35 -103 -61 -56 -47 -57 -48 -51 -90 6 -40 5
-43 -18 -43 -29 0 -127 -24 -185 -46 -37 -13 -43 -20 -43 -44 0 -45 20 -53
113 -48 52 4 109 15 157 32 84 30 103 35 280 70 105 21 320 41 320 30 0 -2
-39 -15 -87 -30 -49 -15 -114 -40 -147 -56 -76 -38 -158 -114 -154 -142 4 -25
47 -35 62 -14 6 8 27 25 46 38 31 22 44 25 142 25 86 0 108 -3 108 -14 0 -8 7
-19 16 -26 27 -19 1 -51 -63 -76 -58 -23 -105 -25 -329 -16 -53 2 -94 -19 -94
-49 0 -15 69 -54 97 -55 15 0 15 -2 -4 -16 -13 -9 -23 -26 -23 -39 0 -24 1
-24 98 -24 107 0 228 17 390 56 88 20 111 23 129 13 28 -15 28 -21 3 -44 -58
-52 22 -137 84 -90 11 8 31 15 46 15 14 0 35 7 47 15 29 20 52 9 52 -23 -1
-15 2 -38 6 -52 5 -19 1 -28 -14 -37 -16 -10 -19 -10 -15 1 17 45 -123 48
-211 3 -27 -14 -61 -37 -75 -52 -13 -14 -40 -35 -58 -47 -36 -22 -36 -44 -1
-79 10 -10 19 -26 19 -34 0 -11 17 -15 73 -17 56 -2 72 -6 72 -18 0 -27 35
-22 71 9 19 17 40 31 47 31 7 0 43 18 81 40 47 28 80 40 107 40 21 0 40 -3 42
-7 2 -5 1 -42 -2 -83 l-6 -74 -47 3 c-26 1 -56 -3 -67 -9 -22 -11 -28 -44 -10
-55 6 -4 7 -19 4 -35 -9 -39 10 -70 40 -70 30 0 30 0 4 -44 -29 -49 -19 -96
20 -96 39 0 63 21 65 58 1 17 9 39 19 49 16 16 17 15 17 -35 0 -28 -11 -86
-25 -129 -14 -43 -29 -104 -32 -135 l-6 -58 -38 0 c-20 0 -86 12 -146 26 -97
24 -122 26 -238 21 -109 -4 -148 -10 -240 -38 -121 -36 -224 -42 -410 -25 -77
7 -105 5 -185 -13 -122 -27 -307 -57 -441 -71 -58 -6 -121 -15 -140 -20 -54
-16 -117 -12 -198 12 -106 31 -254 31 -371 -1 -130 -35 -234 -38 -360 -10 -97
22 -127 24 -395 25 -189 0 -319 5 -374 13 -119 19 -366 9 -491 -20 -88 -20
-123 -22 -485 -23 -414 -1 -590 10 -700 44 -53 16 -107 19 -465 23 -392 4
-407 5 -460 27 -39 16 -84 24 -152 28 -92 4 -104 3 -215 -33 -65 -20 -129 -41
-143 -45 l-25 -7 -3 -336 -2 -337 4035 0 4035 0 0 384 0 385 -72 36 c-40 19
-104 42 -143 50 -82 17 -202 19 -242 4 -24 -9 -242 -59 -258 -59 -3 0 -5 29
-5 65 0 64 -1 67 -55 137 -61 81 -83 128 -59 128 8 0 19 12 24 26 l10 27 118
-7 c132 -8 172 -3 172 24 0 10 7 23 15 30 19 16 19 54 0 70 -13 11 -12 15 10
36 29 27 30 33 11 79 -17 40 -8 45 40 20 16 -8 39 -15 50 -15 12 0 27 -7 34
-15 13 -15 80 -21 80 -7 0 13 -47 73 -71 90 -35 24 -1 35 52 16 85 -31 266
-29 276 3 2 6 -3 18 -12 27 -15 15 -15 16 4 16 19 0 21 6 21 64 0 63 -1 64
-31 75 -17 6 -49 30 -70 55 -25 28 -58 51 -94 66 -38 15 -61 32 -75 55 -22 36
-18 70 9 60 38 -15 116 -17 135 -2 30 22 14 42 -53 67 -50 18 -61 27 -61 45 0
12 -9 30 -20 40 -11 10 -20 30 -20 44 1 23 2 24 11 9 14 -24 56 -23 69 1 7 14
6 38 -5 83 -21 88 -20 89 21 30 19 -29 50 -62 67 -72 39 -24 87 -27 87 -4 0
17 -49 93 -74 113 -9 8 -16 17 -16 22 0 17 27 9 50 -16 13 -14 34 -25 47 -25
22 0 23 3 23 75 0 57 -5 86 -21 117 -20 40 -20 43 -4 70 12 22 18 63 22 162 6
137 6 136 -42 259 -6 15 -4 17 19 11 l26 -6 0 70 0 71 -45 32 c-25 18 -45 34
-45 36 0 2 18 -6 40 -17 21 -11 42 -20 45 -20 3 0 5 33 5 74 l0 74 -50 38
c-27 21 -50 39 -50 41 0 1 19 -4 41 -12 23 -8 45 -15 50 -15 5 0 9 44 9 98 l0
97 -57 60 c-31 33 -73 77 -92 97 l-35 38 83 -35 c45 -19 87 -35 92 -35 5 0 9
42 9 94 0 73 -3 96 -16 107 -14 11 -14 13 0 21 10 6 16 23 16 44 0 42 -58 123
-121 169 -39 29 -40 30 -16 33 42 5 51 25 37 80 -7 26 -18 53 -24 61 -12 16
-36 80 -36 99 0 7 -39 59 -86 115 -92 111 -229 305 -221 314 10 10 171 -74
214 -112 45 -38 69 -42 87 -13 8 13 6 26 -9 55 -10 21 -17 50 -16 64 2 21 -10
37 -57 78 -56 49 -89 100 -57 87 34 -13 85 -18 85 -8 0 6 -29 35 -65 64 -40
33 -59 54 -50 56 8 2 27 -6 42 -17 14 -12 51 -29 81 -37 55 -16 56 -16 73 5
l18 22 29 -21 c40 -29 72 -20 72 20 0 20 -8 35 -24 45 -15 10 -22 23 -19 33 2
11 -19 44 -60 91 -48 55 -63 79 -59 97 4 23 -17 48 -256 312 -47 51 -83 94
-80 97 2 2 17 -2 32 -10 16 -8 41 -15 57 -15 15 0 30 -4 34 -9 3 -5 27 -17 53
-27 26 -9 68 -37 93 -61 33 -32 53 -44 69 -41 48 7 44 28 -24 147 -63 109
-162 328 -153 337 7 7 132 -92 203 -162 66 -66 128 -114 145 -114 5 0 9 17 9
37 0 28 -9 47 -39 83 -32 38 -36 47 -25 58 8 7 14 21 14 32 0 26 -58 90 -81
90 -22 0 -32 18 -27 50 3 20 11 15 81 -44 l77 -67 0 39 c0 36 -8 46 -122 158
-68 66 -151 142 -185 169 -42 33 -63 57 -63 71 0 12 -9 33 -21 48 l-20 26 29
0 c23 0 32 6 41 28 10 24 9 38 -8 83 -28 74 -106 206 -166 280 -85 105 -82 99
-46 99 36 0 40 10 11 28 -16 10 -18 16 -10 38 6 14 10 48 10 75 0 27 4 49 9
49 29 0 254 -284 247 -312 -3 -15 12 -28 35 -28 16 0 10 38 -16 96 l-25 56 20
25 c11 14 20 29 20 33 0 5 -30 45 -67 90 -38 46 -78 96 -91 111 l-23 29 30
-18 c22 -12 33 -14 41 -6 8 8 -14 32 -84 88 -57 46 -96 84 -96 95 0 10 -13 45
-30 77 -23 46 -35 91 -50 198 -12 76 -19 140 -17 142 2 2 60 -57 128 -131 119
-129 141 -147 154 -125 9 14 -9 44 -81 137 -35 45 -64 83 -64 86 0 2 14 2 30
-1 29 -4 30 -3 30 34 0 23 -11 58 -30 91 -25 45 -28 54 -15 59 22 9 19 36 -10
85 -35 63 -31 67 20 20 32 -29 53 -41 75 -41 38 0 38 13 3 94 -39 89 -102 183
-170 257 l-61 64 32 0 c27 0 45 -14 120 -92 56 -59 92 -90 102 -86 23 9 16 33
-26 89 -22 29 -40 56 -40 59 0 3 14 5 30 5 25 0 30 4 30 25 0 14 -9 44 -21 66
-11 23 -19 42 -17 44 4 3 138 -61 160 -77 23 -17 35 -2 16 19 -9 10 -18 27
-20 38 -7 41 -101 97 -253 151 -19 6 -18 7 5 13 41 11 39 58 -8 150 -34 66
-112 282 -112 310 0 5 8 7 18 5 21 -6 56 49 49 77 -3 10 -1 22 4 25 14 9 11
37 -11 79 -11 22 -20 44 -20 51 0 6 -7 17 -16 24 -8 8 -19 21 -24 31 -8 14 2
12 48 -11 31 -16 73 -32 94 -36 30 -5 38 -2 47 15 10 17 7 31 -14 75 -36 75
-94 137 -164 175 -70 37 -68 34 -87 106 -18 72 -18 75 6 75 16 0 20 7 20 30 0
20 5 30 15 30 29 0 15 34 -44 105 -32 40 -62 87 -66 106 -4 18 -12 40 -17 49
-7 10 -3 35 11 78 12 35 19 67 16 73 -11 17 -34 9 -51 -17z"/>
<path d="M638 12879 c-10 -5 -18 -20 -18 -32 0 -13 -7 -32 -15 -44 -8 -12 -19
-50 -24 -85 -11 -79 -23 -108 -51 -133 l-23 -20 7 25 c16 57 18 90 7 90 -6 0
-11 15 -11 34 0 19 -7 42 -16 51 -14 14 -19 14 -37 2 -28 -18 -35 -55 -43
-202 -5 -94 -11 -128 -27 -157 -11 -21 -24 -38 -29 -38 -4 0 -8 67 -8 148 0
141 -1 150 -23 175 -33 39 -60 35 -80 -10 -31 -72 -39 -131 -35 -256 3 -111 6
-127 31 -171 15 -27 25 -51 22 -54 -8 -8 -10 -4 -55 103 -56 132 -90 229 -90
259 0 13 -4 26 -8 28 -4 2 -15 21 -23 43 -10 28 -22 41 -37 43 -32 5 -36 -16
-17 -107 9 -45 14 -89 10 -99 -18 -58 42 -277 100 -368 19 -30 35 -58 35 -62
0 -4 -8 -19 -18 -34 l-18 -28 -36 63 c-20 34 -50 96 -67 137 l-30 75 -1 -142
c0 -144 9 -185 52 -245 9 -13 10 -20 1 -29 -8 -8 -16 -3 -30 22 -18 34 -18 32
-21 -231 -2 -152 1 -280 7 -300 5 -19 13 -62 17 -95 4 -33 20 -91 36 -130 40
-96 70 -185 66 -197 -2 -5 -21 24 -42 65 -21 41 -49 85 -62 98 l-23 22 0 -354
0 -354 34 80 c19 44 35 81 35 82 0 2 4 3 9 3 9 0 51 -91 71 -152 7 -22 13
-121 15 -240 2 -157 7 -222 22 -288 11 -47 23 -93 27 -102 5 -11 4 -18 -3 -18
-17 0 -79 132 -116 244 -33 102 -49 124 -79 113 -12 -5 -16 -20 -16 -59 0 -65
32 -265 59 -371 l21 -79 -40 -47 -40 -47 0 -139 0 -139 74 114 75 115 11 -30
c31 -78 54 -149 80 -251 l29 -112 -31 -73 c-35 -83 -78 -231 -78 -268 0 -13
-3 -22 -6 -18 -4 3 -6 53 -5 110 1 67 -4 130 -15 178 -9 41 -16 95 -15 120 2
56 -15 76 -46 54 -44 -31 -90 -315 -79 -489 3 -55 6 -150 5 -210 l0 -108 46
37 c25 21 45 33 45 28 0 -5 -4 -13 -9 -18 -5 -6 -25 -49 -45 -97 l-36 -87 0
-303 c0 -261 2 -307 16 -326 14 -21 14 -25 0 -47 -13 -20 -16 -55 -16 -179 0
-146 1 -154 19 -149 31 8 35 -17 7 -46 -25 -26 -26 -33 -26 -129 0 -56 3 -102
8 -102 14 1 44 29 46 44 1 9 24 46 50 82 48 65 49 65 68 46 19 -19 19 -20 -15
-73 -49 -77 -81 -144 -107 -224 -13 -38 -29 -79 -37 -90 -10 -15 -13 -73 -13
-239 l0 -219 23 21 c13 12 28 22 34 22 18 0 23 -28 7 -40 -8 -7 -14 -18 -14
-25 0 -6 -11 -18 -25 -25 -23 -13 -25 -18 -25 -93 0 -75 1 -79 18 -66 9 8 42
36 73 62 l56 46 12 -26 c11 -24 9 -29 -16 -49 -15 -13 -31 -24 -35 -25 -15 -3
-23 -6 -53 -18 -16 -6 -36 -14 -43 -16 -19 -7 -16 -105 3 -105 44 0 132 42
162 78 l31 37 12 -26 c16 -35 2 -59 -55 -99 -58 -40 -124 -110 -125 -132 0
-33 12 -48 40 -48 21 0 36 10 58 41 30 40 90 90 125 102 35 13 29 -22 -12 -69
-44 -50 -55 -97 -25 -108 9 -3 36 3 61 14 26 11 48 18 51 15 3 -2 -2 -30 -11
-62 -9 -32 -18 -78 -19 -103 -3 -39 0 -45 17 -48 15 -2 25 9 44 50 l24 52 31
-39 c17 -21 36 -58 41 -83 11 -48 32 -69 59 -59 22 9 20 67 -4 137 -24 69 -24
70 0 70 16 0 20 7 20 33 0 43 -35 77 -77 77 -42 0 -52 29 -24 69 12 16 21 39
21 50 0 14 11 27 35 38 39 18 53 46 35 68 -18 22 -30 19 -101 -24 -64 -39 -78
-39 -79 0 0 10 11 19 28 22 44 9 95 50 121 96 43 78 2 78 -120 -1 -33 -21 -62
-38 -64 -38 -3 0 -11 13 -19 28 l-15 28 105 82 c108 86 127 116 80 128 -28 7
-60 -8 -141 -68 -33 -24 -65 -47 -72 -51 -15 -9 -43 41 -43 77 0 21 6 26 38
31 68 12 146 36 208 66 34 16 71 29 82 29 44 0 38 41 -8 60 -53 22 -218 -18
-326 -80 -49 -27 -64 -29 -64 -8 0 13 84 48 163 69 38 10 77 25 88 35 22 19
27 84 7 84 -36 1 -41 16 -23 76 9 32 28 81 42 108 l25 50 19 -25 c10 -13 16
-31 13 -39 -3 -8 -9 -38 -13 -66 -4 -27 -15 -61 -24 -74 -23 -32 -22 -67 2
-75 31 -9 45 3 76 67 17 34 35 60 40 57 12 -5 13 -109 2 -126 -5 -7 -6 -21 -2
-33 8 -26 51 -27 65 -1 9 19 11 18 39 -10 16 -16 39 -29 50 -29 29 0 27 38 -3
113 l-24 57 34 0 c67 0 134 44 108 70 -12 12 -89 14 -138 5 -28 -6 -40 -4 -47
6 -16 26 -9 36 31 42 51 7 90 31 90 57 0 32 -30 40 -106 29 -61 -8 -70 -8 -81
8 -22 29 -15 37 46 55 70 21 164 98 159 131 -9 57 -74 45 -195 -36 l-80 -54
-31 37 -31 37 22 20 c53 47 144 110 168 116 34 8 79 44 79 63 0 8 -11 19 -24
25 -19 9 -38 5 -102 -21 -43 -17 -112 -51 -153 -76 -40 -24 -77 -44 -81 -44
-4 0 -14 8 -24 18 -15 18 -15 20 1 34 29 25 160 88 278 133 93 35 111 45 113
64 5 32 -13 41 -84 41 -51 0 -74 -7 -142 -40 -110 -53 -212 -119 -212 -135 0
-25 -21 -27 -46 -4 -13 12 -24 26 -24 31 0 4 18 17 39 28 22 10 48 31 59 45
11 14 40 34 64 45 50 22 118 91 118 119 0 23 -19 31 -71 31 -55 0 -160 -70
-223 -149 -58 -72 -83 -83 -33 -13 19 26 47 71 61 100 26 52 66 186 66 223 0
20 -29 33 -53 23 -15 -5 -147 -220 -178 -286 -12 -27 -33 -36 -43 -20 -7 11
45 120 83 176 16 23 33 54 36 69 9 35 -11 69 -38 65 -21 -3 -23 3 -39 150 -17
141 -17 155 -2 177 13 20 25 25 56 25 33 0 39 -3 34 -17 -12 -45 -17 -128 -10
-189 5 -52 12 -73 31 -92 38 -38 47 -25 55 80 6 80 28 202 40 213 4 4 87 -11
94 -17 2 -3 -1 -29 -7 -59 -15 -67 -6 -279 13 -308 16 -26 54 -27 66 -3 18 33
43 164 49 256 l6 93 38 -10 c43 -11 46 -15 24 -43 -8 -10 -14 -23 -14 -29 -1
-5 8 1 19 15 11 14 20 23 20 20 0 -3 -7 -41 -15 -85 -19 -108 -19 -209 0 -225
8 -7 15 -21 15 -31 0 -27 38 -45 56 -27 21 21 44 158 44 264 0 103 0 103 59
83 24 -9 30 -15 25 -28 -4 -9 -9 -46 -12 -82 -3 -53 0 -74 17 -107 12 -23 21
-48 21 -57 0 -19 24 -20 39 -1 15 18 51 161 51 203 0 27 4 34 17 31 12 -2 20
-17 25 -48 10 -67 44 -151 73 -179 23 -24 26 -24 42 -9 15 16 15 23 -8 105
-13 48 -22 90 -22 93 1 3 9 7 18 8 20 5 59 -46 86 -111 12 -30 37 -47 69 -47
28 0 36 25 16 55 -25 38 -19 46 18 28 33 -15 65 -13 95 6 35 22 -26 82 -114
112 -60 20 -60 23 -1 48 57 24 74 44 54 68 -11 14 -27 13 -81 -3 -13 -4 -9 7
17 41 20 26 36 52 36 59 0 7 -16 20 -35 29 -35 17 -37 16 -88 -9 -29 -15 -80
-46 -115 -71 -44 -31 -68 -42 -82 -38 -11 4 -20 10 -20 15 0 4 -6 7 -12 6 -31
-3 -16 19 19 29 21 6 52 20 68 30 42 25 156 145 152 159 -2 6 -16 12 -31 14
-73 9 -206 -75 -266 -166 l-32 -50 -46 14 c-50 16 -64 24 -38 24 42 0 98 42
141 108 25 37 57 83 71 102 14 19 28 47 31 62 3 15 12 33 19 39 8 6 11 15 8
20 -11 19 -51 7 -109 -31 -86 -57 -166 -141 -211 -220 -32 -57 -44 -70 -64
-70 -54 0 -53 13 6 101 31 46 73 102 93 125 20 22 44 49 53 60 9 10 24 25 32
32 23 19 23 345 1 400 -15 34 -15 38 1 49 20 15 34 8 34 -15 1 -32 75 -193
110 -237 33 -42 62 -56 75 -35 3 5 -8 68 -24 139 -27 117 -29 136 -19 186 6
30 14 55 18 55 7 0 70 -181 70 -203 0 -16 20 -27 51 -27 30 0 34 45 16 154
-10 55 -16 100 -15 101 2 2 17 6 35 9 l31 7 1 -97 c0 -101 6 -118 37 -112 13
2 20 14 22 38 2 19 10 42 18 51 15 17 15 30 -2 122 -5 22 -2 27 15 27 14 0 31
-15 50 -47 60 -97 169 -115 134 -22 -8 21 -7 30 4 41 14 15 8 48 -8 48 -5 0
-9 4 -9 9 0 6 20 3 45 -6 25 -8 57 -12 70 -9 21 5 25 12 25 46 0 38 -2 40 -49
56 l-48 18 18 30 c27 47 34 102 15 109 -22 9 -42 -1 -61 -29 -11 -17 -25 -24
-47 -24 -25 0 -41 -10 -75 -47 l-44 -48 26 42 c14 24 25 47 25 52 0 18 -35 71
-47 71 -19 0 -54 -42 -60 -72 -9 -46 -18 -32 -21 35 -4 70 -11 83 -39 68 -16
-8 -21 -25 -26 -74 -7 -76 -46 -199 -65 -205 -16 -5 -9 61 14 143 22 78 2 168
-33 147 -7 -4 -14 -23 -17 -42 -5 -41 -52 -155 -78 -189 l-18 -24 0 46 c0 25
-4 48 -9 51 -5 4 -12 24 -16 47 -4 22 -13 43 -21 46 -8 3 -14 13 -14 23 0 27
-32 35 -50 13 -15 -18 -16 -18 -37 8 -22 26 -22 27 -3 44 17 15 19 26 14 69
-8 73 -19 104 -89 261 -34 77 -71 162 -80 188 l-18 48 44 45 c24 24 47 44 52
44 5 0 5 -6 -1 -12 -15 -19 -5 -143 18 -220 11 -37 39 -96 63 -131 23 -34 53
-84 66 -111 27 -52 63 -86 92 -86 27 0 24 37 -7 113 -14 34 -36 114 -49 177
-28 134 -43 174 -97 254 l-40 59 29 23 c15 13 30 23 33 24 3 0 43 -57 89 -126
107 -160 138 -194 180 -194 28 0 31 3 31 31 0 31 -42 126 -82 182 -12 18 -49
63 -81 101 l-59 70 28 24 c80 65 82 65 161 -26 56 -63 93 -86 161 -96 41 -6
42 -6 42 22 0 36 -43 102 -114 176 -31 32 -55 59 -54 61 2 1 25 14 51 29 l48
27 29 -33 c16 -18 30 -36 30 -40 0 -4 18 -19 39 -34 33 -21 40 -33 43 -62 3
-32 7 -37 31 -40 15 -2 27 -9 27 -18 0 -21 28 -17 40 6 15 27 3 86 -27 133
-13 20 -34 62 -48 93 -24 54 -24 57 -8 70 10 7 21 14 24 14 10 0 156 -77 188
-99 44 -32 71 -26 61 14 -1 6 -3 16 -3 23 0 8 -15 24 -34 38 -18 13 -49 36
-69 51 l-37 26 53 27 c50 25 55 26 94 13 22 -8 59 -15 81 -16 38 -2 40 -1 43
32 3 25 -2 37 -19 49 -22 15 -22 15 28 41 27 14 60 34 74 44 20 15 22 19 9 27
-23 15 -49 12 -125 -15 -70 -25 -115 -32 -115 -17 1 4 7 18 15 32 8 14 14 42
15 62 0 32 -4 39 -26 44 -38 10 -74 -32 -126 -142 -28 -62 -49 -94 -59 -94 -9
0 -22 -7 -29 -15 -43 -52 -19 54 35 152 32 59 35 68 21 78 -9 7 -33 9 -58 6
-42 -6 -43 -7 -54 -59 -7 -29 -24 -81 -39 -117 -18 -41 -26 -75 -23 -95 3 -22
1 -29 -8 -26 -7 3 -24 -4 -38 -15 -14 -11 -26 -18 -26 -16 0 2 16 44 35 91 41
101 46 171 16 226 -23 44 -51 52 -51 15 0 -14 -9 -38 -20 -53 -24 -33 -50
-139 -50 -207 0 -32 -7 -58 -18 -71 -18 -23 -72 -60 -72 -50 0 3 20 67 45 143
50 151 52 165 29 187 -41 41 -70 10 -99 -109 -13 -55 -33 -129 -44 -163 -15
-48 -17 -70 -10 -90 9 -22 6 -29 -18 -48 -15 -13 -32 -23 -37 -24 -4 0 -6 28
-2 63 5 53 10 298 7 350 -1 10 -9 17 -22 17 -14 0 -26 -12 -39 -42 -25 -58
-58 -222 -66 -336 -4 -51 -10 -88 -14 -81 -4 6 -11 59 -15 117 -9 130 -25 196
-70 287 -44 87 -70 119 -91 111 -17 -6 -16 -60 1 -100 8 -18 7 -18 -17 -2 -16
10 -38 46 -58 94 -17 42 -49 105 -71 140 -21 35 -39 67 -39 71 0 11 64 71 77
71 6 0 44 -22 84 -48 76 -50 129 -102 129 -128 0 -14 38 -34 66 -34 45 0 -25
124 -140 245 -31 33 -56 65 -56 71 0 6 11 21 25 34 14 13 25 19 25 13 0 -5 18
-37 40 -71 29 -46 53 -69 94 -92 34 -19 64 -46 77 -68 50 -82 80 -113 108
-110 38 4 37 32 -3 88 -20 28 -36 61 -36 75 0 14 -4 25 -9 25 -5 0 -24 21 -41
46 -27 41 -30 49 -17 62 13 12 20 9 54 -25 61 -61 153 -96 153 -58 0 20 -207
243 -243 262 -28 14 -28 15 -11 34 9 10 22 19 27 19 6 0 57 -45 112 -100 56
-55 109 -100 117 -100 21 0 38 21 38 46 0 26 -73 128 -118 166 -39 33 -40 38
-3 38 35 0 158 37 166 50 5 8 -36 23 -89 32 -15 2 1 17 58 57 81 56 144 127
127 144 -6 6 -49 -11 -115 -47 -74 -39 -106 -52 -106 -42 0 18 -38 46 -62 46
-12 0 -33 -23 -57 -60 -36 -58 -38 -59 -49 -38 -7 13 -13 64 -14 113 l-3 90
-30 0 c-21 0 -33 -7 -42 -25 -14 -28 -16 -158 -4 -265 5 -38 7 -72 5 -74 -7
-8 -24 82 -36 184 -13 106 -14 110 -40 119 -15 5 -30 7 -34 3 -10 -10 24 -318
37 -333 9 -11 8 -14 -3 -14 -9 0 -17 22 -24 69 -11 70 -73 272 -86 281 -4 3
-25 33 -47 65 -47 72 -92 123 -148 168 l-42 34 20 32 19 31 67 -71 c38 -39 97
-108 133 -153 68 -85 93 -100 115 -69 29 37 18 77 -45 172 -54 81 -179 211
-202 211 -10 0 43 79 53 80 3 0 16 -25 28 -55 20 -48 27 -55 50 -55 16 0 36
-9 46 -20 10 -11 29 -20 43 -20 23 0 24 2 20 45 -7 56 -46 138 -93 193 l-36
42 33 46 33 46 25 -30 c30 -35 60 -52 94 -52 36 0 34 31 -4 102 l-30 55 35 64
c25 46 31 67 23 76 -14 17 -28 16 -50 -4 -10 -9 -21 -13 -25 -10 -3 4 -6 41
-6 82 0 77 -5 84 -39 64z m-343 -972 c17 -22 50 -56 75 -74 25 -18 53 -40 64
-49 10 -9 29 -19 42 -23 24 -6 24 -9 28 -131 3 -133 20 -202 57 -236 19 -17
19 -18 -8 -46 -15 -15 -30 -28 -33 -28 -18 0 -47 197 -49 336 -1 45 -21 64
-43 40 -11 -12 -29 2 -105 81 -51 52 -93 101 -93 108 0 18 21 65 29 64 3 0 20
-19 36 -42z m-29 -214 c33 -32 72 -67 87 -78 34 -24 46 -70 47 -175 1 -41 5
-109 10 -150 7 -63 6 -78 -7 -92 -23 -26 -30 -22 -37 20 -7 48 -65 167 -100
210 -32 37 -27 41 13 11 38 -28 95 -23 99 9 4 28 -72 132 -157 217 -65 64 -75
85 -37 85 15 0 44 -21 82 -57z m-99 -334 c7 -2 17 -35 23 -74 6 -43 25 -100
48 -148 36 -72 37 -78 22 -92 -16 -14 -20 -13 -48 13 -24 22 -46 69 -92 191
-75 203 -77 219 -12 159 26 -25 53 -47 59 -49z m321 -648 c14 -20 30 -43 38
-51 7 -8 22 -24 32 -36 16 -17 20 -42 25 -145 4 -102 11 -142 38 -227 l33
-103 -37 -36 c-20 -21 -38 -35 -40 -32 -7 7 -97 412 -97 433 0 11 -7 27 -16
37 -9 10 -18 37 -21 61 -2 24 -9 52 -13 63 -5 11 -14 40 -20 65 -6 25 -14 54
-17 65 -7 25 59 -41 95 -94z m-224 -68 c23 -61 32 -73 50 -73 19 0 22 -4 18
-29 -3 -20 5 -45 24 -77 27 -47 28 -50 29 -218 1 -141 5 -183 22 -239 l20 -67
-39 -36 c-22 -20 -43 -32 -47 -27 -4 4 -27 85 -50 178 -23 94 -44 177 -47 186
-3 11 3 18 16 22 21 5 28 41 10 52 -5 3 -10 21 -10 40 0 19 -5 46 -11 62 -6
15 -12 60 -14 98 -3 39 -13 103 -24 144 -15 58 -17 79 -9 95 13 24 9 32 62
-111z m246 -818 c0 -8 15 -35 33 -59 44 -57 99 -190 122 -291 9 -44 24 -88 33
-97 22 -26 24 -136 2 -168 -29 -42 -61 -151 -67 -226 l-6 -71 -45 -22 c-24
-12 -46 -20 -48 -18 -2 2 5 39 16 83 21 80 36 237 35 354 -1 81 -48 230 -114
364 l-47 96 36 35 c38 38 50 43 50 20z m-144 -252 c26 -38 59 -95 74 -129 16
-34 42 -73 61 -88 22 -18 29 -30 22 -33 -8 -3 -13 -23 -13 -49 0 -31 -11 -66
-36 -116 -45 -90 -69 -195 -54 -246 20 -74 15 -89 -40 -117 -27 -14 -53 -24
-57 -23 -11 4 -4 56 16 123 10 33 19 70 19 83 1 12 17 56 36 96 20 41 36 81
36 89 0 16 -72 59 -92 54 -7 -1 -16 32 -24 93 -7 52 -20 129 -29 170 -9 41
-17 83 -19 92 -4 18 29 68 44 68 5 0 30 -30 56 -67z m298 -865 c3 -46 12 -106
20 -134 12 -47 12 -52 -5 -63 -11 -6 -19 -19 -19 -29 -1 -15 -47 -59 -54 -50
-2 1 -11 42 -20 90 -9 48 -25 111 -35 140 l-18 53 56 37 c31 20 59 37 62 37 3
1 9 -36 13 -81z m-251 -80 c4 -10 8 -10 15 0 7 11 11 8 15 -10 10 -35 8 -76
-3 -83 -6 -3 -15 -26 -21 -50 -8 -33 -19 -48 -40 -59 -27 -13 -30 -13 -39 4
-6 10 -10 52 -10 93 0 74 1 75 33 96 38 24 44 25 50 9z m-127 -1631 c3 -8 -9
-54 -25 -103 -16 -49 -35 -119 -42 -156 l-12 -67 -46 -15 c-25 -8 -47 -13 -50
-10 -2 2 17 48 42 101 25 54 56 130 68 168 12 39 27 76 32 83 12 16 26 15 33
-1z m100 -123 c12 -17 11 -25 -9 -54 -21 -30 -63 -151 -81 -231 -4 -20 -28
-40 -100 -83 -52 -31 -98 -56 -102 -56 -4 0 10 15 32 34 21 18 53 56 69 84 17
28 37 53 45 55 8 2 26 33 39 68 13 35 34 89 47 120 13 31 24 64 24 74 0 21 19
15 36 -11z"/>
</g>
</svg>
