<?xml version="1.0" standalone="no"?>
<!DOCTYPE svg PUBLIC "-//W3C//DTD SVG 20010904//EN"
 "http://www.w3.org/TR/2001/REC-SVG-20010904/DTD/svg10.dtd">
<svg version="1.0" xmlns="http://www.w3.org/2000/svg"
 width="2400.000000pt" height="1600.000000pt" viewBox="0 0 2400.000000 1600.000000"
 preserveAspectRatio="xMidYMid meet">
<metadata>
Created by potrace 1.13, written by Peter Selinger 2001-2015
</metadata>
<g transform="translate(0.000000,1600.000000) scale(0.100000,-0.100000)"
fill="#000000" stroke="none">
<path d="M5193 15970 c-78 -36 -143 -102 -183 -183 -55 -114 -58 -212 -9 -308
21 -42 21 -42 1 -62 -20 -19 -20 -19 -31 2 -9 17 -21 21 -56 21 -40 0 -48 -4
-64 -31 -21 -34 -19 -82 4 -129 7 -14 16 -62 20 -106 l7 -81 -29 -7 c-15 -4
-36 -15 -45 -23 -16 -14 -21 -12 -60 30 -50 53 -80 67 -149 67 l-49 0 -11 45
c-20 81 -80 112 -198 103 -97 -7 -152 -64 -209 -217 -21 -54 -26 -86 -27 -176
-2 -93 -5 -116 -23 -145 -19 -30 -26 -34 -57 -31 -41 3 -94 -26 -126 -70 -11
-16 -28 -29 -36 -29 -9 0 -35 -11 -58 -24 -24 -15 -70 -28 -114 -35 -79 -10
-111 -30 -111 -67 0 -39 35 -51 189 -64 210 -19 839 -2 1456 40 376 25 777 40
1173 44 174 2 324 6 332 9 8 3 55 10 104 16 49 6 94 15 99 20 18 18 -1 41 -34
41 -26 0 -30 2 -19 15 19 23 2 35 -50 35 -27 0 -51 4 -54 9 -3 4 -28 11 -54
15 -46 6 -51 10 -80 56 -44 71 -144 130 -220 130 -12 0 -41 12 -64 28 -37 24
-51 27 -124 27 l-82 0 -5 51 c-6 58 -43 137 -88 188 -17 20 -62 51 -100 70
-66 33 -68 36 -47 47 56 29 139 105 188 170 l53 71 -12 54 c-12 53 -66 136
-95 147 -9 4 -16 18 -16 32 0 37 -35 100 -69 124 -44 32 -111 52 -158 50 -29
-2 -47 2 -55 13 -32 38 -91 48 -296 48 l-197 0 -62 -30z"/>
<path d="M6047 6572 c-11 -12 -17 -35 -17 -65 0 -26 -18 -162 -41 -304 -23
-142 -43 -295 -46 -340 -3 -46 -10 -83 -15 -83 -99 0 -1165 -77 -1178 -85 -6
-3 -10 -43 -10 -88 0 -240 -45 -667 -72 -693 -17 -16 -296 -76 -513 -109 -93
-14 -173 -29 -177 -33 -3 -4 -12 -52 -18 -107 -12 -107 -34 -168 -69 -200 -20
-18 -48 -21 -289 -32 -475 -22 -530 -30 -567 -86 -8 -12 -26 -63 -40 -112 -15
-50 -40 -118 -57 -152 -29 -60 -122 -174 -157 -193 -10 -5 -74 -16 -142 -25
-197 -25 -417 -73 -485 -106 -75 -35 -183 -133 -259 -235 -85 -113 -137 -157
-254 -217 -131 -67 -179 -85 -356 -137 -77 -23 -252 -79 -390 -125 -281 -95
-465 -143 -670 -176 -174 -27 -165 -24 -165 -49 l0 -20 4010 0 4010 0 0 1569
0 1568 -72 7 c-40 4 -122 17 -183 30 -73 16 -175 27 -301 34 -105 6 -240 19
-299 29 -90 14 -108 20 -115 37 -9 24 -35 197 -46 296 -8 78 -23 111 -67 144
-53 41 -114 49 -255 35 -145 -14 -420 -7 -532 15 -41 7 -91 17 -110 21 -28 5
-39 2 -53 -13z"/>
</g>
</svg>
