<?xml version="1.0" standalone="no"?>
<!DOCTYPE svg PUBLIC "-//W3C//DTD SVG 20010904//EN"
 "http://www.w3.org/TR/2001/REC-SVG-20010904/DTD/svg10.dtd">
<svg version="1.0" xmlns="http://www.w3.org/2000/svg"
 width="2400.000000pt" height="1600.000000pt" viewBox="0 0 2400.000000 1600.000000"
 preserveAspectRatio="xMidYMid meet">
<metadata>
Created by potrace 1.13, written by Peter Selinger 2001-2015
</metadata>
<g transform="translate(0.000000,1600.000000) scale(0.100000,-0.100000)"
fill="#000000" stroke="none">
<path d="M7712 15430 c-64 -29 -162 -133 -201 -211 -18 -36 -37 -94 -44 -128
-11 -58 -16 -66 -69 -112 -32 -28 -70 -70 -84 -95 -24 -42 -28 -44 -70 -44
-25 0 -55 7 -67 15 -31 20 -236 24 -297 6 -25 -8 -59 -27 -75 -42 -28 -26 -38
-29 -98 -29 -38 0 -67 -4 -67 -10 0 -13 -70 -90 -82 -90 -6 0 -25 -7 -44 -16
-38 -18 -68 -65 -59 -93 12 -40 136 -67 186 -40 15 8 32 6 67 -5 26 -9 74 -20
107 -24 51 -6 60 -10 65 -31 9 -41 64 -63 140 -56 230 21 262 18 326 -31 53
-40 142 -71 294 -100 149 -28 324 -37 403 -21 l37 8 0 584 0 584 -42 -19 c-54
-25 -66 -25 -119 0 -58 26 -150 26 -207 0z"/>
<path d="M65 15183 c-71 -37 -65 29 -65 -734 l0 -687 47 -29 c27 -17 74 -39
106 -51 101 -38 449 -82 649 -82 l79 0 -68 -59 c-38 -32 -76 -67 -86 -78 -11
-13 -26 -19 -41 -16 -13 3 -38 -3 -55 -12 -21 -10 -37 -13 -44 -7 -7 5 -25 12
-40 16 -25 6 -26 8 -12 22 19 19 19 28 0 44 -35 29 -140 -50 -174 -130 -17
-39 -19 -55 -11 -70 6 -11 14 -20 18 -20 4 0 21 -9 39 -19 l32 -20 -21 -42
c-11 -23 -28 -73 -37 -110 l-16 -68 -79 -30 -79 -30 -29 31 c-26 28 -33 30
-76 25 -26 -2 -59 -9 -75 -16 l-27 -11 0 -576 c0 -644 -8 -585 68 -522 21 18
44 28 65 28 18 0 38 4 46 9 15 9 70 -15 84 -36 11 -17 68 -16 91 2 11 8 32 15
47 15 14 0 37 9 50 19 14 10 35 21 48 23 35 5 70 71 71 131 0 44 -4 52 -45 93
-25 24 -54 44 -65 44 -32 0 -24 22 26 70 61 60 79 102 59 140 -14 27 -13 30 6
44 42 29 132 121 155 158 14 21 31 63 39 95 8 31 16 57 17 58 80 56 99 65 116
56 14 -7 25 -6 41 5 18 13 27 14 51 4 15 -6 41 -11 57 -9 15 1 36 -2 46 -6 10
-4 47 -5 82 -3 93 8 150 44 181 114 13 30 23 60 21 66 -1 7 17 15 42 19 82 15
96 49 21 49 -47 0 -50 1 -40 19 18 34 12 68 -12 75 -20 5 -12 13 62 62 93 61
110 78 110 106 0 30 -45 68 -80 68 -26 0 -30 3 -25 19 3 10 2 26 -1 36 -6 15
-15 16 -65 11 -139 -16 -287 -76 -412 -168 -37 -28 -70 -48 -73 -46 -2 3 35
47 82 98 69 75 96 98 134 111 54 19 115 59 174 113 22 20 49 36 60 36 167 0
810 42 1239 81 191 18 350 29 354 26 3 -3 -4 -23 -15 -44 -69 -131 -73 -141
-74 -194 0 -44 -5 -59 -29 -86 -15 -18 -33 -51 -40 -72 -10 -34 -9 -44 5 -65
15 -24 22 -25 108 -28 l93 -3 0 -30 c0 -26 -7 -33 -45 -52 -25 -12 -65 -25
-89 -29 -44 -7 -44 -7 -37 20 7 29 -16 48 -36 28 -13 -13 -36 -5 -68 23 -34
30 -90 47 -146 44 -42 -3 -48 -1 -56 21 -11 31 -25 40 -64 40 -20 0 -36 7 -45
20 -11 17 -32 23 -102 30 -133 15 -187 -4 -187 -66 0 -30 4 -37 30 -47 29 -11
29 -12 23 -67 -3 -30 0 -73 6 -95 10 -37 8 -42 -24 -90 -19 -27 -35 -60 -35
-72 0 -12 -5 -33 -11 -47 -9 -19 -8 -35 6 -74 18 -49 18 -49 -4 -71 -26 -26
-27 -58 -1 -66 38 -12 20 -23 -69 -44 -115 -27 -118 -27 -126 10 l-7 30 -54
-7 c-31 -3 -54 -2 -54 3 0 11 -64 43 -84 43 -14 0 -22 26 -34 114 -6 44 -10
51 -37 58 -36 11 -97 3 -136 -17 -41 -22 -58 -89 -58 -231 l1 -115 34 -44 c19
-25 34 -55 34 -66 0 -32 59 -137 94 -166 17 -14 55 -37 85 -51 39 -18 49 -27
40 -33 -40 -26 -185 -61 -286 -70 -62 -5 -144 -18 -181 -27 l-69 -18 -42 37
c-22 20 -41 45 -41 55 0 30 -36 82 -69 98 -55 29 -102 30 -141 4 -31 -21 -36
-31 -42 -78 -4 -30 -5 -69 -2 -86 4 -21 0 -34 -10 -43 -9 -8 -16 -28 -16 -46
0 -18 -9 -44 -20 -58 -26 -32 -26 -57 0 -64 23 -6 23 -4 9 -74 -15 -77 1 -132
55 -184 22 -22 50 -45 61 -52 17 -10 10 -12 -43 -12 -69 -1 -121 -22 -161 -65
-20 -21 -33 -26 -76 -26 -30 0 -66 -8 -88 -19 l-37 -19 6 23 c3 13 2 30 -3 39
-13 24 -81 66 -123 75 -22 5 -53 20 -70 34 -17 15 -47 29 -68 32 -57 10 -62
13 -62 38 0 31 -16 45 -60 49 -30 3 -35 7 -35 28 0 31 -31 38 -74 15 l-31 -16
0 -4459 0 -4460 4040 0 4040 0 0 3103 c0 1890 -4 3219 -10 3402 -32 948 -31
932 -90 1135 -17 58 -34 113 -37 124 -5 16 -3 17 15 7 11 -6 30 -11 42 -11 18
0 20 4 14 23 -11 36 -172 376 -211 446 -24 43 -32 66 -24 69 6 2 25 15 41 29
37 31 42 85 10 105 -12 8 -20 24 -20 40 0 35 -24 58 -61 58 -26 0 -29 3 -29
33 0 43 -12 59 -52 73 -22 7 -34 18 -36 32 -6 38 -49 63 -105 60 -46 -3 -52
-6 -71 -39 -53 -93 -46 -93 -105 9 -51 90 -52 92 -66 224 -21 199 -55 349
-110 488 -14 36 -35 112 -45 170 -11 58 -31 146 -44 196 -20 72 -23 99 -16
131 5 22 9 65 8 94 0 30 3 84 7 120 9 80 -4 111 -83 193 -62 65 -88 75 -136
52 -19 -9 -43 -16 -54 -16 -21 0 -72 68 -72 96 0 33 -43 86 -84 105 -62 28
-121 24 -226 -16 -52 -21 -125 -40 -171 -46 -111 -14 -210 -52 -258 -100 -21
-22 -42 -39 -46 -39 -4 0 -20 -9 -36 -21 -25 -18 -30 -27 -27 -57 2 -29 8 -37
27 -42 17 -4 27 -15 33 -37 9 -34 57 -80 100 -95 20 -7 28 -17 28 -33 0 -25
54 -79 90 -90 31 -10 84 2 115 26 14 12 27 20 29 18 2 -2 21 -32 44 -66 l41
-63 -77 0 c-82 0 -122 -7 -122 -21 0 -19 60 -37 153 -47 54 -6 105 -16 113
-23 7 -6 57 -72 110 -148 98 -138 136 -180 210 -228 23 -15 49 -39 58 -53 l15
-27 -74 -51 c-40 -28 -97 -80 -126 -114 -63 -76 -129 -212 -129 -267 0 -31 -4
-40 -20 -44 -17 -4 -20 -10 -14 -33 7 -26 6 -26 -27 -21 -19 3 -99 13 -179 23
-80 9 -149 20 -153 24 -5 4 32 29 83 56 88 47 90 48 66 61 -17 9 -38 10 -70 4
-42 -8 -60 -1 -36 14 16 10 12 61 -6 76 -10 8 -13 21 -9 37 4 15 0 34 -10 49
-14 21 -23 24 -56 21 -36 -3 -39 -2 -39 22 -1 35 -51 87 -100 101 l-42 13 26
13 c30 16 32 24 10 66 -9 18 -20 39 -24 47 -5 10 -22 15 -54 13 l-46 -1 45 52
c43 51 53 75 38 90 -4 3 -7 21 -7 39 -1 40 -33 48 -75 18 -38 -27 -55 -28 -41
-2 7 15 6 23 -6 35 -8 9 -20 16 -26 16 -5 0 -40 -27 -76 -61 -79 -72 -102 -87
-102 -64 0 10 -10 15 -34 15 -48 0 -60 -19 -53 -90 4 -44 1 -62 -9 -71 -24
-20 -16 -49 16 -63 l30 -12 -22 -21 c-46 -40 -92 -67 -162 -92 -64 -24 -71
-29 -74 -56 -2 -17 -8 -34 -13 -39 -5 -6 -9 -23 -9 -38 0 -28 1 -28 63 -28 34
1 86 9 116 19 l54 19 96 -78 c53 -43 116 -102 140 -130 24 -29 57 -60 74 -70
29 -18 29 -18 8 -29 -14 -8 -21 -21 -21 -41 0 -28 2 -30 39 -30 21 0 58 11 82
23 l44 24 74 -20 c63 -17 72 -22 58 -32 -10 -7 -17 -22 -17 -33 0 -31 87 -46
229 -39 90 5 119 3 142 -9 16 -8 29 -19 29 -25 0 -5 37 -49 83 -97 78 -81 86
-93 115 -177 49 -143 67 -178 111 -218 37 -33 47 -37 95 -37 30 0 58 5 61 10
4 6 16 8 27 4 11 -3 32 0 45 7 23 12 27 11 44 -10 10 -13 19 -33 19 -45 0 -13
3 -25 6 -29 4 -3 16 -34 29 -69 12 -35 40 -101 63 -148 22 -47 45 -103 52
-125 6 -22 16 -50 22 -62 6 -13 8 -47 4 -85 -19 -193 -19 -222 3 -245 12 -12
41 -34 66 -49 52 -30 57 -44 16 -44 -16 0 -34 -7 -41 -15 -17 -21 -43 -19 -93
7 -50 25 -206 36 -555 37 l-212 1 37 56 c29 43 37 66 37 98 -1 81 -19 142 -55
184 -36 44 -61 51 -93 27 -11 -8 -35 -15 -54 -15 -19 0 -45 -9 -60 -20 -21
-17 -34 -19 -71 -14 -25 4 -56 14 -69 22 -21 14 -47 13 -84 -3 -15 -6 -18 -2
-18 22 0 41 -31 67 -70 60 l-31 -7 7 64 7 65 -46 31 c-43 31 -44 34 -35 64 5
17 12 39 15 48 3 10 2 29 -1 43 -5 21 -12 25 -41 25 -31 0 -35 3 -35 25 0 19
-10 31 -35 46 -36 21 -52 56 -41 85 9 24 -20 64 -46 64 -12 0 -58 -18 -102
-41 -96 -48 -166 -116 -185 -179 -16 -54 -6 -65 60 -64 l51 0 -3 -40 c-3 -61
-1 -66 23 -66 19 0 12 -11 -43 -67 -36 -38 -83 -90 -105 -118 -21 -27 -64 -76
-96 -108 -84 -86 -77 -137 19 -137 15 0 50 14 80 30 29 17 62 30 73 30 11 0
41 8 67 18 40 14 58 15 111 7 54 -9 73 -18 139 -70 157 -122 230 -155 345
-155 46 0 64 -4 74 -17 24 -32 15 -58 -34 -106 -42 -41 -52 -47 -79 -41 -18 3
-41 0 -56 -8 -48 -25 -230 -259 -272 -349 -56 -121 -15 -161 64 -64 47 58 67
60 73 9 3 -22 44 -48 283 -184 243 -137 285 -164 318 -206 21 -27 61 -71 87
-99 36 -37 50 -59 52 -85 3 -33 6 -35 41 -38 l37 -3 0 -48 c0 -56 12 -71 60
-71 27 0 43 8 65 30 36 37 45 38 45 2 0 -19 7 -33 23 -41 12 -7 61 -82 114
-174 88 -157 90 -162 69 -170 -13 -4 -29 -18 -36 -31 -10 -20 -18 -23 -45 -19
-46 7 -92 -20 -127 -78 -17 -27 -37 -49 -44 -49 -7 0 -31 30 -54 66 -38 60
-43 65 -73 62 -26 -2 -35 2 -49 25 -15 23 -24 27 -66 27 -53 0 -72 12 -72 46
0 27 -18 42 -60 50 -31 7 -37 2 -114 -78 -106 -111 -246 -290 -246 -316 0 -11
6 -22 13 -25 7 -2 -1 -11 -18 -19 -39 -21 -81 -66 -94 -101 -17 -43 -14 -104
5 -111 23 -9 20 -10 69 35 l45 42 -2 -99 -3 -99 27 -3 c21 -3 30 3 42 25 15
28 15 28 16 -29 0 -62 16 -81 63 -78 38 3 43 1 55 -25 12 -26 54 -35 67 -15 4
6 19 1 36 -13 28 -20 46 -23 202 -28 95 -4 184 -7 198 -8 21 -1 46 -24 117
-108 49 -60 123 -141 165 -180 72 -71 241 -286 288 -368 12 -22 29 -47 36 -56
10 -12 13 -39 11 -90 l-3 -74 -42 -3 c-42 -3 -43 -2 -43 27 0 38 -36 108 -62
122 -11 6 -33 9 -48 5 -24 -4 -29 -1 -34 19 -4 16 -14 25 -26 25 -11 0 -34 9
-52 20 -44 27 -113 27 -130 0 -11 -17 -14 -18 -29 -4 -20 18 -51 8 -98 -32
-26 -21 -42 -27 -70 -25 -47 3 -91 -34 -91 -77 0 -23 7 -32 35 -45 33 -16 34
-18 23 -42 -14 -32 2 -48 45 -42 24 3 27 0 27 -24 0 -14 7 -32 15 -39 8 -7 15
-23 15 -36 0 -13 9 -28 20 -34 11 -6 20 -21 20 -33 0 -22 46 -57 77 -57 27 0
68 -41 73 -73 4 -26 10 -33 32 -35 22 -3 39 8 87 57 32 34 64 61 71 61 6 0 35
-21 64 -46 53 -46 53 -46 58 -115 4 -55 12 -80 37 -120 17 -28 31 -56 31 -63
0 -47 -131 -368 -179 -436 -8 -11 -26 2 -95 68 -47 45 -90 82 -95 82 -16 0
-125 95 -161 140 l-33 42 22 45 c16 32 20 54 15 79 -4 24 0 45 15 74 21 40 28
105 13 126 -11 17 -48 34 -74 34 -25 0 -69 -36 -104 -84 l-21 -29 -12 79 c-20
127 -19 124 -46 124 -24 0 -25 -3 -25 -64 0 -36 -4 -67 -9 -70 -5 -3 -29 30
-54 73 -30 52 -70 101 -120 147 -69 64 -75 72 -81 120 -10 77 -35 154 -50 154
-8 0 -19 -7 -26 -15 -19 -23 -30 -18 -30 15 0 17 -7 47 -15 67 -8 19 -15 47
-15 61 0 14 -10 46 -22 71 l-22 45 74 143 c56 108 71 146 62 155 -6 6 -42 12
-79 12 -39 1 -74 6 -81 13 -16 16 -39 17 -47 3 -3 -5 -17 -10 -30 -10 -13 0
-33 -9 -44 -21 l-19 -21 -14 29 c-18 39 -59 43 -86 9 -13 -18 -30 -26 -50 -26
-37 0 -80 -34 -98 -77 -12 -29 -19 -33 -50 -33 -47 0 -91 -43 -100 -98 -6 -39
-34 -68 -34 -37 0 19 -44 20 -59 1 -7 -8 -11 -34 -9 -57 3 -39 6 -44 35 -53
28 -7 39 -5 73 18 50 33 58 33 62 -1 2 -19 11 -30 29 -37 39 -13 74 0 114 43
l36 38 113 -116 c145 -148 186 -197 193 -233 4 -19 15 -33 30 -39 22 -8 43
-44 43 -75 0 -11 -12 -7 -44 15 -38 27 -43 34 -42 67 1 23 -4 39 -14 44 -26
13 -84 32 -114 37 -17 4 -31 13 -34 26 -4 17 -11 19 -61 13 -30 -4 -66 -13
-78 -21 -28 -19 -43 -19 -43 -1 0 21 -25 26 -49 10 -31 -22 -28 -73 6 -100
l28 -22 -32 -19 c-18 -10 -33 -26 -33 -35 0 -21 79 -52 115 -46 29 6 40 -6 40
-41 0 -34 27 -49 59 -32 17 10 42 12 86 7 59 -7 61 -7 77 22 40 69 70 62 144
-32 24 -31 55 -60 69 -66 14 -6 38 -31 54 -56 15 -25 69 -78 120 -118 104 -84
137 -116 115 -116 -20 0 -118 41 -161 68 -27 17 -49 22 -80 20 l-43 -3 -2 -47
c-2 -47 -2 -47 54 -82 31 -20 61 -37 67 -39 15 -5 -23 -47 -51 -58 -32 -12
-28 -43 9 -74 28 -24 39 -27 83 -22 27 2 59 8 70 12 17 7 16 4 -6 -21 -43 -48
-69 -91 -69 -113 0 -49 69 -34 98 21 9 17 34 50 54 73 30 33 43 41 63 37 14
-2 36 3 50 12 13 9 26 16 29 16 9 0 68 -155 87 -228 17 -69 25 -83 77 -135 31
-32 74 -69 95 -84 20 -14 37 -30 37 -35 0 -5 -44 -80 -97 -166 -53 -86 -112
-183 -130 -214 -19 -32 -37 -58 -41 -58 -4 0 -20 16 -35 35 -15 19 -39 42 -52
51 -29 19 -65 10 -65 -15 0 -12 -15 -24 -45 -36 -65 -24 -142 -88 -150 -123
-3 -16 -19 -42 -35 -57 -17 -16 -30 -35 -30 -42 0 -19 100 -73 135 -73 l30 0
-38 -31 c-91 -75 -5 -137 104 -74 50 28 72 31 89 11 6 -8 24 -16 38 -18 27 -3
27 -3 26 -85 -2 -151 -78 -313 -197 -418 -42 -37 -245 -150 -254 -141 -8 7 32
86 42 86 7 0 43 9 79 21 76 23 106 57 106 120 0 45 -9 49 -110 56 -73 5 -76 4
-118 -28 -23 -18 -42 -39 -42 -45 0 -16 -47 -121 -57 -127 -5 -3 -27 7 -50 22
-28 19 -60 30 -100 34 l-58 6 -48 -47 c-31 -30 -47 -55 -47 -72 l-1 -25 -27
31 c-60 69 -127 74 -218 14 -34 -22 -70 -52 -79 -67 l-18 -26 -15 29 c-8 16
-26 41 -40 57 -32 33 -79 36 -152 7 -28 -11 -68 -20 -89 -20 -36 0 -39 2 -56
46 -10 26 -26 55 -36 65 -11 11 -19 26 -19 34 0 14 -29 35 -49 35 -7 0 -11
-30 -11 -80 0 -97 32 -196 81 -246 42 -44 99 -47 155 -9 45 31 56 28 68 -14 5
-17 26 -51 47 -75 l37 -42 -61 -13 c-276 -57 -581 16 -752 179 -111 105 -202
158 -314 181 -63 13 -63 13 -127 -20 -66 -34 -90 -56 -254 -225 -111 -114
-207 -190 -269 -211 -106 -36 -283 1 -420 87 -32 20 -58 28 -89 28 -49 0 -72
-10 -119 -51 -41 -35 -103 -52 -168 -47 -39 3 -65 14 -113 46 -94 64 -214 119
-293 133 -120 21 -213 -2 -378 -96 -74 -42 -157 -29 -331 51 -82 38 -89 39
-190 39 -100 0 -108 -1 -160 -32 -30 -18 -79 -44 -108 -59 -75 -37 -128 -31
-257 28 -96 44 -184 68 -251 68 -40 0 -44 10 -51 129 -6 93 -7 95 -63 185
-201 320 -257 505 -267 882 -7 222 7 385 44 524 72 273 68 384 -23 615 -24 61
-27 84 -28 180 0 129 21 228 109 495 46 140 59 169 80 178 34 16 101 78 125
117 13 21 32 36 50 40 17 4 48 25 70 48 53 56 53 86 1 128 -33 26 -40 39 -43
73 -3 37 -7 43 -45 61 -23 11 -51 32 -63 47 -13 17 -32 28 -53 30 -26 2 -33 8
-35 29 l-3 26 95 6 c66 5 108 13 135 27 72 36 163 169 205 296 l17 51 -56 114
c-30 62 -63 121 -71 130 -15 16 -12 19 35 39 32 14 70 43 105 81 30 32 61 59
69 59 8 0 27 14 41 31 21 25 26 41 26 88 0 48 -5 65 -28 97 -27 36 -28 42 -14
62 40 60 -34 112 -161 112 l-76 0 -3 37 c-2 30 -10 42 -35 58 -36 23 -49 64
-26 82 22 17 100 32 218 42 149 13 248 55 333 141 29 29 33 38 27 68 -13 68
-51 103 -127 117 -34 6 -36 9 -27 32 5 13 9 35 9 48 0 36 30 48 76 29 63 -27
153 3 212 70 36 42 47 85 39 167 -3 32 -1 62 4 65 14 8 11 98 -4 118 -7 10
-38 26 -67 36 -43 14 -58 25 -71 50 -18 38 -35 50 -71 50 -40 0 -37 36 4 71
l33 27 36 -42 c43 -49 123 -92 196 -106 41 -7 61 -18 94 -51 59 -59 133 -91
206 -87 l57 3 19 50 c29 78 20 201 -21 281 -64 125 -147 175 -309 182 l-101 5
1 31 c1 17 -2 45 -6 62 -8 31 -7 31 34 38 23 4 75 21 116 37 76 32 103 32 103
2 1 -46 74 -93 145 -93 86 1 184 61 220 136 21 45 14 74 -30 118 -23 24 -33
41 -28 52 4 11 -2 22 -16 33 -18 14 -23 30 -28 106 -6 86 -8 91 -41 122 l-34
31 24 12 c59 32 208 145 208 159 0 13 13 16 76 16 72 0 77 1 102 31 15 17 43
42 62 55 73 49 78 83 20 129 -44 35 -48 49 -25 84 10 15 13 34 9 55 -10 46
-62 71 -154 71 -67 0 -93 13 -53 26 98 33 223 112 223 140 0 17 -44 107 -72
147 -11 16 -19 30 -17 31 2 2 30 11 61 20 31 9 86 31 122 50 l64 34 29 -30
c35 -37 157 -98 197 -98 21 0 37 -9 56 -32 26 -31 30 -32 116 -36 l90 -4 37
35 c27 25 49 36 84 41 58 7 93 41 93 89 0 39 -39 125 -69 151 -15 13 -21 31
-21 58 0 54 -13 73 -60 92 -75 30 -170 12 -259 -49 -39 -27 -60 -35 -93 -35
l-43 1 35 27 c19 15 68 58 110 96 85 78 241 197 313 239 45 27 51 28 98 18
125 -27 246 -4 299 56 26 29 31 42 27 69 -4 24 0 37 14 50 12 11 19 30 19 53
0 35 2 37 90 80 103 50 163 103 192 168 17 38 18 49 8 68 -16 29 -53 47 -114
54 -44 5 -52 10 -69 41 -58 105 -110 140 -210 140 -36 0 -81 -7 -102 -16 -36
-15 -38 -14 -57 6 -11 12 -18 23 -17 24 2 2 38 11 79 21 109 25 110 25 110 40
0 17 -19 23 -104 35 -38 6 -73 14 -76 18 -3 4 -26 18 -52 31 -27 13 -48 27
-49 30 -1 3 -2 26 -3 50 -4 74 -62 93 -148 47 l-46 -24 11 28 c8 21 7 33 -4
51 -16 27 -14 78 4 84 7 2 55 11 107 20 122 22 174 45 200 87 53 88 -9 267
-112 319 -29 15 -68 23 -123 27 l-81 5 20 56 c25 73 26 187 2 258 -31 94 -108
133 -257 133 l-69 0 -27 41 c-63 95 -182 116 -332 59 -98 -38 -208 -115 -263
-183 -42 -53 -118 -202 -118 -231 0 -23 -16 -20 -63 13 -23 15 -80 48 -127 72
-77 39 -93 43 -173 47 -106 5 -154 -10 -233 -74 l-53 -44 -37 35 c-56 53 -134
87 -213 93 -67 4 -101 -3 -273 -58 -26 -8 -29 -5 -67 64 -53 96 -252 321 -323
363 -86 52 -170 64 -266 39 -29 -7 -54 -10 -57 -6 -2 3 -8 41 -14 84 -11 95
-41 144 -103 175 -52 25 -101 26 -143 4z m6564 -2556 c98 -57 257 -224 236
-246 -3 -2 -22 12 -44 32 -46 41 -92 67 -119 67 -12 0 -49 34 -95 87 -98 114
-93 128 22 60z m-250 -2744 c27 -18 48 -23 105 -24 66 -1 196 -14 169 -18 -24
-2 -65 -90 -70 -150 -5 -50 -2 -64 16 -90 18 -25 29 -30 68 -33 l47 -3 13 -59
c7 -33 25 -80 38 -104 14 -25 25 -56 25 -70 0 -23 -2 -24 -39 -18 -28 4 -42 2
-51 -9 -7 -8 -19 -15 -26 -15 -11 0 -11 5 -2 25 15 34 -5 58 -47 53 l-31 -4
23 35 c26 39 30 76 8 85 -25 9 -40 -2 -92 -67 -68 -85 -96 -134 -103 -178 l-5
-37 -63 38 c-35 21 -71 48 -79 61 -9 13 -37 47 -63 74 -26 28 -59 68 -73 89
-26 39 -26 40 -7 53 28 20 53 72 46 97 -7 26 133 308 149 298 5 -3 25 -16 44
-29z m881 -191 c-34 -90 -20 -142 34 -128 l24 6 6 -363 c7 -365 5 -403 -29
-520 -26 -87 -24 -87 -107 -24 -83 64 -249 211 -260 231 -4 8 1 47 11 87 37
141 43 186 31 209 -10 18 -5 41 26 132 21 61 59 152 84 202 39 78 49 91 72 94
27 3 80 58 107 110 21 40 21 18 1 -36z m-1252 -160 c3 -29 6 -32 37 -32 34 0
51 -18 118 -127 5 -7 -32 7 -80 31 -48 24 -111 51 -140 60 l-51 17 24 24 c13
13 24 29 24 35 0 12 39 30 55 26 6 -1 11 -17 13 -34z m1367 -1599 c17 -34 19
-110 6 -220 -7 -62 -16 -83 -62 -157 -30 -47 -57 -86 -60 -86 -8 0 -49 77 -60
113 -8 28 4 232 28 467 l5 55 64 -70 c35 -38 71 -84 79 -102z m-357 69 c15 -2
38 9 66 32 l44 35 7 -32 c4 -18 7 -36 6 -40 -1 -4 -8 -58 -16 -119 -8 -61 -17
-113 -19 -116 -3 -3 -12 1 -21 8 -20 17 -65 5 -65 -18 0 -9 11 -60 25 -112 14
-52 25 -98 25 -101 0 -4 -66 59 -146 139 l-145 145 24 26 c13 14 59 75 103
136 l79 110 5 -45 c4 -38 9 -46 28 -48z m-596 -80 c57 -7 59 -8 124 -82 97
-110 127 -150 114 -150 -7 0 -68 14 -136 32 -113 29 -124 34 -124 54 0 13 -9
28 -20 34 -11 6 -22 21 -26 34 -3 13 -16 28 -30 35 -23 10 -32 40 -17 55 4 4
19 4 33 1 14 -4 51 -10 82 -13z m993 -628 c9 -32 30 -89 46 -126 33 -76 34
-78 16 -78 -22 0 -90 54 -126 99 -26 33 -31 44 -21 56 9 11 9 31 -1 87 -12 73
-12 74 16 118 l29 45 11 -71 c7 -38 20 -97 30 -130z"/>
</g>
</svg>
