<?xml version="1.0" standalone="no"?>
<!DOCTYPE svg PUBLIC "-//W3C//DTD SVG 20010904//EN"
 "http://www.w3.org/TR/2001/REC-SVG-20010904/DTD/svg10.dtd">
<svg version="1.0" xmlns="http://www.w3.org/2000/svg"
 width="2400.000000pt" height="1600.000000pt" viewBox="0 0 2400.000000 1600.000000"
 preserveAspectRatio="xMidYMid meet">
<metadata>
Created by potrace 1.13, written by Peter Selinger 2001-2015
</metadata>
<g transform="translate(0.000000,1600.000000) scale(0.100000,-0.100000)"
fill="#000000" stroke="none">
<path d="M7875 15434 c-36 -20 -85 -64 -85 -77 0 -5 -11 -23 -25 -39 -14 -17
-31 -50 -37 -74 -9 -32 -19 -46 -39 -54 -36 -15 -95 -78 -113 -120 -8 -19 -17
-72 -21 -118 -7 -75 -10 -84 -31 -93 -17 -6 -24 -16 -24 -35 0 -21 -3 -25 -17
-19 -92 39 -158 45 -239 20 -27 -8 -50 -15 -51 -15 -2 0 -10 17 -18 37 -41 98
-125 133 -237 99 l-45 -13 -6 57 c-5 61 -36 142 -67 175 -10 11 -20 36 -22 55
-2 26 -11 40 -37 57 -43 29 -76 29 -105 -1 -14 -13 -42 -26 -66 -30 -23 -4
-59 -15 -79 -26 -46 -23 -151 -134 -151 -159 0 -10 -6 -32 -13 -49 -10 -23
-16 -29 -27 -22 -8 6 -36 10 -61 10 -37 0 -50 -5 -74 -30 -46 -48 -49 -35 -6
27 52 72 54 110 9 148 -31 26 -36 27 -109 22 -100 -8 -176 -37 -497 -191 -145
-69 -275 -126 -290 -126 -15 0 -117 14 -227 30 l-200 29 -108 -56 -107 -56 77
-43 c43 -24 106 -58 141 -76 34 -18 61 -36 60 -40 -2 -4 -79 -59 -171 -123
l-169 -116 -51 32 c-29 18 -75 52 -104 76 -58 50 -67 50 -123 3 l-35 -29 27
-23 c14 -13 32 -34 39 -48 11 -22 9 -27 -35 -66 -25 -23 -46 -48 -46 -54 0
-15 61 -5 101 16 26 13 28 12 53 -21 14 -18 26 -40 26 -48 0 -8 22 -35 48 -59
41 -38 56 -46 103 -52 37 -5 67 -2 94 7 22 8 194 91 382 186 l342 171 143 10
c133 11 148 14 211 46 52 27 67 32 67 20 0 -9 -4 -16 -10 -16 -5 0 -24 -13
-42 -28 -18 -16 -48 -34 -66 -42 -40 -16 -82 -74 -82 -112 0 -21 -5 -28 -19
-28 -10 0 -30 -10 -45 -21 -21 -16 -26 -28 -24 -53 3 -27 9 -34 58 -53 66 -27
154 -29 519 -12 186 9 259 9 305 0 34 -6 138 -12 231 -13 146 -2 173 -5 194
-20 28 -21 43 -22 127 -6 46 8 65 16 70 30 4 14 16 18 54 18 27 0 52 5 55 10
10 17 44 11 76 -12 27 -20 42 -23 142 -23 99 0 116 3 148 23 34 21 47 22 221
22 102 0 219 3 261 6 l77 7 0 587 c0 532 -2 589 -16 601 -26 21 -152 23 -189
3z"/>
<path d="M0 14165 l0 -876 53 8 c62 9 86 8 192 -5 44 -6 83 -11 86 -11 13 -2
15 -62 3 -79 -20 -25 -17 -79 6 -110 10 -15 22 -39 26 -54 5 -24 2 -29 -28
-42 l-33 -14 38 -1 c45 -1 45 -11 -3 -43 -47 -31 -54 -82 -16 -100 14 -6 26
-19 26 -28 0 -18 27 -30 70 -30 15 0 31 -5 38 -12 9 -9 6 -17 -15 -36 l-28
-23 38 3 c30 3 37 1 37 -14 0 -11 -14 -25 -35 -35 -37 -18 -50 -41 -40 -72 4
-14 -2 -21 -25 -31 -33 -14 -80 -64 -80 -85 0 -8 7 -18 16 -23 14 -8 11 -11
-16 -21 -18 -6 -42 -11 -54 -11 -12 0 -66 -16 -120 -35 -55 -19 -108 -35 -118
-35 -13 0 -18 -8 -18 -29 0 -16 6 -32 13 -34 10 -4 10 -6 0 -6 -19 -1 -18
-111 1 -111 7 0 83 20 167 44 180 51 267 65 280 44 15 -23 10 -34 -36 -66 -65
-46 -59 -81 13 -83 25 0 26 -1 8 -12 -132 -82 -186 -124 -191 -149 -9 -38 0
-48 46 -48 28 0 39 -4 39 -15 0 -9 10 -19 22 -24 20 -7 18 -10 -26 -40 -39
-27 -47 -37 -44 -59 2 -20 11 -28 37 -35 19 -5 46 -7 59 -4 l24 5 -23 -23
c-17 -15 -50 -27 -109 -39 -124 -24 -157 -34 -164 -53 -4 -9 -5 -17 -3 -19 5
-6 102 -22 172 -29 58 -6 61 -8 60 -33 0 -24 3 -27 35 -26 19 0 55 4 80 8 l45
8 -30 -17 c-39 -21 -55 -43 -55 -76 0 -19 6 -30 19 -34 16 -5 19 -12 14 -40
-4 -27 -2 -36 12 -41 14 -6 7 -12 -33 -30 -29 -13 -52 -29 -52 -37 0 -8 -11
-18 -25 -21 -20 -5 -25 -13 -25 -36 0 -35 19 -42 95 -38 28 1 75 1 105 0 l55
-2 -77 -42 c-52 -28 -78 -48 -78 -59 0 -26 -54 -102 -95 -133 -49 -37 -46 -56
8 -56 39 0 120 11 185 26 42 9 13 -16 -53 -46 -34 -15 -86 -31 -116 -35 -72
-9 -123 -22 -187 -47 -54 -21 -59 -27 -42 -59 9 -16 22 -19 80 -19 63 0 70 -2
70 -20 0 -12 -12 -26 -30 -35 -16 -9 -30 -20 -30 -25 0 -5 -13 -16 -28 -24
-42 -22 -90 -66 -123 -113 -18 -26 -38 -43 -49 -43 -16 0 -20 -7 -20 -34 0
-19 6 -37 13 -39 10 -4 10 -6 0 -6 -15 -1 -17 -37 -3 -54 45 -55 97 -146 88
-155 -17 -17 -5 -57 19 -60 22 -3 20 -7 -28 -78 -28 -42 -59 -94 -70 -117 -18
-41 -19 -130 -19 -3559 l0 -3518 4040 0 4040 0 0 4565 c0 2511 -3 4565 -6
4565 -3 0 -27 -18 -53 -39 -32 -27 -51 -53 -59 -80 -7 -21 -38 -72 -69 -111
-49 -64 -55 -76 -47 -99 7 -18 18 -27 37 -29 27 -3 26 -6 -53 -88 -78 -83 -95
-113 -88 -151 3 -15 15 -18 81 -21 l79 -3 -42 -45 c-33 -36 -41 -51 -38 -77
l3 -32 73 0 c39 0 72 -2 72 -5 0 -3 -34 -39 -75 -80 -69 -68 -76 -78 -73 -110
3 -35 3 -35 58 -40 l55 -5 -85 -57 c-121 -80 -160 -130 -160 -203 0 -32 3 -35
28 -35 15 0 58 7 97 15 38 8 71 12 74 9 3 -2 -37 -47 -88 -98 -80 -80 -92 -97
-89 -122 3 -26 7 -29 42 -32 36 -3 93 7 142 24 11 4 -19 -21 -66 -54 -114 -82
-230 -192 -230 -217 0 -11 4 -27 10 -35 9 -14 40 -12 198 17 33 5 33 5 -25
-49 -32 -30 -82 -71 -111 -92 -82 -59 -126 -153 -87 -186 15 -12 58 -10 140 6
27 6 25 3 -22 -32 -28 -22 -63 -56 -76 -77 -32 -48 -45 -116 -26 -129 14 -9
92 -5 139 8 22 6 19 0 -21 -42 -80 -86 -115 -137 -111 -163 4 -23 5 -24 89
-18 47 3 81 1 76 -3 -4 -5 -35 -30 -69 -57 -133 -106 -174 -147 -174 -174 0
-48 22 -55 108 -37 43 8 78 15 79 14 2 -1 -56 -53 -127 -115 -99 -86 -130
-119 -130 -137 0 -22 4 -24 49 -24 27 0 61 4 75 10 14 5 26 8 26 5 0 -2 -34
-32 -76 -67 -78 -64 -99 -96 -88 -131 5 -17 12 -19 58 -14 28 3 89 17 136 31
47 13 86 23 87 22 1 -1 -58 -53 -132 -116 -138 -117 -155 -141 -120 -170 11
-9 33 -11 72 -6 31 4 55 5 52 2 -2 -2 -46 -32 -98 -66 -94 -62 -266 -193 -287
-221 -8 -9 -9 -22 -3 -37 8 -20 13 -23 41 -17 18 4 60 18 92 30 33 13 53 18
45 11 -8 -7 -111 -95 -229 -196 -272 -231 -253 -213 -245 -239 11 -37 66 -27
174 31 58 31 89 44 79 31 -10 -11 -18 -25 -18 -31 0 -6 -60 -71 -134 -145
-118 -118 -133 -137 -129 -160 8 -42 43 -34 172 39 64 37 121 69 126 72 6 3
-11 -13 -36 -36 -51 -46 -72 -86 -67 -128 5 -47 39 -43 137 17 47 29 132 81
188 116 56 35 119 71 140 79 34 14 28 6 -62 -85 -55 -56 -126 -123 -158 -149
-49 -40 -57 -51 -55 -77 5 -54 43 -46 228 45 91 45 158 75 150 67 -8 -7 -51
-43 -95 -78 -44 -35 -135 -115 -203 -178 -113 -103 -123 -116 -120 -145 3 -28
7 -31 39 -34 44 -4 148 22 202 49 21 11 40 19 42 17 2 -2 -47 -45 -108 -96
-193 -160 -219 -187 -215 -219 5 -44 42 -42 137 8 45 23 83 40 86 38 2 -3 -37
-48 -89 -100 -112 -113 -186 -220 -186 -266 0 -33 0 -33 50 -33 38 0 61 7 99
30 52 32 162 80 183 80 15 0 -29 -38 -89 -77 -48 -31 -56 -62 -23 -84 19 -13
17 -16 -39 -60 l-58 -46 -114 -8 c-129 -8 -233 -32 -308 -69 -28 -14 -56 -26
-64 -26 -16 0 -57 86 -57 121 0 37 -47 125 -82 154 l-31 26 25 27 c32 35 44
109 22 140 -64 92 -241 51 -290 -66 -1 -1 -23 9 -49 23 -62 33 -106 32 -180
-4 -62 -30 -175 -130 -175 -154 0 -8 -7 -29 -16 -47 -16 -31 -18 -32 -62 -26
-25 3 -59 13 -75 21 -48 24 -66 18 -118 -34 -42 -43 -49 -55 -49 -90 0 -22 4
-43 10 -46 5 -3 19 -38 31 -77 22 -70 56 -118 85 -118 8 0 22 -17 33 -39 39
-75 148 -141 235 -141 45 0 61 -7 173 -81 67 -44 128 -77 134 -74 6 4 20 -2
32 -13 21 -20 22 -28 19 -156 l-3 -136 -92 -74 c-103 -82 -204 -185 -293 -296
l-59 -75 0 -90 c1 -96 19 -184 62 -293 20 -49 30 -62 47 -62 21 -1 63 -26 55
-34 -2 -2 -36 -15 -76 -29 -39 -14 -120 -46 -180 -70 -154 -64 -230 -85 -378
-107 -71 -10 -143 -24 -159 -30 -28 -10 -45 -2 -46 22 0 4 -14 15 -31 24 -30
15 -71 14 -115 -3 -8 -3 -17 5 -24 21 -5 14 -16 26 -25 26 -19 0 -19 2 8 80
l23 65 56 7 c101 13 197 79 242 167 22 42 20 56 -9 69 -64 29 -165 9 -256 -51
-22 -15 -28 -15 -45 -2 -12 9 -14 14 -6 15 8 0 12 9 11 23 -2 12 10 40 29 66
36 49 47 92 39 157 -10 91 -57 100 -135 25 -62 -59 -76 -55 -22 6 21 24 42 57
45 73 5 24 19 35 88 68 90 43 109 59 132 116 15 34 15 41 2 54 -8 8 -35 16
-59 19 -51 6 -117 -23 -256 -113 -45 -30 -87 -54 -91 -54 -5 0 -11 9 -14 19
-3 13 11 34 50 70 50 47 103 135 103 171 0 8 11 23 25 35 18 15 23 26 19 46
-6 27 -33 39 -90 39 -13 0 -24 3 -24 6 0 3 18 36 40 73 22 37 40 76 40 88 0
52 -76 63 -133 20 -19 -14 -37 -23 -41 -20 -19 19 2 143 29 169 13 13 15 27
10 66 -6 44 -4 53 18 76 47 49 97 143 97 182 0 45 -32 78 -83 87 -47 7 -76
-12 -108 -71 -20 -38 -29 -46 -51 -46 -25 0 -28 4 -28 31 0 24 -10 40 -42 70
-38 34 -40 38 -21 39 16 0 33 16 57 53 53 80 66 93 129 123 106 51 174 153
161 242 -8 58 -19 72 -53 72 -87 0 -248 -100 -302 -187 -20 -32 -23 -34 -30
-17 -15 38 -8 64 31 125 33 51 40 71 40 111 0 44 -3 50 -32 68 -18 11 -40 20
-49 20 -11 0 -18 11 -21 31 -4 24 11 62 66 170 l70 138 -20 28 c-47 63 -126
33 -180 -67 -15 -27 -31 -47 -36 -44 -15 10 -32 57 -34 94 -3 62 -17 125 -28
132 -6 4 -22 8 -36 8 l-26 0 11 73 c5 39 18 84 28 99 10 14 17 32 16 40 -2 7
1 23 5 36 5 16 1 32 -14 56 l-20 34 20 34 c11 19 37 49 58 65 52 42 78 109 66
172 -8 43 -11 46 -43 49 -39 4 -72 -23 -118 -95 -15 -24 -42 -52 -60 -63 -24
-14 -36 -31 -47 -71 -9 -29 -16 -67 -16 -84 0 -17 -7 -40 -15 -51 -8 -10 -15
-32 -15 -47 0 -18 -11 -40 -31 -60 -17 -17 -35 -40 -39 -51 -8 -19 -9 -18 -15
10 -5 24 -14 33 -35 37 -22 5 -28 13 -33 44 -13 75 -9 109 16 122 27 15 61 65
89 134 16 39 22 78 24 153 2 56 8 114 15 130 18 49 5 102 -38 146 -23 24 -45
38 -57 36 -20 -3 -54 -54 -104 -153 -14 -27 -29 -53 -34 -56 -5 -3 -11 -54
-14 -113 -2 -68 -9 -117 -19 -136 -28 -54 -57 -201 -51 -255 11 -94 47 -220
86 -298 l39 -78 -29 -72 c-43 -109 -53 -202 -35 -350 8 -67 17 -137 21 -154 6
-29 4 -33 -15 -33 -28 0 -55 -44 -77 -126 -16 -59 -19 -63 -41 -58 -30 8 -73
-20 -73 -46 0 -11 -4 -20 -9 -20 -16 0 -23 38 -12 59 15 26 14 236 0 264 -34
65 -94 93 -131 60 -70 -63 -66 -221 11 -372 21 -40 22 -48 12 -129 -6 -48 -11
-145 -11 -216 l0 -129 -23 21 c-13 13 -39 27 -57 32 -29 8 -37 7 -58 -13 -22
-20 -24 -28 -19 -83 7 -71 37 -166 80 -247 26 -49 28 -61 19 -83 -16 -34 -15
-109 2 -142 8 -15 26 -38 40 -51 19 -18 26 -35 26 -60 l0 -36 -24 50 c-28 58
-52 86 -107 121 -46 28 -96 29 -113 2 -14 -24 25 -142 69 -209 42 -62 43 -70
8 -63 -37 7 -85 -24 -106 -69 -28 -59 -17 -190 21 -247 9 -14 15 -34 14 -46
-2 -11 1 -39 6 -62 l10 -42 -34 0 c-19 0 -37 -1 -40 -2 -4 -2 -6 67 -5 153 3
181 -12 236 -79 311 -38 41 -40 42 -55 24 -8 -11 -17 -36 -20 -55 -3 -20 -13
-64 -21 -98 -7 -34 -14 -77 -14 -96 0 -58 39 -189 80 -270 38 -76 39 -81 33
-152 -5 -63 -9 -75 -29 -86 -20 -10 -27 -10 -43 5 -11 10 -21 34 -23 54 -4 43
-20 50 -47 23 -18 -18 -21 -33 -21 -119 0 -55 6 -119 14 -144 11 -39 11 -49
-1 -73 -10 -18 -13 -41 -9 -69 8 -53 54 -150 91 -195 26 -30 33 -33 70 -29 37
5 43 2 58 -23 9 -16 14 -29 11 -29 -2 0 -37 9 -77 19 -225 61 -487 50 -732
-30 -188 -62 -315 -61 -472 1 -63 25 -106 34 -223 45 -80 7 -183 19 -230 26
-47 6 -157 14 -245 18 l-160 6 107 44 c59 23 148 70 197 102 73 48 88 62 84
79 -3 11 -9 23 -14 26 -40 24 74 64 264 93 26 4 53 13 59 19 19 19 54 14 86
-13 36 -30 37 -30 101 -3 62 25 64 44 6 73 -48 23 -125 25 -278 7 -59 -7 -112
-10 -117 -7 -5 3 -1 20 10 38 42 69 27 71 -164 18 -93 -26 -106 -28 -92 -12
22 24 21 68 -3 76 -10 3 -77 -17 -157 -48 -228 -89 -388 -136 -462 -137 -22 0
-22 1 -8 22 19 27 21 89 4 106 -16 16 -72 15 -150 -2 -91 -20 -181 -29 -173
-16 3 5 12 10 18 10 26 0 257 120 257 133 0 8 -10 21 -23 30 l-22 15 30 13
c37 17 46 29 39 52 -3 9 -3 17 0 17 3 0 65 9 138 19 73 11 169 23 213 27 83 7
115 17 115 35 0 8 -49 10 -154 8 -112 -3 -152 -1 -149 7 5 13 80 49 175 84 89
33 130 96 94 145 -12 17 -19 18 -97 7 -148 -21 -261 -33 -265 -29 -3 2 11 23
31 47 37 44 43 68 23 88 -21 21 -76 13 -211 -32 -73 -25 -147 -47 -165 -51
-32 -7 -33 -6 -23 13 15 29 14 59 -5 87 -12 19 -13 27 -3 43 10 16 10 24 1 35
-9 10 -10 22 -3 39 7 19 28 30 103 56 51 17 131 40 178 52 152 36 340 150 340
207 0 27 -44 43 -115 43 l-52 0 5 30 c3 20 -1 32 -10 35 -9 4 -61 -8 -118 -24
-120 -36 -156 -39 -145 -13 44 106 34 115 -116 110 l-116 -4 11 28 c13 36 -14
68 -58 68 -29 0 -26 3 39 46 39 25 79 54 90 64 11 10 39 27 62 39 30 15 45 30
49 49 4 15 26 48 50 74 24 26 44 52 44 57 0 15 -42 51 -67 57 -12 3 -24 12
-27 20 -3 8 -16 19 -28 24 -17 6 0 9 62 10 59 0 80 3 70 10 -8 5 -29 10 -46
10 -35 0 -67 20 -56 36 4 6 19 17 33 25 15 8 47 33 73 56 34 32 45 50 44 70 0
16 5 43 13 61 10 25 11 39 2 62 -10 25 -9 30 8 35 42 14 79 101 50 119 -4 3
-44 -1 -88 -10 -101 -19 -296 -43 -303 -37 -2 2 1 13 8 23 17 29 15 54 -9 84
-25 31 -14 53 29 58 21 2 28 9 30 29 3 24 -3 29 -43 44 -25 10 -42 21 -38 25
4 4 42 20 83 35 99 37 130 59 130 94 0 15 -5 32 -12 39 -9 9 -5 17 16 37 18
16 26 33 24 48 -3 20 -8 22 -74 21 l-71 0 11 28 c8 23 7 31 -7 45 -16 16 -24
16 -155 0 -75 -9 -143 -17 -149 -17 -8 0 0 19 17 47 19 30 28 54 24 68 -6 24
3 27 124 50 18 4 38 12 45 19 19 19 234 102 315 121 113 27 183 107 119 136
-19 9 -52 3 -162 -26 -75 -20 -139 -35 -141 -32 -2 2 2 17 8 34 9 25 9 35 -2
48 -12 14 -31 16 -132 13 -136 -3 -136 2 -6 52 80 30 329 110 404 129 57 15
120 63 144 112 24 46 15 69 -26 69 -12 0 -26 5 -29 10 -12 19 -134 11 -223
-15 -97 -27 -354 -76 -361 -69 -7 7 30 33 74 53 26 12 76 21 146 25 130 7 223
26 355 71 56 19 116 36 135 36 29 2 30 3 7 6 -22 3 -27 10 -30 36 -3 29 -7 32
-39 35 -21 2 -64 -4 -97 -12 -78 -21 -150 -12 -177 21 -11 13 -37 30 -58 37
l-39 13 36 21 c43 25 73 77 56 97 -6 8 -33 15 -58 17 l-47 3 68 38 c134 76
166 126 113 176 l-25 23 60 30 c56 28 60 32 57 62 -2 24 -8 32 -28 35 -22 3
-98 -10 -154 -26 -16 -4 -18 -1 -13 23 5 30 -23 63 -55 64 -10 0 -27 9 -38 20
-15 15 -39 23 -86 27 -35 3 -67 10 -70 14 -3 5 -1 9 4 9 12 0 137 85 189 128
49 41 54 59 18 68 -43 11 -18 22 67 29 89 7 215 30 261 47 34 13 77 63 77 89
0 28 -25 34 -88 21 -30 -6 -59 -9 -65 -5 -6 3 37 17 94 29 64 15 136 39 187
64 122 61 110 86 -50 101 -56 5 -107 14 -112 19 -6 6 -108 10 -243 10 -208 0
-270 7 -215 23 53 16 265 102 352 143 98 46 101 48 98 78 l-3 31 -103 6 c-57
4 -104 8 -105 10 -26 46 -17 44 -150 41 -137 -3 -137 -4 -130 59 4 29 16 46
56 81 29 24 75 57 103 73 37 20 57 40 68 65 29 67 22 79 -58 95 l-49 10 40 27
c45 30 195 72 404 113 121 24 138 30 148 51 9 20 18 24 52 24 66 0 43 24 -27
28 -32 2 -63 7 -67 11 -5 5 56 21 134 37 85 17 144 34 147 42 10 28 -14 33
-104 23 -165 -18 -544 -42 -555 -35 -7 4 8 14 36 25 51 19 95 54 95 76 0 10
-20 13 -77 13 l-78 1 37 20 c36 18 68 62 68 92 0 8 -10 18 -22 24 -19 8 -13
12 43 27 115 33 171 72 189 134 12 44 -8 53 -132 59 l-99 6 37 21 c44 25 70
59 79 104 6 30 4 33 -24 43 -51 18 -40 43 39 85 45 25 70 44 70 55 0 18 33 32
105 44 52 8 110 47 130 85 20 39 13 50 -32 50 -65 0 -335 -48 -426 -76 -17 -5
-17 -4 2 15 24 24 36 64 27 87 -6 14 -19 16 -98 12 -78 -5 -94 -3 -104 11 -10
13 -5 19 34 41 42 22 47 29 48 59 0 30 5 37 40 52 21 10 56 18 77 18 25 1 40
6 44 17 8 22 -14 34 -69 34 -41 0 -47 3 -50 23 -3 21 -6 22 -101 19 l-99 -3 7
40 c4 23 3 41 -2 41 -4 1 -21 11 -37 24 -27 22 -27 25 -10 34 11 6 89 26 174
46 148 35 230 63 230 78 0 4 -45 9 -101 10 l-101 3 40 30 c43 32 72 72 72 100
0 9 -16 33 -36 53 -35 35 -36 37 -24 73 7 20 10 42 6 47 -9 15 1 17 319 57
295 38 332 47 306 79 -26 32 -107 39 -239 22 -139 -18 -288 -21 -297 -6 -3 6
-40 10 -81 10 l-75 0 7 34 6 35 -43 3 c-37 3 -44 7 -50 31 -6 24 -3 33 18 51
l26 23 -56 23 -56 23 4 49 c2 27 8 55 15 63 17 20 4 35 -31 35 -32 0 -40 24
-17 49 11 11 7 12 -18 7 -28 -6 -36 -2 -73 36 -47 49 -51 69 -18 95 37 28 50
59 37 84 -9 16 -17 19 -42 13 l-31 -6 37 32 c37 33 68 83 79 131 5 20 16 28
58 38 28 7 81 28 118 46 111 54 146 58 346 44 295 -20 424 -7 598 62 54 21 82
28 90 21 20 -17 105 -35 132 -28 13 3 40 20 59 36 l34 30 60 -30 c173 -86 349
-82 603 14 82 31 87 31 98 14 9 -15 24 -18 81 -18 99 0 278 27 363 54 39 13
90 27 112 31 22 4 45 10 50 15 6 4 42 11 80 15 39 4 112 13 164 21 74 10 116
11 200 3 170 -18 405 2 576 48 33 9 64 20 70 24 5 5 32 9 60 9 27 0 97 7 155
15 58 8 111 15 118 15 7 0 12 13 12 30 0 39 -17 47 -163 76 -93 19 -153 24
-263 24 -113 0 -143 3 -147 14 -3 8 -21 17 -39 21 -18 4 -44 16 -57 26 -16 13
-40 19 -76 19 -33 0 -57 5 -64 14 -7 8 -30 17 -51 21 -26 4 -41 13 -45 26 -9
27 -62 52 -99 46 -48 -7 -168 -54 -177 -69 -6 -10 -53 -14 -199 -16 l-191 -3
-28 30 c-16 17 -39 31 -50 31 -12 0 -34 8 -48 17 -19 13 -48 17 -102 18 -64 0
-80 4 -99 21 -77 72 -256 115 -337 80 -22 -9 -41 -10 -75 -2 -52 11 -63 22
-47 46 8 14 5 25 -14 50 -44 58 -153 159 -191 176 -23 10 -38 24 -38 35 0 9
-12 31 -26 48 -23 28 -32 31 -79 31 -65 0 -85 -7 -85 -30 0 -24 -14 -33 -90
-57 -55 -18 -74 -20 -123 -11 l-57 10 0 44 c0 60 -30 117 -74 138 -39 18 -128
21 -174 5 -25 -9 -42 -7 -84 7 -29 10 -79 17 -110 17 l-57 -1 -31 48 c-17 27
-51 67 -76 90 -24 22 -42 45 -39 50 9 14 -21 77 -43 89 -21 11 -225 8 -257 -4
-11 -5 -27 -14 -35 -20 -8 -7 -41 -18 -73 -25 -66 -13 -97 -38 -97 -75 0 -19
-17 -41 -57 -79 l-58 -54 -17 27 c-10 14 -18 34 -18 45 0 17 -31 48 -74 73
-34 20 -124 16 -173 -8 -24 -12 -46 -20 -48 -18 -2 2 -18 33 -37 69 -30 58
-101 130 -129 130 -5 0 -9 -348 -9 -875z m4610 -8770 c10 -12 10 -20 1 -38
-14 -26 -211 -163 -211 -147 0 22 49 106 77 131 33 31 93 69 109 69 6 0 17 -7
24 -15z m2175 -535 c8 -13 -14 -251 -29 -315 l-12 -50 -85 -22 c-46 -12 -95
-27 -109 -34 -14 -6 -57 -17 -97 -24 -39 -7 -85 -16 -102 -20 -30 -6 -31 -6
-25 27 4 18 15 39 25 47 20 14 26 69 10 87 -21 22 -43 129 -36 179 l6 51 68
22 c82 27 78 26 84 3 4 -18 13 -20 78 -18 50 2 74 7 77 16 2 7 13 21 23 30 30
26 112 40 124 21z m503 -287 c-31 -32 -63 -72 -72 -90 -19 -37 -21 -94 -4
-111 8 -8 3 -29 -20 -86 -18 -42 -32 -85 -32 -97 0 -20 -4 -21 -45 -16 -24 4
-53 12 -64 19 -18 11 -18 14 -4 41 8 16 21 46 28 66 7 20 29 63 49 95 20 33
36 67 36 77 0 9 30 39 68 66 37 28 76 60 86 72 11 11 22 21 25 21 3 0 -20 -26
-51 -57z m376 -72 c4 -5 -27 -59 -68 -119 -68 -100 -96 -159 -96 -203 0 -14
-14 -15 -107 -12 -60 3 -112 5 -117 7 -11 2 356 335 371 336 6 0 14 -4 17 -9z
m-2803 -160 c-15 -27 -81 -78 -132 -101 -31 -14 -66 -20 -118 -20 l-75 0 33
34 c49 50 186 102 279 105 19 1 21 -2 13 -18z m2878 -174 c6 -16 11 -29 11
-30 0 -1 -43 2 -95 7 -55 5 -95 14 -95 20 0 6 35 46 78 89 l77 78 7 -68 c3
-37 11 -81 17 -96z"/>
</g>
</svg>
