<?xml version="1.0" standalone="no"?>
<!DOCTYPE svg PUBLIC "-//W3C//DTD SVG 20010904//EN"
 "http://www.w3.org/TR/2001/REC-SVG-20010904/DTD/svg10.dtd">
<svg version="1.0" xmlns="http://www.w3.org/2000/svg"
 width="2400.000000pt" height="1600.000000pt" viewBox="0 0 2400.000000 1600.000000"
 preserveAspectRatio="xMidYMid meet">
<metadata>
Created by potrace 1.13, written by Peter Selinger 2001-2015
</metadata>
<g transform="translate(0.000000,1600.000000) scale(0.100000,-0.100000)"
fill="#000000" stroke="none">
<path d="M6556 6849 c-4 -8 -3 -105 2 -214 7 -138 6 -206 -2 -226 -6 -16 -13
-29 -16 -29 -3 0 -24 18 -45 40 l-40 41 -1 92 c-1 96 -15 152 -37 145 -8 -3
-13 -32 -15 -86 -2 -45 -6 -82 -9 -82 -3 0 -11 7 -18 17 -14 19 -35 10 -35
-16 0 -24 62 -125 97 -156 15 -14 47 -37 70 -51 45 -27 43 -22 73 -184 6 -30
17 -67 24 -82 13 -25 12 -28 -7 -41 -12 -7 -30 -16 -39 -20 -14 -5 -18 -18
-18 -51 0 -25 -4 -47 -9 -51 -11 -6 -49 42 -75 93 -17 33 -46 44 -46 17 0 -29
31 -90 62 -122 45 -47 23 -41 -44 12 -54 42 -88 56 -88 36 0 -17 53 -87 108
-143 55 -56 55 -58 37 -78 -27 -30 -25 -140 4 -205 27 -62 116 -155 148 -155
18 0 23 -5 23 -27 0 -16 -7 -36 -14 -46 -13 -17 -15 -16 -35 9 -12 15 -21 36
-21 48 0 17 -2 18 -10 6 -16 -25 -11 -51 17 -88 20 -27 26 -45 24 -73 -1 -21
2 -46 8 -57 9 -16 5 -20 -27 -30 l-37 -12 -57 60 c-40 41 -61 73 -71 105 -16
55 -31 59 -35 10 -3 -34 -4 -35 -25 -20 -29 20 -37 19 -37 -6 0 -12 33 -57 80
-107 73 -79 80 -91 80 -128 0 -24 6 -47 14 -53 8 -7 17 -25 21 -40 3 -16 31
-59 61 -95 31 -37 53 -70 50 -73 -3 -4 -6 -4 -6 0 0 3 -13 -8 -30 -24 -20 -21
-36 -28 -49 -24 -19 6 -36 -18 -25 -36 14 -23 -12 -3 -82 61 -41 39 -82 70
-90 70 -20 0 -17 -26 5 -42 10 -7 28 -33 41 -58 12 -25 34 -58 49 -74 l26 -29
-30 7 c-16 4 -63 22 -103 41 -59 28 -70 31 -62 16 13 -24 64 -68 90 -76 16 -5
18 -10 10 -25 -16 -30 -12 -33 30 -27 35 4 39 3 30 -12 -5 -10 -16 -23 -24
-31 -22 -18 -20 -30 6 -30 13 0 40 19 68 50 46 50 47 50 100 46 29 -2 56 -10
61 -17 11 -18 1 -50 -20 -65 -13 -10 -13 -14 -1 -29 12 -15 12 -18 -3 -27 -20
-11 -14 -47 9 -61 10 -6 12 -20 9 -45 -3 -20 -8 -70 -12 -109 l-6 -73 -36 0
c-21 0 -113 -15 -206 -34 -291 -59 -380 -67 -855 -76 -403 -7 -440 -9 -499
-29 -35 -12 -65 -21 -66 -21 -1 0 -5 19 -8 43 -8 54 -65 254 -83 289 -20 38
-82 68 -148 71 -52 2 -58 0 -94 -36 -32 -31 -41 -48 -50 -101 -14 -76 -15
-129 -3 -141 5 -6 11 -53 13 -107 l4 -96 -86 -17 c-47 -10 -125 -23 -174 -30
l-88 -12 6 36 c3 20 13 72 21 116 17 92 20 251 5 260 -5 3 -10 14 -10 24 0 22
-66 87 -103 100 -55 21 -108 13 -159 -24 -43 -32 -46 -37 -50 -87 -3 -29 -14
-89 -26 -133 -12 -44 -26 -111 -31 -150 -5 -38 -16 -92 -24 -120 -13 -48 -16
-51 -68 -68 -30 -10 -84 -21 -121 -24 l-68 -6 0 31 c0 75 -182 543 -234 601
-58 65 -222 105 -258 64 -22 -26 -40 -63 -48 -100 -12 -51 45 -298 107 -462
13 -35 22 -65 21 -66 -2 -2 -43 8 -93 21 -107 29 -258 40 -335 26 -30 -6 -58
-7 -61 -4 -4 4 -16 96 -27 205 -11 110 -24 203 -31 210 -7 7 -62 13 -146 15
l-135 4 0 42 c0 22 -6 63 -13 91 -13 47 -15 50 -53 57 -21 4 -59 7 -82 7 l-44
1 4 94 c3 104 16 129 69 140 25 5 29 10 29 40 0 19 -7 39 -17 47 -9 8 -22 29
-30 48 -8 18 -25 51 -39 72 -19 31 -22 44 -14 59 16 30 11 121 -9 167 -23 49
-91 104 -121 96 -11 -3 -44 -44 -75 -91 -69 -107 -73 -144 -20 -191 45 -40 45
-66 0 -88 -35 -17 -40 -26 -36 -73 3 -45 22 -79 50 -88 25 -9 27 -14 39 -117
8 -66 9 -112 4 -117 -5 -5 -28 -12 -51 -15 -41 -6 -61 -29 -45 -54 4 -7 10
-40 13 -75 l7 -63 -62 -10 c-34 -6 -78 -18 -98 -26 -43 -18 -41 4 -20 -282 9
-118 13 -217 10 -220 -3 -3 -58 -6 -123 -7 -127 -1 -207 9 -183 24 11 7 15 42
17 152 1 79 6 168 11 198 19 105 -38 160 -165 160 -105 0 -148 -26 -192 -115
-31 -62 -35 -79 -35 -153 -1 -50 -5 -81 -11 -78 -6 2 -43 12 -84 22 -67 16
-86 16 -182 6 -59 -7 -148 -24 -196 -39 -191 -56 -177 -55 -365 -47 -125 4
-192 3 -227 -6 l-51 -12 0 -519 0 -519 4040 0 4040 0 0 575 0 574 -32 5 c-18
3 -73 8 -123 11 -120 8 -295 39 -430 74 -97 26 -133 30 -300 36 -104 3 -233 8
-287 12 l-96 6 -7 111 c-4 61 -13 123 -20 138 -13 26 -11 28 71 93 46 37 84
71 84 76 0 17 -50 9 -100 -16 -31 -16 -51 -21 -55 -14 -4 5 10 43 31 82 45 87
42 83 56 69 14 -14 58 -16 58 -4 0 5 -9 17 -20 27 -11 10 -20 22 -20 26 0 4
30 10 68 14 79 8 132 22 132 37 0 5 -19 9 -42 8 -77 -4 -108 -1 -108 13 0 34
34 121 65 168 39 57 39 70 -1 48 -28 -14 -84 -102 -84 -131 0 -12 -8 -18 -23
-18 -16 0 -28 -9 -36 -27 l-13 -28 -13 25 c-12 22 -11 35 5 92 23 82 35 178
24 178 -5 0 -20 -26 -33 -56 l-24 -56 -16 40 c-9 22 -19 43 -22 47 -4 3 -4 16
-1 28 6 22 6 21 13 -3 l7 -25 1 26 c2 45 22 52 82 29 67 -25 90 -25 139 0 73
37 38 77 -56 65 -30 -3 -54 -2 -54 2 0 5 17 19 38 30 65 37 135 127 115 147
-16 15 -44 1 -116 -57 -42 -35 -95 -74 -117 -86 l-41 -23 7 29 c30 135 33 140
93 169 96 47 213 186 182 216 -10 11 -26 -1 -84 -64 -65 -69 -113 -101 -112
-73 1 6 9 56 20 111 l19 102 65 41 c36 22 72 41 82 41 20 0 43 25 35 39 -8 12
41 28 151 50 76 16 83 19 53 24 -18 4 -50 7 -71 7 l-39 0 34 48 c68 96 82 142
43 142 -16 0 -52 -30 -119 -99 l-95 -99 5 47 c3 32 -1 58 -11 78 -9 16 -13 40
-10 51 4 17 1 22 -16 22 -27 0 -38 -42 -22 -86 18 -50 -1 -98 -71 -179 -5 -5
-6 14 -3 45 4 30 2 90 -2 133 -8 69 -7 79 9 94 10 9 16 18 13 21 -2 3 0 13 6
23 7 14 17 17 39 12 33 -6 40 7 15 27 -20 16 0 44 26 37 12 -3 21 4 30 25 18
44 50 60 136 67 51 4 78 11 81 20 3 10 -13 12 -85 10 -90 -4 -90 -4 -76 17 7
12 36 40 64 64 27 23 48 47 46 54 -2 6 5 25 17 41 21 30 30 65 16 65 -12 0
-93 -61 -137 -103 -28 -26 -43 -36 -43 -26 0 9 11 26 24 38 23 22 52 81 39 81
-18 0 -78 -47 -94 -74 l-19 -31 0 45 c0 43 3 48 80 121 44 42 80 81 80 87 0
24 -20 20 -74 -18 l-56 -39 0 39 c0 27 -4 40 -14 40 -33 0 -52 -60 -63 -200
-4 -56 -1 -72 21 -113 l26 -48 -27 -36 -27 -35 -14 88 c-17 107 -19 153 -8
176 6 13 3 20 -8 24 -21 8 -54 -21 -58 -50 -2 -17 -11 -22 -46 -24 -38 -3 -43
-6 -40 -24 2 -12 9 -24 17 -26 10 -3 12 0 8 12 -6 15 -1 17 30 14 37 -3 37 -4
49 -63 7 -33 15 -91 19 -130 6 -68 5 -71 -26 -114 -30 -40 -33 -42 -46 -25
-12 16 -13 15 -13 -14 0 -53 -27 -40 -40 20 -6 29 -22 72 -36 96 -21 36 -25
52 -20 84 4 21 11 47 18 57 7 11 8 29 3 47 -12 41 -7 60 27 121 33 59 29 67
-14 26 l-28 -27 0 57 c0 32 8 79 19 107 20 52 15 72 -11 42 -33 -37 -51 -89
-54 -152 -3 -83 -4 -91 -13 -60 -4 16 -15 26 -30 28 l-24 4 6 -124 6 -123 -30
100 c-22 76 -29 116 -27 168 l3 69 28 -22 c31 -25 49 -20 25 7 -9 10 -23 36
-32 58 -13 31 -14 45 -6 66 7 15 10 38 7 51 l-4 23 -9 -25 c-8 -24 -8 -23 -20
15 -8 28 -14 35 -18 24z m127 -870 c8 -12 5 -36 -8 -85 -9 -38 -18 -79 -20
-92 -1 -12 -11 -30 -23 -38 -21 -15 -23 -14 -38 21 -20 50 -10 202 15 209 30
8 64 1 74 -15z"/>
</g>
</svg>
