<?xml version="1.0" standalone="no"?>
<!DOCTYPE svg PUBLIC "-//W3C//DTD SVG 20010904//EN"
 "http://www.w3.org/TR/2001/REC-SVG-20010904/DTD/svg10.dtd">
<svg version="1.0" xmlns="http://www.w3.org/2000/svg"
 width="2400.000000pt" height="1600.000000pt" viewBox="0 0 2400.000000 1600.000000"
 preserveAspectRatio="xMidYMid meet">
<metadata>
Created by potrace 1.13, written by Peter Selinger 2001-2015
</metadata>
<g transform="translate(0.000000,1600.000000) scale(0.100000,-0.100000)"
fill="#000000" stroke="none">
<path d="M2 14511 l3 -1489 25 -27 c51 -55 109 -68 174 -41 19 8 37 23 41 35
3 11 15 23 26 26 11 4 27 17 35 31 10 14 26 24 40 24 37 0 94 27 94 44 0 9 5
16 11 16 18 0 38 -32 39 -62 0 -54 60 -86 95 -52 16 17 14 36 -11 86 -18 34
-1 47 23 18 10 -12 31 -28 46 -36 28 -15 29 -15 83 42 63 65 47 70 164 -43 36
-34 82 -69 102 -78 42 -17 98 -20 98 -5 0 6 11 10 23 10 31 0 57 29 57 63 0
17 5 27 15 27 7 0 18 7 23 16 5 10 46 27 93 41 119 34 211 78 207 99 -2 9 -12
22 -23 28 -10 6 -25 16 -32 23 -13 12 -76 33 -99 33 -7 0 -11 20 -10 50 1 45
3 50 24 50 12 0 39 8 60 19 24 11 50 17 73 14 62 -8 109 36 59 55 -19 7 -19 8
-1 47 15 33 27 44 72 62 50 20 189 41 189 29 0 -3 -5 -16 -11 -29 -13 -28 2
-67 26 -67 11 0 15 -11 15 -38 0 -45 18 -73 64 -101 40 -25 70 -19 62 12 -3
14 3 28 18 42 13 12 25 28 28 36 4 11 16 6 54 -21 27 -19 55 -42 62 -52 15
-20 52 -24 52 -5 -1 24 -38 92 -64 116 l-26 25 31 26 c29 24 30 27 16 42 -14
14 -14 17 9 37 14 12 24 32 24 47 l0 27 146 -6 c137 -6 148 -5 175 14 32 23
68 87 75 134 2 16 13 42 24 57 11 15 20 33 20 39 0 7 8 21 17 31 13 15 15 23
6 36 -8 13 -23 16 -64 14 -30 -2 -78 0 -107 3 -51 6 -52 7 -37 28 8 12 15 32
15 44 0 20 -5 23 -40 23 -40 0 -40 0 -20 20 24 24 25 34 6 49 -19 16 -95 -3
-112 -27 -12 -16 -14 -15 -28 3 -18 23 -20 41 -6 50 15 9 12 51 -5 65 -9 7
-14 24 -13 39 3 22 -2 27 -24 29 -17 2 -34 -4 -47 -17 -12 -12 -21 -16 -21 -9
0 21 -49 75 -80 88 -22 9 -33 22 -37 42 -6 30 -45 68 -70 68 -22 0 -63 -47
-69 -80 -4 -16 -10 -30 -13 -30 -4 0 -33 -15 -64 -34 l-57 -34 -42 29 c-47 31
-84 36 -112 16 -19 -14 -19 -48 -2 -88 7 -17 -34 -39 -108 -58 -44 -11 -116
-75 -116 -103 0 -9 7 -21 17 -26 14 -9 14 -11 -5 -21 -13 -7 -22 -21 -22 -36
0 -18 7 -25 30 -30 29 -6 40 -28 20 -40 -5 -3 -10 -14 -10 -23 0 -9 -21 -32
-45 -50 -40 -30 -57 -35 -159 -49 -113 -15 -115 -15 -142 6 -15 11 -33 21 -40
21 -8 0 -24 11 -36 25 -12 14 -30 25 -40 25 -27 0 -22 27 8 47 32 21 56 75 48
107 -11 43 -95 48 -173 10 -43 -22 -60 -25 -101 -20 -29 4 -51 2 -55 -4 -9
-14 -46 -13 -43 2 2 6 -6 13 -17 15 -47 9 -48 12 -21 47 14 19 26 47 26 62 0
24 -3 26 -29 21 -28 -6 -29 -5 -24 25 2 17 9 42 14 55 12 33 11 70 -2 78 -15
10 -80 16 -191 18 -86 2 -100 0 -127 -20 -43 -32 -63 -30 -55 5 4 15 13 37 20
49 19 31 17 73 -3 89 -17 12 -16 15 10 42 32 34 34 75 3 80 -20 4 -88 -29
-122 -60 l-21 -19 -7 68 c-3 37 -9 84 -12 103 -6 35 -5 36 43 52 26 9 77 19
113 22 112 9 234 64 305 136 45 46 52 70 19 70 -27 0 -14 17 36 48 60 37 67
51 46 93 -9 18 -16 39 -16 49 0 9 -4 20 -10 26 -6 6 27 9 89 9 108 0 131 10
156 68 11 26 17 29 66 31 32 2 74 13 102 27 44 22 48 26 44 54 -2 16 -7 37
-11 46 -6 13 0 18 28 23 20 4 36 11 36 16 0 24 55 71 96 81 35 9 46 17 51 37
4 19 1 30 -14 42 -15 12 -19 24 -16 47 4 26 1 32 -19 38 -12 4 -32 16 -43 26
-11 10 -36 25 -56 33 -20 8 -41 21 -48 29 -13 16 -59 8 -112 -19 l-27 -13 -6
50 c-4 27 -9 56 -12 64 -5 13 -67 15 -455 15 l-449 0 2 -1489z m1603 -588 c17
-9 53 -28 81 -42 48 -25 50 -27 42 -57 -11 -42 -19 -48 -124 -85 -49 -17 -135
-53 -191 -79 l-102 -48 5 28 c7 33 -10 46 -74 56 -37 6 -39 8 -28 28 34 65 80
99 159 119 54 13 78 24 97 46 46 53 84 63 135 34z"/>
<path d="M8035 14880 c-12 -5 -31 -35 -48 -78 -28 -69 -29 -70 -69 -74 -38 -4
-41 -2 -55 34 -15 38 -43 52 -43 21 0 -12 -11 -5 -39 22 -22 22 -37 43 -35 47
3 4 -7 10 -22 14 -17 4 -29 2 -35 -7 -16 -26 -9 -52 27 -91 26 -29 33 -43 25
-51 -6 -6 -11 -34 -11 -62 0 -52 18 -81 60 -99 8 -3 4 -4 -10 0 -14 3 -45 8
-69 11 -36 5 -47 12 -64 40 -17 30 -24 34 -49 29 -15 -3 -43 -9 -60 -12 -37
-7 -159 -119 -152 -139 12 -29 81 -55 150 -55 l69 0 -3 -50 c-4 -49 -3 -50 27
-56 36 -7 36 -9 52 -138 12 -91 12 -99 -5 -112 -15 -11 -25 -9 -62 8 -38 19
-43 25 -37 46 4 18 0 29 -16 42 l-23 16 21 35 c12 19 21 51 21 72 0 34 -2 37
-30 37 -26 0 -33 -7 -61 -62 -36 -74 -65 -101 -91 -87 -10 5 -18 20 -18 32 0
31 -18 47 -52 47 -26 0 -28 2 -18 20 6 12 10 40 8 63 -2 34 -7 43 -24 45 -18
3 -27 -8 -49 -57 -26 -56 -29 -59 -52 -48 -30 13 -44 -4 -36 -43 4 -21 0 -28
-21 -38 -43 -19 -31 -89 16 -99 21 -4 35 -17 49 -44 21 -43 45 -59 84 -59 18
0 29 6 32 20 8 28 15 26 64 -24 55 -58 74 -89 34 -58 -15 12 -33 22 -38 22 -6
0 -30 -19 -54 -42 l-43 -42 -23 22 c-27 26 -50 28 -67 7 -7 -8 -25 -14 -42
-12 -27 2 -43 -10 -54 -41 -1 -1 -33 2 -72 8 -96 13 -106 8 -99 -48 5 -44 4
-45 -34 -60 -34 -13 -39 -19 -39 -48 0 -48 47 -84 108 -84 41 0 49 -3 60 -27
6 -15 12 -32 12 -38 0 -20 36 -45 64 -45 19 0 40 12 63 35 19 19 40 35 46 35
6 0 18 7 27 15 16 14 19 13 33 -9 15 -22 15 -25 -3 -41 -11 -10 -20 -27 -20
-38 0 -16 -3 -17 -14 -7 -8 6 -25 10 -38 8 -29 -4 -36 -47 -12 -82 l16 -26
-46 0 c-37 0 -48 -5 -61 -23 -9 -14 -36 -30 -67 -40 -61 -19 -138 -32 -138
-24 0 3 9 22 21 41 28 48 24 120 -8 124 -16 2 -26 -5 -38 -31 -9 -20 -25 -43
-36 -53 -18 -16 -21 -16 -52 0 -42 23 -89 18 -102 -11 -8 -19 -18 -23 -52 -23
l-43 0 0 -40 c0 -75 51 -135 120 -142 27 -2 36 -8 38 -26 4 -29 41 -50 53 -31
5 8 9 24 9 37 0 27 11 28 71 1 l47 -21 -16 -32 c-8 -17 -21 -43 -29 -58 -21
-43 -17 -58 17 -58 37 0 85 23 122 57 25 24 28 24 49 9 13 -9 43 -16 66 -16
24 0 43 -3 43 -7 -1 -22 -28 -39 -60 -38 -35 0 -35 0 -38 -47 -3 -39 2 -54 24
-83 l26 -35 -39 0 -40 0 1 43 c1 35 -2 42 -19 45 -15 2 -30 -10 -54 -43 -35
-48 -67 -63 -99 -46 -38 20 -101 13 -128 -14 -29 -29 -28 -53 1 -69 11 -6 22
-12 24 -13 2 -2 -4 -12 -14 -23 -17 -19 -17 -52 1 -112 8 -26 39 -22 52 7 12
27 42 34 42 11 0 -23 41 -46 81 -46 32 0 37 4 45 32 13 43 34 49 34 8 0 -32
19 -76 53 -121 15 -22 17 -31 8 -48 -7 -12 -21 -21 -35 -21 -13 0 -36 -10 -51
-22 -26 -20 -27 -25 -22 -80 4 -46 2 -61 -9 -65 -22 -8 -16 -29 16 -57 26 -21
29 -29 20 -45 -5 -11 -10 -28 -10 -38 0 -12 -14 -23 -44 -34 l-44 -16 -16 29
c-23 39 -66 40 -66 1 0 -15 5 -42 12 -60 8 -23 9 -36 2 -41 -23 -15 -44 -58
-44 -89 0 -31 1 -32 48 -35 l47 -3 0 -50 c0 -47 2 -50 27 -53 23 -3 28 2 37
35 6 21 11 45 11 52 0 12 3 12 12 3 7 -7 27 -12 45 -12 37 0 44 21 19 56 -8
10 -11 23 -7 29 5 5 13 23 18 40 l9 29 25 -26 c13 -14 30 -34 37 -43 18 -21
45 -15 57 13 7 17 15 21 30 17 86 -27 96 -28 112 -12 15 14 13 18 -23 39 -33
20 -36 23 -18 26 12 2 59 -10 105 -25 68 -23 85 -32 87 -50 2 -14 8 -20 18
-16 11 4 14 -4 14 -36 l0 -41 -24 16 c-37 23 -70 15 -74 -18 -3 -22 -9 -28
-28 -28 -19 0 -24 -5 -24 -24 0 -18 7 -25 33 -31 l32 -7 -37 -17 c-60 -25 -49
-65 26 -104 l30 -15 -43 -21 c-38 -20 -42 -25 -39 -54 4 -43 26 -45 79 -8 24
17 58 33 74 37 28 5 30 3 31 -26 2 -64 56 -65 62 -1 2 23 8 31 23 31 12 0 19
-7 19 -19 0 -11 7 -26 15 -35 20 -20 19 -32 -5 -56 -11 -11 -20 -33 -20 -50 0
-43 41 -52 78 -17 30 27 84 57 104 57 8 0 35 -22 62 -49 47 -48 54 -74 17 -64
-14 3 -21 -3 -29 -26 -10 -30 -13 -31 -66 -31 -55 0 -56 -1 -56 -29 0 -27 4
-29 59 -41 66 -14 64 -10 76 -115 4 -27 9 -63 12 -80 l5 -30 -24 23 c-13 12
-30 22 -36 22 -17 0 -15 10 5 32 13 15 15 23 7 36 -15 24 -41 26 -83 9 -51
-22 -121 -29 -121 -12 0 7 -8 23 -18 35 -14 18 -25 22 -45 16 -22 -5 -27 -12
-27 -38 0 -17 5 -48 12 -70 10 -33 9 -44 -5 -68 -9 -15 -17 -37 -17 -48 0 -11
-7 -25 -16 -32 -8 -8 -14 -25 -12 -39 4 -38 37 -38 73 -1 16 16 32 30 36 30 3
0 9 -22 13 -49 8 -58 28 -81 56 -63 17 10 19 8 22 -31 2 -32 8 -43 22 -45 23
-5 36 14 36 51 0 15 2 27 6 27 20 0 125 -84 130 -105 3 -13 12 -26 20 -29 32
-12 13 -43 -56 -90 -38 -27 -70 -54 -70 -62 0 -20 -34 -17 -54 5 -16 17 -15
20 19 45 55 42 105 97 105 116 0 10 -6 23 -14 29 -16 14 -37 6 -91 -34 -16
-13 -47 -29 -69 -36 -27 -10 -43 -24 -57 -52 -15 -29 -23 -36 -35 -29 -9 5
-32 4 -55 -2 -48 -13 -59 -3 -30 28 31 33 39 91 16 116 -24 27 -51 25 -79 -5
-13 -14 -34 -25 -48 -25 -30 0 -74 -32 -99 -74 -15 -25 -19 -27 -25 -13 -3 9
-17 17 -29 17 -43 0 -37 20 14 52 38 23 51 37 51 54 0 20 -5 24 -27 24 -34 0
-90 -19 -126 -43 -19 -12 -27 -14 -27 -5 0 7 16 23 36 36 28 18 35 28 32 50
-3 25 -7 27 -50 30 -26 2 -56 -1 -66 -7 -14 -7 -27 -5 -52 10 -43 26 -60 19
-60 -27 0 -27 -9 -46 -35 -77 -22 -25 -35 -51 -35 -68 0 -16 -7 -32 -17 -38
-15 -8 -16 -13 -6 -30 10 -15 9 -22 -1 -30 -7 -6 -11 -22 -9 -35 5 -27 -5 -35
-52 -46 -29 -7 -37 -4 -61 21 l-28 29 27 28 c29 30 36 76 13 85 -7 3 -28 -3
-45 -14 -40 -24 -44 -24 -56 4 -15 33 -53 35 -65 2 -7 -18 -7 -33 0 -45 16
-30 12 -49 -16 -74 -24 -20 -26 -27 -19 -65 4 -25 19 -56 37 -77 25 -28 27
-35 14 -40 -26 -10 -18 -33 17 -48 47 -22 84 -59 91 -94 4 -17 23 -51 43 -76
44 -57 37 -71 -10 -20 -23 25 -39 35 -50 31 -22 -8 -22 -55 -1 -86 16 -23 16
-24 -35 -71 -28 -26 -51 -45 -51 -43 0 2 5 24 11 49 14 56 1 78 -39 63 -20 -8
-31 -6 -51 9 -14 10 -42 27 -61 37 -19 9 -43 24 -52 32 -16 15 -16 17 2 41 11
13 20 38 20 53 0 40 -40 50 -80 21 -32 -24 -40 -20 -40 19 0 18 -6 30 -19 34
-30 9 -47 -4 -57 -43 -11 -46 -26 -48 -35 -5 -13 66 -63 109 -94 83 -8 -7 -15
-22 -15 -34 0 -22 21 -107 34 -137 5 -11 -1 -19 -19 -27 -22 -10 -25 -17 -25
-66 0 -47 4 -57 26 -75 28 -22 98 -29 109 -11 10 16 97 -2 138 -28 47 -31 48
-59 4 -89 -17 -12 -40 -25 -50 -29 -14 -5 -18 -14 -15 -35 4 -24 -1 -32 -29
-49 -20 -12 -33 -27 -33 -40 0 -11 -6 -20 -12 -20 -7 0 -23 -3 -34 -6 -18 -5
-26 3 -47 48 -34 72 -69 113 -90 105 -10 -4 -17 -17 -17 -32 0 -24 -3 -26 -30
-20 -25 6 -30 3 -36 -19 -6 -24 2 -38 81 -141 8 -10 12 -22 7 -26 -12 -11
-232 -47 -232 -37 0 20 -50 58 -78 58 -56 0 -142 -82 -142 -136 0 -22 -4 -21
-78 26 -94 60 -187 143 -237 210 -31 43 -39 48 -56 40 -10 -6 -22 -22 -25 -36
-11 -44 22 -183 63 -264 21 -41 40 -78 41 -82 2 -5 -2 -8 -10 -8 -26 0 -138
-79 -138 -98 0 -25 80 -62 147 -69 l52 -6 -21 -36 c-12 -21 -45 -55 -75 -76
-29 -21 -53 -42 -53 -46 0 -3 10 -9 22 -12 21 -6 21 -7 4 -26 -17 -19 -17 -21
-2 -27 35 -13 196 70 278 144 29 27 74 59 101 71 68 33 105 74 149 168 21 45
38 87 38 92 0 17 53 48 142 85 48 20 92 36 97 36 6 0 2 -17 -9 -38 -28 -54
-35 -96 -17 -110 15 -13 47 -7 47 9 0 13 54 99 62 99 5 0 8 -12 8 -27 0 -38
10 -73 21 -73 5 0 9 16 9 35 0 31 3 35 25 35 29 0 34 25 10 56 -8 10 -15 22
-15 26 0 7 186 98 201 98 5 0 9 -9 9 -20 0 -32 30 -24 37 10 4 21 11 30 24 30
11 0 19 -5 19 -10 0 -21 -41 -90 -60 -102 -11 -7 -20 -16 -20 -20 0 -11 -44
-54 -62 -61 -20 -7 -23 -27 -9 -42 6 -6 11 -32 13 -60 3 -48 4 -50 35 -53 26
-3 36 3 58 33 27 34 29 35 76 29 87 -12 123 13 82 58 -14 16 -14 18 -1 18 9 0
18 -7 22 -15 7 -19 37 -19 62 0 11 8 41 14 69 15 28 0 45 -4 38 -8 -14 -9 -20
-75 -10 -107 10 -30 -22 -47 -61 -33 -39 15 -62 5 -62 -27 0 -19 -9 -31 -35
-46 -33 -20 -40 -30 -36 -53 1 -5 -5 -27 -14 -49 -22 -55 -13 -77 33 -77 26 0
41 6 50 20 12 20 12 20 33 -1 27 -27 43 -20 49 22 4 30 8 34 35 34 25 0 31 4
33 27 2 18 11 29 25 34 12 3 50 17 85 31 l63 25 38 -25 c43 -28 96 -105 64
-92 -44 18 -54 17 -59 -2 -5 -17 -12 -19 -63 -15 -43 3 -60 0 -70 -12 -15 -17
-4 -24 78 -46 22 -6 41 -13 41 -15 0 -3 -16 -20 -36 -38 -32 -29 -35 -36 -25
-55 8 -14 21 -22 39 -22 47 0 56 -13 38 -48 -9 -17 -16 -50 -16 -72 0 -39 1
-41 27 -38 24 3 32 12 54 68 24 60 29 65 60 71 53 8 61 17 57 60 -5 53 19 52
71 -1 42 -44 79 -52 98 -21 15 24 85 41 166 41 113 0 119 -3 150 -78 19 -46
24 -68 16 -73 -19 -11 -1 -107 22 -120 11 -5 17 -13 15 -18 -3 -4 -10 -122
-16 -262 -12 -260 -21 -315 -48 -304 -16 6 -78 -11 -96 -27 -6 -4 -29 -20 -50
-34 -36 -23 -41 -24 -52 -10 -13 18 -34 21 -34 5 0 -5 -8 -9 -17 -8 -38 3 -43
0 -36 -31 5 -26 3 -30 -16 -30 -12 0 -43 16 -68 35 -47 36 -93 46 -93 21 0 -7
20 -32 44 -54 24 -23 41 -42 37 -44 -4 -2 -3 -22 2 -45 l8 -43 59 0 c32 0 61
-4 64 -9 4 -5 -15 -27 -41 -49 -40 -35 -45 -43 -34 -56 17 -20 40 -20 65 -1
11 8 33 15 49 15 l29 0 -4 -77 c-3 -43 -9 -91 -16 -108 -6 -16 -17 -57 -24
-89 -8 -38 -24 -76 -45 -103 -39 -52 -43 -90 -10 -102 13 -5 28 -15 34 -22 17
-21 24 -118 13 -184 -24 -154 -30 -179 -51 -210 -22 -31 -28 -33 -96 -40 l-72
-7 -38 37 c-55 54 -122 98 -139 91 -8 -3 -14 -19 -14 -38 -1 -46 -19 -67 -53
-61 -30 6 -77 -19 -77 -41 0 -9 -21 -15 -66 -19 -71 -7 -149 -42 -149 -67 0
-12 16 -16 68 -18 37 -2 67 -6 67 -10 0 -4 -23 -26 -50 -50 -28 -24 -50 -47
-50 -53 0 -14 27 -11 63 7 21 11 28 12 20 3 -20 -21 -15 -43 12 -56 22 -10 29
-8 55 14 17 14 30 19 30 13 0 -8 13 -4 36 9 19 12 36 21 38 21 2 0 6 -33 10
-72 4 -40 11 -77 16 -82 15 -15 156 -35 248 -35 l83 -1 14 -32 c7 -18 16 -58
20 -89 l7 -56 -94 -5 c-61 -4 -117 -14 -163 -30 l-70 -24 -3 -72 c-3 -69 -4
-72 -27 -72 -13 0 -28 7 -33 17 -14 23 -42 9 -42 -22 0 -14 6 -28 14 -31 13
-5 36 -53 36 -75 0 -4 -10 -11 -22 -14 -13 -4 -44 -20 -71 -36 -26 -16 -60
-29 -76 -29 -46 0 -95 -40 -101 -81 -5 -35 -49 -99 -68 -99 -10 0 -22 -23 -22
-42 0 -6 9 -8 20 -5 13 3 20 0 20 -9 0 -22 27 -16 56 13 31 31 36 26 58 -59
l13 -53 54 -12 c30 -6 73 -12 97 -12 40 -1 42 -2 32 -22 -19 -35 -5 -52 36
-46 34 6 35 5 20 -12 -19 -21 -21 -52 -4 -69 9 -9 9 -18 0 -37 -7 -16 -8 -25
-2 -25 6 0 15 11 21 24 6 13 22 29 35 35 23 10 24 10 13 -10 -8 -16 -8 -24 1
-33 8 -8 16 -5 30 14 10 14 20 23 23 20 2 -3 13 -21 25 -40 11 -20 32 -46 46
-59 14 -14 26 -33 26 -43 0 -28 36 -94 76 -138 20 -22 33 -44 29 -50 -12 -19
-6 -124 9 -167 8 -23 30 -64 49 -91 35 -51 53 -99 42 -111 -4 -3 -24 4 -45 17
-44 25 -75 28 -87 9 -4 -6 -8 -52 -8 -102 0 -104 -18 -151 -87 -230 -34 -39
-43 -44 -50 -31 -12 22 -91 60 -195 96 -84 28 -88 31 -86 57 1 16 30 67 63
116 85 124 81 154 -25 203 -61 29 -170 32 -276 8 -73 -17 -99 -33 -99 -64 0
-11 -9 -44 -21 -75 l-20 -55 -46 0 c-36 0 -303 -76 -407 -116 -7 -3 -26 15
-44 40 -17 24 -57 61 -88 81 -65 43 -96 43 -170 0 -47 -28 -50 -33 -59 -137
-4 -43 -13 -76 -25 -90 l-18 -22 -29 65 c-39 85 -79 129 -155 169 l-62 33 -58
-64 c-86 -95 -103 -135 -103 -245 0 -96 -10 -124 -47 -124 -23 0 -78 -27 -78
-38 0 -13 -40 -52 -53 -52 -7 0 -30 21 -52 47 -38 46 -39 47 -36 121 2 69 0
77 -25 103 l-27 28 20 33 c26 44 53 125 53 157 l-1 26 -24 -27 c-13 -16 -28
-28 -33 -28 -13 0 -42 74 -42 107 0 25 -2 26 -15 12 -29 -28 -29 -80 -2 -120
29 -43 41 -88 28 -108 -7 -11 -14 -4 -30 27 -15 29 -28 42 -42 42 -17 0 -20
-4 -15 -22 4 -13 10 -41 13 -63 3 -22 17 -57 30 -78 28 -44 41 -97 24 -97 -6
0 -16 21 -22 46 -9 35 -21 53 -49 73 -33 23 -80 99 -80 130 0 13 -46 15 -54 3
-6 -10 18 -106 41 -168 2 -6 -7 -14 -21 -18 -37 -9 -32 -32 14 -62 40 -27 51
-44 28 -44 -7 0 -37 -12 -67 -25 -70 -33 -58 -46 46 -53 43 -2 84 -9 90 -14 7
-6 21 -7 30 -3 27 12 71 9 88 -5 24 -20 29 -76 10 -125 l-17 -45 -74 0 c-83 0
-114 -11 -114 -40 0 -22 -52 -65 -98 -81 -18 -6 -32 -15 -32 -20 0 -4 -28 11
-63 35 -143 100 -293 155 -452 165 -89 6 -90 6 -93 34 -2 19 1 27 12 27 8 0
19 6 23 13 4 7 34 21 65 30 80 25 74 47 -13 47 -23 0 -38 4 -34 10 3 5 -6 28
-21 50 -21 31 -24 44 -16 52 23 23 14 58 -18 69 -19 7 -30 18 -30 30 0 17 8
19 73 18 138 0 162 3 165 28 3 20 -4 25 -58 40 -35 9 -65 24 -68 32 -8 23 -23
31 -56 31 -24 0 -27 2 -16 15 15 18 1 40 -32 51 -17 5 -20 12 -15 47 3 22 15
53 26 68 25 34 27 67 5 84 -15 10 -13 15 16 45 20 20 35 29 38 22 5 -15 119
-5 150 14 48 31 15 104 -48 104 -14 0 -38 7 -55 16 -29 15 -77 14 -119 -2 -12
-5 -16 0 -16 20 0 22 -4 26 -28 26 -37 0 -44 8 -31 32 14 27 3 65 -21 73 -13
4 -20 15 -20 33 0 15 -7 47 -16 72 -9 25 -13 60 -10 78 6 40 -19 56 -41 26
-12 -15 -13 -42 -8 -136 7 -106 5 -118 -10 -124 -15 -6 -16 -17 -11 -84 l7
-77 -29 -6 c-32 -6 -48 -42 -37 -78 5 -15 16 -19 54 -19 l48 0 7 -52 c8 -69 8
-233 0 -241 -4 -3 -15 5 -26 19 -38 48 -108 64 -108 25 0 -10 20 -49 45 -87
59 -90 59 -92 -5 -74 -46 13 -70 4 -70 -25 0 -20 7 -24 42 -30 23 -4 58 -13
78 -20 l35 -13 -30 -7 c-54 -12 -75 -24 -75 -44 0 -11 5 -23 10 -26 6 -3 10
-15 10 -26 0 -10 5 -19 11 -19 8 0 8 -4 0 -14 -12 -14 -5 -46 10 -46 5 0 9 -4
9 -10 0 -5 -7 -10 -15 -10 -9 0 -27 -11 -40 -24 -22 -23 -36 -25 -145 -32
l-120 -7 0 -28 0 -29 90 0 c99 0 110 -9 65 -48 -28 -25 -32 -50 -10 -58 17 -7
143 24 163 39 20 16 23 3 12 -49 -10 -44 -24 -62 -128 -168 -129 -130 -172
-157 -283 -177 -52 -9 -78 -9 -116 0 -58 15 -136 63 -163 102 -26 36 -162 132
-234 165 -85 39 -188 57 -283 50 -68 -5 -81 -4 -77 8 8 21 -6 25 -54 16 l-42
-7 64 68 c78 82 92 105 71 113 -14 5 -92 -52 -239 -178 -61 -52 -63 -50 -14
18 28 38 29 56 3 56 -7 0 -55 -47 -106 -104 -80 -90 -110 -115 -146 -117 -4 0
-15 26 -24 58 -10 38 -21 59 -32 61 -26 5 -30 -20 -14 -82 15 -57 7 -74 -18
-39 -10 14 -16 15 -28 5 -11 -10 -13 -21 -6 -50 4 -20 6 -38 5 -40 -2 -1 -29
40 -61 93 -32 53 -63 99 -68 102 -13 8 -1 -83 19 -139 13 -38 13 -44 -1 -54
-22 -16 -18 -40 10 -62 14 -11 25 -26 25 -34 0 -8 5 -19 10 -24 8 -8 -6 -17
-46 -32 -65 -26 -134 -38 -134 -26 0 5 -9 67 -20 138 -24 156 -25 176 -5 176
23 0 30 29 11 43 -15 11 -10 18 44 55 33 24 60 47 60 52 0 6 -31 9 -75 6 l-75
-3 0 53 c0 43 4 55 20 64 31 17 44 59 25 80 -15 16 -13 20 17 51 28 28 30 34
15 37 -10 2 -31 -1 -47 -7 l-30 -10 0 53 c0 56 -12 76 -46 76 -18 0 -22 -7
-28 -52 -3 -29 -6 -73 -7 -98 0 -40 -2 -42 -11 -22 -17 34 -42 29 -32 -6 5
-15 9 -56 10 -92 1 -103 3 -118 17 -132 9 -9 16 -54 20 -132 7 -109 6 -118
-11 -123 -18 -4 -92 -118 -92 -141 0 -7 -11 -12 -25 -12 -33 0 -108 74 -126
124 -19 52 -32 44 -27 -17 l4 -53 -59 24 c-33 13 -84 26 -114 29 -64 7 -73 20
-49 69 24 52 20 71 -21 101 l-38 26 33 36 c18 20 41 45 51 56 63 69 21 166
-79 179 -47 6 -50 9 -50 35 0 34 -17 50 -62 57 l-33 6 43 43 c61 61 55 78 -31
88 -45 6 -80 17 -104 33 -20 13 -42 24 -49 24 -18 0 -18 20 2 48 18 27 34 29
34 4 0 -26 20 -42 50 -42 32 0 43 9 30 25 -6 7 -5 23 3 44 14 38 5 47 -55 57
-21 4 -38 10 -38 15 0 5 -15 16 -32 25 -32 17 -32 17 -11 27 30 13 39 45 20
65 -13 12 -23 13 -56 4 -45 -11 -49 -8 -24 20 10 11 16 32 15 51 -2 27 4 36
34 55 l36 24 -25 26 c-13 15 -27 40 -31 55 -4 16 -17 33 -31 39 -14 6 -25 19
-25 29 0 26 -39 49 -81 49 -29 0 -43 -7 -64 -31 -14 -17 -28 -29 -32 -26 -11
12 7 38 42 58 38 23 41 29 23 47 -22 22 -65 13 -102 -22 -30 -28 -35 -30 -31
-12 2 12 7 47 10 78 6 54 5 57 -20 71 -24 12 -25 15 -11 26 9 8 16 24 16 37 0
18 -7 24 -32 29 -38 7 -121 -9 -126 -24 -2 -6 -13 -11 -26 -11 -12 0 -38 -11
-57 -24 -36 -24 -49 -55 -49 -111 0 -12 -7 -28 -15 -35 -13 -11 -15 -146 -15
-1101 l0 -1089 4040 0 4040 0 0 4031 0 4031 -56 79 c-30 43 -62 79 -69 79 -26
0 -26 20 -1 84 14 35 31 88 37 117 6 30 18 65 26 78 l15 24 24 -29 23 -29 1
158 c0 91 -4 167 -10 178 -11 20 -64 27 -75 9 -3 -5 -13 -7 -23 -4 -9 3 -23 8
-31 10 -21 7 40 59 64 55 11 -2 31 -12 45 -23 l25 -20 3 127 c1 70 0 130 -2
133 -3 3 -12 -1 -21 -8 -19 -16 -20 -15 -49 55 -31 78 -27 89 29 65 l44 -19 1
1213 1 1213 -35 31 -35 31 34 -6 35 -6 0 42 c0 35 -6 46 -35 72 -41 36 -43 45
-13 69 25 20 47 100 48 176 0 57 -14 76 -45 64z m-629 -1045 c11 -23 10 -24
-25 -27 -46 -4 -52 -32 -18 -91 28 -49 41 -126 27 -162 -10 -27 -40 -35 -40
-10 0 8 -9 20 -20 27 -15 10 -20 24 -20 58 0 26 -6 54 -13 63 -7 10 -11 37 -8
63 3 42 7 48 49 75 25 16 48 29 51 29 4 0 11 -11 17 -25z m344 -855 c53 -15
67 -27 52 -42 -6 -6 -12 -24 -12 -39 0 -18 -11 -37 -35 -58 -38 -33 -41 -34
-97 -25 -56 10 -52 43 9 85 43 30 45 33 25 40 -13 5 -22 17 -22 29 0 23 24 26
80 10z m39 -561 c10 -28 14 -31 43 -27 23 4 44 -2 70 -18 37 -24 62 -56 52
-67 -14 -14 12 -51 54 -77 l47 -30 -37 0 c-28 0 -38 5 -43 20 -9 28 -49 26
-62 -2 -10 -22 -10 -22 -17 9 -9 41 -48 68 -76 53 -22 -12 -40 -6 -40 14 0 22
-40 95 -57 105 -10 6 -12 11 -5 11 6 0 12 9 12 20 0 14 7 20 24 20 18 0 27 -8
35 -31z m56 -407 c15 -62 28 -133 29 -158 1 -43 0 -44 -29 -43 -16 0 -52 4
-78 7 l-49 7 29 38 c16 21 40 40 56 43 15 4 27 10 27 14 0 4 -20 23 -44 41
l-43 34 28 35 c16 19 32 49 35 68 4 18 8 32 9 30 2 -2 15 -54 30 -116z m-835
-2217 c9 -11 16 -12 26 -4 9 8 33 6 89 -6 47 -11 102 -16 142 -13 50 3 60 2
42 -6 -13 -5 -50 -22 -81 -37 -49 -24 -58 -25 -69 -13 -33 40 -82 41 -93 1
l-7 -22 -9 23 c-5 12 -15 22 -21 22 -21 0 -49 -32 -49 -57 0 -45 -27 -23 -45
37 -20 65 -16 75 25 83 14 2 28 5 31 6 4 0 12 -6 19 -14z m-170 -82 c7 -21 13
-50 12 -64 -1 -15 9 -52 23 -82 24 -55 24 -57 5 -67 -10 -5 -28 -10 -39 -10
-16 0 -21 6 -21 29 0 22 -6 31 -30 41 -16 7 -30 16 -30 20 0 4 14 38 31 74 17
36 28 73 25 81 -3 8 -2 15 2 15 5 0 14 -17 22 -37z m650 -80 c-16 -32 -34 -77
-40 -101 -8 -31 -20 -48 -46 -65 -28 -18 -34 -27 -31 -48 3 -22 -4 -31 -40
-53 l-44 -26 26 37 c14 21 25 45 25 54 0 24 -39 69 -60 69 -10 0 -22 5 -25 10
-9 14 -52 12 -58 -2 -2 -8 -10 -1 -18 15 -16 35 -3 47 52 47 57 0 159 37 219
79 30 22 58 40 62 40 4 1 -6 -25 -22 -56z"/>
<path d="M1400 12871 c-37 -12 -92 -41 -115 -61 -11 -9 -42 -23 -70 -30 -27
-7 -53 -15 -58 -17 -12 -7 13 -43 38 -55 19 -8 22 -15 15 -28 -16 -29 -15 -74
2 -111 9 -19 19 -48 22 -65 7 -30 4 -33 -47 -62 -54 -31 -97 -73 -97 -97 0 -6
-10 -20 -21 -31 -24 -21 -69 -110 -69 -136 0 -9 -18 -49 -39 -90 -21 -40 -45
-91 -51 -113 -7 -22 -29 -63 -47 -92 -52 -78 -46 -87 60 -91 72 -2 94 1 127
18 l41 21 -6 -23 c-7 -28 12 -50 100 -113 43 -31 60 -50 60 -67 0 -19 6 -24
40 -28 l40 -5 -35 -24 c-19 -14 -52 -39 -72 -57 -21 -19 -61 -45 -90 -60 -29
-15 -69 -40 -89 -55 -20 -16 -40 -29 -43 -29 -3 0 -6 18 -6 40 0 37 -2 40 -27
42 -49 2 -68 -2 -83 -21 -10 -12 -40 -23 -85 -31 -103 -17 -107 -19 -103 -43
4 -27 62 -41 131 -32 28 3 62 1 81 -6 33 -12 33 -12 20 -48 -7 -20 -13 -41
-14 -48 0 -7 -9 -38 -21 -69 -21 -56 -21 -56 -55 -49 -49 9 -69 0 -93 -41 -26
-44 -27 -71 -1 -79 l20 -6 -20 -26 c-11 -14 -20 -33 -20 -42 0 -49 -83 -121
-139 -121 -20 0 -19 2 4 36 30 45 31 63 4 98 -27 34 -37 33 -85 -8 -33 -28
-42 -43 -52 -96 -11 -53 -20 -68 -58 -103 -24 -22 -44 -45 -44 -51 0 -6 -15
-21 -33 -33 l-34 -21 -11 32 c-16 42 -15 46 6 46 9 0 43 24 76 54 72 67 71 86
-4 86 -36 0 -50 4 -50 14 0 7 -16 26 -36 41 l-36 28 27 22 c23 17 27 27 21 48
-8 33 -9 32 169 92 154 52 169 60 162 87 -4 13 3 23 24 33 42 22 39 58 -11
107 -22 22 -40 50 -40 61 0 37 -30 55 -157 98 -120 40 -124 42 -101 57 64 42
96 84 103 134 6 42 4 53 -19 82 -14 18 -45 47 -70 63 -25 17 -43 33 -39 37 3
3 58 6 121 6 l114 0 34 34 c39 39 43 62 14 71 -11 3 -25 15 -30 26 -6 10 -17
19 -25 19 -9 0 -12 6 -9 15 4 8 -1 17 -10 21 -14 5 -14 9 0 36 9 17 13 40 10
53 -5 18 -1 24 17 29 36 9 98 7 133 -6 50 -18 86 2 82 45 -3 28 -8 33 -43 42
-22 5 -43 15 -48 22 -4 7 -22 15 -41 18 -30 6 -33 9 -31 42 2 27 10 39 39 59
20 14 36 29 36 34 0 14 -70 12 -110 -2 -30 -10 -35 -9 -52 12 -31 39 -24 57
26 62 25 3 57 15 71 26 15 12 42 24 61 28 43 8 56 25 52 66 -3 33 -3 33 -60
36 -57 3 -58 4 -58 32 0 61 -82 46 -183 -33 -44 -35 -52 -38 -90 -32 -22 4
-47 13 -54 20 -17 18 -137 37 -204 33 l-54 -3 -3 -76 c-2 -67 0 -78 21 -101
l23 -25 -23 -29 -23 -29 0 -1979 0 -1980 46 70 c67 100 150 204 338 423 92
107 201 236 244 288 42 51 91 100 109 108 18 9 63 18 100 22 38 3 76 10 86 15
12 6 17 5 17 -7 0 -27 31 -16 41 15 11 30 12 30 83 30 68 0 74 -2 102 -31 58
-62 122 -75 182 -39 23 14 50 20 92 20 57 0 60 1 60 24 0 18 8 27 30 35 33 11
39 31 14 52 -12 10 -27 10 -74 1 -36 -8 -66 -9 -81 -3 l-24 9 28 12 c21 11 27
20 27 46 0 28 -5 34 -32 43 -43 13 -227 40 -298 43 l-55 3 3 35 c9 99 67 192
146 232 76 38 184 119 210 156 14 21 33 59 42 85 21 61 35 60 27 -2 -5 -44 -3
-52 21 -76 24 -24 33 -27 79 -23 33 3 97 24 175 58 95 41 125 51 131 41 14
-22 46 -8 49 22 2 15 12 32 22 37 29 16 65 -24 61 -66 -2 -28 2 -35 28 -48 16
-9 53 -16 82 -16 51 0 54 2 108 59 31 32 66 62 78 65 13 4 26 18 29 31 3 13
15 27 26 31 28 8 98 73 98 90 0 26 -59 46 -120 42 -54 -4 -57 -3 -69 23 -7 15
-44 57 -82 94 l-70 66 32 41 c18 22 35 57 38 77 5 30 11 37 34 39 25 3 27 1
27 -32 0 -28 4 -36 18 -36 25 0 50 21 54 45 2 14 10 19 25 17 12 -2 24 2 28 8
5 8 11 3 19 -12 13 -27 41 -35 61 -18 11 9 15 33 15 80 0 53 3 69 16 74 13 5
15 1 11 -21 -22 -103 -30 -194 -19 -205 18 -18 39 6 63 72 22 61 51 83 68 52
16 -32 51 -151 51 -176 0 -28 16 -36 76 -36 58 0 94 32 94 85 0 50 -36 85 -89
85 -37 0 -40 3 -52 38 -6 20 -20 53 -30 73 -24 48 -14 55 28 19 21 -19 45 -30
63 -30 56 0 60 6 60 89 0 47 -5 83 -12 92 -7 7 12 -10 42 -38 52 -49 89 -72
60 -38 -17 20 -7 19 40 -5 50 -25 52 -29 51 -100 0 -52 3 -60 18 -60 10 0 24
-7 31 -15 7 -8 23 -15 36 -15 33 0 48 57 30 111 -16 45 -11 49 64 49 67 0 110
10 110 26 0 24 -66 89 -120 118 -42 23 -58 26 -93 21 -23 -4 -55 -14 -70 -22
-27 -14 -28 -15 -13 -39 19 -28 12 -30 -30 -6 -34 19 -104 93 -104 111 0 6 -7
14 -15 17 -28 11 -17 34 16 34 55 0 109 22 139 57 33 37 38 68 14 77 -26 10
-104 7 -126 -5 -21 -11 -21 -6 3 58 8 22 47 29 208 36 54 2 54 2 81 52 l27 50
102 29 102 29 29 -28 c17 -16 30 -34 30 -41 0 -7 33 -14 96 -18 81 -6 100 -5
122 10 32 20 61 54 62 72 0 21 -64 42 -127 42 -69 0 -62 10 30 40 57 18 67 25
67 45 0 20 6 23 55 27 58 5 95 28 95 58 0 10 -6 20 -14 23 -16 6 -239 -9 -309
-21 -39 -7 -42 -10 -45 -41 -2 -19 2 -37 8 -41 14 -9 -89 -30 -146 -30 -114 0
-203 -44 -252 -125 -22 -36 -32 -44 -57 -45 -16 0 -41 -3 -54 -7 -21 -5 -23
-3 -16 18 17 57 30 72 75 85 50 15 118 67 177 136 35 41 45 46 118 63 44 9
106 26 138 35 44 14 64 16 85 8 23 -9 33 -7 66 16 21 14 44 26 51 26 16 0 67
123 63 151 -5 36 -43 51 -121 46 -75 -5 -117 -31 -117 -73 0 -21 35 -55 70
-66 14 -5 -126 -41 -208 -54 -37 -6 -37 -5 -36 28 1 18 6 51 12 72 6 22 9 43
6 48 -9 14 -62 9 -68 -7 -6 -18 -86 -21 -103 -4 -23 23 -48 5 -53 -39 l-5 -43
-47 45 c-34 34 -55 46 -76 46 -48 0 -55 -18 -50 -134 l5 -105 -30 -21 c-21
-16 -32 -19 -40 -11 -6 6 -28 11 -49 11 -33 0 -38 -3 -38 -23 0 -12 9 -28 20
-35 23 -14 26 -32 6 -32 -8 0 -26 25 -41 55 -20 43 -30 55 -49 55 -41 0 -82
-67 -92 -152 l-6 -53 -77 0 c-103 0 -145 -23 -149 -82 -3 -38 0 -43 29 -58 20
-11 49 -16 80 -13 49 3 49 3 49 -28 0 -38 27 -58 98 -77 l48 -12 -23 -51 c-19
-43 -36 -60 -99 -103 -63 -42 -80 -50 -102 -43 -49 13 -130 7 -151 -13 -20
-17 -21 -17 -51 9 -36 30 -65 39 -106 34 -29 -3 -29 -3 -26 -68 l3 -65 -66
-29 c-36 -15 -85 -44 -110 -63 -47 -36 -133 -78 -142 -70 -2 3 0 31 6 63 7 39
8 61 1 68 -19 19 -10 38 42 95 60 66 187 233 224 297 30 50 41 51 105 7 55
-36 115 -30 146 16 13 19 23 43 23 53 0 29 -52 76 -93 83 -47 9 -48 25 -2 25
19 0 35 4 35 8 0 5 21 30 47 56 52 53 116 89 189 107 71 17 102 35 120 70 26
51 15 59 -76 59 -81 0 -81 0 -66 21 16 23 122 62 197 73 52 8 132 53 149 86 8
15 8 27 -2 47 -12 25 -25 32 -88 50 -11 3 -9 8 9 22 16 12 20 21 12 25 -23 15
-8 23 92 51 100 28 126 44 127 76 0 11 12 18 35 22 19 3 48 15 64 26 18 13 45
21 68 21 26 0 46 6 56 18 16 17 15 20 -7 41 -14 14 -42 25 -68 28 -76 8 -93
19 -106 69 -17 63 -57 86 -137 81 -33 -2 -67 -7 -76 -11 -13 -6 -18 0 -23 27
-13 68 -68 85 -80 24 -10 -48 -53 -87 -95 -87 -29 1 -40 7 -56 33 -30 48 -50
46 -106 -11 -36 -37 -49 -58 -49 -80 0 -16 -9 -37 -20 -47 -11 -10 -20 -27
-20 -38 0 -16 -4 -18 -22 -12 -41 13 -70 10 -81 -7 -9 -14 -6 -24 21 -51 17
-18 32 -41 32 -50 0 -15 43 -50 74 -60 4 -1 -2 -29 -15 -62 -23 -58 -25 -60
-69 -68 -25 -4 -71 -5 -103 -2 -69 7 -110 -12 -105 -48 2 -18 13 -24 60 -32
31 -5 60 -13 64 -17 4 -5 16 -8 28 -8 17 0 14 -6 -19 -40 -77 -79 -141 -110
-128 -62 7 28 -20 46 -46 30 -12 -7 -21 -18 -21 -25 0 -7 -4 -13 -10 -13 -5 0
-10 -18 -10 -40 0 -33 4 -42 28 -54 16 -8 34 -22 41 -30 11 -13 11 -16 -3 -16
-30 0 -125 50 -131 69 -7 23 -61 39 -160 46 -44 3 -89 7 -100 8 -51 8 -126 41
-161 71 l-39 34 31 28 c40 37 60 77 96 189 24 73 29 105 27 170 -3 105 4 137
36 169 18 18 24 32 20 46 -4 11 -2 20 3 20 5 0 13 10 19 23 9 19 6 28 -14 51
-13 16 -22 35 -18 44 3 8 1 20 -5 27 -7 9 -6 16 5 25 8 7 15 16 15 20 0 14
-63 80 -77 80 -7 0 -13 4 -13 9 0 5 -16 12 -35 15 -20 4 -50 16 -68 26 -37 22
-120 33 -157 21z m505 -1285 c22 -33 44 -40 66 -20 15 14 23 14 56 4 79 -25
194 -72 189 -77 -2 -3 -21 -9 -42 -13 -28 -6 -43 -5 -58 6 -41 29 -85 16 -120
-36 -21 -33 -20 -56 5 -81 30 -30 11 -48 -44 -42 -56 7 -67 -7 -71 -90 -3 -58
-7 -69 -42 -111 -21 -26 -61 -61 -89 -79 -67 -43 -151 -122 -177 -168 -23 -41
-48 -50 -108 -37 -19 4 -52 8 -72 8 -33 0 -38 -3 -38 -22 -1 -21 -1 -22 -11
-5 -17 29 -72 47 -141 47 -50 0 -66 -4 -85 -22 -13 -12 -23 -30 -23 -39 0 -13
-12 -22 -40 -29 -22 -6 -40 -15 -40 -20 0 -19 -34 -10 -61 16 -15 14 -44 31
-64 38 l-38 13 84 72 c82 70 85 71 144 73 33 1 77 2 97 1 41 -2 54 16 43 60
-6 24 -5 24 65 29 46 4 75 11 81 19 5 8 7 35 4 61 -3 35 0 48 11 52 27 10 54
7 80 -10 21 -14 31 -15 63 -5 33 9 71 45 71 66 0 12 -86 45 -118 45 -20 0 -47
10 -67 26 -28 21 -43 25 -80 22 -40 -3 -43 -2 -28 10 50 38 221 132 318 176
208 92 254 103 280 62z m-1137 -995 c29 -4 60 -14 68 -22 12 -13 8 -20 -31
-52 -72 -60 -106 -147 -70 -177 18 -15 330 -8 382 8 39 13 44 8 31 -29 -13
-39 3 -59 51 -60 31 -1 29 -2 -15 -9 -65 -10 -106 -29 -119 -57 -8 -18 -20
-23 -75 -28 -82 -8 -90 -11 -90 -30 0 -26 50 -37 142 -33 71 3 85 2 76 -9 -5
-7 -29 -18 -51 -24 -70 -19 -150 -65 -199 -116 l-47 -48 -3 -80 -3 -80 -95 -6
c-52 -4 -108 -12 -123 -18 -24 -9 -28 -16 -25 -43 3 -28 7 -34 32 -36 16 -2
33 1 39 7 6 6 30 11 54 11 39 0 43 -2 43 -25 0 -62 -58 -124 -150 -160 -35
-14 -74 -35 -87 -47 -18 -16 -23 -18 -23 -6 0 8 9 23 20 33 11 10 20 29 20 41
0 39 -39 40 -152 4 -91 -29 -107 -38 -155 -85 -28 -29 -55 -65 -59 -79 -6 -27
-14 -30 -51 -20 -31 8 -29 16 10 34 22 11 33 23 35 42 4 31 -21 49 -80 57
l-38 6 70 77 c67 73 81 100 60 113 -6 3 -10 19 -10 34 0 16 -7 34 -15 41 -22
18 -18 35 14 62 16 14 34 41 42 61 14 40 29 49 29 17 0 -27 45 -38 79 -19 23
13 26 22 28 73 1 33 6 62 10 67 4 4 38 19 76 33 69 26 138 68 170 104 17 19
17 20 -6 26 -13 3 -39 1 -58 -4 -51 -15 -74 -13 -60 4 6 7 16 60 21 117 19
198 14 186 110 298 44 51 46 52 85 46 22 -4 64 -10 93 -14z"/>
</g>
</svg>
