<?xml version="1.0" standalone="no"?>
<!DOCTYPE svg PUBLIC "-//W3C//DTD SVG 20010904//EN"
 "http://www.w3.org/TR/2001/REC-SVG-20010904/DTD/svg10.dtd">
<svg version="1.0" xmlns="http://www.w3.org/2000/svg"
 width="2400.000000pt" height="1600.000000pt" viewBox="0 0 2400.000000 1600.000000"
 preserveAspectRatio="xMidYMid meet">
<metadata>
Created by potrace 1.13, written by Peter Selinger 2001-2015
</metadata>
<g transform="translate(0.000000,1600.000000) scale(0.100000,-0.100000)"
fill="#000000" stroke="none">
<path d="M0 14436 l0 -738 843 5 c609 3 923 9 1137 21 162 9 305 19 317 21 13
3 25 17 32 36 24 68 6 130 -48 168 -16 12 -32 35 -36 51 -3 16 -22 43 -41 60
-39 34 -82 39 -128 15 -16 -9 -30 -14 -31 -13 -2 2 -7 26 -13 53 -24 110 -111
222 -193 247 -70 20 -121 -13 -152 -99 l-17 -48 -54 3 c-49 3 -61 0 -122 -37
-37 -23 -71 -41 -76 -41 -4 0 -14 15 -22 33 -30 70 -104 107 -216 107 -64 0
-146 -11 -181 -25 -11 -4 -20 3 -28 24 -17 39 -61 56 -143 55 -46 0 -69 4 -72
12 -8 21 -66 46 -121 53 l-50 6 -7 65 c-11 116 -69 231 -140 277 -34 23 -55
29 -118 31 l-77 4 -32 83 c-40 104 -118 226 -184 284 l-27 24 0 -737z"/>
<path d="M8062 14771 c-4 -11 -26 -33 -49 -50 -30 -22 -43 -38 -43 -55 0 -34
-41 -63 -108 -75 -108 -20 -137 -33 -137 -61 0 -18 6 -26 23 -28 35 -5 26 -20
-19 -27 -22 -4 -43 -13 -45 -20 -4 -9 -16 -10 -47 -4 -82 16 -121 11 -171 -22
-48 -32 -96 -91 -96 -119 0 -15 -62 -50 -88 -50 -7 0 -17 -9 -24 -20 -7 -11
-23 -20 -36 -20 -24 0 -62 -20 -99 -54 -32 -27 -30 -69 2 -84 35 -16 39 -16
112 14 52 20 70 23 96 15 18 -5 105 -12 195 -15 147 -4 168 -7 217 -30 105
-50 202 -57 293 -21 l42 17 0 364 c0 200 -2 364 -5 364 -3 0 -9 -9 -13 -19z"/>
<path d="M507 12591 l-77 -40 -43 25 c-82 46 -147 22 -224 -83 -65 -89 -86
-125 -117 -203 -15 -36 -31 -73 -36 -82 -6 -11 -10 -170 -10 -398 l0 -380 65
0 c36 0 107 4 158 10 51 5 360 14 687 20 585 10 1020 26 1515 55 138 9 303 18
368 22 120 6 144 15 119 46 -5 7 -6 21 -1 32 4 11 8 39 8 62 1 37 -3 44 -29
58 -16 8 -46 15 -66 15 -28 0 -46 7 -66 27 -22 21 -39 28 -73 28 -25 0 -45 3
-45 6 0 17 -87 102 -124 122 -58 30 -157 30 -209 0 -56 -34 -64 -30 -72 29 -6
40 -15 60 -40 85 -18 18 -39 33 -47 33 -8 0 -22 16 -31 35 -9 18 -27 41 -41
50 -15 10 -27 30 -31 53 -4 20 -15 53 -26 74 -29 57 -141 170 -201 204 -50 27
-59 29 -168 29 l-115 0 -86 -58 -85 -58 -39 17 c-71 29 -173 -3 -295 -95 -62
-46 -70 -49 -70 -22 0 11 -16 46 -35 79 -38 66 -89 105 -160 123 -38 10 -48
17 -60 45 -15 37 -47 61 -91 69 -21 4 -50 -5 -107 -34z"/>
<path d="M6346 8444 c-9 -8 -16 -21 -16 -28 0 -21 -115 -187 -175 -253 -38
-42 -64 -63 -80 -63 -12 0 -27 -6 -32 -12 -5 -7 -36 -91 -69 -187 -32 -95 -63
-175 -69 -176 -5 -2 -22 -6 -37 -9 -16 -4 -29 -15 -33 -29 -3 -12 -16 -44 -28
-70 -17 -39 -19 -52 -9 -68 19 -29 14 -63 -11 -87 l-22 -21 -50 47 c-28 26
-80 82 -117 123 -49 57 -84 85 -136 112 -38 20 -77 37 -86 37 -23 0 -44 -53
-56 -142 -6 -41 -24 -101 -40 -137 -27 -57 -30 -73 -30 -163 0 -54 5 -142 11
-195 15 -136 10 -153 -71 -237 -37 -40 -75 -87 -84 -105 -10 -18 -35 -50 -56
-71 -41 -41 -100 -146 -100 -178 0 -10 5 -23 11 -29 9 -9 4 -19 -19 -42 l-31
-31 -146 31 c-80 17 -151 29 -158 26 -12 -5 -77 -181 -77 -210 0 -8 -8 -17
-17 -19 -14 -4 -21 -23 -30 -80 -7 -46 -26 -104 -48 -149 -43 -89 -43 -121 0
-130 17 -4 23 -7 15 -8 -8 -1 -79 -8 -156 -15 -149 -15 -171 -22 -217 -68 -25
-25 -29 -39 -39 -125 -5 -54 -8 -147 -5 -208 3 -84 1 -122 -12 -160 -15 -47
-18 -50 -60 -58 -25 -5 -73 -6 -108 -2 -58 6 -63 8 -63 31 0 56 -63 35 -80
-26 -13 -49 -36 -52 -44 -6 -13 68 -84 91 -73 23 3 -17 8 -41 11 -52 5 -16 -2
-24 -36 -39 -72 -33 -129 -102 -179 -215 -24 -55 -51 -103 -60 -106 -22 -7
-69 14 -69 31 0 7 -8 30 -17 50 -17 34 -20 36 -58 31 -28 -4 -48 -15 -65 -35
l-25 -29 -151 5 -150 4 -46 -53 c-25 -30 -63 -85 -84 -124 -20 -38 -39 -72
-40 -73 -1 -2 -34 3 -73 12 -119 27 -136 24 -189 -36 -26 -28 -72 -84 -103
-124 -50 -65 -58 -71 -71 -58 -25 25 -87 8 -125 -34 l-33 -35 -82 17 c-170 37
-375 118 -452 179 -30 24 -28 52 5 62 30 10 120 81 140 112 11 15 19 44 19 63
0 38 -31 97 -55 106 -37 14 -1 123 50 153 41 24 69 65 61 87 -6 14 -17 16 -79
10 -103 -10 -143 -24 -198 -74 -42 -37 -49 -49 -49 -81 0 -20 4 -41 8 -46 5
-6 17 -31 26 -57 17 -47 17 -48 -6 -90 -19 -35 -29 -44 -56 -46 l-32 -3 -2 63
c-1 35 -2 86 -3 113 0 28 -4 61 -7 75 -4 14 -12 59 -18 100 -6 41 -14 84 -17
94 -5 18 -4 18 22 -2 26 -21 95 -31 95 -14 0 4 -11 64 -24 134 -26 142 -38
162 -148 253 -62 51 -62 52 -92 230 -11 63 -15 70 -37 73 -23 3 -25 -1 -62
-175 l-38 -178 17 -85 c21 -111 21 -106 -14 -240 -39 -148 -52 -244 -52 -385
0 -110 -1 -113 -26 -129 -21 -14 -25 -24 -22 -54 3 -32 7 -38 33 -42 29 -5 28
-6 -25 -28 -107 -45 -260 -151 -372 -258 -57 -55 -58 -55 -92 -43 -48 18 -63
8 -71 -48 -3 -26 -12 -59 -20 -73 -13 -24 -14 -24 -21 -5 -18 51 -53 67 -89
41 -17 -12 -18 -18 -8 -37 7 -13 17 -44 23 -69 7 -25 23 -57 36 -71 22 -23 23
-28 10 -41 -8 -9 -43 -17 -83 -21 -69 -5 -153 -32 -199 -62 l-24 -15 0 -545 0
-545 4040 0 4040 0 0 2025 0 2025 -72 -36 c-40 -20 -85 -45 -100 -55 -14 -11
-31 -19 -38 -19 -7 0 -40 30 -75 68 l-63 67 -236 4 c-161 2 -236 7 -236 14 0
6 -11 23 -25 37 -20 21 -27 46 -41 135 -14 92 -15 144 -8 315 16 387 12 419
-67 541 l-40 62 -155 -5 -155 -6 -47 38 c-110 87 -193 204 -232 329 -17 53
-78 121 -108 121 -11 0 -28 -7 -36 -16z"/>
</g>
</svg>
