<?xml version="1.0" standalone="no"?>
<!DOCTYPE svg PUBLIC "-//W3C//DTD SVG 20010904//EN"
 "http://www.w3.org/TR/2001/REC-SVG-20010904/DTD/svg10.dtd">
<svg version="1.0" xmlns="http://www.w3.org/2000/svg"
 width="2400.000000pt" height="1600.000000pt" viewBox="0 0 2400.000000 1600.000000"
 preserveAspectRatio="xMidYMid meet">
<metadata>
Created by potrace 1.13, written by Peter Selinger 2001-2015
</metadata>
<g transform="translate(0.000000,1600.000000) scale(0.100000,-0.100000)"
fill="#000000" stroke="none">
<path d="M7946 15366 c-81 -30 -128 -88 -141 -173 -5 -37 -9 -43 -23 -38 -9 4
-37 10 -62 12 -61 7 -102 -26 -120 -94 -7 -27 -14 -49 -15 -51 -2 -2 -29 11
-62 27 -32 17 -78 33 -102 37 -27 4 -45 13 -48 23 -3 9 -24 28 -48 44 -86 54
-175 21 -175 -65 0 -13 -4 -28 -9 -34 -5 -5 -19 -40 -31 -79 -13 -38 -26 -74
-30 -78 -4 -5 -21 -2 -38 7 -17 9 -47 16 -66 16 -56 0 -86 -46 -99 -150 -2
-11 -17 -16 -52 -18 -76 -4 -95 -10 -105 -37 -5 -14 -17 -25 -25 -25 -12 0
-15 -8 -13 -32 l3 -33 100 -6 c55 -3 119 -13 142 -22 85 -32 196 -41 335 -27
98 10 161 11 270 3 91 -7 165 -7 203 -1 33 5 124 11 203 14 l142 6 0 384 c0
210 -4 385 -8 388 -23 14 -91 15 -126 2z"/>
<path d="M7867 6453 c-4 -21 -7 -63 -7 -93 0 -30 -3 -86 -7 -124 -5 -53 -8
-64 -15 -47 -6 17 -14 22 -35 19 -25 -3 -28 -7 -25 -36 3 -44 -12 -72 -38 -65
-13 3 -30 -5 -50 -23 -32 -31 -37 -53 -17 -85 10 -17 9 -22 -5 -30 -28 -16
-22 -56 9 -73 l27 -14 -49 -14 c-38 -10 -50 -18 -50 -33 0 -18 8 -20 78 -23
70 -3 78 -5 71 -20 -5 -9 -9 -114 -10 -232 -1 -215 -17 -353 -45 -386 -6 -8
-26 -14 -43 -14 -39 0 -71 -22 -93 -63 -14 -26 -17 -64 -18 -207 -1 -174 -6
-210 -29 -210 -7 0 -34 -14 -62 -32 -27 -17 -78 -39 -114 -48 -135 -35 -219
-100 -275 -213 -33 -65 -40 -73 -83 -89 -26 -10 -48 -18 -50 -18 -2 0 6 12 17
26 16 21 18 30 10 41 -9 10 -8 18 5 32 14 15 15 24 6 40 -16 31 -39 26 -83
-21 l-39 -43 6 30 c30 151 36 305 12 305 -16 0 -21 -13 -32 -75 -8 -50 -23
-80 -24 -48 0 26 -12 35 -34 27 -11 -4 -16 -19 -16 -50 0 -24 -4 -44 -10 -44
-5 0 -10 7 -10 15 0 8 -9 15 -20 15 -20 0 -20 -4 -14 -75 5 -53 3 -75 -5 -75
-6 0 -11 4 -11 9 0 14 -64 51 -87 51 -10 0 -28 -6 -38 -14 -19 -13 -18 -15 8
-52 14 -22 49 -66 77 -99 l51 -60 -31 -13 c-17 -7 -34 -20 -37 -29 -8 -20 22
-43 54 -43 29 0 28 -7 -1 -100 -30 -96 -60 -163 -97 -221 -28 -44 -32 -47
-134 -78 -101 -31 -106 -34 -161 -94 -31 -34 -78 -94 -105 -133 -41 -62 -64
-84 -86 -84 -2 0 5 12 16 26 30 38 27 80 -8 115 -50 50 -80 34 -81 -42 0 -26
-34 -79 -50 -79 -5 0 -25 16 -45 35 -29 29 -33 39 -25 55 10 19 46 46 93 70
35 17 30 33 -15 44 -41 10 -120 -7 -139 -30 -6 -8 -20 -14 -31 -14 -17 0 -19
4 -13 23 12 35 9 77 -7 93 -12 12 -29 13 -102 5 -105 -12 -157 -42 -193 -111
-20 -38 -23 -55 -19 -112 6 -78 23 -115 72 -156 l35 -29 -33 -21 c-18 -11 -45
-33 -58 -47 -45 -49 -76 -58 -159 -51 -99 9 -227 41 -321 79 -66 28 -86 31
-175 32 -93 0 -104 -2 -149 -29 -28 -16 -77 -55 -111 -86 -107 -99 -191 -113
-314 -50 -54 27 -61 34 -61 61 0 23 14 45 64 98 76 81 95 115 89 159 -5 30
-18 39 -48 32 -5 -1 -29 -3 -52 -4 -31 -2 -54 -11 -84 -35 -22 -18 -43 -30
-47 -27 -8 9 33 84 79 144 30 40 40 47 65 44 41 -4 69 27 61 66 -4 20 2 44 19
77 25 50 32 109 13 120 -5 4 -14 17 -19 30 -14 37 -110 40 -110 3 0 -7 -18
-30 -39 -51 -22 -21 -45 -54 -51 -73 -10 -28 -15 -33 -26 -23 -7 6 -11 15 -8
20 3 5 -4 21 -15 35 l-21 27 31 41 c93 124 149 217 155 258 4 24 13 50 21 60
8 9 13 31 11 50 -3 30 -6 33 -38 34 -19 0 -44 5 -55 11 -11 6 -45 11 -77 12
-49 0 -58 -3 -72 -24 -9 -13 -16 -32 -16 -41 0 -9 -18 -37 -41 -61 -22 -24
-54 -72 -70 -106 -24 -51 -29 -57 -29 -34 0 43 -26 96 -54 108 -19 9 -26 21
-28 48 -3 35 -4 36 -46 39 -50 4 -72 -10 -72 -44 0 -13 -8 -28 -18 -33 -10 -5
-27 -26 -37 -45 -11 -20 -23 -36 -27 -36 -30 0 -63 -120 -38 -135 6 -3 10 -38
10 -76 0 -95 25 -208 66 -304 l34 -79 -17 -48 c-9 -27 -20 -48 -25 -48 -15 0
-57 198 -58 275 0 50 -35 113 -79 142 -57 38 -74 32 -127 -47 -38 -57 -45 -74
-39 -97 17 -67 17 -134 0 -153 -9 -10 -15 -30 -13 -47 3 -24 8 -28 38 -31 43
-4 69 -36 85 -106 11 -48 14 -51 43 -50 26 2 39 -7 82 -57 l51 -58 -28 -8
c-89 -25 -231 3 -333 66 -44 27 -63 32 -148 37 -60 4 -124 2 -169 -5 -63 -11
-74 -11 -97 4 -24 16 -124 162 -161 236 -51 101 -137 139 -316 139 -124 0
-135 6 -168 83 -35 81 -35 85 -4 89 17 2 29 10 31 21 3 13 -3 17 -27 17 -28 0
-30 2 -19 19 9 15 9 23 -1 35 -7 8 -10 19 -7 25 4 5 -3 25 -14 44 l-21 35 -92
6 c-51 3 -130 11 -175 18 -81 13 -84 14 -98 46 -7 18 -33 57 -58 85 -59 70
-101 140 -132 223 -14 38 -31 75 -37 82 -22 27 -153 85 -241 107 l-91 22 -32
64 c-135 270 -132 257 -57 332 41 41 56 76 69 159 3 20 17 47 30 60 39 36 31
118 -11 118 -7 0 -25 13 -42 28 -30 28 -90 52 -131 52 l-22 0 26 43 c32 56 32
72 -5 98 l-29 22 29 33 c16 19 32 49 36 68 4 25 12 36 26 38 12 2 26 11 31 20
15 23 -6 68 -32 68 -12 0 -21 9 -25 25 -9 36 -61 65 -118 65 -45 0 -50 -3 -79
-42 -37 -51 -99 -175 -99 -200 0 -26 -18 -31 -30 -8 -12 22 -69 54 -116 64
-25 6 -37 2 -62 -19 -16 -14 -37 -25 -45 -25 -25 0 -39 -71 -17 -85 5 -3 10
-23 10 -44 0 -52 23 -114 63 -170 31 -44 32 -48 21 -86 -15 -50 -17 -168 -4
-215 7 -22 7 -42 1 -55 -5 -11 -12 -28 -15 -37 -3 -10 -10 -18 -16 -18 -17 0
-27 39 -34 135 -8 99 -12 105 -103 161 -38 23 -42 28 -31 47 6 12 11 34 10 49
-1 40 -56 114 -107 144 -59 34 -89 28 -105 -23 -22 -71 -32 -93 -46 -93 -24 0
-44 45 -80 186 -35 135 -54 184 -74 184 -7 0 -10 -518 -10 -1465 l0 -1465
4040 0 4040 0 0 1645 0 1645 -37 -20 c-21 -11 -48 -27 -59 -35 l-21 -16 18
102 c10 56 16 105 13 110 -3 5 -16 9 -30 9 -20 0 -26 -7 -32 -32 -4 -21 -9 24
-12 122 -5 148 -6 155 -26 158 -18 3 -22 -4 -27 -35z m-2141 -2825 c8 -36 15
-45 51 -62 39 -19 69 -57 56 -70 -4 -3 -20 -6 -37 -6 -41 -1 -104 -30 -149
-69 -53 -47 -69 -39 -86 42 -19 90 -8 134 38 161 29 17 96 44 112 46 3 0 9
-19 15 -42z"/>
</g>
</svg>
