<?xml version="1.0" standalone="no"?>
<!DOCTYPE svg PUBLIC "-//W3C//DTD SVG 20010904//EN"
 "http://www.w3.org/TR/2001/REC-SVG-20010904/DTD/svg10.dtd">
<svg version="1.0" xmlns="http://www.w3.org/2000/svg"
 width="2400.000000pt" height="1600.000000pt" viewBox="0 0 2400.000000 1600.000000"
 preserveAspectRatio="xMidYMid meet">
<metadata>
Created by potrace 1.13, written by Peter Selinger 2001-2015
</metadata>
<g transform="translate(0.000000,1600.000000) scale(0.100000,-0.100000)"
fill="#000000" stroke="none">
<path d="M2949 15972 c-25 -16 -63 -50 -84 -75 -40 -46 -40 -47 -79 -36 -55
15 -103 5 -147 -31 -21 -16 -48 -30 -61 -30 -38 0 -68 -27 -68 -62 0 -22 6
-31 21 -35 12 -4 18 -11 15 -20 -3 -8 -6 -18 -6 -23 0 -4 -31 -10 -70 -12 -80
-4 -120 -31 -120 -79 0 -22 -6 -30 -34 -39 -45 -15 -68 -42 -64 -77 l3 -28 83
3 c69 3 82 1 82 -12 0 -13 12 -16 58 -16 32 0 63 5 70 12 8 8 32 9 94 0 46 -6
92 -11 103 -11 11 0 48 -8 82 -17 54 -16 68 -17 115 -5 29 7 82 12 118 10 142
-8 422 -1 540 14 362 47 364 47 379 26 11 -16 26 -19 86 -19 98 0 235 19 262
36 17 11 68 14 226 14 144 0 206 3 215 12 26 26 4 147 -34 189 -9 10 -30 21
-48 25 -34 7 -66 31 -66 49 0 17 -30 41 -65 52 -21 7 -31 18 -37 41 -10 36
-42 62 -78 62 -16 0 -38 13 -60 37 -75 79 -18 73 -741 73 l-645 0 -45 -28z"/>
<path d="M0 14861 l0 -651 239 7 c212 5 241 4 262 -10 29 -21 94 -22 162 -2
29 8 113 19 187 25 74 5 182 15 239 22 80 9 122 9 185 0 103 -15 204 -15 301
-1 63 10 79 16 100 40 l24 29 131 0 c123 0 132 1 137 20 5 18 14 20 122 21 64
0 136 4 161 7 42 6 45 9 48 39 4 36 -43 111 -91 147 -36 26 -108 28 -156 3
-43 -21 -41 -22 -41 9 0 35 -27 78 -60 98 -30 17 -87 21 -109 7 -9 -6 -29 -1
-59 15 -25 13 -57 24 -71 24 -22 0 -32 12 -69 80 -54 101 -74 114 -166 114
-60 0 -79 -4 -118 -27 -26 -15 -59 -43 -74 -63 l-27 -35 -17 29 c-24 38 -64
69 -102 77 -17 4 -51 18 -76 31 -25 13 -57 24 -71 24 -32 0 -101 -45 -101 -65
0 -17 -56 -49 -70 -40 -6 3 -10 12 -10 20 0 20 -40 55 -64 55 -34 1 -53 23
-61 70 -9 53 -42 135 -61 151 -8 6 -14 20 -14 30 0 31 -51 79 -85 79 -45 1
-127 -15 -152 -28 -32 -18 -43 -15 -43 11 0 21 -45 100 -105 184 -31 43 -109
83 -188 98 l-37 7 0 -651z"/>
<path d="M6261 13224 c-29 -15 -55 -32 -58 -40 -2 -7 -42 -38 -87 -68 -45 -30
-91 -65 -101 -76 -15 -16 -30 -20 -85 -20 -131 0 -221 -46 -240 -123 -6 -23
-15 -50 -20 -59 -6 -10 -10 -31 -10 -48 0 -26 4 -31 32 -37 31 -6 30 -7 -32
-27 -61 -20 -65 -23 -65 -51 0 -24 5 -31 27 -35 l27 -5 -50 -73 c-27 -41 -49
-80 -49 -87 0 -8 -10 -20 -22 -26 -19 -10 -25 -8 -47 20 -17 20 -35 31 -51 31
-15 0 -31 9 -38 21 -20 32 -47 20 -216 -101 -84 -61 -159 -110 -166 -110 -7 0
18 31 56 68 74 73 121 148 111 175 -4 11 -18 17 -35 17 -24 0 -55 -23 -157
-119 -115 -107 -132 -119 -172 -125 -42 -6 -49 -3 -86 30 -45 41 -103 69 -164
79 -36 6 -45 3 -75 -24 -33 -29 -33 -31 -31 -108 1 -43 7 -110 13 -150 10 -61
9 -76 -5 -103 -15 -30 -18 -31 -34 -16 -10 9 -25 16 -34 16 -10 0 -17 8 -17
19 0 26 -15 34 -37 22 -10 -5 -58 -39 -107 -76 -87 -64 -89 -65 -53 -23 61 70
90 116 83 133 -15 40 -134 -5 -212 -79 -43 -41 -52 -46 -71 -37 -15 7 -23 19
-23 35 0 14 -7 40 -15 58 -7 18 -17 63 -20 99 -8 83 -31 127 -79 152 -42 22
-58 18 -82 -19 -14 -20 -18 -51 -20 -133 -2 -116 -14 -161 -42 -161 -27 0 -61
-28 -82 -68 -57 -110 -70 -140 -70 -173 0 -23 -7 -42 -19 -53 -11 -10 -25 -31
-31 -47 -9 -20 -34 -42 -79 -69 -36 -21 -81 -50 -100 -64 -21 -16 -48 -26 -67
-26 l-33 0 2 69 c2 66 0 72 -30 103 l-32 33 21 60 c42 117 18 244 -52 280 -18
9 -37 32 -49 60 -21 48 -63 74 -91 58 -31 -19 -52 -82 -54 -161 -1 -42 -7 -86
-13 -97 -20 -36 -43 -168 -43 -242 0 -81 21 -150 70 -226 24 -38 28 -52 20
-67 -6 -11 -15 -20 -20 -20 -5 0 -25 -14 -44 -30 l-35 -31 -56 16 c-47 14 -64
15 -108 5 -29 -7 -59 -15 -67 -20 -8 -4 -40 -5 -72 -2 -51 4 -57 2 -68 -19
-19 -35 -14 -134 13 -242 l24 -98 -53 -34 -54 -35 0 -65 0 -66 -66 -70 c-36
-38 -76 -93 -89 -122 -55 -117 -14 -144 86 -57 32 28 60 50 63 50 3 0 -7 -19
-24 -42 -22 -30 -30 -52 -30 -85 0 -40 2 -43 27 -43 21 0 46 18 100 72 73 72
73 72 73 41 0 -78 9 -92 79 -127 36 -19 102 -46 146 -62 44 -15 81 -28 83 -30
9 -6 -32 -54 -51 -60 -27 -8 -37 -22 -37 -52 0 -29 33 -42 111 -42 95 0 116
14 188 124 45 67 67 94 75 86 35 -35 72 19 43 64 -16 23 -15 25 25 51 l41 28
26 -32 c14 -17 35 -31 46 -31 11 0 34 -9 50 -20 17 -11 36 -20 43 -20 8 0 25
-9 39 -20 35 -28 63 -25 111 10 37 27 42 28 42 11 0 -52 83 -61 150 -17 45 30
75 31 137 5 27 -11 37 -10 75 6 24 11 65 40 91 64 l48 44 47 -45 c63 -60 115
-98 136 -98 25 0 30 -25 11 -54 -13 -20 -15 -37 -10 -76 l7 -50 -34 0 c-49 0
-52 8 -18 47 33 38 38 68 14 101 -20 29 -29 28 -61 -9 -16 -17 -52 -51 -81
-75 -46 -38 -60 -44 -100 -44 -68 0 -213 -25 -287 -50 -58 -19 -66 -20 -87 -6
-13 8 -42 18 -65 22 -39 6 -44 4 -91 -40 -50 -47 -92 -66 -147 -66 -60 0 -205
-88 -205 -124 0 -6 -28 -24 -63 -41 -60 -29 -62 -31 -63 -69 0 -27 -6 -41 -20
-48 -59 -32 -85 -98 -50 -127 9 -8 17 -45 21 -107 4 -52 11 -97 17 -100 5 -3
6 -21 2 -40 -3 -18 -3 -45 0 -59 6 -24 9 -25 56 -19 48 6 50 6 50 -18 0 -14
12 -36 28 -51 44 -42 102 -32 102 18 0 26 59 85 84 85 11 0 25 8 32 18 9 12
16 14 24 6 13 -13 18 -91 7 -121 -7 -19 -5 -23 13 -23 12 0 30 5 42 11 11 6
22 9 24 6 2 -2 -9 -58 -26 -123 -38 -145 -37 -170 5 -167 88 5 196 31 210 49
17 23 55 100 55 112 0 5 15 38 34 73 26 50 40 65 59 67 14 2 31 10 37 18 17
20 36 18 61 -7 28 -28 51 -20 63 20 8 29 19 38 82 67 40 18 79 34 87 36 9 2
37 -25 68 -67 82 -108 194 -239 309 -360 71 -74 123 -140 159 -200 119 -201
131 -222 131 -229 0 -5 15 -29 34 -55 18 -25 50 -79 71 -120 21 -42 61 -100
92 -132 l54 -57 -28 -6 c-15 -4 -72 -10 -126 -15 -105 -10 -132 -22 -169 -71
-19 -26 -28 -30 -69 -30 -47 0 -48 1 -58 38 -17 59 -13 82 19 119 17 19 30 45
30 59 0 24 -3 26 -34 22 -32 -4 -36 -1 -52 35 -31 68 -100 99 -126 56 -7 -11
-31 -28 -53 -38 -63 -29 -125 -79 -125 -101 0 -10 8 -24 18 -29 15 -10 12 -15
-25 -47 -34 -28 -43 -42 -43 -68 0 -28 -5 -35 -37 -50 -68 -30 -80 -46 -88
-109 l-7 -59 43 4 c41 3 43 2 52 -31 7 -29 5 -37 -11 -50 -11 -9 -21 -21 -23
-27 -2 -6 -29 -31 -59 -55 -30 -25 -59 -55 -65 -67 -5 -12 -15 -22 -22 -22
-13 0 -15 6 -33 90 -7 30 -19 63 -28 73 -17 20 -67 23 -79 5 -5 -8 -10 6 -13
37 -4 42 -9 52 -32 63 -26 12 -28 17 -28 76 0 70 -21 109 -64 120 -16 4 -25
15 -29 36 -7 34 -47 51 -73 30 -11 -10 -18 -10 -26 -2 -7 7 -19 12 -28 12 -17
0 -76 -58 -103 -101 -12 -20 -22 -25 -41 -22 -37 7 -47 -29 -45 -153 1 -91 -1
-106 -20 -130 -11 -15 -21 -32 -21 -38 0 -7 -16 -27 -35 -46 -26 -25 -35 -42
-35 -67 0 -27 4 -34 28 -39 44 -11 53 -23 46 -60 l-6 -34 46 0 c25 0 46 -4 46
-9 0 -5 -16 -21 -36 -36 -30 -23 -34 -31 -29 -55 3 -16 2 -31 -4 -35 -17 -10
-13 -43 7 -54 13 -7 25 -6 38 3 71 48 74 44 12 -20 -51 -52 -68 -76 -68 -98 0
-20 6 -29 21 -33 14 -4 18 -11 13 -22 -14 -33 -16 -110 -4 -147 7 -22 24 -51
38 -66 22 -24 33 -28 84 -28 32 0 58 4 58 8 0 5 11 14 25 20 21 10 27 9 32 -4
3 -8 1 -20 -6 -27 -6 -6 -11 -22 -11 -35 0 -24 1 -24 63 -18 l62 7 -42 -43
c-25 -25 -43 -53 -43 -66 0 -34 44 -31 155 13 14 6 12 1 -7 -14 -16 -12 -28
-31 -28 -42 0 -27 37 -25 116 7 35 14 75 24 89 22 23 -3 21 -6 -29 -44 -29
-23 -73 -51 -98 -61 -57 -26 -98 -75 -98 -117 0 -40 44 -85 91 -95 26 -5 35
-13 41 -38 5 -19 17 -34 29 -38 20 -7 19 -9 -15 -37 -108 -89 -81 -222 52
-267 l54 -19 -54 -30 c-77 -43 -95 -47 -103 -22 -3 11 -15 25 -26 30 -10 6
-19 17 -19 24 0 22 -28 39 -78 48 -89 17 -86 18 -92 -32 l-5 -45 -49 -6 c-38
-4 -55 -12 -77 -37 -16 -18 -29 -43 -29 -55 0 -41 66 -132 115 -158 44 -24 45
-25 45 -76 0 -49 -2 -53 -57 -107 -49 -47 -56 -58 -47 -73 11 -18 43 -20 174
-11 22 2 35 -2 36 -9 1 -7 2 -17 3 -22 0 -5 12 -12 26 -15 22 -6 23 -9 13 -31
-24 -52 36 -74 82 -30 14 13 59 41 100 61 41 20 97 52 123 72 46 33 53 35 132
36 46 1 88 -3 93 -9 5 -5 12 -29 16 -52 6 -42 6 -42 -47 -76 -55 -36 -107 -89
-107 -112 0 -7 -12 -20 -26 -29 -21 -14 -25 -24 -22 -54 l3 -37 83 -9 c139
-15 252 30 325 129 17 24 37 44 43 45 24 0 126 -40 156 -64 18 -13 76 -46 127
-72 66 -33 117 -68 165 -114 39 -37 98 -82 131 -100 78 -43 192 -159 231 -235
45 -86 90 -232 109 -360 9 -60 21 -129 26 -153 14 -63 11 -161 -8 -313 l-17
-137 -50 -7 c-49 -6 -253 -19 -496 -31 -90 -5 -148 -1 -270 16 -208 30 -468
33 -590 6 -47 -10 -114 -29 -150 -43 -72 -28 -55 -28 -455 1 -110 8 -257 17
-328 21 l-127 7 -6 27 c-3 14 -9 37 -13 51 -4 14 -6 42 -3 63 4 37 -22 107
-40 107 -5 0 -8 17 -8 38 0 20 -7 90 -15 154 -19 156 -13 172 45 118 39 -36
85 -41 93 -9 3 11 1 48 -3 82 -13 87 -43 367 -44 397 0 14 2 34 4 45 2 11 -16
71 -40 132 -44 112 -44 113 -77 113 -26 0 -33 4 -33 20 0 11 -9 29 -20 40 -27
27 -26 32 19 68 59 48 85 109 78 187 -7 68 -36 157 -63 186 -9 11 -29 19 -44
19 -15 0 -36 10 -50 24 -23 26 -97 56 -135 56 -12 0 -35 -10 -51 -22 -15 -13
-44 -28 -62 -33 -45 -13 -61 -38 -44 -66 11 -18 11 -24 -2 -38 -19 -21 -21
-52 -4 -69 9 -9 5 -18 -15 -38 -52 -52 -30 -176 43 -237 16 -14 30 -33 30 -43
0 -20 -28 -43 -53 -44 -37 0 -108 -101 -138 -194 -32 -104 -20 -365 23 -486
21 -59 26 -65 54 -68 l31 -3 -9 -47 c-5 -26 -15 -90 -23 -142 -24 -162 -40
-210 -86 -254 -33 -31 -39 -43 -34 -63 11 -46 -6 -41 -70 24 -73 73 -85 91
-85 126 0 26 -59 300 -114 527 -19 80 -42 190 -51 245 -8 55 -20 127 -25 160
-27 165 -51 375 -54 477 -5 217 31 763 59 886 8 35 28 82 44 105 34 50 89 159
123 242 34 82 177 299 278 420 45 55 97 121 114 147 25 38 46 54 110 85 94 45
106 66 113 188 4 61 1 85 -10 100 -14 18 -12 25 19 87 24 49 34 81 34 115 l0
48 -115 -115 c-126 -125 -158 -164 -295 -347 -50 -68 -102 -131 -116 -140 -13
-10 -83 -84 -154 -165 -82 -92 -145 -155 -170 -168 -21 -11 -42 -24 -45 -30
-22 -36 -179 -76 -195 -50 -11 18 -4 189 9 223 16 40 13 77 -4 84 -22 8 -45
56 -45 95 0 56 -47 150 -90 180 -62 43 -112 54 -157 35 -21 -8 -58 -18 -83
-22 -57 -8 -123 -37 -155 -69 -19 -19 -23 -32 -19 -53 3 -17 -2 -46 -13 -73
-20 -48 -21 -93 -3 -115 7 -8 13 -26 15 -41 1 -15 9 -32 17 -38 8 -6 18 -20
22 -31 3 -12 19 -29 36 -38 20 -12 30 -26 30 -41 0 -29 33 -72 71 -91 41 -22
41 -72 0 -103 -16 -11 -55 -45 -87 -74 -33 -30 -72 -59 -89 -67 -16 -7 -47
-24 -67 -38 -34 -23 -40 -35 -82 -167 -25 -78 -66 -192 -92 -252 -25 -60 -50
-122 -56 -139 -6 -16 -19 -46 -29 -66 -20 -39 -25 -85 -10 -91 5 -1 -2 -45
-15 -96 -13 -51 -28 -132 -34 -179 -6 -48 -18 -118 -26 -157 -8 -39 -18 -117
-21 -172 l-6 -101 46 -18 c53 -20 104 -17 161 10 35 17 71 16 144 -2 17 -4 22
-1 22 15 0 11 -7 25 -16 33 -14 12 -14 14 1 25 16 12 16 16 -1 58 -11 25 -25
46 -31 46 -21 0 -66 78 -65 111 0 17 30 92 65 167 36 76 82 189 102 252 21 63
44 122 51 130 7 9 23 41 35 73 12 32 26 54 30 50 5 -5 21 -56 35 -115 l28
-107 -17 -88 c-9 -48 -22 -123 -28 -167 -6 -43 -15 -90 -21 -105 -6 -14 -12
-91 -14 -171 -4 -173 -18 -298 -44 -400 -52 -204 -90 -491 -106 -800 -5 -88
-12 -135 -24 -160 -10 -19 -21 -54 -25 -77 l-7 -43 -81 0 c-45 0 -127 -7 -182
-15 -139 -20 -273 -18 -410 5 -114 20 -281 26 -344 14 l-31 -6 0 -489 0 -489
4040 0 4040 0 0 625 0 625 -77 38 -78 39 -180 7 c-99 3 -252 11 -340 17 l-160
12 -73 -37 c-40 -20 -123 -66 -183 -102 -126 -75 -165 -90 -263 -105 -39 -5
-118 -21 -176 -34 -131 -31 -293 -55 -363 -55 l-54 0 -36 118 c-47 150 -68
244 -106 467 -50 298 -73 484 -75 600 -1 109 0 111 43 210 87 201 257 458 321
485 18 7 57 46 94 94 84 107 91 113 114 92 28 -25 67 -21 80 9 14 30 32 32 55
5 16 -19 16 -23 2 -43 -8 -12 -15 -36 -15 -54 0 -41 14 -42 126 -10 44 13 85
22 92 19 21 -7 62 8 62 22 0 7 14 19 30 26 39 16 120 106 120 133 0 12 -14 35
-30 52 l-31 32 20 24 20 24 38 -37 c44 -43 86 -50 103 -19 5 11 20 21 32 23
20 3 23 8 20 38 -1 19 -11 51 -21 70 l-18 36 48 -24 c57 -28 77 -24 86 18 3
17 17 38 30 47 21 14 25 14 42 -1 24 -22 56 -20 73 5 l14 21 31 -26 c38 -32
46 -32 65 -4 13 20 15 20 39 5 21 -14 28 -15 43 -4 17 12 17 16 3 43 -8 16
-38 58 -66 93 -28 35 -51 67 -51 72 0 5 22 9 49 9 83 0 78 31 -22 134 -58 60
-92 80 -154 91 -36 6 -42 10 -45 33 -2 22 -11 30 -53 44 -27 9 -80 17 -117 18
-52 0 -68 3 -68 14 0 8 -2 21 -5 28 -4 10 8 21 35 33 48 22 86 63 110 121 10
22 30 48 44 58 24 15 26 21 20 54 -9 48 -30 79 -65 98 -16 8 -29 23 -29 33 0
31 -23 40 -96 39 -51 -1 -75 -6 -93 -19 -17 -13 -41 -19 -80 -19 -31 0 -76 -5
-100 -11 -24 -5 -46 -8 -48 -6 -2 3 13 39 34 81 l37 75 13 -29 c9 -22 19 -30
37 -30 21 0 26 6 32 35 l6 34 30 -15 c16 -8 46 -14 66 -12 l37 3 -1 57 c-1 48
2 57 19 62 16 4 19 11 15 40 -2 20 -1 36 3 36 21 0 42 -15 50 -37 7 -19 15
-24 37 -21 23 3 27 8 30 38 2 19 10 42 19 52 8 9 13 27 11 40 -2 19 2 24 25
26 15 2 27 -1 27 -7 0 -6 13 -11 29 -11 44 0 88 -30 95 -63 3 -16 18 -41 34
-55 15 -15 33 -40 40 -55 10 -23 18 -28 40 -25 37 4 39 29 8 128 -30 95 -31
100 -11 100 9 0 21 11 27 25 10 22 8 33 -9 69 -12 24 -24 63 -28 88 -7 44 -6
46 34 78 23 19 41 40 41 48 0 8 11 25 25 38 18 16 25 34 25 59 0 31 3 35 25
35 14 0 28 7 31 15 4 8 18 15 33 15 39 0 54 14 46 41 -9 28 -103 129 -120 129
-7 0 -18 14 -25 30 -7 17 -25 48 -40 69 -15 20 -30 47 -34 58 -7 20 -6 21 29
5 20 -10 35 -23 35 -34 0 -37 80 -64 108 -36 7 7 12 25 12 40 0 38 15 35 26
-4 9 -29 14 -33 44 -33 34 0 35 2 34 35 -1 19 -5 52 -9 73 -6 31 -5 37 9 37
23 0 97 77 119 122 19 41 13 71 -21 101 -17 16 -19 23 -10 42 8 18 6 45 -6
106 -37 182 -37 181 38 321 l66 125 0 734 0 734 -30 20 -29 20 29 27 c25 22
30 35 30 74 0 57 -17 73 -78 74 l-44 0 31 26 c33 27 39 52 19 72 -16 16 -67
15 -97 -2 -37 -20 -57 5 -66 80 l-7 61 69 43 c37 23 92 60 121 82 l52 39 0
327 0 327 -35 51 c-19 28 -55 65 -80 83 -38 27 -45 37 -42 63 3 45 -22 57 -70
33 -64 -31 -110 -15 -68 25 62 58 0 106 -79 60 l-34 -21 -12 36 c-11 34 -10
39 13 63 30 33 60 89 53 101 -3 5 -19 11 -34 14 -18 4 -31 14 -35 26 -6 25
-36 27 -75 7 l-27 -14 4 45 c2 28 -3 59 -14 84 -17 36 -21 39 -57 39 -21 0
-50 -7 -64 -16 -19 -13 -28 -14 -37 -5 -6 6 -44 11 -92 11 -76 0 -83 -2 -109
-29 -34 -36 -58 -149 -38 -181 20 -32 15 -37 -47 -49 -57 -11 -61 -11 -104 17
-42 26 -44 29 -26 40 12 8 19 23 19 42 0 35 -12 37 -86 15 -27 -8 -52 -15 -55
-15 -9 0 19 55 54 105 15 22 27 48 27 58 0 23 -28 34 -49 19 -32 -24 -40 -23
-89 12 -27 20 -67 42 -88 50 -24 9 -37 19 -35 27 27 94 27 90 -1 114 -15 13
-32 25 -38 27 -8 2 -8 12 0 35 29 81 -4 112 -122 121 -40 3 -72 10 -79 18 -20
24 -108 17 -168 -12z m-80 -1565 c-11 -57 -25 -137 -32 -176 -8 -48 -17 -73
-26 -73 -7 0 -13 9 -13 21 0 12 -10 33 -23 49 -14 16 -30 58 -40 105 l-17 78
22 16 c45 32 142 90 145 87 2 -2 -5 -50 -16 -107z m237 45 c7 -13 22 -15 76
-12 48 2 65 0 62 -9 -3 -6 -8 -39 -12 -71 l-6 -60 40 -27 41 -27 -62 -63 c-34
-35 -98 -104 -142 -153 -44 -50 -84 -91 -90 -91 -5 0 -29 14 -51 32 -23 17
-49 37 -57 42 -14 9 -13 20 8 102 26 102 80 240 120 308 27 47 56 59 73 29z
m-710 -114 c6 -11 46 -47 88 -80 62 -49 82 -60 113 -60 37 0 37 -1 51 -52 7
-29 15 -59 17 -65 10 -26 -61 -13 -141 26 -110 53 -179 70 -262 63 l-67 -5 24
32 c13 17 34 34 46 37 28 7 73 59 73 83 0 19 18 41 35 41 5 0 16 -9 23 -20z
m986 -204 c-3 -19 -1 -58 5 -87 8 -36 8 -56 1 -63 -5 -5 -10 -20 -10 -32 0
-13 -25 -51 -56 -88 l-56 -66 -120 0 -119 0 12 22 c13 24 333 348 343 348 4 0
4 -15 0 -34z m-1644 -191 c0 -25 6 -56 14 -68 12 -19 12 -36 1 -112 -8 -49
-14 -112 -14 -139 -1 -27 -4 -47 -7 -43 -15 14 -76 208 -88 277 l-12 75 45 27
c25 15 49 27 54 27 4 1 7 -19 7 -44z m-148 -78 c3 -25 18 -85 32 -134 27 -92
34 -135 63 -373 26 -212 24 -240 -19 -288 -45 -50 -83 -115 -99 -169 -6 -23
-15 -40 -20 -38 -4 3 -19 1 -32 -4 -22 -9 -26 -7 -31 13 -10 39 -43 39 -99 1
-43 -29 -53 -33 -66 -21 -9 7 -24 16 -33 19 -10 4 -18 15 -18 26 0 11 -10 27
-21 35 -13 9 -19 21 -16 30 4 9 2 52 -3 97 -10 87 -46 167 -80 176 -13 4 -19
19 -24 65 -10 96 -7 349 5 393 18 70 20 72 34 30 22 -62 47 -76 131 -73 60 3
77 8 108 32 44 33 76 81 76 114 0 13 9 35 20 49 11 14 20 34 20 44 0 16 29 29
55 24 5 -1 13 -22 17 -48z m-716 -17 c-9 -22 -16 -54 -16 -70 0 -27 3 -30 31
-30 22 0 43 11 70 35 29 26 48 35 74 35 41 0 41 -1 19 -103 l-16 -73 -47 0
-46 1 -9 -46 c-7 -35 -4 -71 12 -149 12 -58 20 -106 18 -108 -12 -12 -134 43
-171 77 -23 21 -66 48 -97 59 -66 25 -199 44 -277 41 l-55 -3 -33 55 c-18 30
-33 57 -33 62 0 4 25 7 55 7 76 0 123 26 206 113 54 57 71 69 81 59 18 -18 84
-15 126 7 20 11 53 35 71 55 43 45 60 34 37 -24z m2683 -63 c1 -48 22 -88 62
-119 l30 -25 -57 -22 c-88 -34 -216 -124 -286 -202 -34 -38 -65 -69 -69 -69
-4 0 7 42 25 94 l31 94 59 27 c33 15 81 49 108 76 68 68 64 110 -10 125 l-30
6 56 57 57 56 12 -30 c6 -16 12 -47 12 -68z m-1474 -223 c142 -70 223 -88 400
-88 83 0 162 3 176 6 22 7 28 3 46 -35 11 -23 36 -61 55 -83 36 -44 121 -226
132 -282 l6 -34 -31 26 c-16 14 -48 31 -70 38 -40 11 -58 9 -141 -18 -10 -4
-18 1 -23 15 -11 35 -46 61 -81 61 -43 0 -64 -23 -64 -70 0 -39 -13 -59 -25
-40 -9 15 -68 12 -91 -4 -17 -13 -22 -12 -46 12 -16 14 -28 35 -28 46 0 12 -9
32 -19 45 -15 20 -17 31 -9 65 18 81 -16 179 -74 210 -24 12 -50 17 -93 14
l-59 -3 -29 -56 c-19 -37 -30 -78 -34 -120 -5 -63 -23 -99 -48 -99 -7 0 -15 6
-18 14 -5 14 -43 38 -78 52 -11 4 -18 23 -23 57 -8 67 -8 385 0 425 l6 30 87
-70 c47 -38 127 -89 176 -114z m-1853 -64 c43 -61 46 -69 41 -113 -7 -62 -31
-69 -112 -33 -32 14 -64 26 -70 26 -6 0 -11 13 -11 30 0 19 -7 34 -20 42 -27
17 -25 23 9 37 15 7 45 30 67 52 21 21 41 36 44 31 4 -4 27 -36 52 -72z m2974
24 c-3 -9 -9 -28 -12 -42 -9 -38 -185 -525 -194 -535 -3 -4 -12 43 -19 105
-13 113 -45 314 -57 355 -4 16 -1 23 18 28 12 4 38 18 55 32 81 60 225 100
209 57z m944 -136 c0 -81 18 -128 62 -160 35 -24 34 -40 -6 -133 -42 -99 -29
-173 43 -232 l26 -21 -21 -28 c-29 -40 -40 -40 -64 4 -64 114 -210 84 -256
-53 -9 -25 -21 -45 -26 -45 -20 0 -78 71 -90 112 -15 50 -67 104 -127 130
l-44 20 85 82 c96 93 153 159 227 266 29 41 55 74 59 73 4 -1 12 -25 17 -54
12 -62 38 -85 61 -54 8 11 13 31 11 44 -6 30 23 132 34 125 5 -3 9 -37 9 -76z
m-892 -240 c25 -31 16 -57 -49 -145 -37 -48 -73 -98 -80 -110 -26 -44 -27 -22
-2 52 16 48 30 75 40 75 10 0 12 6 8 20 -10 32 13 90 36 90 10 0 19 7 19 15 0
18 14 19 28 3z m-2268 -962 c0 -9 12 -16 32 -18 27 -3 33 -8 41 -38 5 -19 17
-46 26 -60 27 -40 61 -143 54 -168 -3 -12 0 -29 7 -37 7 -9 10 -18 8 -21 -12
-11 -268 288 -268 312 1 11 59 42 83 43 9 1 17 -5 17 -13z m293 -242 c10 -18
36 -18 80 1 l35 14 73 -172 c40 -95 113 -264 162 -377 49 -113 93 -216 98
-230 l9 -25 -17 21 c-92 110 -135 169 -161 222 -17 35 -53 89 -80 120 -74 87
-252 397 -252 440 0 17 41 5 53 -14z m2585 -54 c11 -18 10 -26 -10 -53 -52
-76 -93 -118 -136 -143 -71 -40 -218 -154 -297 -228 -52 -49 -77 -66 -98 -66
-15 0 -42 -7 -58 -16 -29 -14 -30 -14 -21 3 5 10 64 123 132 251 l124 232 37
0 c20 0 42 -7 49 -15 7 -8 25 -15 39 -15 28 0 156 40 188 59 26 15 37 13 51
-9z m-523 -49 c-19 -25 -71 -100 -116 -165 -77 -113 -81 -122 -75 -162 5 -38
1 -49 -50 -125 -30 -46 -109 -184 -175 -306 -67 -123 -123 -223 -125 -223 -2
0 -3 17 -3 38 1 76 -3 101 -17 113 -23 19 -17 33 23 54 57 31 91 103 62 132
-6 6 -12 41 -15 78 -5 76 -15 95 -52 95 -28 0 -72 35 -72 58 0 15 -35 13 -74
-3 -17 -8 -18 -5 -12 31 4 21 21 85 38 142 28 91 35 104 65 122 21 12 43 18
57 14 15 -3 48 6 89 24 51 24 75 29 106 25 39 -5 44 -3 98 50 l58 57 112 -2
112 -1 -34 -46z m-1040 19 c23 -25 36 -25 86 1 43 21 61 21 34 -1 -18 -15 -20
-61 -3 -78 7 -7 20 -12 30 -12 22 0 23 -28 8 -217 -17 -221 -20 -236 -36 -223
-14 12 -89 9 -130 -4 -19 -7 -21 -2 -32 81 -6 48 -9 120 -5 159 6 79 -7 136
-38 157 -19 14 -23 30 -21 84 2 27 9 36 40 52 46 25 45 25 67 1z m-310 -307
c10 -32 37 -125 61 -207 l43 -148 -31 -26 c-17 -14 -39 -39 -48 -54 l-17 -29
-17 26 c-38 58 -228 437 -222 443 4 3 16 1 26 -6 30 -19 50 -15 115 23 33 19
63 35 66 35 3 0 14 -26 24 -57z m1620 -188 c0 -64 0 -65 -32 -76 -80 -26 -223
-180 -223 -240 0 -17 -5 -29 -13 -29 -7 0 -96 -55 -197 -122 -102 -68 -191
-127 -199 -132 -7 -4 15 47 50 115 64 123 84 148 224 280 87 82 239 194 319
234 38 19 69 35 70 35 0 0 1 -29 1 -65z m-1885 -732 c104 -5 105 -6 138 -40
l32 -34 -15 -52 c-9 -29 -21 -62 -28 -74 l-12 -22 -45 21 c-33 16 -65 22 -117
22 -48 0 -73 4 -73 12 0 6 -18 38 -39 71 l-39 61 27 26 c18 18 32 25 46 21 11
-3 67 -8 125 -12z m1170 -113 c0 -5 11 -12 25 -16 24 -6 23 -8 -30 -48 -60
-45 -68 -67 -30 -82 23 -8 19 -12 -65 -56 l-90 -48 15 38 c25 59 60 113 110
170 45 50 65 63 65 42z m-672 -417 c44 -111 44 -114 -4 -146 -49 -32 -92 -104
-79 -133 4 -10 9 -41 10 -67 1 -38 -2 -51 -17 -60 -10 -7 -18 -20 -18 -30 0
-17 7 -18 55 -15 l54 3 -49 -49 c-60 -60 -67 -96 -19 -96 21 0 29 -4 25 -12
-23 -57 -29 -89 -17 -101 17 -17 44 3 57 41 5 18 16 38 23 45 11 10 12 -17 7
-157 -3 -93 -6 -291 -6 -440 0 -179 -4 -266 -10 -256 -5 8 -10 27 -10 41 0 87
-71 281 -209 573 -33 69 -62 134 -66 145 -4 14 11 31 70 76 41 32 75 65 75 75
0 9 -14 26 -30 39 -26 19 -29 25 -19 43 10 19 7 25 -20 47 -18 15 -31 35 -31
49 0 12 -4 22 -10 22 -17 0 -11 20 14 53 15 20 27 53 31 89 10 81 -6 87 -111
44 -43 -18 -93 -40 -111 -49 -18 -9 -34 -17 -36 -17 -3 0 -10 21 -16 47 -14
53 -7 63 47 63 18 0 43 5 55 12 12 6 37 11 54 9 28 -2 49 11 150 93 65 53 120
96 123 96 4 0 20 -35 38 -77z m1037 11 c47 -11 48 -13 16 -49 -16 -18 -51 -70
-77 -114 -48 -80 -49 -81 -57 -52 -4 18 -1 65 8 117 8 48 15 102 15 121 l0 34
33 -25 c17 -13 46 -28 62 -32z m-205 -120 c-17 -59 -40 -124 -51 -147 -31 -60
-48 -112 -59 -183 -13 -82 -24 -105 -61 -129 -17 -11 -69 -75 -115 -142 -47
-68 -89 -123 -93 -123 -4 0 -18 11 -31 25 -14 15 -30 23 -39 20 -8 -3 -27 6
-42 21 -19 18 -35 25 -48 21 -18 -4 -21 0 -21 23 0 15 10 59 22 96 11 38 35
125 53 194 l31 125 60 43 c196 143 419 288 422 275 2 -8 -10 -61 -28 -119z
m264 -44 c0 -37 -6 -56 -22 -73 -12 -13 -22 -35 -22 -50 0 -15 -4 -27 -8 -27
-5 0 -47 -32 -95 -70 -48 -39 -87 -67 -87 -62 0 14 224 332 233 332 1 0 2 -22
1 -50z m-1710 -120 c14 -22 26 -45 26 -52 0 -7 15 -28 34 -46 43 -41 53 -78
30 -103 -14 -16 -15 -24 -6 -44 16 -34 1 -32 -25 4 -14 18 -47 38 -89 55 -45
18 -90 47 -135 88 -38 34 -69 65 -69 69 0 5 27 9 60 9 61 0 105 15 129 44 8 9
15 16 16 16 1 0 14 -18 29 -40z m1720 -119 c3 -5 -25 -33 -62 -63 -75 -60 -93
-101 -51 -116 15 -6 18 -11 11 -16 -16 -9 -15 -49 0 -64 9 -9 9 -15 0 -24 -7
-7 -12 -22 -12 -35 0 -31 21 -30 111 8 153 64 154 65 -18 -50 -68 -45 -123
-88 -123 -95 0 -7 7 -20 16 -27 15 -12 13 -15 -12 -35 -26 -21 -29 -21 -52 -6
-23 15 -26 15 -41 -5 -9 -11 -27 -25 -39 -32 -26 -14 -29 -61 -8 -101 18 -32
6 -56 -39 -74 -53 -22 -70 -12 -96 57 -27 75 -68 160 -81 168 -15 9 38 106 98
179 74 91 250 261 315 304 56 36 74 42 83 27z m-1909 -240 c139 -8 184 -18
217 -48 16 -14 16 -17 0 -39 -9 -13 -22 -24 -28 -24 -6 0 -19 -9 -29 -20 -21
-23 -62 -26 -111 -8 -29 10 -37 9 -71 -14 -21 -14 -55 -28 -75 -31 l-38 -6 0
54 c0 46 -5 59 -31 90 -17 19 -42 38 -55 41 -13 3 -24 11 -24 16 0 7 19 8 53
4 28 -4 115 -11 192 -15z m375 -231 c15 -22 30 -30 50 -30 18 0 33 -7 39 -18
39 -74 189 -656 177 -688 -3 -9 -20 -14 -49 -14 -28 0 -49 -6 -57 -15 -9 -10
-23 -14 -39 -11 -14 3 -52 8 -85 11 -32 2 -101 12 -152 22 -87 15 -94 18 -94
40 0 13 6 23 15 23 8 0 19 17 26 43 20 74 20 74 32 50 10 -22 27 -31 27 -15 0
4 -8 23 -19 43 -17 32 -18 38 -4 78 17 51 14 80 -10 95 -15 9 -21 7 -34 -9
-14 -19 -15 -16 -8 30 13 80 10 107 -14 126 -29 23 -26 41 8 62 38 22 103 96
98 110 -4 12 -12 12 -68 0 -33 -6 -42 7 -26 41 9 19 20 26 42 26 17 1 41 7 55
15 40 23 66 18 90 -15z m958 -317 c6 -21 14 -48 17 -60 10 -38 65 -40 65 -2 0
23 13 24 31 3 7 -9 25 -14 43 -13 40 4 47 -1 107 -73 l51 -61 -64 -65 c-73
-75 -141 -122 -177 -122 -16 0 -46 -20 -85 -56 -129 -118 -147 -134 -151 -134
-3 0 -6 73 -6 163 -1 89 -4 191 -8 227 -6 64 -5 66 32 120 35 50 41 54 72 51
30 -2 35 1 41 23 3 14 3 33 0 42 -5 13 -4 14 7 6 8 -7 19 -29 25 -49z m-1482
-209 c17 -4 31 -1 44 11 19 17 20 17 20 -4 0 -12 4 -31 10 -41 8 -15 1 -25
-45 -59 -30 -23 -58 -41 -62 -41 -4 1 -34 35 -66 78 l-58 76 53 12 c29 7 57
20 63 28 8 13 11 10 13 -19 3 -28 8 -36 28 -41z m-221 -53 c30 -41 54 -80 52
-85 -2 -6 -28 -12 -58 -14 -54 -2 -54 -2 -71 36 -10 21 -18 44 -18 50 0 7 -6
21 -12 33 -11 17 -10 22 12 39 14 11 28 19 32 17 4 -1 32 -36 63 -76z m653
-269 c151 -11 133 -3 313 -145 l106 -84 6 -99 c6 -104 46 -281 72 -320 8 -13
15 -37 15 -54 l0 -31 -92 78 c-188 159 -349 255 -496 297 -159 45 -307 127
-422 232 -37 35 -66 54 -81 53 -13 0 -40 4 -59 8 l-35 9 44 29 c24 17 54 28
65 27 12 -2 33 2 46 8 27 11 296 7 518 -8z m-3372 -1251 c14 -91 36 -200 49
-241 13 -41 28 -102 34 -134 6 -33 18 -67 26 -76 11 -13 15 -42 15 -123 0
-119 6 -111 -91 -122 -32 -4 -80 -2 -111 4 -52 11 -54 13 -50 40 2 16 -5 45
-16 67 -31 62 -37 102 -17 124 23 26 16 64 -13 68 -23 3 -23 4 -7 23 12 12 19
42 22 91 4 51 10 77 21 86 13 10 18 45 25 175 5 89 13 166 18 172 5 5 9 15 9
22 0 8 8 25 17 40 l17 25 13 -37 c7 -21 24 -112 39 -204z"/>
</g>
</svg>
