<?xml version="1.0" standalone="no"?>
<!DOCTYPE svg PUBLIC "-//W3C//DTD SVG 20010904//EN"
 "http://www.w3.org/TR/2001/REC-SVG-20010904/DTD/svg10.dtd">
<svg version="1.0" xmlns="http://www.w3.org/2000/svg"
 width="2400.000000pt" height="1600.000000pt" viewBox="0 0 2400.000000 1600.000000"
 preserveAspectRatio="xMidYMid meet">
<metadata>
Created by potrace 1.13, written by Peter Selinger 2001-2015
</metadata>
<g transform="translate(0.000000,1600.000000) scale(0.100000,-0.100000)"
fill="#000000" stroke="none">
<path d="M3459 11846 c-2 -2 -62 -14 -134 -26 -95 -17 -189 -25 -350 -29
l-219 -6 -8 -35 c-25 -114 -32 -468 -33 -1675 0 -693 4 -1349 8 -1457 l8 -198
-50 0 c-60 0 -60 -4 -36 160 10 67 12 121 7 150 l-7 45 -63 3 -62 3 0 78 c0
76 -9 259 -30 601 -16 258 -20 292 -35 287 -15 -6 -25 54 -25 154 0 71 -10 85
-39 57 -10 -11 -12 19 -9 147 3 180 -3 202 -67 251 l-36 27 -102 -32 c-146
-45 -243 -61 -371 -61 -155 0 -151 5 -143 -182 3 -79 15 -228 26 -333 27 -260
39 -461 51 -860 5 -187 12 -367 14 -401 l3 -61 -62 1 c-35 1 -67 -2 -71 -6 -4
-5 -12 -50 -17 -102 -8 -72 -7 -120 4 -208 8 -68 11 -139 7 -178 -3 -36 -10
-127 -14 -202 l-7 -138 -177 0 -178 0 -8 -157 c-5 -87 -9 -264 -9 -393 0 -240
13 -351 59 -502 13 -45 13 -45 -15 -62 -16 -9 -52 -21 -81 -26 -94 -15 -106
-23 -143 -101 -19 -39 -39 -96 -46 -127 -11 -55 -8 -173 5 -203 6 -13 -2 -17
-49 -22 -31 -3 -89 -15 -129 -27 -89 -27 -86 -18 -86 -237 l0 -155 -27 6 c-81
20 -244 114 -331 192 l-43 39 10 115 c5 63 12 172 16 242 l6 126 -31 35 c-44
50 -75 60 -172 53 -46 -3 -102 -8 -125 -12 l-43 -6 0 -1799 0 -1799 4040 0
4040 0 0 1424 0 1424 -27 33 c-60 71 -170 88 -278 44 -33 -14 -79 -25 -102
-25 l-43 0 1 88 c0 48 4 112 9 142 28 171 34 261 23 345 -7 56 -16 92 -28 105
-30 33 -139 61 -260 69 l-110 6 -14 55 c-11 45 -11 77 -2 173 6 65 16 209 23
322 13 232 15 223 -67 261 -39 19 -67 24 -131 24 l-81 0 -8 248 c-4 136 -10
465 -14 731 l-6 483 -33 28 c-48 40 -124 62 -233 67 -107 6 -180 -6 -255 -41
-61 -28 -66 -39 -93 -201 -34 -203 -50 -442 -57 -868 l-6 -408 -60 -40 c-64
-44 -177 -103 -184 -96 -2 2 3 75 12 163 18 179 14 416 -8 461 -7 14 -26 36
-41 47 -26 19 -42 21 -170 20 -78 0 -178 -6 -223 -13 -86 -14 -185 -3 -201 22
-4 7 -11 132 -14 280 -8 331 1 312 -144 304 -55 -3 -113 -10 -130 -17 -16 -6
-67 -14 -112 -17 -66 -5 -84 -3 -87 8 -13 36 -28 424 -36 929 -10 651 -24 909
-48 928 -14 11 -16 48 -13 338 l3 325 -54 122 c-96 220 -189 280 -349 227 -34
-12 -90 -24 -125 -27 -49 -4 -68 -11 -85 -29 l-22 -24 17 -217 c15 -176 20
-398 26 -1153 4 -536 4 -939 -1 -944 -5 -6 -9 -47 -9 -92 l0 -81 -59 -27 c-32
-14 -90 -33 -129 -42 l-70 -16 -42 -151 c-23 -84 -43 -158 -46 -165 -2 -7 -12
-11 -21 -8 -10 3 -40 8 -67 12 l-48 7 6 781 c3 429 10 954 14 1166 8 362 8
387 -9 422 -10 20 -23 38 -29 40 -8 2 -12 142 -15 463 -2 270 -8 473 -14 493
-5 17 -20 52 -32 77 l-23 45 -91 0 c-50 0 -94 -2 -96 -4z m-447 -429 c37 -511
48 -1010 27 -1182 -5 -44 -9 -123 -9 -176 1 -54 -2 -114 -6 -135 l-8 -39 -7
30 c-4 17 -7 66 -8 110 -1 61 -6 90 -22 119 -20 38 -21 51 -22 685 -2 519 1
651 11 669 24 42 37 19 44 -81z m263 -79 c39 -150 56 -567 47 -1168 -6 -423
-9 -479 -25 -509 -10 -21 -17 -59 -18 -100 -1 -48 -3 -59 -9 -41 -4 14 -8 42
-9 63 -1 21 -10 50 -20 65 -34 49 -53 391 -40 752 5 140 13 392 19 559 6 186
14 309 21 317 6 7 10 35 9 61 -3 85 4 85 25 1z m290 -580 c4 -18 11 -38 16
-44 23 -29 41 -333 46 -782 5 -442 4 -464 -13 -483 -16 -18 -19 -36 -17 -115
2 -110 -12 -134 -20 -35 -3 38 -10 77 -16 88 -5 10 -20 47 -33 83 -22 61 -23
81 -26 365 -2 256 10 583 33 900 5 61 3 55 14 55 5 0 13 -15 16 -32z m-615
-1685 c6 -49 14 -192 17 -318 5 -205 4 -232 -11 -244 -9 -7 -16 -24 -16 -38 0
-14 -4 -22 -10 -18 -6 4 -9 12 -8 18 1 7 -3 21 -9 33 -20 34 -36 194 -30 289
3 50 13 133 22 185 9 52 15 112 12 132 -5 36 -1 48 13 48 4 0 13 -39 20 -87z
m-1001 46 c47 -16 54 -38 29 -88 -27 -56 -49 -66 -93 -46 -37 18 -46 37 -33
75 10 26 46 70 58 70 4 0 21 -5 39 -11z m2189 -515 c15 -10 22 -25 22 -47 0
-44 -9 -54 -52 -62 -31 -6 -41 -3 -62 19 -28 27 -35 73 -14 94 17 17 79 15
106 -4z m-2471 -1284 c40 -14 49 -38 25 -62 -17 -17 -26 -18 -118 -7 -131 14
-215 32 -213 44 1 6 36 18 78 27 80 17 175 17 228 -2z"/>
</g>
</svg>
