<?xml version="1.0" standalone="no"?>
<!DOCTYPE svg PUBLIC "-//W3C//DTD SVG 20010904//EN"
 "http://www.w3.org/TR/2001/REC-SVG-20010904/DTD/svg10.dtd">
<svg version="1.0" xmlns="http://www.w3.org/2000/svg"
 width="2400.000000pt" height="1600.000000pt" viewBox="0 0 2400.000000 1600.000000"
 preserveAspectRatio="xMidYMid meet">
<metadata>
Created by potrace 1.13, written by Peter Selinger 2001-2015
</metadata>
<g transform="translate(0.000000,1600.000000) scale(0.100000,-0.100000)"
fill="#000000" stroke="none">
<path d="M0 15925 l0 -75 45 0 c26 0 73 11 108 25 116 48 309 90 338 74 24
-12 79 -78 79 -93 0 -8 14 -26 31 -40 41 -35 95 -34 184 4 92 40 114 38 177
-10 29 -22 67 -45 84 -51 30 -11 30 -13 26 -65 -4 -50 -3 -54 22 -65 14 -7 26
-16 26 -20 0 -13 108 -42 133 -35 14 3 34 22 46 41 15 26 27 35 46 35 33 0 98
33 122 62 10 13 28 28 38 34 29 16 25 37 -10 53 l-30 15 25 7 c41 12 215 10
290 -3 69 -12 71 -13 64 -38 -5 -14 -8 -45 -8 -70 l-1 -45 51 -3 c36 -2 54 1
64 13 16 19 40 20 40 0 0 -31 46 -48 108 -40 73 9 92 20 92 50 0 14 4 25 10
25 5 0 33 -25 62 -56 61 -64 129 -103 197 -111 l48 -5 -5 -44 c-4 -40 -3 -43
22 -50 14 -3 32 -4 40 -1 8 3 22 -3 32 -14 9 -10 28 -19 41 -19 16 0 23 -6 23
-19 0 -23 28 -34 64 -25 25 6 25 6 19 -50 -8 -76 2 -86 88 -86 l69 0 29 41
c16 22 33 53 36 70 5 24 12 29 35 29 28 0 107 56 96 68 -3 3 8 22 24 43 42 52
73 126 66 154 -7 29 19 40 58 26 33 -13 36 -63 5 -89 -29 -24 -59 -86 -59
-122 0 -27 6 -34 42 -50 55 -25 112 -26 130 -2 16 21 141 62 190 62 l35 0 6
-91 c5 -77 10 -97 33 -130 29 -42 94 -79 140 -79 17 0 68 13 114 30 47 16 100
30 118 30 l34 0 -7 -139 c-14 -265 6 -321 112 -321 70 0 104 18 153 84 35 46
46 54 82 59 48 6 66 22 110 100 31 55 38 61 112 93 44 19 90 34 103 34 33 0
49 44 55 148 4 77 3 85 -16 97 -30 20 -161 38 -224 32 -41 -4 -54 -2 -59 9 -7
18 -75 54 -101 54 -19 0 -19 2 -3 68 16 62 19 67 46 70 18 2 31 -2 37 -12 12
-22 86 -21 118 1 14 9 51 41 82 70 32 30 71 59 88 64 16 6 30 17 30 25 0 16
-31 34 -60 34 -12 0 -29 7 -37 16 -11 10 -25 14 -42 10 -14 -4 -51 -9 -82 -12
l-57 -7 5 27 c3 14 0 33 -7 41 -17 20 -92 19 -132 -1 -24 -13 -35 -13 -58 -4
-29 12 -40 41 -40 106 l0 34 -2120 0 -2120 0 0 -75z"/>
<path d="M5161 15958 c-12 -44 -10 -175 3 -196 3 -6 23 -14 42 -18 20 -4 33
-11 31 -18 -2 -6 -15 -39 -27 -74 -18 -48 -28 -64 -47 -68 -27 -7 -53 -50 -53
-87 0 -16 13 -37 37 -57 32 -29 41 -32 84 -28 43 4 48 3 53 -18 6 -22 50 -44
90 -44 12 0 36 9 55 21 39 24 46 19 64 -42 11 -39 17 -44 44 -47 24 -2 36 4
57 29 42 50 95 163 112 240 9 38 19 69 23 69 4 0 16 -7 27 -15 26 -20 71 -18
121 4 49 23 73 55 80 109 4 32 1 42 -15 53 -17 12 -18 21 -12 71 5 31 20 76
34 100 14 25 26 48 26 51 0 4 -184 7 -409 7 l-408 0 -12 -42z"/>
<path d="M7771 15373 c-60 -50 -80 -231 -38 -346 l24 -65 -34 -26 c-18 -15
-43 -46 -54 -69 -20 -38 -21 -52 -16 -167 3 -70 9 -133 12 -141 6 -17 -31 -39
-66 -39 -11 0 -33 -7 -49 -15 -25 -13 -30 -22 -30 -50 0 -34 27 -75 49 -75 6
0 35 -22 66 -49 40 -35 69 -52 97 -56 30 -5 52 -19 83 -52 36 -37 49 -44 74
-42 25 3 42 -7 111 -69 l80 -73 0 620 0 621 -57 26 c-49 21 -218 84 -228 84
-1 0 -12 -8 -24 -17z"/>
<path d="M604 15121 c-44 -27 -71 -91 -78 -186 -4 -44 -11 -105 -17 -136 -8
-42 -8 -62 1 -79 6 -12 10 -24 8 -26 -3 -2 -35 -15 -72 -28 l-67 -25 -9 25
c-8 21 -16 24 -58 24 -44 0 -57 -6 -129 -59 -43 -33 -103 -81 -131 -106 l-52
-47 0 -284 c0 -156 2 -284 5 -284 3 0 24 9 46 21 34 17 40 25 37 44 -4 20 0
24 26 29 78 13 164 17 169 8 4 -5 -14 -30 -38 -56 -25 -25 -47 -58 -50 -73 -3
-16 -13 -41 -21 -58 -9 -16 -27 -51 -41 -77 -18 -35 -35 -52 -69 -67 -24 -12
-48 -21 -54 -21 -7 0 -10 -146 -10 -427 l1 -428 52 56 c41 45 62 59 102 70 28
7 61 20 75 29 14 10 81 48 149 86 142 79 215 140 255 214 30 55 29 76 -5 89
-20 7 -16 11 36 39 32 18 59 31 59 29 8 -25 29 -42 52 -44 16 -1 42 -5 57 -9
21 -5 40 1 78 25 28 17 64 31 80 31 17 0 66 17 110 38 63 30 79 41 77 57 -2
14 -12 21 -30 23 -19 2 -28 9 -28 21 0 27 -21 41 -61 41 -21 0 -41 5 -44 10
-3 6 -15 10 -26 10 -17 0 -20 4 -14 29 11 50 -19 61 -162 61 -78 0 -123 4
-123 10 0 6 6 26 14 44 l14 34 149 4 c143 4 152 5 273 46 69 24 194 79 279
123 130 67 156 78 163 65 6 -11 24 -16 59 -16 56 0 92 15 128 54 17 18 35 26
58 26 24 0 37 7 50 26 16 26 16 27 -6 45 -13 11 -30 19 -38 19 -22 0 -73 42
-73 61 0 9 -14 22 -31 29 -37 16 -30 21 61 51 36 12 104 39 152 61 72 34 89
46 98 71 9 26 7 36 -14 68 -22 32 -24 41 -14 67 7 18 21 33 35 37 30 7 32 51
3 60 -10 3 -35 22 -55 42 -35 35 -37 36 -98 30 -83 -8 -103 6 -88 60 25 89 1
138 -72 150 -43 7 -115 -30 -137 -71 -12 -24 -19 -26 -80 -26 -107 0 -313 -79
-468 -179 -34 -23 -86 -53 -114 -67 -44 -23 -50 -23 -43 -7 17 40 26 100 20
130 -4 24 -13 34 -37 42 -17 6 -39 11 -49 11 -15 0 -19 7 -19 31 0 21 -9 40
-28 57 -35 34 -54 76 -40 90 7 7 5 18 -7 35 -11 18 -14 36 -10 60 8 39 3 44
-51 52 -29 4 -47 1 -70 -14z"/>
<path d="M6321 14186 c-9 -10 -21 -12 -49 -5 -100 23 -208 3 -290 -53 -42 -29
-43 -32 -41 -78 2 -43 -1 -52 -39 -96 -81 -92 -128 -199 -140 -322 l-7 -67
-60 -5 c-72 -7 -119 -30 -145 -73 -23 -37 -26 -90 -6 -106 7 -6 16 -24 19 -39
7 -33 63 -72 103 -72 16 1 47 7 69 15 22 8 41 15 43 15 1 0 2 -20 2 -44 0 -49
24 -76 67 -76 12 0 25 -4 28 -10 9 -15 174 -11 220 5 21 8 41 13 43 11 7 -7 5
-302 -2 -371 -8 -72 16 -291 35 -327 23 -43 92 -74 101 -46 4 10 10 10 31 1
20 -10 27 -20 27 -42 0 -46 54 -74 104 -55 20 8 21 28 2 43 -13 11 -12 15 2
32 12 13 29 19 62 19 29 0 67 10 108 30 104 49 213 36 228 -28 60 -265 117
-412 185 -478 l38 -37 -48 -43 c-66 -59 -118 -159 -124 -237 -1 -14 -7 -16
-28 -12 -16 4 -30 1 -38 -9 -10 -12 -18 -11 -55 10 -109 61 -284 99 -420 92
-70 -3 -78 -6 -112 -38 -20 -19 -52 -66 -70 -104 -18 -38 -39 -73 -45 -76 -6
-4 -42 4 -80 19 -56 21 -69 30 -69 47 0 12 -7 27 -15 34 -8 7 -15 20 -15 29 0
18 -52 72 -87 90 -12 6 -48 11 -81 11 -69 0 -102 -25 -102 -78 l0 -32 -92 0
c-104 0 -193 -18 -284 -56 -60 -25 -62 -25 -109 -10 -26 9 -57 23 -68 31 -30
21 -150 20 -167 0 -16 -19 -69 -19 -145 2 -33 9 -90 18 -126 20 -63 4 -69 3
-100 -25 -29 -26 -34 -37 -34 -75 0 -75 56 -133 141 -145 46 -7 49 -9 52 -38
4 -40 38 -57 98 -48 24 3 44 4 44 1 0 -3 -16 -32 -35 -65 -46 -77 -76 -163
-82 -237 -4 -40 -12 -66 -24 -78 -23 -22 -25 -74 -5 -122 15 -34 15 -35 -14
-50 -35 -18 -97 -80 -115 -115 -7 -14 -15 -71 -19 -126 l-7 -102 31 -26 c40
-33 108 -35 163 -6 53 29 117 27 147 -5 29 -31 79 -34 105 -5 18 20 18 20 31
-6 8 -15 14 -33 14 -40 0 -33 100 -45 152 -18 30 16 203 42 213 33 2 -3 0 -19
-5 -35 -5 -16 -12 -50 -15 -76 -4 -31 -11 -48 -20 -48 -30 0 -45 -31 -45 -94
0 -66 10 -86 46 -86 17 0 23 -7 26 -27 10 -86 209 -98 246 -14 8 18 25 34 44
40 40 14 38 15 38 -13 0 -63 47 -103 135 -115 29 -5 41 -11 43 -26 2 -11 9
-26 14 -32 13 -16 70 -17 85 -2 5 5 25 18 44 27 29 14 34 22 34 51 0 32 3 35
87 77 l88 44 9 -22 c48 -121 55 -147 53 -198 -1 -43 3 -59 20 -77 24 -26 85
-32 117 -11 14 9 23 8 42 -5 29 -21 89 -22 115 -2 10 8 35 15 55 15 l36 0 6
-76 c8 -90 31 -183 59 -237 41 -82 165 -167 272 -189 45 -8 56 -15 56 -30 0
-51 152 -63 240 -18 59 29 78 47 102 93 16 32 17 41 6 54 -10 13 -8 19 16 38
43 34 128 73 175 81 49 8 64 -2 90 -61 10 -23 35 -55 55 -71 25 -21 36 -37 36
-56 0 -38 39 -62 86 -55 25 4 44 0 67 -13 18 -11 44 -20 60 -20 l27 0 0 2069
0 2070 -50 57 -50 57 0 89 c0 57 -5 99 -14 116 -45 87 -146 94 -146 11 0 -16
-3 -29 -6 -29 -4 0 -36 28 -72 61 -69 65 -116 91 -196 109 -45 10 -51 9 -72
-11 -12 -12 -30 -49 -40 -85 l-17 -64 -41 48 c-23 26 -51 58 -64 71 -35 35
-42 62 -24 89 9 13 11 26 6 31 -17 14 -124 33 -154 26 -38 -8 -38 -2 4 41 61
63 79 124 54 179 -11 24 -9 29 12 46 25 19 25 19 5 35 -31 23 -65 28 -112 16
-24 -7 -57 -12 -73 -12 -19 0 -34 -7 -42 -20 -7 -11 -22 -20 -34 -20 -35 0
-94 -75 -94 -120 0 -19 -4 -21 -27 -15 -16 3 -38 13 -51 21 -21 14 -22 16 -6
45 25 50 7 61 -92 57 -79 -3 -83 -2 -89 19 -6 27 -41 38 -96 30 -34 -4 -43 -1
-68 24 -33 32 -89 40 -110 15z"/>
<path d="M238 12631 c-40 -27 -86 -63 -102 -80 -17 -17 -40 -31 -52 -31 -14 0
-34 -14 -53 -37 l-31 -38 0 -532 c0 -605 -8 -558 85 -504 69 40 130 95 168
151 18 26 59 69 92 97 91 76 198 193 219 241 15 32 23 41 35 36 63 -27 122 4
128 67 1 19 5 53 9 75 5 36 3 44 -17 58 -34 23 -88 20 -148 -10 l-53 -27 -20
21 c-19 19 -19 21 -4 43 23 34 20 54 -15 83 -32 27 -76 34 -110 16 -17 -10
-18 -8 -10 13 5 13 41 69 80 124 102 145 98 178 -23 171 -65 -3 -75 -1 -70 12
23 54 27 69 21 84 -11 28 -53 18 -129 -33z"/>
<path d="M1545 12134 c-95 -50 -127 -85 -140 -154 -6 -33 -12 -37 -88 -68 -45
-18 -87 -36 -94 -39 -7 -3 -3 13 9 35 19 34 20 42 9 56 -7 9 -23 16 -34 16
-11 0 -29 8 -39 17 -18 17 -22 16 -71 -10 -74 -38 -119 -118 -121 -213 0 -35
-5 -44 -33 -63 -39 -25 -43 -26 -43 -7 0 67 -197 58 -343 -15 -135 -68 -430
-302 -478 -379 -18 -29 -39 -50 -54 -54 l-25 -6 0 -556 0 -555 35 26 c38 30
89 101 107 152 7 18 17 33 23 33 23 0 75 62 75 90 0 34 20 56 58 65 27 5 42
24 55 66 4 12 24 18 75 22 38 4 88 14 112 22 53 19 50 20 50 -11 0 -19 8 -28
34 -39 19 -8 37 -19 41 -25 3 -5 14 -10 24 -10 10 0 40 -10 67 -21 41 -19 61
-21 141 -17 80 5 99 2 130 -14 30 -17 48 -19 96 -13 53 6 61 4 74 -14 13 -19
24 -21 116 -20 56 0 142 4 191 8 83 7 91 10 118 40 15 17 28 39 28 49 0 9 7
25 14 35 8 10 11 27 9 38 -5 17 -11 20 -39 14 -34 -6 -34 -6 -34 34 0 43 -18
61 -59 61 -11 0 -25 9 -31 20 -6 11 -24 27 -40 35 -17 9 -30 24 -30 34 0 22
-15 35 -54 48 -16 5 -33 16 -36 24 -4 8 -15 31 -26 53 l-18 38 -53 -4 c-29 -3
-53 -4 -53 -3 0 1 56 39 125 85 l125 83 53 -9 c92 -15 197 -9 267 15 77 27
205 90 263 130 41 28 42 28 57 9 8 -11 32 -22 55 -25 33 -4 48 -15 85 -60 25
-29 55 -56 68 -60 77 -19 234 45 240 98 4 33 -45 84 -88 94 -34 7 -50 30 -50
72 0 52 -41 91 -109 102 -28 5 -36 12 -43 36 -5 23 -22 39 -65 65 -52 32 -128
99 -177 158 l-20 22 43 42 c71 67 87 127 51 186 -11 18 -20 42 -20 53 0 34
-18 57 -55 69 -41 13 -85 -3 -128 -48 -24 -25 -32 -27 -72 -22 -36 4 -49 11
-64 34 -42 63 -128 85 -196 50z"/>
<path d="M920 9904 c-35 -16 -65 -23 -82 -20 -38 7 -169 -61 -241 -125 -33
-29 -65 -49 -79 -49 -40 0 -112 -42 -118 -70 -4 -18 -15 -26 -43 -32 -20 -4
-67 -21 -103 -38 -45 -20 -83 -30 -116 -30 -27 0 -69 -5 -94 -11 l-44 -11 0
-344 0 -343 55 19 c92 32 113 53 165 164 26 56 50 109 53 119 9 23 22 22 129
-15 87 -31 102 -33 223 -32 182 0 255 26 300 106 16 28 24 35 35 28 22 -14 51
-12 84 5 15 8 36 15 45 15 38 0 81 72 81 135 0 28 -5 35 -32 45 -18 6 -61 14
-95 17 -50 5 -63 9 -63 22 0 49 -96 151 -142 151 -20 0 -38 29 -38 59 0 16 6
21 28 21 18 0 38 10 52 25 22 24 30 26 95 23 69 -3 70 -3 75 -33 6 -35 35 -44
80 -25 31 13 85 74 100 114 18 48 -17 96 -70 96 -12 0 -33 9 -47 20 -37 29
-122 26 -193 -6z"/>
<path d="M6008 8124 c-4 -4 -15 -8 -25 -9 -45 -5 -82 -18 -87 -31 -3 -8 -17
-14 -30 -14 -15 0 -30 -8 -36 -19 -5 -11 -23 -22 -39 -26 -33 -7 -50 -40 -32
-58 19 -19 12 -31 -8 -13 -25 23 -65 17 -69 -10 -2 -11 6 -28 16 -37 16 -15
18 -25 11 -68 -6 -40 -5 -55 7 -66 13 -14 13 -17 -1 -32 -21 -25 -19 -40 10
-53 20 -9 25 -18 25 -49 0 -31 6 -43 40 -72 48 -41 55 -81 15 -91 -14 -4 -31
-16 -39 -29 -11 -18 -32 -154 -41 -268 -2 -25 -63 -109 -79 -109 -17 0 -124
-81 -162 -122 -53 -57 -68 -85 -51 -91 9 -3 8 -15 -6 -53 -22 -63 -22 -81 4
-148 20 -54 59 -98 99 -111 12 -4 20 -15 20 -30 0 -30 72 -95 105 -95 14 0 25
6 25 13 0 26 21 36 51 25 26 -9 29 -14 24 -42 -3 -17 -14 -78 -23 -136 l-18
-105 -92 -7 c-144 -10 -222 -56 -254 -150 -6 -18 -22 -49 -35 -68 -31 -49 -43
-119 -44 -274 -1 -111 2 -139 20 -183 56 -143 145 -210 289 -220 72 -5 81 -18
20 -28 -48 -8 -88 -26 -134 -61 -24 -18 -37 -40 -54 -98 -24 -78 -32 -86 -93
-86 -56 0 -147 -65 -147 -104 0 -12 -9 -41 -20 -65 -12 -26 -20 -65 -20 -97 0
-45 -3 -54 -18 -54 -10 0 -23 -5 -29 -11 -8 -8 -17 -8 -33 1 -12 6 -33 9 -46
6 -20 -5 -24 -13 -24 -44 0 -37 -2 -39 -53 -60 -69 -29 -84 -28 -118 9 -27 29
-33 31 -72 25 -47 -8 -67 -23 -70 -54 -1 -16 -15 -26 -58 -42 -41 -14 -58 -27
-63 -43 -3 -12 -6 -81 -6 -153 l0 -130 -55 -18 c-30 -9 -62 -27 -72 -40 -10
-12 -28 -28 -39 -34 -12 -6 -27 -24 -33 -40 -10 -23 -24 -32 -69 -47 -75 -23
-160 -66 -195 -99 -15 -14 -34 -23 -42 -20 -8 4 -31 3 -50 0 l-35 -7 0 -65 c0
-87 -10 -104 -60 -104 -29 0 -40 4 -40 15 0 11 -12 15 -46 15 -25 0 -44 3 -42
8 2 4 10 19 17 34 8 15 11 34 8 42 -7 18 -44 21 -66 7 -9 -6 -22 -6 -34 0 -13
8 -25 6 -41 -4 -22 -15 -23 -14 -35 18 -25 70 -82 110 -98 69 -3 -8 4 -54 17
-100 12 -47 20 -87 17 -90 -5 -5 -48 42 -83 90 -14 20 -26 27 -38 23 -18 -7
-22 -56 -6 -87 6 -11 15 -29 20 -40 6 -11 7 -20 3 -20 -19 -1 -150 -21 -165
-26 -12 -3 -17 2 -20 18 -4 33 -42 35 -87 5 -36 -24 -38 -24 -49 -6 -7 10 -12
37 -12 59 0 37 -2 40 -27 40 -21 0 -31 -7 -40 -27 -7 -15 -13 -32 -13 -37 0
-6 -5 -27 -10 -48 -10 -36 -11 -36 -45 -27 -19 5 -59 21 -90 34 -30 14 -73 28
-95 31 -22 4 -42 10 -45 14 -2 4 29 31 70 60 110 78 99 97 -28 50 -58 -22
-123 -17 -130 11 -6 23 -40 25 -57 4 -9 -11 -16 -12 -30 -2 -28 17 -62 -19
-106 -114 -20 -43 -42 -80 -48 -82 -6 -3 -77 -56 -156 -119 -102 -81 -161
-120 -198 -132 l-52 -18 -113 52 c-147 66 -287 144 -361 200 -106 82 -122 90
-182 101 -32 5 -106 9 -163 7 l-104 -3 -20 53 c-11 29 -38 71 -59 93 -22 22
-38 42 -36 43 2 1 25 19 51 40 34 27 45 42 38 49 -8 8 -21 6 -46 -6 -44 -21
-65 -22 -65 -2 0 11 -12 15 -44 15 -39 0 -48 -5 -82 -42 -21 -24 -58 -50 -82
-60 -76 -29 -148 -78 -167 -115 -25 -46 -87 -101 -143 -125 -35 -16 -59 -19
-103 -15 -73 6 -123 36 -291 172 l-58 47 0 -541 0 -541 4040 0 4040 0 0 2105
c0 1240 -4 2105 -9 2105 -19 0 -108 -111 -141 -177 -35 -69 -36 -70 -122 -112
-72 -35 -91 -49 -111 -84 -14 -23 -26 -51 -29 -62 -3 -16 -11 -20 -45 -20 -36
0 -46 -5 -77 -40 -44 -50 -48 -90 -10 -107 23 -11 25 -16 20 -48 -3 -19 -6
-49 -6 -66 0 -25 -11 -39 -66 -83 -36 -29 -67 -51 -69 -49 -1 1 4 37 12 78 43
210 -75 451 -254 521 -84 32 -233 33 -283 2 -19 -12 -55 -31 -80 -43 l-45 -21
-63 68 c-95 104 -205 233 -201 237 2 1 24 11 49 20 63 24 120 63 120 82 0 23
-39 74 -56 74 -9 0 -30 15 -48 34 -31 34 -33 34 -96 29 -38 -3 -85 -15 -113
-29 l-49 -24 -75 37 -75 38 -40 115 c-58 168 -59 153 9 169 32 7 72 23 89 36
26 20 32 32 36 77 3 29 2 63 -3 75 -6 16 -3 25 12 35 31 20 17 68 -21 68 -37
0 -59 27 -61 80 -1 25 -7 51 -12 58 -6 8 -6 16 1 25 5 6 13 23 17 36 6 21 5
23 -15 18 -13 -3 -35 -3 -50 -1 -21 5 -26 10 -23 28 6 32 -21 52 -52 38 -16
-7 -25 -8 -27 -1 -2 6 -7 7 -10 3z m86 -1116 c45 -21 45 -22 39 -63 -5 -38 -3
-44 25 -63 16 -12 34 -22 39 -22 5 0 34 23 65 50 31 28 65 50 75 50 12 0 39
-23 65 -57 l46 -56 -81 -53 c-80 -52 -82 -53 -85 -29 -3 24 -22 34 -97 50
-137 29 -228 65 -166 65 28 0 36 18 18 38 -13 14 -14 25 -5 65 6 26 13 47 14
47 2 0 24 -10 48 -22z m420 -237 c4 -5 -32 -83 -78 -173 -47 -91 -90 -186 -97
-211 l-11 -47 -43 31 c-24 17 -58 43 -75 58 l-32 26 36 66 c32 58 46 72 141
137 57 40 113 84 122 97 19 26 29 30 37 16z m121 -136 l37 -44 -25 -33 c-59
-79 -98 -204 -88 -284 8 -60 6 -71 -20 -85 -17 -9 -29 -3 -77 37 -31 26 -59
49 -61 51 -3 2 191 402 196 403 1 0 18 -20 38 -45z m461 12 c12 -7 57 -45 101
-85 63 -57 87 -87 109 -135 39 -86 35 -129 -19 -230 -50 -94 -108 -147 -160
-147 -18 0 -66 -9 -107 -20 -91 -24 -102 -24 -167 -5 -47 14 -128 69 -145 99
-3 6 -1 31 5 54 13 47 2 64 -38 59 -15 -1 -21 5 -23 28 -5 41 13 95 55 166
l36 60 76 -77 c102 -103 150 -135 186 -125 39 10 52 33 36 63 -6 13 -55 76
-107 142 -52 65 -91 123 -87 127 34 34 205 52 249 26z m-1406 -609 c0 -2 -14
-82 -30 -178 l-31 -175 27 -23 c21 -18 35 -22 58 -18 40 8 141 59 224 113 36
24 66 43 68 43 1 0 6 -20 9 -45 5 -28 1 -71 -9 -118 -13 -59 -23 -80 -51 -107
-19 -19 -35 -40 -35 -47 0 -17 -152 -89 -221 -103 -51 -11 -64 -10 -126 8
-146 45 -188 109 -188 282 1 86 4 101 32 160 30 62 62 104 110 143 32 28 163
79 163 65z m850 -86 c0 -66 24 -67 78 -5 l44 51 43 -30 c42 -29 133 -58 188
-58 29 0 31 -7 21 -59 -6 -28 -10 -31 -44 -31 -46 0 -50 -8 -50 -108 0 -42 -4
-82 -8 -88 -12 -18 -49 -34 -79 -34 -28 0 -28 0 -25 55 4 65 -15 105 -52 105
-37 0 -86 -20 -96 -41 -9 -16 -13 -17 -45 -3 -19 7 -59 14 -88 14 -57 0 -59
-1 -156 -79 -35 -28 -53 -35 -92 -36 -46 -2 -49 0 -43 19 4 12 7 49 7 82 l0
61 41 -4 c45 -5 101 11 91 26 -3 6 15 30 40 55 43 43 45 48 45 101 l0 56 90
-3 90 -3 0 -43z m-617 6 c25 -13 46 -38 47 -55 0 -6 -30 -28 -67 -49 -38 -20
-87 -50 -110 -66 -50 -34 -50 -33 -28 74 24 115 19 108 81 108 31 0 65 -5 77
-12z"/>
</g>
</svg>
