<?xml version="1.0" standalone="no"?>
<!DOCTYPE svg PUBLIC "-//W3C//DTD SVG 20010904//EN"
 "http://www.w3.org/TR/2001/REC-SVG-20010904/DTD/svg10.dtd">
<svg version="1.0" xmlns="http://www.w3.org/2000/svg"
 width="2400.000000pt" height="1600.000000pt" viewBox="0 0 2400.000000 1600.000000"
 preserveAspectRatio="xMidYMid meet">
<metadata>
Created by potrace 1.13, written by Peter Selinger 2001-2015
</metadata>
<g transform="translate(0.000000,1600.000000) scale(0.100000,-0.100000)"
fill="#000000" stroke="none">
<path d="M6029 10667 c-25 -29 -71 -85 -102 -124 -49 -62 -63 -73 -88 -73 -73
0 -95 -54 -36 -90 17 -11 35 -21 40 -23 4 -1 10 -40 14 -87 3 -47 12 -97 19
-112 11 -21 12 -37 3 -76 l-12 -50 -74 -12 c-50 -8 -82 -19 -95 -32 -35 -35
-97 -179 -120 -282 l-23 -99 -74 -68 c-46 -42 -83 -69 -97 -69 -40 0 -55 -12
-78 -64 -23 -51 -24 -52 -79 -62 l-56 -10 -16 43 c-30 77 -88 84 -98 12 -3
-22 -7 -42 -9 -44 -4 -4 -268 -35 -297 -35 -15 0 -22 9 -27 38 -9 51 -20 62
-64 62 -41 0 -54 -11 -64 -52 -3 -16 -13 -28 -22 -28 -8 0 -32 -9 -54 -20 -26
-13 -49 -18 -70 -14 -24 5 -36 2 -54 -15 -21 -20 -27 -21 -122 -11 -200 20
-264 32 -264 52 0 18 -35 38 -65 38 -8 0 -25 -12 -39 -26 -16 -18 -40 -29 -73
-35 -44 -7 -50 -5 -66 17 -21 27 -77 33 -96 10 -10 -11 -27 -10 -111 10 -55
13 -108 23 -118 22 -38 -3 -52 3 -52 21 0 45 -76 56 -95 13 -8 -18 -15 -22
-35 -17 -14 3 -34 7 -45 8 -12 1 -33 10 -49 20 -16 11 -41 17 -59 16 -18 -2
-37 0 -43 4 -6 3 -27 6 -45 5 -52 -1 -302 52 -314 67 -18 25 -62 29 -80 8 -15
-18 -21 -18 -78 -6 -34 7 -72 13 -84 13 -12 0 -27 9 -32 19 -16 30 -64 42 -96
25 -45 -23 -62 -18 -75 24 -7 20 -24 58 -39 84 -22 41 -30 48 -57 48 -34 0
-57 -19 -49 -41 3 -8 1 -21 -5 -29 -8 -13 -11 -12 -23 3 -9 13 -23 18 -42 15
-26 -3 -30 -7 -33 -39 -3 -32 -6 -36 -25 -31 -12 3 -31 11 -43 19 -13 8 -44
12 -85 10 -56 -2 -64 -5 -64 -22 0 -25 -64 -38 -113 -23 -18 5 -45 7 -59 3
-16 -4 -45 2 -79 16 -51 21 -53 24 -51 58 2 30 -2 36 -26 45 -22 8 -34 6 -58
-8 -35 -21 -45 -16 -30 12 15 27 14 30 -9 42 -15 8 -34 6 -77 -9 -60 -20 -93
-15 -93 14 0 27 -23 65 -39 65 -9 0 -27 -7 -39 -16 -21 -15 -31 -11 -187 58
-91 40 -165 78 -165 84 0 17 -34 44 -57 44 -27 0 -53 -31 -53 -63 0 -32 -20
-46 -27 -18 -6 22 -19 28 -70 30 -27 1 -33 -3 -43 -33 -6 -19 -18 -40 -26 -47
-9 -7 -50 -54 -92 -104 -41 -49 -108 -123 -149 -164 -40 -41 -73 -79 -73 -84
0 -5 -40 -53 -90 -107 l-90 -98 0 -3246 0 -3246 605 0 c592 0 605 0 605 19 0
11 -5 32 -12 48 -12 28 -18 86 -37 363 -15 216 -13 479 4 592 21 139 3 203
-73 269 -22 20 -53 63 -72 104 -19 39 -36 73 -38 78 -2 4 8 7 23 7 33 0 68 18
60 31 -4 5 -22 9 -41 9 -38 0 -40 2 -20 33 8 12 17 37 21 56 7 33 7 34 -24 29
-29 -4 -30 -3 -28 26 2 28 -1 31 -25 31 l-28 -1 0 341 c0 512 -13 605 -101
748 -26 42 -30 57 -25 91 14 91 14 91 -21 94 -29 3 -32 7 -44 55 -7 31 -25 68
-45 91 -68 79 -101 190 -74 241 11 21 11 30 -6 60 -10 19 -21 35 -25 35 -5 0
-12 256 -12 440 0 40 12 91 47 188 35 101 44 137 37 151 -13 23 -52 237 -81
435 -21 145 -23 150 -63 203 -33 44 -38 56 -26 64 8 5 17 9 20 9 31 1 -5 104
-39 115 -23 7 -53 -3 -69 -24 -11 -14 -12 -11 -13 15 0 16 -5 35 -11 41 -6 6
-8 25 -4 46 6 32 11 36 42 39 33 3 36 5 39 42 2 21 -1 46 -6 55 -6 11 -2 28
13 54 16 29 18 40 9 46 -9 5 -10 20 -2 61 5 29 10 68 10 86 0 35 13 46 24 19
6 -16 36 -21 36 -5 0 14 -33 84 -44 91 -4 4 -7 26 -6 50 1 24 1 54 1 67 -4 60
-3 113 4 174 7 58 12 71 43 100 l35 33 -6 -63 c-6 -67 8 -437 19 -509 5 -33
11 -43 25 -43 18 0 19 13 19 324 0 253 3 325 13 329 7 2 28 -2 47 -9 53 -21
63 -53 51 -166 -6 -68 -6 -95 3 -100 23 -15 31 1 47 88 21 123 23 128 57 119
15 -3 36 -14 47 -24 26 -23 203 -100 370 -161 159 -58 428 -146 472 -155 18
-3 48 -23 67 -42 34 -35 35 -38 30 -97 -8 -81 11 -257 28 -267 39 -25 43 1 28
161 -7 76 -9 155 -6 175 l7 38 67 -8 c37 -5 113 -7 168 -6 l102 3 11 -68 c15
-84 26 -104 54 -104 34 0 46 12 62 66 22 75 33 86 75 74 19 -5 53 -10 76 -10
28 0 47 -6 59 -20 19 -21 50 -26 60 -10 12 19 26 10 42 -27 26 -64 40 -75 92
-67 59 8 71 19 71 61 l0 34 123 -7 c153 -7 278 -29 324 -56 30 -18 40 -20 67
-10 47 17 55 15 86 -18 30 -33 90 -43 90 -16 0 11 13 14 53 13 28 -1 66 2 82
6 24 6 36 2 60 -18 l30 -25 3 -180 c3 -170 12 -219 26 -149 3 17 6 47 6 67 0
19 7 43 16 53 12 13 15 39 15 108 0 50 -2 95 -6 101 -10 16 48 12 215 -16 85
-14 210 -33 277 -42 121 -16 122 -17 128 -44 8 -33 36 -53 53 -36 7 7 12 29
12 50 0 29 4 38 17 38 9 0 25 8 36 18 21 18 87 20 397 9 l145 -5 0 -115 c0
-63 3 -118 6 -122 4 -3 3 -20 0 -38 -10 -44 -2 -107 14 -107 12 0 18 32 31
177 5 49 10 62 25 66 13 4 19 15 21 39 2 51 -2 81 -14 96 -8 9 -6 18 7 32 14
15 21 17 26 8 8 -13 60 -8 348 32 141 19 214 37 298 71 27 11 36 11 58 -1 23
-12 26 -19 20 -46 -4 -22 -1 -37 10 -48 25 -25 33 -20 64 42 38 74 53 87 131
107 36 9 119 32 185 52 94 28 135 35 190 34 81 -2 105 -18 136 -88 21 -49 44
-55 61 -18 6 14 17 25 25 25 19 0 34 43 41 118 l7 64 105 44 c57 24 108 44
111 44 4 0 10 -34 14 -76 5 -52 12 -77 22 -81 26 -10 37 17 43 104 l5 87 47
12 48 12 -3 -103 c-2 -94 0 -105 19 -124 l21 -19 12 24 c6 14 11 53 12 87 0
34 4 82 7 106 7 43 8 45 57 59 28 8 65 16 83 19 l32 5 0 -46 c0 -48 15 -61 28
-25 8 19 9 19 24 2 9 -10 19 -34 22 -53 6 -32 1 -41 -60 -110 -36 -41 -96
-112 -132 -157 -55 -69 -69 -82 -88 -77 -34 9 -48 -27 -46 -120 1 -53 6 -82
15 -90 12 -9 13 -40 5 -176 -5 -91 -7 -261 -5 -378 l5 -214 -42 -17 c-39 -17
-42 -17 -71 1 -16 10 -33 18 -36 18 -11 0 -59 -82 -59 -101 0 -13 -7 -19 -24
-19 -29 0 -39 -12 -30 -34 4 -11 19 -16 45 -16 33 0 39 -3 39 -20 0 -11 7 -23
15 -26 18 -7 16 -19 -44 -194 -40 -119 -45 -145 -45 -220 0 -47 5 -95 12 -106
27 -50 77 -281 96 -445 l5 -47 -102 -83 c-238 -193 -606 -598 -622 -684 -4
-22 -20 -68 -36 -102 -16 -34 -29 -67 -29 -74 0 -6 -12 -25 -27 -43 -32 -38
-73 -123 -73 -152 0 -12 7 -25 16 -28 15 -6 15 -8 0 -31 -23 -35 -20 -54 12
-60 15 -3 38 -11 52 -18 51 -26 51 -157 -1 -323 -24 -77 -31 -119 -32 -189 -1
-87 0 -92 31 -134 18 -25 61 -68 96 -97 71 -59 124 -120 155 -179 31 -60 79
-260 91 -379 11 -108 8 -129 -24 -156 -21 -16 -21 -58 0 -62 14 -3 13 -7 -5
-30 -29 -36 -27 -58 4 -58 15 0 25 -6 25 -14 0 -27 50 -34 74 -10 14 14 19 11
46 -32 47 -74 72 -151 77 -234 2 -41 6 -90 9 -107 l5 -33 654 0 655 0 0 3176
0 3176 -90 103 c-49 57 -181 199 -292 317 -112 117 -216 233 -232 256 -17 24
-37 42 -48 42 -10 0 -39 19 -63 41 -56 52 -97 59 -131 21 -13 -13 -24 -31 -24
-38 0 -8 -19 -26 -42 -40 -24 -15 -57 -39 -73 -55 -21 -20 -59 -37 -119 -55
l-89 -25 -26 25 c-37 36 -59 33 -77 -9 -16 -40 -59 -66 -106 -64 -18 0 -90 15
-161 32 l-127 31 -29 45 c-16 25 -48 79 -71 119 -27 48 -54 81 -76 94 -58 34
-72 78 -25 78 22 0 37 9 55 33 15 19 26 42 26 51 0 10 12 33 26 51 22 29 25
41 19 75 -4 22 -4 58 0 79 7 43 -1 39 143 67 41 8 23 74 -21 74 -10 0 -44 20
-75 44 -62 47 -136 95 -222 144 l-55 31 -46 -52z m-5210 -891 c58 -39 141 -73
204 -82 31 -5 51 -16 75 -42 34 -38 35 -44 26 -116 -7 -46 -7 -47 -26 -26 -10
11 -26 20 -34 20 -9 0 -59 39 -112 88 -53 48 -118 105 -144 126 -27 21 -48 45
-48 52 0 19 1 19 59 -20z m114 -240 c29 -22 37 -35 37 -60 0 -22 8 -40 25 -56
30 -29 31 -44 4 -173 -17 -84 -20 -125 -16 -229 2 -71 4 -128 2 -128 -1 0 -27
11 -56 24 -36 17 -47 25 -32 25 12 1 24 5 27 10 6 9 -42 55 -98 96 l-27 20 21
35 c40 68 70 135 70 158 0 42 -71 24 -151 -39 -20 -16 -40 -29 -44 -29 -4 0
-4 33 -1 73 4 39 11 146 16 237 13 234 6 224 104 137 44 -40 98 -85 119 -101z
m6576 55 c58 -100 59 -105 45 -132 -7 -15 -14 -38 -14 -49 0 -21 -99 -226
-127 -265 -14 -18 -14 -12 -8 60 6 77 24 421 25 480 0 38 6 31 79 -94z m-278
52 c0 -16 6 -136 13 -268 12 -229 12 -241 -6 -257 -24 -21 -23 -50 2 -73 11
-10 20 -29 20 -42 0 -22 -4 -23 -60 -23 -73 0 -78 -15 -23 -68 29 -26 34 -37
23 -40 -8 -3 -26 -18 -40 -32 -18 -19 -59 -38 -135 -63 l-110 -36 -5 342 c-4
289 -3 353 11 411 15 68 17 70 60 89 64 28 222 86 237 87 6 0 12 -12 13 -27z
m-5937 -126 c10 -43 112 -75 154 -49 18 12 5 40 -27 57 -54 29 8 14 85 -21
106 -48 124 -66 124 -122 l0 -45 -107 7 c-148 9 -230 23 -283 49 -43 21 -45
24 -43 62 5 77 9 85 52 85 32 0 40 -4 45 -23z m5527 -465 c6 -161 12 -300 13
-310 1 -17 -38 -34 -105 -47 -33 -6 -34 -5 -46 37 -27 104 -62 453 -63 621 l0
117 34 0 c19 0 36 -5 38 -11 3 -8 21 -3 53 14 l50 25 7 -76 c4 -43 12 -209 19
-370z m-4813 426 c10 -10 17 -10 34 1 19 12 23 12 27 0 9 -27 63 -69 104 -81
23 -7 46 -18 50 -25 4 -7 19 -13 32 -13 22 0 25 4 25 40 0 22 3 40 8 40 4 0
17 -16 30 -35 16 -26 22 -49 22 -95 0 -33 -1 -60 -2 -60 -2 0 -50 10 -108 21
-58 12 -126 23 -152 26 -26 3 -52 11 -59 19 -6 8 -22 14 -35 14 -23 0 -24 3
-24 64 0 91 15 117 48 84z m-152 -25 c24 -15 25 -20 19 -67 -4 -28 -9 -54 -11
-57 -2 -4 -23 -2 -46 3 -24 4 -60 11 -81 15 l-38 6 6 41 c12 77 11 76 71 76
34 0 64 -6 80 -17z m-1369 -32 c3 -14 21 -61 40 -104 35 -83 41 -125 21 -145
-9 -9 -25 14 -70 100 -32 62 -63 117 -68 122 -6 6 -2 19 10 37 25 33 57 29 67
-10z m2058 -16 c44 -8 84 -20 89 -25 5 -5 9 -35 10 -67 l1 -58 -40 0 c-22 0
-68 4 -102 8 -60 8 -63 7 -63 -13 0 -13 -5 -20 -12 -18 -9 3 -14 31 -16 79 -4
98 2 121 31 115 12 -3 58 -12 102 -21z m3907 8 c10 -9 18 -20 18 -25 0 -6 8
-17 19 -26 15 -13 25 -59 49 -207 35 -214 59 -482 46 -494 -5 -4 -67 -25 -138
-46 l-129 -39 -16 24 c-9 14 -41 52 -73 85 l-57 60 43 80 c69 132 119 205 140
205 14 0 17 5 13 22 -4 13 0 29 10 40 19 21 16 27 -42 98 -25 30 -63 81 -85
112 l-40 57 107 35 c60 19 110 35 112 35 3 1 13 -6 23 -16z m-6183 -7 c9 -11
4 -25 -26 -65 -21 -28 -47 -74 -58 -103 l-21 -53 -60 -5 c-107 -9 -107 -9 22
121 65 65 122 119 125 119 4 0 12 -6 18 -14z m829 -108 c-3 -51 -7 -173 -7
-271 l-1 -178 -22 7 c-13 3 -25 8 -27 10 -4 4 34 415 45 497 11 72 19 28 12
-65z m1769 80 c77 -17 103 -27 106 -40 7 -24 35 -34 57 -20 14 9 21 8 30 -4
10 -11 6 -26 -20 -77 -18 -34 -36 -65 -39 -70 -4 -4 -50 2 -102 13 -52 11
-111 20 -131 20 -20 0 -39 3 -41 8 -8 15 16 192 27 192 6 0 57 -10 113 -22z
m-1497 -79 c37 -12 107 -23 163 -26 l97 -6 0 -216 c0 -119 3 -273 7 -343 l6
-126 -57 16 c-47 13 -57 19 -53 34 8 28 -48 61 -226 130 -153 59 -159 63 -154
87 2 14 21 103 41 196 39 179 68 261 95 268 9 3 16 5 16 6 0 0 29 -9 65 -20z
m2164 -35 c77 -20 106 -33 123 -53 12 -14 22 -32 23 -39 0 -7 12 -17 26 -22
24 -9 26 -14 21 -46 -4 -20 -8 -38 -10 -40 -4 -4 -185 15 -309 32 l-48 7 0 62
c0 49 4 66 20 80 11 10 20 24 20 32 0 18 20 17 134 -13z m4471 -191 c-11 -18
-24 -31 -29 -30 -21 7 -158 218 -152 234 5 12 29 -6 104 -78 l98 -94 -21 -32z
m-6190 183 c33 -9 51 -19 53 -31 2 -9 -4 -96 -13 -193 -10 -98 -20 -242 -24
-322 l-6 -145 -60 4 c-33 1 -61 4 -63 6 -2 1 2 52 9 111 7 66 9 170 6 264 -4
91 -2 174 4 200 19 84 30 120 37 120 4 -1 30 -7 57 -14z m3279 -21 c19 -29 21
-75 4 -97 -7 -9 -44 -24 -83 -34 -38 -9 -108 -30 -154 -46 -75 -26 -85 -28
-93 -14 -5 9 -22 16 -37 16 -28 0 -28 0 -34 78 -3 55 -1 81 8 90 8 9 56 16
141 21 230 14 230 14 248 -14z m526 -2 c-2 -67 -40 -171 -96 -259 -32 -51 -62
-94 -65 -94 -9 0 -26 220 -21 292 l4 67 51 4 c123 8 127 8 127 -10z m-1006
-50 c4 -32 10 -79 13 -105 4 -39 2 -49 -11 -54 -10 -4 -25 1 -36 11 -13 12
-30 16 -51 13 l-31 -5 7 76 c4 42 8 77 9 77 6 5 82 43 87 44 4 0 10 -26 13
-57z m-2422 17 c73 -16 136 -30 140 -30 10 0 10 -367 1 -542 -5 -112 -8 -128
-23 -128 -10 0 -25 11 -34 25 -27 41 -64 50 -97 25 -31 -22 -82 -25 -184 -9
-33 5 -70 9 -82 9 -20 0 -23 5 -23 40 0 21 28 155 61 297 84 355 81 343 95
343 7 0 72 -13 146 -30z m2077 3 c96 -6 107 -8 128 -32 21 -23 23 -32 17 -86
-3 -33 -7 -61 -8 -62 -1 -1 -33 4 -71 12 -39 7 -115 19 -169 25 -71 9 -104 18
-117 31 -11 11 -26 19 -34 19 -11 0 -15 12 -15 48 0 27 3 52 8 56 4 5 41 5 82
2 41 -4 122 -9 179 -13z m3538 -90 c51 -78 76 -162 50 -164 -7 0 -39 -2 -72
-4 -33 -1 -77 -6 -97 -10 -21 -4 -38 -3 -38 1 0 5 14 27 30 48 30 40 39 89 19
101 -5 4 -24 1 -40 -5 -16 -7 -32 -11 -34 -8 -8 8 113 131 123 125 5 -4 32
-41 59 -84z m-5210 51 c5 -15 -34 -625 -42 -651 -3 -9 -25 -13 -65 -13 -71 0
-68 -10 -40 144 22 123 60 402 60 446 0 42 31 90 58 90 12 0 25 -7 29 -16z
m2757 -71 c4 -32 11 -131 16 -221 8 -134 7 -173 -5 -220 -21 -81 -19 -107 16
-178 18 -36 30 -65 28 -67 -2 -1 -34 -16 -70 -34 l-66 -31 -6 201 c-3 111 -13
258 -22 327 -9 72 -13 147 -9 177 6 48 10 54 48 77 22 14 46 25 53 26 6 0 14
-24 17 -57z m-2505 27 c58 -12 106 -22 107 -23 7 -6 -69 -113 -138 -195 -43
-51 -78 -102 -78 -114 0 -20 -36 -88 -47 -88 -6 0 3 260 14 373 7 78 -3 75
142 47z m401 -67 c11 -29 13 -79 11 -218 -2 -99 -4 -234 -5 -300 l-1 -120 -70
4 c-38 1 -71 4 -72 5 -1 1 4 47 12 101 8 55 20 205 27 333 l12 232 35 0 c32 0
38 -4 51 -37z m2748 -26 c44 -43 43 -87 -5 -199 -20 -48 -38 -86 -39 -85 -5 4
-44 276 -44 302 0 25 3 27 28 20 15 -3 42 -20 60 -38z m-2460 -7 c63 -11 129
-20 147 -20 l32 0 7 -277 c3 -153 9 -299 12 -325 l6 -47 -34 9 c-59 18 -202
40 -252 40 -27 0 -66 5 -87 12 -32 9 -39 16 -39 37 0 94 22 569 26 585 5 14
12 17 38 12 17 -4 82 -16 144 -26z m1584 -164 c6 -155 23 -319 44 -447 l6 -36
-78 -12 c-44 -7 -144 -16 -223 -19 l-144 -7 7 95 c3 52 9 183 13 290 4 139 10
201 19 215 8 11 14 27 14 36 0 12 24 20 113 37 130 25 163 30 197 28 l25 -1 7
-179z m-2102 -153 c-5 -62 -8 -129 -6 -150 3 -21 8 -57 11 -80 l5 -43 -36 0
c-19 0 -70 9 -112 19 -43 11 -107 25 -144 31 -38 7 -68 16 -68 20 0 21 172
289 258 402 l97 128 3 -108 c2 -59 -2 -157 -8 -219z m893 -40 l2 -339 -43 6
c-23 4 -44 9 -46 11 -3 2 2 36 10 74 25 117 44 313 44 445 0 84 4 130 12 138
6 6 13 10 15 8 2 -2 5 -156 6 -343z m244 333 c37 -8 100 -17 138 -21 125 -11
111 17 119 -232 4 -120 11 -274 17 -342 6 -79 6 -128 0 -134 -6 -6 -71 -2
-178 12 -92 12 -181 21 -197 21 -27 0 -28 1 -20 38 4 20 8 150 9 287 1 238 15
385 35 385 5 0 39 -6 77 -14z m475 -282 c4 -137 11 -283 16 -324 5 -41 7 -78
3 -82 -3 -4 -23 -8 -43 -10 l-37 -3 -3 275 c-2 243 0 282 16 338 11 35 24 61
30 59 7 -2 13 -85 18 -253z m1213 40 c8 -77 18 -171 21 -210 l7 -72 -73 -7
c-61 -6 -75 -5 -85 8 -6 9 -23 21 -37 26 -39 15 -42 56 -8 106 46 67 90 145
90 160 0 8 14 36 30 62 17 26 30 54 30 62 0 8 3 12 6 9 3 -3 12 -68 19 -144z"/>
</g>
</svg>
