<?xml version="1.0" standalone="no"?>
<!DOCTYPE svg PUBLIC "-//W3C//DTD SVG 20010904//EN"
 "http://www.w3.org/TR/2001/REC-SVG-20010904/DTD/svg10.dtd">
<svg version="1.0" xmlns="http://www.w3.org/2000/svg"
 width="2400.000000pt" height="1600.000000pt" viewBox="0 0 2400.000000 1600.000000"
 preserveAspectRatio="xMidYMid meet">
<metadata>
Created by potrace 1.13, written by Peter Selinger 2001-2015
</metadata>
<g transform="translate(0.000000,1600.000000) scale(0.100000,-0.100000)"
fill="#000000" stroke="none">
<path d="M4885 10270 c-3 -5 -25 -10 -49 -10 -47 0 -74 -22 -114 -92 -20 -36
-21 -44 -11 -155 14 -157 15 -162 55 -200 27 -25 35 -40 32 -60 -3 -26 -7 -28
-62 -33 -48 -4 -62 -10 -82 -33 -13 -16 -24 -35 -24 -44 0 -8 -16 -41 -35 -72
-69 -115 -135 -290 -170 -456 -26 -118 -32 -515 -11 -609 19 -80 72 -186 93
-186 8 0 23 -10 32 -22 11 -13 24 -19 34 -15 14 5 16 23 15 114 0 62 -6 119
-13 133 -13 28 -44 114 -52 145 -2 12 14 75 37 140 23 66 49 145 57 175 9 30
21 63 28 73 11 16 15 13 36 -30 19 -35 37 -53 72 -71 46 -24 47 -26 47 -72 0
-30 -6 -52 -15 -60 -8 -7 -15 -18 -15 -24 0 -6 -7 -23 -14 -38 -19 -36 -45
-213 -53 -355 -6 -111 -6 -113 15 -113 28 0 28 14 -3 -470 -19 -297 -28 -395
-41 -428 -15 -36 -16 -49 -6 -76 14 -38 16 -83 3 -90 -5 -3 -42 -1 -82 5 -157
22 -173 22 -195 3 -24 -23 -64 -147 -97 -306 l-12 -58 -91 0 c-70 0 -95 -4
-104 -15 -16 -20 -53 -213 -54 -280 0 -27 6 -107 14 -176 l14 -127 -27 -32
c-15 -17 -32 -52 -39 -77 -10 -40 -16 -48 -57 -66 -37 -17 -67 -21 -151 -21
l-105 -1 -7 -55 c-4 -30 -12 -138 -18 -240 -17 -302 -69 -923 -79 -955 -5 -16
-12 -55 -16 -85 -7 -64 -14 -77 -46 -94 -13 -6 -32 -27 -41 -47 -23 -49 -31
-54 -167 -104 -137 -49 -213 -98 -230 -147 -8 -22 -9 -97 -5 -240 8 -236 11
-228 -71 -203 -98 29 -206 15 -248 -33 -37 -41 -76 -409 -84 -794 l-6 -288
2707 0 2706 0 0 3138 0 3139 -40 12 c-53 16 -64 44 -55 136 11 97 8 140 -10
175 -22 43 -74 42 -123 -1 -33 -29 -36 -30 -48 -14 -7 10 -18 41 -24 70 -6 29
-19 69 -30 90 -10 20 -22 49 -25 65 -11 51 -81 100 -144 100 -15 0 -61 -12
-102 -26 -95 -33 -233 -64 -285 -64 -39 0 -74 -22 -74 -46 0 -5 -6 -21 -14
-36 -18 -34 -23 -67 -41 -273 -9 -93 -20 -209 -26 -256 l-11 -87 -37 -6 c-20
-3 -50 -6 -67 -6 -50 0 -54 -12 -54 -152 0 -70 -5 -150 -11 -178 -15 -70 -37
-82 -157 -89 -93 -6 -96 -7 -112 -36 -32 -58 -69 -271 -76 -445 -3 -69 -10
-129 -15 -134 -5 -6 -9 -17 -9 -26 0 -33 -36 -52 -122 -61 -108 -13 -143 -29
-207 -94 -60 -63 -103 -80 -182 -71 -211 23 -323 17 -415 -24 -23 -10 -55 -21
-71 -24 l-29 -7 -22 228 c-15 150 -27 232 -36 242 -8 9 -24 84 -36 168 l-22
151 21 23 c25 27 26 33 7 62 -12 18 -88 267 -110 360 -3 15 -12 27 -20 27 -7
0 -16 13 -19 29 -3 16 -9 39 -12 52 -5 19 0 28 25 42 33 20 61 67 80 137 l13
45 37 -115 c20 -63 48 -144 62 -180 22 -57 25 -77 22 -160 -2 -52 -6 -114 -9
-138 -5 -37 -3 -45 17 -62 31 -26 35 -25 67 9 60 64 67 311 18 611 -22 135
-50 217 -107 315 -113 196 -224 332 -262 322 -11 -3 -21 0 -24 8 -3 8 -30 19
-60 25 -56 12 -63 22 -41 55 35 52 44 98 36 187 -6 65 -15 101 -38 146 -39 77
-57 95 -88 87 -19 -4 -26 -1 -30 15 -6 21 -37 28 -48 10z m2293 -1652 c16 -16
15 -43 -2 -61 -16 -15 -166 -41 -210 -36 -34 5 -48 29 -17 29 14 0 21 6 21 19
0 37 50 59 141 60 30 1 60 -4 67 -11z m-2114 -296 c2 -4 10 -45 16 -91 7 -50
19 -94 30 -110 20 -27 93 -251 94 -286 1 -41 -36 -271 -49 -305 -7 -19 -16
-50 -19 -69 -3 -18 -16 -50 -29 -70 -12 -19 -27 -51 -32 -71 -11 -36 -53 -67
-79 -57 -13 5 -14 21 -32 482 -8 181 0 275 22 275 18 0 22 21 29 170 4 68 9
128 11 132 7 10 31 10 38 0z m1051 -1138 c16 -25 16 -26 -9 -49 -15 -14 -45
-27 -71 -30 -53 -8 -242 -1 -267 10 -14 6 -18 2 -18 -17 0 -33 -22 -61 -46
-57 -14 3 -20 14 -22 43 -2 22 -1 50 3 64 5 22 10 24 45 18 25 -4 40 -2 42 6
7 21 90 35 209 37 115 1 117 1 134 -25z m-1270 -344 c16 -18 17 -23 5 -45 -13
-23 -18 -25 -94 -25 -113 0 -256 20 -256 35 0 35 70 52 231 54 84 1 98 -1 114
-19z m170 -518 c89 -14 125 -27 125 -47 0 -12 -15 -15 -85 -15 -47 0 -85 -4
-85 -9 0 -10 -41 -27 -87 -36 -17 -3 -37 -13 -43 -20 -7 -8 -16 -65 -21 -127
-6 -62 -14 -117 -20 -122 -5 -6 -9 -49 -9 -97 0 -64 -4 -90 -15 -99 -29 -24
-38 -1 -32 87 6 76 4 88 -15 114 -17 23 -22 46 -25 111 -3 71 0 94 24 162 43
120 74 130 288 98z m-783 -324 l22 -22 -43 -13 c-100 -29 -266 -25 -266 7 0
21 111 48 198 49 56 1 70 -2 89 -21z m-392 -1109 c0 -10 -4 -27 -9 -37 -27
-53 -40 -269 -18 -312 9 -18 10 -44 4 -95 -8 -69 -12 -83 -22 -73 -3 3 -10 94
-16 202 -9 147 -9 204 0 222 6 14 9 35 5 48 -3 14 3 32 16 49 23 29 40 28 40
-4z m-750 -1119 c0 -46 2 -50 23 -47 l22 2 0 -212 c0 -134 -4 -214 -10 -215
-5 0 -21 18 -34 41 -32 59 -48 245 -31 384 13 103 30 130 30 47z"/>
</g>
</svg>
