<?xml version="1.0" standalone="no"?>
<!DOCTYPE svg PUBLIC "-//W3C//DTD SVG 20010904//EN"
 "http://www.w3.org/TR/2001/REC-SVG-20010904/DTD/svg10.dtd">
<svg version="1.0" xmlns="http://www.w3.org/2000/svg"
 width="2400.000000pt" height="1600.000000pt" viewBox="0 0 2400.000000 1600.000000"
 preserveAspectRatio="xMidYMid meet">
<metadata>
Created by potrace 1.13, written by Peter Selinger 2001-2015
</metadata>
<g transform="translate(0.000000,1600.000000) scale(0.100000,-0.100000)"
fill="#000000" stroke="none">
<path d="M1986 9904 c-11 -28 -7 -52 28 -172 36 -123 54 -296 33 -309 -5 -3
-7 -1 -3 5 9 15 -11 25 -38 18 -24 -6 -39 -35 -52 -96 -3 -19 -16 -46 -27 -61
-13 -18 -18 -35 -13 -51 3 -13 1 -47 -6 -76 l-11 -52 -48 53 c-26 29 -65 61
-86 71 -62 28 -83 81 -83 211 0 81 -3 105 -13 105 -9 0 -17 -26 -25 -77 -17
-111 -15 -146 9 -177 l20 -26 -24 0 c-34 0 -84 30 -96 58 -6 13 -11 43 -11 67
0 25 -4 45 -10 45 -27 0 -48 -101 -31 -153 10 -30 20 -37 79 -60 37 -14 92
-33 122 -41 31 -9 63 -23 73 -33 45 -47 67 -83 67 -110 0 -16 5 -34 11 -40 15
-15 2 -50 -22 -63 -11 -6 -19 -21 -19 -36 0 -37 -74 -147 -137 -203 -55 -49
-55 -49 -112 -44 -31 3 -58 8 -61 10 -3 3 -7 62 -10 131 -3 73 -10 136 -17
149 -16 28 -116 117 -169 150 -39 25 -43 32 -64 112 -12 47 -24 100 -27 116
-3 17 -11 37 -17 45 -7 8 -25 43 -41 78 -26 56 -45 78 -45 53 0 -5 -8 -17 -17
-27 -16 -16 -16 -20 11 -68 23 -40 96 -224 96 -241 0 -2 -31 11 -70 28 -65 29
-87 47 -57 47 6 0 -1 9 -18 20 -16 11 -52 36 -79 55 -26 19 -57 35 -67 35 -27
0 -24 -36 4 -55 13 -8 42 -39 65 -67 23 -29 47 -59 53 -66 8 -10 3 -15 -20
-23 -40 -14 -39 -26 1 -37 l31 -8 -68 -42 c-37 -24 -65 -45 -62 -49 11 -10
101 18 179 57 l76 38 49 -28 c27 -16 71 -49 98 -74 43 -38 47 -45 28 -46 -12
0 -45 -14 -73 -32 -66 -41 -153 -50 -229 -22 -55 19 -66 16 -57 -14 9 -29 118
-56 193 -50 45 5 70 14 112 42 39 27 63 36 85 34 l31 -3 6 -120 c8 -137 17
-169 57 -192 l29 -17 -28 -55 c-16 -31 -32 -71 -35 -88 -3 -18 -9 -33 -13 -33
-4 0 -20 13 -35 29 -18 19 -23 30 -15 33 10 3 10 16 0 66 -8 33 -11 73 -8 88
6 33 -1 54 -17 54 -18 0 -39 -85 -32 -128 6 -35 6 -36 -10 -17 -9 11 -20 32
-26 48 -11 30 -45 37 -55 11 -6 -16 46 -97 118 -185 l38 -46 -6 -108 c-6 -97
-5 -108 10 -102 13 5 18 -2 23 -31 3 -20 10 -54 14 -74 4 -21 5 -38 1 -38 -3
0 -24 12 -45 26 -27 19 -35 29 -27 37 15 15 14 27 -3 27 -15 0 -26 30 -26 72
0 22 -18 41 -97 104 -162 128 -194 144 -178 94 9 -28 121 -140 161 -161 25
-13 36 -29 52 -80 13 -40 17 -68 11 -73 -14 -15 -11 -26 5 -20 8 3 32 -8 53
-25 21 -17 55 -36 76 -44 35 -12 40 -18 62 -83 13 -39 60 -152 104 -252 45
-100 81 -185 81 -190 0 -11 -56 -52 -71 -52 -15 0 -139 115 -162 152 -11 15
-24 28 -31 28 -7 0 -31 14 -53 30 -44 32 -77 90 -88 152 -10 51 -32 69 -41 33
-16 -63 30 -181 90 -232 l30 -25 -25 -19 c-13 -10 -28 -19 -32 -19 -14 0 -77
54 -77 67 0 15 -67 61 -149 102 -34 17 -65 31 -67 31 -3 0 -9 -10 -13 -22 -9
-22 -9 -22 -17 -3 -4 11 -11 22 -15 25 -4 3 -32 45 -63 94 -61 97 -69 94 -32
-9 l24 -66 -142 3 c-132 3 -145 1 -200 -22 -107 -45 -79 -76 35 -40 63 21 83
22 193 17 138 -7 156 -11 156 -38 0 -13 10 -20 38 -24 70 -12 262 -104 262
-127 0 -4 -101 -8 -224 -8 -220 0 -224 0 -229 22 -6 20 -7 20 -31 5 -14 -10
-44 -17 -66 -17 -41 0 -41 -1 -38 -32 3 -30 -2 -36 -47 -66 l-50 -34 -20 26
c-37 46 -54 32 -31 -25 6 -13 -1 -18 -31 -22 -21 -4 -52 -7 -69 -7 -33 0 -48
-17 -34 -39 5 -10 25 -11 76 -5 38 5 73 9 79 9 5 0 18 -16 27 -36 13 -29 15
-44 8 -70 -6 -19 -10 -64 -10 -100 0 -54 5 -76 27 -116 31 -55 280 -303 305
-303 9 0 18 -6 21 -14 4 -11 -11 -13 -79 -12 -65 1 -87 -2 -94 -14 -8 -13 1
-16 53 -21 65 -6 196 -37 211 -50 5 -4 -4 -11 -20 -14 -73 -15 -106 -27 -131
-50 -22 -18 -25 -26 -16 -36 11 -11 70 -2 189 33 40 11 42 10 78 -23 20 -19
65 -51 99 -72 68 -42 74 -42 215 -17 l73 13 68 -47 c38 -26 71 -56 75 -68 7
-30 3 -32 -34 -13 -36 19 -40 18 -180 -20 -59 -16 -136 -28 -203 -32 -59 -3
-110 -10 -113 -15 -11 -17 55 -31 151 -32 78 -1 118 4 182 23 133 38 206 16
261 -81 30 -51 104 -130 166 -177 25 -18 136 -199 136 -221 0 -4 25 -18 55
-30 l55 -22 24 -82 c14 -44 30 -101 36 -126 13 -48 14 -203 2 -258 l-7 -32
-73 60 c-41 33 -79 63 -86 68 -47 29 -165 241 -167 301 -1 14 -5 37 -9 51 l-8
25 -7 -22 c-4 -13 -10 -23 -14 -22 -8 0 -80 95 -88 114 -3 8 -9 15 -14 15 -18
0 5 -68 52 -154 31 -57 49 -102 49 -123 0 -26 6 -36 24 -45 14 -6 30 -24 37
-41 7 -16 72 -92 145 -168 l132 -138 7 -67 c6 -52 2 -103 -20 -233 -16 -91
-30 -168 -32 -171 -14 -16 -131 188 -139 241 -5 29 -11 39 -25 39 -18 0 -25
-15 -31 -70 -3 -23 -8 -19 -52 38 -51 65 -63 72 -73 46 -12 -31 33 -100 123
-189 101 -100 153 -170 164 -221 5 -21 1 -85 -11 -167 -10 -72 -18 -171 -19
-218 l0 -86 -81 -12 c-45 -7 -143 -26 -218 -42 -219 -48 -354 -56 -560 -34
-231 24 -684 17 -931 -15 -91 -11 -171 -23 -178 -25 -9 -3 -12 -120 -12 -540
l0 -535 4040 0 4040 0 0 715 0 715 -212 0 c-363 0 -735 -49 -998 -131 -52 -16
-110 -29 -130 -29 -19 0 -91 -12 -160 -25 -107 -21 -153 -25 -320 -25 -107 0
-271 -7 -364 -15 -93 -8 -172 -13 -174 -10 -3 3 2 5 11 5 26 0 87 32 87 46 0
7 -10 20 -22 28 -16 12 -18 16 -7 20 8 3 55 20 104 37 172 59 186 86 161 294
-16 137 -37 205 -61 205 -19 0 -27 -32 -34 -129 l-6 -84 -56 -29 c-71 -37
-259 -86 -361 -95 -76 -6 -78 -5 -113 25 -43 38 -72 47 -131 38 -58 -7 -100
-29 -149 -77 l-40 -38 -141 14 c-77 8 -148 17 -156 20 -8 3 -20 17 -27 31 -15
35 -59 209 -67 271 -7 57 -27 84 -46 65 -26 -26 -38 -359 -17 -437 14 -52 86
-122 133 -130 19 -4 37 -13 40 -20 2 -7 22 -16 43 -19 90 -16 49 -21 -136 -18
-175 3 -215 0 -342 -22 -247 -43 -349 -51 -644 -50 -222 0 -320 5 -473 22
-142 16 -254 22 -415 22 -189 0 -562 21 -573 32 -7 7 -24 435 -24 593 0 88 5
213 10 277 l9 118 50 73 c107 155 97 148 321 221 109 36 239 76 287 88 98 24
91 35 -23 37 -47 1 -72 -5 -108 -24 l-46 -24 0 22 c1 12 16 51 34 87 l33 65
89 6 c88 5 154 22 154 40 0 5 -45 9 -100 9 -55 0 -100 2 -100 5 0 3 11 28 25
55 29 57 29 60 12 60 -15 0 -70 -57 -108 -110 -36 -51 -109 -214 -109 -244 0
-23 -4 -26 -38 -26 -59 0 -150 -27 -196 -59 -41 -29 -82 -70 -139 -141 l-28
-35 5 40 c3 22 8 66 12 98 6 52 11 62 60 112 35 35 79 66 128 90 64 31 77 42
95 79 12 23 21 48 21 56 0 8 25 67 56 133 38 81 86 160 150 247 l94 127 88 17
c48 8 113 24 143 35 52 17 57 18 82 3 15 -9 27 -22 27 -29 0 -32 144 -26 230
9 l35 15 -25 13 c-15 9 -57 14 -105 15 -44 1 -88 6 -99 11 -16 10 -13 14 25
36 41 24 51 25 136 21 108 -7 143 0 143 26 0 20 -44 41 -86 41 -36 0 -36 15
-1 52 32 34 33 35 142 41 61 4 128 10 150 14 l40 7 -30 7 c-16 4 -72 7 -122 8
-92 1 -93 1 -93 26 0 18 -5 25 -20 25 -28 0 -109 -42 -110 -57 0 -7 -5 -13
-11 -13 -11 0 18 54 41 75 33 29 183 115 201 115 10 0 19 7 19 15 0 21 91 20
153 -1 26 -9 52 -14 59 -12 23 8 -40 55 -92 69 l-49 14 55 65 c67 79 51 95
-29 28 -60 -51 -107 -82 -113 -75 -3 2 9 39 25 81 16 42 25 76 19 76 -22 0
-68 -65 -93 -133 -17 -45 -37 -79 -54 -92 -49 -36 -159 -147 -187 -186 l-27
-39 -94 0 c-90 0 -93 1 -83 19 14 27 13 31 -9 31 -10 0 -26 -11 -34 -24 -11
-17 -29 -26 -61 -30 -25 -4 -66 -18 -92 -32 -26 -14 -49 -22 -53 -19 -3 4 -6
34 -6 69 0 50 5 70 25 100 l25 37 98 3 c102 4 118 9 100 27 -7 7 -41 10 -88 7
-75 -3 -76 -3 -55 14 13 11 39 18 64 18 55 1 117 30 149 71 22 29 24 35 10 38
-9 1 -33 -7 -54 -19 -48 -27 -50 -12 -4 39 33 36 46 71 26 71 -14 0 -91 -91
-97 -114 -3 -14 -24 -30 -56 -45 -29 -13 -73 -44 -100 -69 -53 -49 -55 -49
-33 5 21 49 19 68 -7 86 -22 14 -23 16 -7 58 12 34 25 49 58 68 35 19 45 21
52 10 7 -12 14 -11 41 3 18 9 71 34 119 56 188 86 263 161 112 113 -37 -12
-74 -25 -81 -27 -7 -4 0 28 19 81 17 47 29 89 25 92 -21 21 -85 -88 -86 -145
0 -32 -2 -33 -29 -27 -27 6 -83 -18 -169 -72 -33 -20 -39 -9 -13 23 16 21 21
41 21 89 l0 61 53 47 c74 66 76 68 108 107 l29 35 57 -62 c32 -34 68 -66 80
-72 37 -19 102 -12 202 20 110 35 165 35 231 -2 41 -23 62 -20 41 5 -7 8 -31
24 -53 35 -41 20 -41 20 -17 30 88 33 105 34 136 11 19 -14 41 -20 59 -18 l29
3 -37 19 c-21 10 -38 22 -38 27 0 4 25 16 55 25 63 20 77 40 37 55 -44 17
-127 2 -217 -41 -141 -66 -263 -99 -362 -100 l-51 0 -41 59 -40 59 104 67 c58
37 108 71 111 77 5 8 -9 9 -44 4 -29 -4 -52 -4 -52 0 0 3 44 53 97 112 98 107
109 138 30 84 -60 -42 -108 -98 -143 -166 -21 -42 -43 -68 -83 -96 l-53 -38
-43 29 c-23 16 -65 34 -93 41 -43 9 -58 9 -93 -5 -24 -9 -44 -15 -45 -14 -2 2
31 40 72 85 72 78 78 83 157 108 45 14 98 27 117 28 19 1 40 4 45 8 6 3 37 11
70 18 119 24 277 95 364 162 17 13 41 18 90 18 92 0 104 12 35 34 -62 19 -59
10 -33 109 l10 38 35 -30 c27 -24 44 -31 77 -31 23 0 49 5 57 10 14 9 -1 18
-73 43 -9 4 -22 18 -29 32 -6 13 -20 27 -30 31 -17 5 -19 12 -13 42 9 47 9 47
37 28 32 -23 115 -21 156 4 53 32 41 42 -49 39 -80 -3 -81 -3 -96 25 -11 22
-13 39 -7 69 l9 40 117 37 c128 41 278 100 278 110 0 18 -51 32 -97 26 -40 -6
-200 -45 -290 -72 l-21 -6 17 57 c10 32 24 61 32 65 8 4 46 15 84 25 74 19
102 36 91 54 -10 16 -108 13 -149 -4 -47 -20 -52 -19 -64 8 -8 18 -3 37 30
104 37 73 43 81 57 68 8 -8 35 -17 59 -21 35 -6 43 -4 39 7 -2 8 -20 19 -38
25 -31 10 -34 15 -35 53 -1 23 4 46 11 51 6 6 9 20 7 33 -3 16 6 36 31 66 39
46 44 61 22 61 -12 0 -13 6 -4 31 8 25 8 34 -5 46 -25 25 -43 9 -72 -66 -29
-73 -39 -80 -48 -34 -30 160 -96 327 -126 321 -33 -7 -27 -34 45 -195 8 -17
19 -51 24 -75 18 -89 29 -121 41 -129 14 -8 -7 -59 -87 -221 -24 -48 -44 -99
-44 -113 0 -14 -3 -25 -7 -25 -17 0 -80 26 -106 43 -28 18 -57 23 -57 9 0 -14
75 -82 90 -82 8 -1 27 -11 42 -23 l27 -22 -85 -49 c-80 -46 -105 -69 -91 -83
3 -3 51 18 106 46 54 28 104 51 111 51 15 0 4 -36 -21 -72 -14 -20 -17 -32
-10 -50 6 -15 5 -31 -1 -42 -6 -10 -14 -52 -19 -92 -4 -41 -15 -89 -23 -106
-8 -18 -15 -47 -14 -65 1 -21 -8 -42 -26 -63 -27 -33 -42 -72 -32 -88 8 -13
-81 -77 -170 -121 -85 -42 -190 -78 -200 -69 -7 7 30 82 61 123 12 17 24 39
26 50 3 11 30 38 62 60 65 44 62 58 -4 24 l-43 -21 -20 25 c-28 33 -94 77
-118 77 -24 0 -44 45 -53 123 l-7 58 66 -7 c80 -8 85 4 15 36 -42 20 -49 27
-44 45 19 57 18 76 -4 82 -44 11 -17 93 56 169 l58 59 -29 3 c-20 3 -43 -6
-74 -28 l-44 -31 4 48 c2 37 0 48 -12 48 -25 0 -56 -87 -68 -195 l-7 -55 -71
-13 -71 -14 -7 -55 c-4 -31 -5 -58 -2 -60 9 -9 46 19 46 35 0 27 13 40 45 48
l30 7 -30 -32 c-19 -21 -26 -34 -18 -39 6 -4 10 -26 10 -49 -1 -23 4 -48 10
-54 10 -10 17 -3 32 31 22 50 24 47 36 -59 10 -86 41 -129 148 -200 26 -18 47
-34 47 -37 0 -3 -18 -31 -40 -62 -22 -32 -45 -80 -52 -109 -14 -58 -11 -56
-119 -68 -46 -5 -68 -15 -118 -51 -44 -32 -61 -40 -61 -28 0 19 -38 15 -179
-22 -52 -13 -95 -23 -96 -22 -1 2 48 75 111 163 106 151 111 160 88 163 -16 2
-38 -7 -59 -22 -30 -23 -34 -24 -39 -8 -16 56 -21 93 -21 146 0 74 -18 84 -45
24 -22 -48 -26 -122 -9 -165 6 -15 15 -46 19 -68 7 -36 5 -45 -33 -99 l-42
-59 -7 44 c-10 57 -35 124 -66 173 -20 32 -22 43 -13 63 15 32 14 43 -4 43
-22 0 -18 30 14 112 20 50 44 88 76 120 48 49 47 64 -5 53 l-30 -7 0 87 c0 54
5 96 14 113 20 38 261 272 382 369 96 78 184 166 184 184 0 27 -58 1 -148 -66
-60 -44 -102 -69 -102 -60 0 7 5 17 10 20 6 3 7 17 4 29 -4 19 1 28 29 45 66
41 49 82 -18 43 -32 -20 -35 -20 -45 -4 -15 26 -27 0 -35 -72 -14 -126 -25
-151 -99 -209 -32 -26 -37 -27 -32 -11 3 11 -5 53 -19 94 -14 40 -25 89 -25
107 0 19 -6 44 -12 56 -7 12 -18 49 -24 82 l-11 60 -20 -43 -20 -43 -33 38
c-29 32 -54 78 -73 135 -8 24 -37 12 -37 -16 0 -36 57 -144 103 -193 29 -32
54 -75 74 -128 57 -149 55 -209 -11 -282 l-42 -47 -18 150 c-13 112 -21 152
-33 162 -19 14 -24 14 -40 4 -9 -6 -9 -34 0 -122 17 -164 16 -528 -1 -558 -19
-33 -36 -15 -62 64 -20 60 -53 115 -63 104 -11 -13 24 -154 50 -202 28 -50 30
-59 28 -151 l-2 -98 -58 -70 c-32 -38 -61 -69 -64 -69 -17 0 -71 68 -71 88 0
13 9 41 20 63 18 35 19 40 5 45 -9 4 -24 -1 -34 -10 -17 -15 -18 -13 -29 35
-19 80 -15 96 32 157 50 64 85 135 86 171 l0 25 -29 -28 c-16 -16 -43 -54 -60
-86 -17 -32 -38 -61 -47 -64 -9 -4 -18 -5 -18 -4 -1 2 -14 22 -29 45 -40 63
-36 86 23 129 78 56 58 97 -27 55 l-45 -22 -5 21 c-8 30 -27 19 -31 -17 -3
-28 -13 -37 -91 -82 -49 -28 -92 -51 -95 -51 -4 0 -4 15 0 34 5 32 2 39 -45
84 -28 27 -51 54 -51 60 0 23 40 57 81 66 60 15 55 30 -10 34 -47 3 -57 0 -81
-23 -24 -23 -28 -24 -34 -10 -3 9 -6 32 -6 51 0 63 -34 35 -45 -36 -6 -42 -4
-48 30 -87 20 -24 32 -43 26 -43 -19 0 -12 -24 20 -65 l30 -40 -33 -28 c-30
-26 -38 -28 -83 -22 -93 12 -93 11 -136 101 -22 47 -44 82 -49 79 -14 -9 -3
-79 18 -129 l19 -41 -38 -18 c-20 -10 -49 -36 -65 -60 l-28 -42 -10 33 c-6 22
-6 36 2 44 7 7 7 17 0 34 -9 19 -6 54 13 155 l24 132 40 25 c22 14 50 25 63
24 16 -1 22 4 22 18 0 11 4 20 10 20 22 0 145 129 196 206 48 72 60 84 84 84
21 0 46 16 95 62 77 72 93 96 71 104 -10 4 -44 -18 -91 -57 -41 -34 -77 -60
-79 -58 -2 2 18 91 44 197 53 215 53 215 166 284 30 18 52 37 50 43 -4 11 -6
11 -47 0 -26 -6 -26 -5 -24 37 3 67 27 113 66 127 35 12 132 71 126 77 -2 2
-27 -5 -55 -16 -29 -11 -60 -20 -69 -20 -9 0 -27 -9 -39 -21 l-22 -20 8 38 c4
21 15 65 24 98 20 72 20 95 3 95 -8 0 -27 -32 -43 -72 l-29 -72 -16 55 c-14
47 -15 59 -3 93 20 54 17 63 -10 37 l-23 -22 -13 31 c-14 33 -25 38 -34 14z
m189 -1705 l26 -51 -27 -29 c-40 -42 -89 -40 -131 4 -18 17 -33 38 -35 44 -2
10 110 80 133 82 4 1 19 -22 34 -50z m-210 -187 l0 -128 -25 30 c-13 16 -44
42 -67 56 -24 15 -63 54 -89 86 l-45 59 63 7 c35 4 81 13 103 21 25 9 44 11
50 5 6 -5 10 -64 10 -136z m-285 98 c6 -10 33 -49 62 -86 32 -42 44 -64 32
-59 -38 16 -71 16 -129 1 -33 -8 -60 -14 -60 -13 -1 1 -11 18 -22 38 -26 46
-20 81 19 114 36 30 83 33 98 5z m579 -136 c14 -107 18 -97 -61 -149 -45 -30
-64 -58 -73 -108 l-7 -38 -35 68 c-19 37 -43 91 -53 119 l-18 51 22 -3 c15 -2
37 15 81 65 54 62 89 88 121 90 6 1 16 -40 23 -95z m-375 -95 c45 -36 54 -49
77 -117 29 -89 55 -106 52 -33 l-2 44 23 -34 c28 -43 51 -122 40 -141 -5 -7
-35 -37 -66 -67 -52 -48 -57 -51 -67 -34 -11 21 -4 37 18 45 10 3 3 13 -22 32
-30 23 -34 31 -28 49 17 45 23 125 11 147 -17 31 -33 12 -40 -48 -4 -36 -9
-46 -22 -44 -12 2 -15 -3 -11 -18 7 -25 2 -25 -47 0 -49 25 -60 25 -60 1 0
-12 19 -31 49 -51 40 -25 57 -45 85 -100 l35 -70 -16 -52 c-9 -32 -13 -69 -9
-95 3 -23 2 -44 -3 -47 -8 -5 -40 92 -63 192 -17 76 -43 55 -48 -38 l-2 -35
-25 55 c-48 104 -153 371 -153 390 0 10 -4 22 -10 25 -19 12 -10 23 23 29 17
3 55 17 82 30 30 15 69 25 99 25 42 1 55 -4 100 -40z m741 -144 c6 -46 -3
-111 -37 -260 -19 -81 -27 -99 -91 -187 -39 -54 -76 -98 -82 -98 -25 0 -33
161 -14 264 10 54 9 62 -15 107 l-25 48 36 48 c20 26 66 79 102 116 l66 68 27
-31 c15 -18 29 -50 33 -75z m-254 0 c18 -6 18 -7 1 -30 -22 -32 -30 -31 -34 3
-5 45 -32 33 -42 -19 -11 -55 -1 -119 18 -119 26 0 36 -56 26 -136 -5 -41 -7
-108 -3 -148 l6 -73 -54 -6 c-56 -5 -79 4 -79 32 0 34 -40 81 -92 107 -29 15
-67 38 -84 51 l-32 24 58 57 c60 60 113 152 125 215 6 28 18 45 58 75 l51 38
29 -32 c15 -18 37 -36 48 -39z m553 -217 c-26 -29 -71 -89 -99 -133 -76 -116
-149 -188 -208 -204 -26 -8 -50 -12 -52 -9 -3 3 19 56 50 119 47 99 58 115 82
119 36 7 43 37 10 42 -21 3 -23 6 -16 26 12 32 79 59 185 76 49 7 91 14 92 15
2 0 -18 -23 -44 -51z m-1594 -180 c12 -40 38 -104 58 -143 l37 -70 0 -140 0
-140 34 -53 c34 -52 34 -52 21 -110 -17 -81 -57 -196 -68 -200 -12 -4 -67 91
-77 130 -5 19 -1 35 14 56 11 16 18 32 14 36 -11 11 -41 7 -46 -6 -9 -21 -25
11 -33 60 -11 70 -24 47 -24 -41 0 -79 -1 -85 -30 -112 -25 -24 -30 -26 -36
-12 -3 10 -15 17 -25 17 -15 0 -19 7 -19 33 0 17 -5 50 -10 72 -17 72 -11 388
10 519 12 77 12 76 -3 76 -16 0 -34 -42 -44 -105 l-8 -49 -22 37 c-44 74 -58
28 -22 -69 16 -41 22 -84 24 -154 l2 -98 -39 45 c-21 24 -38 53 -38 64 0 16
-6 20 -27 17 -25 -3 -28 -8 -31 -43 -3 -37 2 -46 52 -101 63 -70 82 -119 91
-241 5 -71 3 -82 -10 -77 -18 7 -19 26 -3 42 9 9 9 12 1 12 -7 0 -15 -5 -18
-10 -4 -6 -61 42 -128 106 -102 97 -126 115 -147 111 -20 -4 -36 5 -75 42 -27
26 -60 54 -72 62 -22 15 -53 86 -53 118 1 9 21 36 46 61 59 58 81 108 93 209
5 45 12 85 15 88 3 3 31 1 62 -6 122 -24 412 -6 474 30 30 17 38 8 60 -63z
m725 -5 c55 -31 91 -71 109 -120 13 -38 13 -44 -3 -65 -30 -40 -71 -131 -71
-159 0 -42 -15 -43 -46 -2 -21 27 -29 50 -31 89 -2 31 -19 93 -43 153 -39 98
-40 103 -25 132 16 30 16 30 43 13 15 -10 45 -28 67 -41z m-1396 -53 c-12 -71
-26 -114 -46 -145 -36 -58 -55 -59 -51 -2 2 33 7 41 20 39 16 -2 16 0 3 25 -8
15 -15 38 -15 50 0 12 -4 25 -10 28 -15 9 -12 25 4 25 8 0 33 18 56 40 23 22
45 40 50 40 4 0 -1 -45 -11 -100z m2464 79 c12 -6 29 -19 35 -30 11 -17 4 -29
-60 -103 -84 -96 -91 -92 -59 35 27 108 37 120 84 98z m-124 -46 c-14 -28 -19
-59 -19 -123 0 -91 -29 -237 -50 -250 -7 -4 -14 -19 -15 -33 -6 -51 -16 -64
-69 -86 -62 -25 -119 -92 -150 -173 -10 -27 -19 -48 -22 -48 -9 0 -75 143 -70
155 2 7 17 16 33 19 15 4 55 20 87 36 32 17 67 30 77 30 9 0 25 3 34 6 30 12
-6 24 -72 24 -58 0 -64 -2 -85 -30 -12 -16 -27 -30 -33 -30 -7 0 -20 -9 -30
-20 -10 -11 -22 -17 -26 -14 -5 3 -9 0 -9 -5 0 -6 -4 -11 -10 -11 -21 0 -7 24
84 143 88 116 115 164 170 309 23 63 52 91 124 119 68 26 73 24 51 -18z
m-1265 -60 c8 -16 48 -69 89 -120 65 -80 79 -105 117 -208 23 -64 40 -119 37
-122 -9 -8 -109 44 -151 79 -34 28 -36 33 -36 87 0 31 -5 62 -12 69 -20 20
-47 14 -54 -13 -8 -34 -18 -31 -44 10 -21 33 -21 37 -6 87 8 29 18 77 22 106
7 58 17 65 38 25z m-190 -126 c14 -18 31 -47 39 -65 7 -18 39 -59 70 -91 31
-32 57 -63 57 -68 0 -5 41 -89 90 -187 50 -98 90 -183 90 -190 0 -8 -23 -16
-62 -22 -79 -11 -83 -24 -29 -105 23 -34 41 -65 41 -71 0 -5 -19 10 -42 32
-67 64 -138 94 -238 100 l-85 5 3 35 c1 19 15 63 29 98 21 48 32 62 48 62 29
0 67 42 114 129 23 41 41 75 41 77 0 17 -28 -8 -85 -76 -67 -79 -85 -89 -85
-47 0 12 -14 45 -30 72 -27 45 -30 59 -30 136 0 48 5 90 11 96 8 8 8 17 0 31
-6 11 -11 34 -11 51 0 42 31 41 64 -2z m716 -37 c9 -23 10 -37 0 -62 -16 -45
-26 -218 -13 -218 14 0 18 12 33 100 15 85 24 103 34 65 4 -15 17 -40 28 -56
21 -28 21 -30 5 -81 -8 -29 -19 -70 -23 -90 -7 -43 -14 -47 -31 -19 -7 11 -42
54 -79 96 l-66 76 16 62 c23 84 58 157 76 157 4 0 13 -13 20 -30z m404 -2 c-5
-7 -26 -36 -49 -65 -22 -28 -52 -70 -67 -92 -41 -60 -54 -54 -62 29 -8 94 1
110 62 111 26 0 63 7 82 14 19 7 36 14 38 14 2 1 0 -5 -4 -11z m-249 -340 c-4
-40 -10 -117 -14 -171 -5 -78 -10 -100 -23 -108 -20 -11 -13 -39 9 -39 10 0
13 -8 11 -26 -2 -20 -15 -30 -61 -51 -31 -14 -60 -24 -63 -20 -3 3 16 37 42
76 44 67 46 72 31 89 -16 17 -15 20 8 42 28 27 33 66 10 96 -8 10 -15 35 -15
55 0 47 36 129 57 129 14 0 15 -10 8 -72z m435 0 c0 -2 -7 -21 -15 -43 -20
-57 -18 -159 5 -243 24 -87 26 -168 4 -222 -21 -53 -38 -41 -31 23 l6 49 -28
-5 c-26 -6 -29 -3 -44 47 -9 29 -20 75 -23 102 -4 27 -13 61 -21 77 -13 26
-11 31 33 100 54 84 82 117 101 117 7 0 13 -1 13 -2z m-214 -196 c13 -35 31
-93 40 -130 26 -112 45 -176 60 -204 26 -49 18 -74 -33 -109 -27 -18 -69 -50
-94 -71 -46 -37 -69 -47 -69 -29 0 5 -3 16 -6 25 -4 10 9 22 45 40 53 28 131
95 131 115 0 36 -55 16 -141 -51 -38 -29 -59 -37 -41 -15 5 6 12 32 16 57 4
25 15 60 26 78 25 41 25 48 -2 55 -30 8 -55 -8 -77 -51 -16 -29 -20 -32 -21
-16 0 12 -3 36 -6 53 -6 27 -4 31 14 31 11 0 28 7 37 16 20 20 5 41 -33 46
-21 2 -28 9 -30 30 -3 25 1 29 42 40 29 8 41 15 33 20 -8 6 -3 15 18 32 17 13
41 33 55 44 l25 21 -30 1 c-16 0 -54 -11 -83 -25 -30 -14 -56 -25 -58 -25 -2
0 -3 19 -3 43 2 29 3 34 6 15 2 -16 8 -28 13 -28 13 0 46 45 59 80 6 16 16 44
22 60 l12 31 24 -58 c14 -32 36 -86 49 -121z m-384 151 c9 -10 23 -31 32 -48
9 -16 23 -40 31 -51 15 -20 13 -25 -29 -73 -24 -29 -65 -94 -91 -144 -53 -103
-96 -166 -149 -216 -38 -37 -39 -37 -51 34 -4 22 -11 45 -16 51 -13 15 -22
136 -12 149 4 6 25 18 46 27 41 19 77 69 77 107 0 13 5 52 12 86 l11 63 51 15
c68 20 71 20 88 0z m-932 -196 c19 -40 36 -75 38 -79 2 -4 -12 -10 -32 -13
-26 -5 -48 -1 -90 18 -46 21 -54 29 -49 46 3 12 9 21 14 21 5 0 8 4 7 9 -3 9
61 70 72 70 3 0 21 -32 40 -72z m2024 -142 c-9 -14 -53 -48 -97 -75 -76 -47
-117 -61 -117 -42 0 11 37 119 45 132 3 6 47 10 96 10 l89 0 -16 -25z m-1651
-12 c21 -15 55 -51 73 -81 42 -64 122 -152 139 -152 7 0 16 -12 20 -27 14 -56
45 -209 45 -226 0 -10 11 -42 24 -70 13 -29 27 -63 31 -77 l8 -25 -33 26 c-22
16 -39 42 -49 75 -27 80 -47 110 -136 196 -47 45 -85 87 -85 94 0 7 -16 31
-35 54 -19 23 -35 47 -35 53 0 6 14 -5 30 -25 19 -23 36 -35 45 -31 30 11 14
44 -55 117 -50 53 -70 81 -70 100 0 35 31 35 83 -1z m1427 14 c0 -11 -33 -113
-38 -119 -4 -4 -26 -11 -50 -16 -36 -8 -41 -8 -32 4 18 21 2 36 -32 28 -26 -5
-30 -4 -25 11 4 9 7 23 7 31 0 8 9 14 20 14 10 0 23 7 28 16 5 9 24 19 43 24
36 8 79 12 79 7z m-710 -70 c0 -1 9 -32 19 -68 l19 -66 -42 -79 c-27 -51 -49
-80 -63 -84 -21 -5 -94 -104 -132 -178 -11 -22 -23 -59 -27 -81 -4 -23 -10
-41 -15 -41 -23 0 -84 188 -98 305 l-10 80 53 50 c30 28 68 69 86 93 30 39 34
42 49 27 20 -17 67 -20 77 -4 11 19 84 59 84 46z m279 -332 c-32 -87 -80 -157
-159 -230 l-32 -30 32 46 c26 37 33 60 37 113 4 46 10 66 19 66 9 0 14 11 14
30 0 24 9 36 58 68 31 22 58 36 60 32 1 -4 -12 -46 -29 -95z m-190 -33 c1 -13
6 -32 12 -43 6 -13 7 -25 1 -32 -5 -7 -12 -28 -16 -47 -3 -20 -20 -52 -37 -73
-25 -30 -37 -37 -67 -37 -21 0 -53 -4 -71 -10 -58 -16 -62 -28 67 200 87 154
84 151 99 104 6 -21 12 -49 12 -62z m45 -319 c-9 -36 -31 -61 -74 -83 -19 -10
-63 -38 -97 -64 l-62 -45 -6 32 c-2 18 -6 54 -7 82 l-3 50 65 6 c36 4 90 16
120 27 72 26 71 26 64 -5z"/>
</g>
</svg>
