<?xml version="1.0" standalone="no"?>
<!DOCTYPE svg PUBLIC "-//W3C//DTD SVG 20010904//EN"
 "http://www.w3.org/TR/2001/REC-SVG-20010904/DTD/svg10.dtd">
<svg version="1.0" xmlns="http://www.w3.org/2000/svg"
 width="2400.000000pt" height="1600.000000pt" viewBox="0 0 2400.000000 1600.000000"
 preserveAspectRatio="xMidYMid meet">
<metadata>
Created by potrace 1.13, written by Peter Selinger 2001-2015
</metadata>
<g transform="translate(0.000000,1600.000000) scale(0.100000,-0.100000)"
fill="#000000" stroke="none">
<path d="M7887 8601 c-118 -13 -151 -20 -162 -34 -7 -9 -18 -52 -24 -95 -7
-42 -30 -146 -52 -231 -21 -85 -39 -167 -39 -183 0 -29 -24 -118 -39 -148 -6
-10 -31 -17 -77 -21 -38 -4 -86 -14 -108 -23 -35 -15 -38 -18 -33 -48 3 -18
13 -58 21 -88 20 -69 20 -187 1 -293 -46 -252 -65 -370 -71 -437 -7 -70 -9
-77 -46 -112 -45 -43 -75 -49 -80 -15 -5 39 -40 32 -113 -23 -53 -40 -73 -50
-94 -46 -32 7 -44 0 -65 -41 -9 -18 -23 -33 -32 -33 -8 0 -32 -9 -54 -20 -22
-11 -55 -20 -74 -20 -53 0 -76 -36 -76 -119 0 -36 -7 -151 -17 -255 -16 -177
-18 -189 -39 -196 -45 -17 -66 -71 -42 -109 16 -25 3 -55 -20 -46 -9 4 -27 10
-39 12 -22 5 -23 2 -23 -56 l0 -61 -45 0 c-87 0 -153 -50 -127 -96 7 -13 4
-26 -12 -51 -11 -18 -28 -35 -36 -38 -20 -6 -79 -97 -101 -155 -9 -25 -19 -70
-22 -101 -11 -106 -134 -359 -176 -359 -5 0 -12 11 -15 25 -14 55 -115 85
-151 45 -10 -11 -26 -22 -37 -26 -17 -5 -19 -12 -14 -42 12 -87 13 -85 -15
-86 -15 -1 -38 -15 -57 -36 -32 -35 -36 -46 -65 -172 -24 -103 -73 -214 -132
-303 l-53 -80 -94 -33 c-111 -38 -114 -38 -121 -12 -4 17 -14 20 -56 20 -42 0
-53 -4 -66 -23 -9 -15 -13 -35 -10 -53 6 -27 2 -31 -52 -60 -76 -40 -104 -79
-212 -301 -78 -161 -94 -188 -144 -233 -88 -81 -143 -195 -115 -240 17 -27 0
-53 -82 -121 -36 -30 -109 -98 -162 -152 -94 -94 -98 -100 -98 -142 0 -43 -2
-45 -88 -118 -48 -41 -103 -84 -122 -96 l-35 -21 2053 0 2052 0 0 2910 0 2910
-22 -1 c-13 -1 -90 -9 -171 -18z"/>
<path d="M564 7442 c-30 -17 -99 -71 -155 -124 -33 -30 -38 -64 -10 -73 16 -5
18 -10 8 -34 -8 -23 -6 -36 13 -76 l23 -48 -22 -18 c-13 -11 -40 -23 -61 -29
-23 -6 -52 -26 -74 -50 -38 -42 -43 -56 -24 -62 7 -3 -6 -28 -35 -65 -25 -33
-58 -87 -73 -119 l-27 -59 -7 46 c-3 26 -12 54 -20 64 -12 15 -81 55 -95 55
-3 0 -5 -911 -5 -2025 l0 -2025 1286 0 1286 0 -147 153 c-80 83 -165 162 -187
175 -41 22 -122 30 -132 13 -3 -5 -33 1 -65 13 -52 19 -66 30 -102 81 -34 46
-46 75 -59 139 -16 80 -16 81 -49 84 -18 2 -39 -2 -46 -8 -11 -10 -15 -6 -20
17 -11 54 -41 98 -70 101 -15 2 -32 -1 -38 -7 -6 -6 -21 -2 -46 14 -20 12 -54
26 -76 30 -80 14 -175 88 -175 136 0 44 -42 99 -96 124 -55 26 -87 61 -146
160 -37 61 -98 204 -98 229 0 20 -63 72 -104 87 -20 7 -36 19 -36 26 0 7 -4
21 -9 31 -5 9 -15 37 -22 62 -7 25 -16 50 -19 55 -17 24 -23 78 -21 187 2 102
-1 126 -24 195 -25 72 -26 85 -19 186 6 93 4 110 -10 126 -14 15 -15 26 -7 62
6 24 11 65 11 91 0 46 -1 47 -50 75 -36 20 -48 32 -44 43 20 47 26 107 15 153
-6 27 -11 65 -11 86 0 20 -6 46 -14 56 -12 16 -11 26 5 74 33 94 19 165 -34
173 -21 3 -20 4 7 18 41 21 44 39 7 53 -17 6 -31 15 -31 18 0 4 -22 34 -48 66
l-49 58 39 40 c21 21 48 59 60 84 12 24 29 52 39 62 26 26 75 136 100 224 18
64 23 107 23 216 l1 136 37 56 c48 72 74 80 140 45 l48 -26 6 36 c4 19 3 56
-2 81 -12 59 -55 91 -124 91 l-48 0 -10 43 c-26 103 -168 169 -258 119z"/>
</g>
</svg>
