<?xml version="1.0" standalone="no"?>
<!DOCTYPE svg PUBLIC "-//W3C//DTD SVG 20010904//EN"
 "http://www.w3.org/TR/2001/REC-SVG-20010904/DTD/svg10.dtd">
<svg version="1.0" xmlns="http://www.w3.org/2000/svg"
 width="2400.000000pt" height="1600.000000pt" viewBox="0 0 2400.000000 1600.000000"
 preserveAspectRatio="xMidYMid meet">
<metadata>
Created by potrace 1.13, written by Peter Selinger 2001-2015
</metadata>
<g transform="translate(0.000000,1600.000000) scale(0.100000,-0.100000)"
fill="#000000" stroke="none">
<path d="M6581 4991 c-12 -49 -21 -95 -21 -103 0 -8 -15 -21 -32 -30 -29 -13
-58 -14 -212 -5 -166 9 -186 8 -265 -11 -114 -27 -171 -36 -171 -25 0 4 5 26
10 48 6 25 6 53 0 75 -15 54 -93 117 -131 105 -18 -6 -19 -18 -19 -268 l0
-263 -162 -26 c-165 -27 -223 -42 -313 -83 -86 -39 -145 -56 -150 -42 -2 7 -6
53 -10 102 -3 50 -9 101 -12 114 -5 22 -4 23 26 16 41 -9 41 11 1 50 -30 28
-30 29 -9 44 63 48 79 65 79 82 0 25 -26 24 -69 -2 -18 -11 -35 -19 -36 -17
-2 2 -8 30 -14 62 -6 32 -22 78 -36 102 -14 23 -25 49 -25 57 0 18 -32 47 -52
47 -39 0 -42 -22 -24 -205 9 -96 28 -245 41 -331 30 -188 29 -181 8 -187 -14
-4 -13 -5 4 -6 17 -1 23 -9 28 -43 9 -50 7 -51 -120 -113 -100 -49 -239 -91
-330 -100 -37 -4 -132 2 -245 14 -102 12 -268 28 -369 36 -102 8 -236 22 -298
31 -123 19 -118 15 -106 88 l6 38 257 -7 c202 -6 259 -4 265 5 12 19 -15 34
-113 66 -80 27 -99 29 -240 29 l-152 0 0 25 c1 56 21 174 31 186 7 9 8 19 2
27 -9 12 -1 227 13 329 7 55 -17 118 -47 118 -21 0 -30 -12 -44 -60 -7 -22
-18 -36 -30 -38 -31 -6 -45 -22 -45 -51 0 -41 -10 -48 -84 -56 -86 -9 -96 -12
-96 -36 0 -12 13 -26 35 -36 l36 -17 -22 -17 c-25 -19 -18 -39 14 -39 18 0 19
2 7 10 -11 7 -6 10 21 10 46 0 89 -35 89 -73 0 -15 -6 -29 -12 -31 -7 -2 -85
-9 -173 -15 -140 -10 -247 -23 -387 -47 -28 -5 -39 -3 -42 7 -2 8 -18 93 -36
189 -18 96 -37 185 -41 198 -9 22 -49 32 -49 11 0 -5 -13 -15 -29 -20 -16 -6
-32 -17 -35 -25 -3 -8 5 -85 19 -172 29 -183 29 -192 12 -192 -23 0 -35 -42
-58 -197 -22 -148 -22 -148 -58 -178 -97 -81 -121 -107 -110 -121 6 -8 7 -14
2 -14 -5 0 -62 -7 -127 -15 -112 -15 -119 -15 -131 2 -9 12 -10 23 -4 35 8 15
-4 24 -84 63 -51 25 -97 45 -103 45 -12 0 -117 307 -109 320 3 6 1 10 -4 10
-16 0 -13 32 10 123 18 69 20 102 16 206 -3 67 -10 128 -15 133 -20 20 -52 -4
-86 -65 -19 -34 -37 -76 -41 -94 -7 -36 -11 -36 -145 -8 -150 31 -254 40 -460
40 -118 0 -229 -4 -246 -8 -31 -8 -31 -8 -38 40 -8 57 -54 146 -78 151 -21 4
-38 -33 -38 -79 0 -17 -7 -37 -15 -45 -20 -20 -19 -89 1 -194 8 -45 14 -83 12
-85 -2 -1 -32 -17 -68 -35 -100 -50 -176 -97 -280 -174 -52 -39 -98 -72 -101
-74 -3 -1 -11 15 -19 37 -7 21 -23 52 -36 67 -19 24 -26 27 -41 18 -23 -14
-33 -90 -32 -254 l1 -125 -96 -29 -96 -30 0 -593 0 -593 4040 0 4040 0 0 660
0 660 -64 0 c-36 0 -67 4 -71 9 -3 6 -3 28 1 50 l7 41 63 0 c62 0 64 1 64 26
0 25 -1 26 -57 22 l-57 -3 -7 32 c-3 18 -12 40 -20 49 -12 15 -6 15 64 9 64
-6 77 -5 77 7 0 20 -196 80 -415 128 -49 11 -101 23 -114 26 -21 4 -22 6 -8
22 26 29 50 101 44 131 -5 22 2 42 28 82 19 30 35 64 35 75 0 29 -33 69 -52
62 -8 -3 -40 -49 -72 -103 -32 -53 -61 -95 -64 -93 -75 40 -362 114 -572 148
-194 31 -183 28 -174 48 4 9 9 38 12 64 3 43 1 50 -35 87 -26 28 -46 41 -65
41 -25 0 -27 -4 -47 -89z m219 -190 c47 -10 141 -35 208 -55 131 -38 280 -71
375 -82 31 -4 57 -9 57 -12 0 -17 -67 -105 -84 -112 -20 -7 -186 2 -266 15
-19 3 -123 12 -230 20 -107 9 -195 17 -197 19 -1 1 6 36 18 76 13 49 18 87 14
112 -8 45 -11 44 105 19z m-260 -12 c0 -6 -8 -8 -17 -5 -25 8 -36 -2 -61 -55
-27 -55 -27 -59 -3 -59 11 0 23 -4 26 -10 3 -5 3 -10 0 -10 -20 0 -285 -45
-435 -74 -96 -19 -177 -31 -180 -27 -3 3 -3 56 0 116 l5 110 269 7 c148 4 274
9 280 12 23 9 116 6 116 -5z m-5199 -65 c74 -8 198 -18 277 -21 78 -3 142 -8
141 -12 0 -3 -10 -51 -22 -106 l-22 -100 -145 -2 c-80 -2 -253 3 -385 10
l-240 12 -12 65 c-7 36 -17 85 -22 110 -18 79 -28 74 142 66 85 -4 214 -14
288 -22z m5159 -167 c0 -21 -32 -222 -36 -229 -4 -6 -109 -8 -268 -6 -143 1
-280 -1 -303 -6 l-43 -8 0 49 c0 28 5 75 11 106 14 67 0 62 219 82 131 11 420
20 420 12z m480 -42 c101 -8 198 -15 214 -15 47 0 23 -12 -148 -75 -113 -41
-160 -63 -163 -76 -3 -10 -21 -23 -40 -30 -20 -6 -58 -33 -85 -59 l-49 -47
-93 -9 -94 -9 12 25 c7 14 35 92 62 174 l49 148 75 -6 c41 -3 158 -13 260 -21z
m-3527 -52 c4 -38 7 -89 7 -115 l0 -48 -72 0 c-114 0 -304 -19 -412 -41 -54
-11 -101 -18 -103 -15 -6 6 -22 138 -23 187 l0 35 123 17 c115 16 245 29 453
45 19 2 22 -5 27 -65z m-2669 25 c3 -13 10 -57 16 -98 6 -41 13 -84 15 -96 4
-19 -3 -22 -83 -38 -111 -21 -246 -60 -335 -97 -38 -16 -71 -29 -73 -29 -2 0
-4 26 -4 58 0 63 11 82 47 82 13 0 45 16 71 36 48 36 321 203 334 204 4 0 10
-10 12 -22z m6886 -59 c91 -23 169 -44 173 -48 4 -5 3 -20 -4 -34 l-12 -27
-240 0 -241 0 70 74 c38 40 74 74 79 75 6 0 84 -17 175 -40z m-6385 16 c99 -8
235 -15 303 -15 67 0 122 -3 121 -7 0 -5 -6 -55 -12 -113 l-12 -105 -145 -8
c-108 -6 -179 -4 -275 7 -71 8 -163 18 -202 22 -62 5 -73 9 -73 24 0 11 5 22
11 25 7 5 5 11 -5 18 -8 7 -19 39 -25 71 -18 100 -21 96 62 96 39 0 153 -7
252 -15z m4455 -89 l0 -94 -167 5 c-135 4 -195 1 -308 -16 -76 -11 -143 -17
-147 -15 -15 10 -8 63 10 72 38 20 540 140 590 141 21 1 22 -2 22 -93z m1508
9 c-29 -41 -58 -84 -65 -96 -11 -20 -19 -22 -165 -24 -84 -1 -166 -5 -183 -9
-49 -10 180 99 320 153 72 28 134 50 138 51 4 0 -16 -34 -45 -75z m-1043 -120
c77 0 164 3 193 7 l52 7 0 -34 0 -33 -67 -8 c-87 -9 -260 3 -400 27 -129 22
-145 27 -136 41 4 7 40 8 112 2 58 -5 169 -9 246 -9z m-2735 -54 l0 -49 -47
-6 c-27 -3 -164 -8 -306 -12 l-258 -7 3 34 3 34 140 6 c135 6 287 22 370 39
22 4 52 8 68 9 26 1 27 -1 27 -48z m4330 -25 c0 -25 -4 -47 -9 -50 -12 -8
-186 20 -261 43 -54 16 -61 20 -40 25 25 6 201 22 273 25 l37 1 0 -44z m-6954
-79 c5 -49 4 -67 -5 -67 -68 0 -318 25 -361 36 -30 8 -83 14 -117 14 -35 0
-63 4 -63 9 0 11 181 46 340 66 69 9 139 20 155 24 38 10 42 2 51 -82z m614
27 c63 -13 138 -27 165 -32 50 -7 50 -8 47 -42 -2 -19 -5 -36 -7 -38 -1 -2
-54 4 -116 13 -82 11 -178 15 -344 14 l-230 -2 -7 49 c-4 27 -6 54 -3 61 7 22
360 6 495 -23z"/>
</g>
</svg>
