<?xml version="1.0" standalone="no"?>
<!DOCTYPE svg PUBLIC "-//W3C//DTD SVG 20010904//EN"
 "http://www.w3.org/TR/2001/REC-SVG-20010904/DTD/svg10.dtd">
<svg version="1.0" xmlns="http://www.w3.org/2000/svg"
 width="2400.000000pt" height="1600.000000pt" viewBox="0 0 2400.000000 1600.000000"
 preserveAspectRatio="xMidYMid meet">
<metadata>
Created by potrace 1.13, written by Peter Selinger 2001-2015
</metadata>
<g transform="translate(0.000000,1600.000000) scale(0.100000,-0.100000)"
fill="#000000" stroke="none">
<path d="M8021 15562 c-72 -33 -125 -38 -191 -18 -148 44 -323 -10 -463 -144
-55 -51 -77 -66 -87 -59 -26 16 -94 10 -129 -12 -116 -70 -211 -237 -224 -394
-2 -29 -4 -30 -57 -35 -60 -6 -76 -13 -134 -59 -30 -24 -42 -28 -56 -21 -38
20 -114 12 -161 -18 -67 -43 -134 -137 -152 -213 l-7 -27 518 -7 c457 -7 1188
-2 1199 8 2 2 2 233 1 514 l-3 509 -54 -24z"/>
<path d="M7240 8863 c-14 -3 -49 -16 -78 -29 -29 -13 -60 -24 -68 -24 -9 0
-28 -7 -42 -15 -15 -8 -81 -31 -147 -51 -279 -83 -492 -194 -710 -369 -88 -72
-299 -276 -317 -309 -5 -9 -21 -16 -37 -16 -15 0 -36 -9 -46 -20 -10 -11 -28
-20 -39 -20 -12 -1 -37 -7 -56 -14 -19 -8 -59 -23 -88 -34 -86 -33 -117 -64
-167 -163 -51 -102 -60 -167 -25 -176 19 -5 20 -14 20 -128 0 -68 3 -130 6
-138 4 -10 -4 -21 -23 -31 -15 -8 -22 -15 -15 -16 17 0 15 -28 -8 -104 -18
-58 -24 -66 -45 -66 -30 0 -33 -20 -6 -37 17 -11 18 -16 6 -68 -36 -154 -48
-294 -43 -514 l5 -218 -36 -10 c-94 -27 -178 -65 -209 -95 -42 -40 -114 -189
-116 -238 -1 -27 4 -37 22 -45 21 -9 22 -14 22 -152 0 -134 -1 -142 -21 -148
-16 -5 -18 -10 -8 -21 8 -10 10 -38 5 -92 -11 -123 22 -280 62 -298 9 -4 152
-12 317 -19 248 -10 303 -9 316 2 28 24 44 14 100 -64 92 -126 273 -315 367
-381 36 -26 35 -37 -5 -45 -61 -13 -110 -63 -158 -163 -50 -106 -59 -162 -25
-171 18 -5 20 -14 20 -88 0 -45 3 -109 6 -142 6 -54 4 -62 -12 -67 -17 -5 -19
-15 -16 -100 l3 -95 -52 -15 c-70 -21 -111 -20 -163 3 -69 32 -162 44 -247 32
-108 -15 -167 -37 -245 -92 -119 -84 -154 -102 -204 -107 -64 -6 -138 20 -192
67 -93 82 -150 94 -299 60 -82 -19 -134 -24 -245 -24 l-142 0 -41 33 c-63 51
-104 64 -180 59 -36 -2 -91 -10 -123 -17 -89 -22 -126 -6 -223 96 -132 137
-197 154 -388 99 -115 -34 -130 -36 -177 -26 -28 6 -91 11 -139 11 -153 0
-258 -45 -392 -166 -87 -79 -151 -117 -234 -139 -102 -26 -147 -21 -239 29
-201 109 -192 106 -318 106 -128 0 -192 -13 -312 -65 -44 -19 -82 -32 -86 -30
-4 3 -10 25 -13 50 -4 25 -14 59 -22 76 -17 32 -69 69 -97 69 -13 0 -18 8 -18
30 0 16 -6 49 -14 72 -8 24 -17 57 -21 75 l-6 31 58 12 c81 16 120 29 133 44
7 9 10 55 8 127 l-3 114 -110 9 c-60 4 -111 9 -113 11 -8 7 60 99 80 109 30
15 35 57 10 80 -11 9 -41 25 -68 35 -45 17 -49 22 -60 67 -6 27 -17 63 -23 79
-7 17 -17 70 -22 118 -5 49 -12 93 -15 98 -3 5 -37 9 -76 9 -75 0 -126 -21
-158 -65 -17 -23 -16 -17 -26 -177 -8 -132 -8 -131 -94 -121 -31 4 -56 1 -75
-10 l-29 -15 3 -103 c1 -57 5 -107 7 -110 2 -4 31 -9 64 -11 33 -2 61 -6 63
-9 3 -2 7 -41 11 -86 l6 -82 -88 2 c-82 2 -91 0 -124 -25 -32 -24 -37 -34 -41
-80 -8 -91 -31 -198 -42 -198 -6 0 -64 -31 -129 -70 -66 -38 -152 -84 -193
-101 l-73 -33 0 -503 0 -503 4040 0 4040 0 0 533 0 534 -25 11 c-24 11 -25 14
-25 117 l0 105 25 0 25 0 0 201 0 201 -37 -7 c-21 -4 -40 -7 -43 -8 -3 0 -24
5 -47 13 -39 12 -43 16 -44 47 -1 18 -2 38 -3 45 -1 12 17 18 117 38 l57 11 0
45 c0 24 -4 44 -8 44 -4 0 -47 -9 -95 -19 l-86 -19 -6 32 c-7 44 -55 483 -55
506 0 13 9 22 28 26 15 3 61 17 102 30 41 13 78 24 83 24 4 0 13 -15 21 -32
13 -30 14 -12 15 184 l1 218 -54 137 c-29 76 -65 164 -79 196 -14 31 -23 57
-20 57 3 0 31 -21 62 -48 101 -86 91 -89 91 31 l0 106 -56 45 c-31 26 -54 46
-52 46 1 0 27 -7 56 -14 l52 -14 0 37 c0 36 -1 38 -52 51 l-53 14 53 10 52 9
0 74 0 75 -50 -7 c-49 -7 -50 -6 -50 18 0 20 11 32 50 56 43 26 50 35 50 62
l0 30 -56 -31 c-30 -18 -57 -31 -58 -29 -28 33 -24 45 45 137 l70 92 -3 131
-3 131 -66 -83 c-36 -46 -88 -117 -114 -156 -26 -40 -51 -73 -54 -73 -3 0 -15
7 -25 15 -19 15 -19 17 18 137 112 370 190 598 203 593 7 -3 20 -8 28 -11 12
-5 15 3 15 43 0 27 -5 54 -11 60 -9 9 -9 20 0 44 6 17 11 80 10 138 l0 106
-46 -128 c-32 -89 -50 -127 -59 -123 -43 17 -178 35 -296 41 -137 7 -138 8
-138 31 0 21 5 24 34 24 18 0 39 7 46 15 7 8 23 15 37 15 13 0 26 6 28 13 4
12 35 244 40 300 1 15 5 30 8 33 10 10 -17 44 -35 44 -10 0 -18 3 -18 8 0 4 7
66 15 137 9 72 18 156 22 187 l6 58 36 -5 c20 -2 65 -7 101 -10 36 -3 97 -14
135 -25 39 -11 74 -20 78 -20 4 0 7 26 5 57 l-3 58 -50 12 c-27 6 -114 12
-192 12 l-143 1 -19 39 c-11 21 -32 52 -46 70 l-27 31 35 0 c19 0 94 -5 168
-11 111 -9 140 -15 169 -34 19 -12 52 -25 73 -28 l37 -6 0 58 0 59 -62 11
c-200 35 -414 49 -512 33 -46 -7 -67 -6 -92 4 -32 13 -120 17 -174 7z m-300
-216 c0 -2 -9 -22 -20 -45 -11 -22 -20 -50 -20 -60 0 -15 -19 -27 -77 -51 -43
-18 -116 -53 -162 -78 l-84 -46 -43 49 c-39 45 -41 50 -26 63 28 23 213 107
282 129 121 37 150 45 150 39z m218 -325 l-3 -137 -60 -7 c-33 -3 -63 -3 -67
0 -5 6 -26 280 -21 285 0 1 36 1 77 -1 l77 -4 -3 -136z m173 88 c4 -25 10 -87
14 -138 l7 -93 -63 3 -64 3 -3 138 -3 138 53 -3 53 -3 6 -45z m293 -7 c-3 -32
-9 -96 -12 -143 l-7 -85 -47 -3 c-27 -2 -48 -2 -49 0 -5 13 -23 280 -20 284 2
2 35 4 73 4 l68 0 -6 -57z m-682 -80 c3 -127 3 -128 -22 -145 -14 -10 -19 -18
-12 -18 9 0 12 -33 12 -130 0 -105 4 -142 21 -194 l21 -65 50 -10 c27 -6 89
-11 137 -11 48 0 122 -3 164 -6 l77 -7 0 -32 c0 -31 -1 -32 -77 -49 -43 -10
-119 -35 -170 -56 l-92 -37 -150 266 c-83 146 -177 311 -210 366 l-59 100 52
33 c61 40 224 122 242 122 10 0 14 -31 16 -127z m-451 21 c12 -22 11 -27 -3
-35 -57 -32 -162 -121 -280 -239 -130 -130 -138 -136 -160 -123 -13 7 -42 21
-66 31 l-44 18 119 119 c117 119 250 237 328 289 l40 27 26 -31 c14 -17 32
-42 40 -56z m155 -237 c73 -115 316 -533 329 -569 4 -10 -16 -29 -67 -63 -40
-26 -103 -77 -139 -111 l-65 -64 -255 234 c-196 181 -259 245 -277 281 -22 45
-22 48 -6 74 50 77 361 357 388 348 6 -2 47 -60 92 -130z m-522 -579 c-3 -46
-9 -112 -13 -148 l-6 -65 -60 0 -60 0 -3 142 -3 142 43 4 c24 2 58 4 76 5 l33
2 -7 -82z m1709 51 c56 -11 106 -24 111 -29 5 -5 -36 -143 -97 -323 -58 -172
-110 -333 -117 -356 l-11 -43 -42 7 c-23 4 -43 8 -45 10 -6 5 -82 670 -82 723
l0 32 91 0 c52 0 134 -9 192 -21z m-2175 -244 c-2 -2 -29 -6 -62 -10 -58 -8
-58 -7 -51 16 4 13 30 73 59 134 l51 109 3 -123 c1 -68 1 -125 0 -126z m1766
8 c10 -126 26 -291 36 -368 10 -77 16 -142 15 -144 -2 -1 -8 0 -13 3 -14 9
-352 617 -352 634 0 12 53 34 170 73 137 45 122 65 144 -198z m-1047 50 c76
-67 157 -141 181 -165 l42 -44 -55 -84 c-66 -98 -94 -152 -125 -240 -13 -36
-24 -66 -25 -68 -1 -1 -67 18 -146 44 l-143 46 23 19 c13 10 31 19 41 19 15 0
20 11 25 58 4 31 15 112 24 180 10 67 14 122 9 122 -4 0 -8 7 -8 15 0 9 -9 15
-21 15 -17 0 -20 5 -16 23 3 12 9 58 12 102 4 44 9 83 12 88 7 12 23 -1 170
-130z m724 -80 c66 -126 197 -357 261 -461 38 -62 38 -63 22 -95 -40 -80 -19
-93 -325 206 l-279 272 58 58 c48 50 172 137 194 137 3 0 34 -53 69 -117z
m-133 -486 c218 -218 281 -287 276 -300 -3 -10 -12 -16 -18 -13 -6 2 -172 57
-368 122 -197 66 -358 124 -358 131 0 39 159 343 180 343 3 0 132 -127 288
-283z m-1458 78 c31 -5 40 -11 36 -23 -22 -79 -31 -192 -31 -384 0 -120 0
-218 0 -218 0 0 -22 8 -50 18 l-50 18 -8 99 c-12 147 3 406 30 530 l6 30 13
-32 c11 -25 21 -32 54 -38z m613 -102 l258 -88 -5 -35 c-3 -19 -8 -100 -11
-180 l-7 -145 -361 -32 c-199 -18 -364 -30 -367 -27 -11 12 -4 421 9 499 7 44
15 83 18 88 2 4 50 7 106 7 102 0 102 0 360 -87z m652 -226 c373 -128 439
-153 443 -165 2 -6 -23 -13 -60 -16 -76 -7 -440 -24 -593 -28 l-110 -3 -3 115
c-3 117 11 205 32 197 6 -2 137 -48 291 -100z m380 -390 c-33 -24 -159 -117
-280 -206 l-220 -161 -17 22 c-62 80 -171 350 -144 356 22 5 513 29 621 31
l99 1 -59 -43z m-756 -65 c25 -83 97 -230 145 -297 20 -27 36 -53 36 -56 0 -4
-64 -49 -142 -100 -170 -110 -234 -158 -350 -261 -48 -43 -89 -78 -91 -78 -12
0 -134 202 -183 303 -58 122 -64 157 -43 259 13 61 2 122 -37 202 -14 27 -23
50 -22 51 5 5 527 42 600 44 l67 1 20 -68z m873 -81 c-39 -83 -86 -156 -188
-293 -75 -101 -140 -187 -144 -192 -11 -11 -117 72 -189 149 -29 31 -50 60
-45 64 5 5 83 58 174 118 91 61 221 151 290 201 108 80 127 90 139 77 12 -12
8 -29 -37 -124z m499 -49 c46 -76 236 -537 241 -583 3 -22 -3 -25 -92 -45 -67
-15 -97 -18 -101 -10 -3 6 -11 67 -18 136 -13 132 -54 412 -76 518 -7 34 -10
62 -6 62 3 0 27 -35 52 -78z m-234 54 c1 -1 -13 -85 -32 -186 -18 -102 -44
-258 -56 -347 -27 -191 -13 -179 -169 -138 -161 43 -158 13 -27 269 63 122
142 265 176 319 55 84 66 97 85 91 11 -4 22 -7 23 -8z m-2322 -286 l0 -135
-58 -9 c-34 -5 -62 -5 -67 0 -4 5 -12 71 -17 147 l-8 138 75 -3 75 -3 0 -135z
m223 56 c17 -63 21 -93 16 -144 l-7 -64 -30 6 c-16 3 -53 6 -82 6 l-53 0 -4
133 c-2 72 -2 136 0 140 2 4 34 7 70 5 l67 -3 23 -79z m196 -20 c29 -86 35
-113 29 -151 -6 -45 -6 -46 -37 -39 -17 3 -33 8 -34 10 -2 1 -15 32 -28 69
-17 47 -24 87 -24 140 l0 75 29 0 c27 0 30 -4 65 -104z m1996 -181 c16 -126
30 -242 30 -257 l0 -28 -73 0 c-41 0 -76 2 -79 5 -6 6 33 268 61 415 12 58 21
107 22 110 3 17 12 -42 39 -245z m-987 74 c22 -30 122 -133 180 -183 l50 -45
-95 -133 c-52 -73 -119 -169 -148 -213 -29 -44 -73 -108 -97 -142 l-45 -63
-31 16 c-100 51 -293 205 -383 304 l-38 42 25 22 c163 135 258 208 394 303 88
62 163 113 167 113 4 0 13 -9 21 -21z m-792 -346 l66 -107 -30 -38 c-17 -21
-34 -38 -38 -38 -5 0 -27 27 -50 61 l-41 61 7 84 c4 46 10 84 13 84 4 0 37
-49 73 -107z m1453 -74 c38 -11 78 -19 88 -19 10 0 18 -7 18 -17 1 -51 -54
-549 -62 -557 -10 -12 -177 7 -303 35 -98 22 -225 58 -225 65 0 2 63 130 140
283 l139 279 68 -25 c37 -14 99 -34 137 -44z m376 -46 c0 -5 14 -114 30 -243
16 -129 30 -251 30 -271 l0 -36 -152 -7 c-83 -4 -155 -3 -159 1 -4 4 -3 33 2
63 7 43 59 480 59 496 0 2 43 4 95 4 52 0 95 -3 95 -7z m-1500 -233 c44 -32
118 -80 165 -107 47 -26 85 -51 85 -55 0 -4 -9 -23 -21 -42 -20 -34 -24 -36
-73 -36 -49 0 -59 5 -132 59 -101 75 -195 159 -268 240 l-58 63 38 39 37 38
74 -70 c41 -38 109 -96 153 -129z m649 -315 c72 -25 205 -54 328 -70 65 -9
133 -18 152 -21 l34 -5 -7 -67 c-4 -37 -10 -70 -14 -74 -24 -23 -572 78 -605
111 -8 8 52 141 64 141 4 0 25 -7 48 -15z m931 -137 c0 -42 -1 -43 -53 -66
-28 -12 -60 -22 -69 -22 -9 0 -20 -4 -23 -10 -4 -6 -55 -10 -121 -10 -105 0
-115 2 -110 18 3 9 8 40 12 67 3 28 8 53 11 58 2 4 83 7 179 7 l174 0 0 -42z
m-936 -123 c149 -45 471 -95 619 -95 31 0 57 -3 57 -7 0 -5 -11 -30 -25 -58
-14 -27 -28 -66 -31 -87 -6 -34 -4 -39 19 -47 23 -9 25 -14 25 -85 l0 -76
-145 0 -145 0 -46 46 -45 46 -121 -5 c-75 -3 -137 -10 -164 -20 -45 -17 -72
-14 -72 9 0 8 -8 14 -18 14 -16 0 -17 7 -5 103 6 56 12 123 12 149 1 26 6 50
12 54 7 4 9 21 6 40 -7 39 -3 40 67 19z m-634 -204 l0 -138 -31 -7 c-17 -3
-46 -6 -64 -6 -37 0 -36 -5 -51 203 l-6 87 76 0 76 0 0 -139z m469 102 c0 -21
-6 -87 -12 -148 l-12 -110 -60 0 -60 0 -3 55 c-3 48 2 66 39 142 41 84 48 91
97 97 8 1 12 -12 11 -36z m-259 23 c0 -2 -31 -63 -69 -135 l-68 -132 -6 53
c-4 29 -7 90 -7 136 l0 82 75 0 c41 0 75 -2 75 -4z m1308 -289 l-3 -51 -69
-13 c-39 -7 -71 -11 -72 -10 -2 2 -7 116 -5 127 1 3 35 4 76 2 l76 -4 -3 -51z
m243 -12 c-1 -33 -4 -62 -6 -64 -2 -2 -22 4 -45 13 -22 9 -55 16 -73 16 -17 0
-37 4 -43 8 -14 9 -28 68 -19 82 4 7 41 10 98 8 l91 -3 -3 -60z"/>
</g>
</svg>
