<?xml version="1.0" standalone="no"?>
<!DOCTYPE svg PUBLIC "-//W3C//DTD SVG 20010904//EN"
 "http://www.w3.org/TR/2001/REC-SVG-20010904/DTD/svg10.dtd">
<svg version="1.0" xmlns="http://www.w3.org/2000/svg"
 width="2400.000000pt" height="1600.000000pt" viewBox="0 0 2400.000000 1600.000000"
 preserveAspectRatio="xMidYMid meet">
<metadata>
Created by potrace 1.13, written by Peter Selinger 2001-2015
</metadata>
<g transform="translate(0.000000,1600.000000) scale(0.100000,-0.100000)"
fill="#000000" stroke="none">
<path d="M7292 5567 c-12 -13 -29 -47 -38 -76 -60 -204 -292 -664 -430 -854
l-34 -47 -30 15 c-17 9 -41 32 -54 53 -53 83 -119 118 -206 108 l-57 -7 -78
118 c-115 174 -284 392 -316 409 -34 17 -86 18 -116 1 -41 -23 -171 -321 -325
-747 -52 -145 -65 -171 -103 -210 -24 -25 -51 -61 -59 -80 -8 -19 -41 -64 -73
-99 l-59 -64 -59 -1 c-54 0 -77 7 -240 82 -180 82 -224 93 -257 68 -23 -17
-110 -167 -178 -305 l-55 -112 -42 7 c-63 9 -104 -10 -174 -81 -56 -58 -168
-131 -188 -123 -4 2 -44 44 -89 95 -104 116 -143 137 -246 131 -106 -5 -136
-28 -221 -170 -81 -134 -207 -315 -273 -388 l-47 -52 -52 35 c-75 50 -100 54
-165 21 -69 -35 -124 -73 -195 -135 -70 -62 -90 -72 -268 -139 -144 -55 -327
-136 -367 -164 -21 -15 224 -16 2930 -16 l2952 0 0 1040 c0 572 -4 1040 -8
1040 -5 0 -33 -17 -62 -37 -42 -31 -57 -48 -73 -90 -10 -28 -26 -54 -34 -57
-10 -4 -33 14 -67 51 -28 32 -78 87 -112 123 -59 64 -73 90 -109 200 -29 90
-112 278 -168 380 -52 94 -53 95 -93 98 -31 2 -44 -2 -62 -21z"/>
</g>
</svg>
