<?xml version="1.0" standalone="no"?>
<!DOCTYPE svg PUBLIC "-//W3C//DTD SVG 20010904//EN"
 "http://www.w3.org/TR/2001/REC-SVG-20010904/DTD/svg10.dtd">
<svg version="1.0" xmlns="http://www.w3.org/2000/svg"
 width="2400.000000pt" height="1600.000000pt" viewBox="0 0 2400.000000 1600.000000"
 preserveAspectRatio="xMidYMid meet">
<metadata>
Created by potrace 1.13, written by Peter Selinger 2001-2015
</metadata>
<g transform="translate(0.000000,1600.000000) scale(0.100000,-0.100000)"
fill="#000000" stroke="none">
<path d="M0 14882 l0 -1118 118 -22 c392 -72 814 -78 1161 -17 136 24 334 38
449 31 349 -19 484 -19 607 2 66 12 156 33 201 47 l81 27 92 -31 c130 -44 232
-44 319 0 78 39 161 128 210 228 32 65 37 84 37 145 -1 92 -35 166 -109 233
-64 59 -106 73 -218 73 l-85 0 -7 80 c-18 213 -114 348 -288 407 -40 14 -83
18 -178 17 -145 0 -192 -14 -304 -90 -38 -25 -75 -44 -84 -42 -12 2 -20 29
-33 113 -19 129 -41 177 -105 233 -65 58 -138 83 -254 89 -115 6 -182 -15
-265 -82 l-52 -43 -5 71 c-6 95 -43 170 -119 242 -78 75 -134 100 -224 99 -59
0 -81 -5 -138 -33 -37 -19 -69 -32 -71 -30 -2 2 -13 42 -25 89 -30 123 -99
257 -173 335 l-60 65 -239 0 -239 0 0 -1118z"/>
<path d="M7690 15949 c-109 -114 -120 -219 -31 -303 l31 -29 -39 -18 c-21 -9
-54 -32 -73 -52 -19 -19 -45 -38 -57 -42 -20 -6 -22 -12 -18 -48 16 -135 16
-156 7 -162 -5 -3 -10 -21 -10 -40 0 -44 46 -85 98 -86 55 -1 67 -8 152 -93
l78 -78 -20 -34 c-11 -19 -28 -34 -38 -34 -9 0 -29 -9 -44 -21 -21 -16 -26
-29 -26 -63 0 -43 1 -44 39 -50 33 -5 39 -10 45 -37 10 -49 7 -59 -13 -59 -39
0 -111 -86 -111 -133 0 -10 -19 -16 -65 -20 -68 -7 -138 -32 -181 -66 -25 -19
-25 -19 -67 5 -31 17 -57 24 -99 24 -48 0 -61 4 -83 26 -24 24 -32 26 -80 21
-55 -6 -115 -39 -115 -64 0 -7 -12 -18 -27 -24 -23 -9 -30 -7 -38 6 -54 91
-118 143 -209 170 -63 19 -100 19 -162 0 -57 -17 -144 -79 -161 -116 -11 -23
-21 -27 -74 -32 -74 -7 -109 -33 -109 -84 0 -32 -2 -33 -38 -33 -54 0 -136
-44 -175 -93 -46 -60 -70 -112 -65 -141 4 -19 -1 -30 -18 -41 -31 -20 -30 -45
4 -77 48 -47 75 -52 262 -53 108 0 182 -5 194 -12 14 -8 149 -9 466 -5 398 4
452 3 495 -11 86 -30 267 -17 288 19 12 21 337 21 337 -1 0 -8 9 -19 20 -25
14 -7 20 -21 20 -44 0 -36 15 -46 73 -46 l27 0 0 1075 0 1075 -171 0 -170 0
-49 -51z"/>
<path d="M7115 5793 c-5 -5 -14 -15 -20 -24 -5 -9 -33 -46 -60 -82 -28 -37
-58 -81 -67 -99 -9 -18 -64 -131 -123 -251 -98 -201 -132 -252 -143 -217 -3 7
-34 44 -71 83 -132 140 -233 158 -477 87 -75 -22 -142 -45 -149 -50 -7 -6 -30
-40 -51 -76 -21 -37 -70 -96 -111 -135 l-73 -69 -69 0 c-116 0 -247 51 -339
131 -54 48 -98 62 -192 63 -68 0 -93 -4 -125 -21 -38 -20 -136 -122 -198 -205
-15 -21 -36 -38 -47 -38 -17 0 -19 8 -17 73 0 42 -5 82 -12 95 -15 28 -67 52
-112 52 -29 0 -31 2 -25 28 3 15 9 61 12 102 5 64 2 80 -15 108 -42 65 -126
91 -190 57 l-29 -14 -4 88 c-5 100 -23 142 -78 179 -24 16 -42 21 -60 17 -71
-18 -157 -162 -167 -281 l-6 -71 -47 5 c-38 3 -52 0 -68 -16 -51 -51 -83 -217
-63 -326 6 -33 10 -61 8 -62 -1 -1 -30 7 -64 19 -62 21 -63 22 -97 3 -47 -25
-60 -60 -54 -154 4 -57 12 -90 31 -128 25 -49 117 -144 140 -144 5 0 -22 -23
-61 -50 l-72 -51 0 -65 c0 -43 -5 -73 -16 -90 -13 -20 -15 -39 -10 -93 l6 -68
-59 -57 c-33 -31 -64 -56 -70 -56 -6 0 -22 22 -35 49 l-25 48 -103 -4 c-57 -3
-155 -6 -218 -7 -138 -1 -170 -15 -170 -70 0 -18 -3 -61 -6 -95 l-7 -61 -44 0
c-59 0 -183 -26 -268 -56 -111 -40 -114 -39 -51 18 43 39 58 59 53 71 -8 22
-36 22 -61 -2 -12 -10 -34 -27 -51 -37 l-30 -19 27 35 c37 47 117 167 125 185
3 10 -1 15 -15 15 -12 0 -37 -21 -62 -50 -24 -28 -45 -49 -47 -46 -3 3 9 30
26 60 37 67 38 76 8 76 -16 0 -28 -9 -36 -26 -18 -41 -23 -22 -11 45 11 61 51
165 104 269 15 29 24 57 21 62 -15 24 -44 7 -79 -45 -22 -34 -43 -55 -55 -55
-25 0 -35 -15 -56 -90 -20 -70 -39 -104 -30 -55 10 66 37 387 31 392 -13 13
-36 -9 -37 -34 -1 -32 -5 -19 -14 50 -8 57 -30 63 -39 10 -4 -21 -9 -152 -13
-291 -3 -139 -10 -249 -14 -245 -11 12 -109 321 -109 344 0 13 -7 19 -21 19
-19 0 -21 -4 -16 -39 2 -22 0 -44 -5 -49 -13 -13 -4 -53 56 -252 25 -80 49
-170 54 -200 6 -30 13 -64 17 -75 4 -11 -8 -2 -26 20 -75 90 -182 193 -195
188 -18 -7 -18 -27 1 -43 19 -16 85 -116 85 -129 0 -6 16 -25 36 -43 85 -78
80 -71 58 -79 -37 -15 -94 -9 -148 16 -103 47 -162 56 -334 53 -154 -3 -158
-2 -207 24 -154 82 -177 91 -249 95 -53 4 -97 -2 -175 -21 -57 -14 -139 -31
-183 -38 l-80 -12 -23 -52 c-13 -28 -26 -70 -30 -93 -4 -22 -10 -43 -15 -46
-4 -3 -33 6 -63 20 -31 13 -85 30 -120 36 -63 12 -65 12 -138 -23 -107 -51
-174 -64 -253 -50 -106 20 -144 16 -242 -27 l-89 -38 -3 -397 -2 -396 4040 0
4040 0 0 1416 0 1416 -39 -23 c-21 -13 -66 -49 -100 -79 -91 -81 -146 -98
-184 -54 -32 39 -77 54 -157 54 l-70 0 0 30 c0 44 -24 96 -53 115 -28 18 -283
113 -325 121 -15 2 -31 1 -37 -3z"/>
</g>
</svg>
