<?xml version="1.0" standalone="no"?>
<!DOCTYPE svg PUBLIC "-//W3C//DTD SVG 20010904//EN"
 "http://www.w3.org/TR/2001/REC-SVG-20010904/DTD/svg10.dtd">
<svg version="1.0" xmlns="http://www.w3.org/2000/svg"
 width="2400.000000pt" height="1600.000000pt" viewBox="0 0 2400.000000 1600.000000"
 preserveAspectRatio="xMidYMid meet">
<metadata>
Created by potrace 1.13, written by Peter Selinger 2001-2015
</metadata>
<g transform="translate(0.000000,1600.000000) scale(0.100000,-0.100000)"
fill="#000000" stroke="none">
<path d="M3875 7040 c-4 -6 -11 -54 -17 -108 l-11 -97 -101 -69 c-56 -38 -249
-168 -431 -290 -200 -134 -351 -243 -385 -277 -76 -76 -105 -85 -211 -63 -195
39 -429 -27 -429 -121 0 -31 19 -44 76 -52 27 -3 52 -11 56 -16 7 -11 186 -11
375 -1 l111 7 6 -44 c3 -24 8 -116 11 -204 5 -134 20 -363 39 -590 4 -48 9
-55 101 -150 l96 -100 -28 -9 c-18 -6 -51 -5 -96 2 -139 24 -163 12 -118 -60
16 -25 34 -48 39 -52 6 -4 8 -22 5 -42 -5 -30 -1 -40 28 -70 18 -19 39 -34 45
-34 9 0 11 -11 7 -34 -4 -27 -1 -36 18 -50 13 -9 31 -16 41 -16 37 0 4 -85
-36 -96 -14 -3 -32 -14 -42 -25 -14 -16 -15 -23 -4 -48 11 -28 7 -184 -6 -232
-4 -14 -25 -15 -178 -11 -95 2 -212 1 -259 -3 l-87 -7 0 -29 c0 -18 -5 -29
-14 -29 -63 0 -273 -23 -282 -31 -7 -6 -15 -23 -19 -38 -5 -25 -14 -31 -73
-47 -94 -26 -193 -23 -330 10 l-114 28 36 37 c34 35 36 41 36 103 0 46 -4 69
-15 78 -24 20 -100 6 -155 -28 -52 -33 -60 -32 -60 6 0 15 -15 39 -39 63 -33
33 -45 39 -82 39 -26 0 -57 -8 -75 -19 l-31 -19 -17 35 c-9 19 -37 57 -63 84
-45 49 -49 51 -88 44 -44 -7 -84 -45 -84 -80 -1 -24 34 -103 55 -127 14 -15
14 -17 -5 -28 -16 -8 -32 -7 -71 7 -48 17 -50 19 -50 55 0 55 -20 141 -38 161
-44 50 -142 -17 -142 -98 0 -18 -4 -22 -20 -18 -27 7 -64 -19 -80 -56 -16 -39
-1 -78 49 -134 20 -23 30 -42 25 -47 -5 -5 -83 -10 -174 -11 -141 -2 -177 1
-250 19 -93 24 -191 28 -270 11 l-50 -11 0 -604 0 -604 4040 0 4040 0 0 529 0
530 -77 16 c-43 9 -94 21 -113 27 -19 5 -105 13 -190 17 -149 8 -158 9 -245
46 -67 28 -109 39 -162 43 l-73 5 0 83 c0 46 -6 103 -14 126 -10 31 -14 94
-14 222 1 157 -1 181 -16 192 -12 9 -16 23 -14 50 l3 39 85 11 c47 6 96 14
109 19 14 4 33 2 47 -5 30 -17 52 -7 60 26 4 15 22 40 40 56 35 31 74 101 74
134 0 11 11 36 25 56 30 45 31 64 5 80 -24 15 -25 31 -4 49 28 23 1 136 -35
146 -12 3 -21 17 -26 40 -8 45 -25 81 -40 87 -22 8 -72 -33 -98 -83 -17 -30
-30 -73 -33 -110 -7 -63 -33 -120 -34 -73 0 16 -6 22 -23 22 -29 0 -87 -59
-87 -88 0 -18 -6 -22 -35 -22 l-35 0 -1 298 c-1 163 -3 338 -4 387 -11 323
-52 706 -81 750 -32 48 -90 40 -142 -19 -17 -20 -38 -36 -46 -36 -15 0 -26
-29 -26 -69 0 -28 -16 -82 -37 -127 -10 -22 -14 -62 -12 -143 1 -61 -1 -115
-5 -118 -11 -11 -6 -53 9 -84 16 -30 7 -69 -15 -69 -16 0 -11 -50 10 -110 16
-45 19 -83 20 -207 0 -149 -4 -183 -21 -183 -13 0 -159 90 -206 128 -40 31
-43 37 -43 82 0 27 -4 52 -10 55 -5 3 -10 19 -10 35 0 15 -7 30 -15 34 -12 4
-15 26 -15 104 l0 99 -43 47 c-34 36 -50 46 -76 46 -69 0 -117 -46 -128 -125
-4 -35 -10 -45 -24 -45 -23 0 -24 -22 -5 -58 26 -49 39 -109 32 -148 -4 -22
-6 -48 -6 -59 0 -11 0 -29 0 -40 0 -11 4 -29 9 -40 6 -11 14 -59 19 -107 14
-132 14 -131 321 -264 l256 -110 6 -54 c3 -37 0 -64 -9 -83 -10 -21 -12 -54
-8 -130 2 -56 6 -203 7 -327 1 -124 5 -235 10 -246 5 -14 2 -29 -8 -44 -13
-19 -14 -30 -4 -72 6 -27 11 -62 11 -77 0 -27 -2 -29 -72 -39 -151 -23 -181
-24 -258 -6 -41 9 -113 20 -160 25 -47 4 -128 12 -180 18 -151 17 -213 14
-243 -9 -32 -26 -126 -27 -211 -3 -59 17 -68 24 -281 234 l-220 218 107 423
c59 233 135 527 168 653 57 218 100 413 115 516 l6 47 62 6 c112 13 349 64
492 107 77 23 152 44 168 47 21 3 27 10 27 29 0 42 -33 123 -50 123 -9 0 -105
-29 -213 -65 -234 -78 -266 -83 -336 -60 -59 19 -152 98 -171 145 -12 28 -16
30 -64 29 -76 -1 -99 -10 -107 -43 -11 -41 -48 -77 -68 -67 -9 5 -61 21 -116
36 -66 19 -127 44 -180 76 -254 150 -631 343 -907 464 -134 58 -159 73 -169
97 -6 16 -25 47 -40 68 -23 31 -36 40 -58 40 -17 0 -33 -5 -36 -10z m-579
-938 c6 -4 13 -15 17 -24 8 -21 -18 -124 -39 -157 -12 -17 -13 -26 -5 -34 9
-9 13 -6 17 11 4 12 14 22 24 22 10 0 44 16 75 35 32 19 65 37 74 40 9 3 23
20 32 37 21 44 65 76 81 60 15 -15 15 -14 -82 -156 -44 -64 -71 -96 -85 -96
l-20 -1 20 -9 c11 -5 46 -9 78 -9 50 -1 57 -3 57 -21 0 -23 -19 -29 -108 -32
l-64 -3 64 -37 c60 -34 178 -140 178 -159 0 -8 -101 49 -162 92 -26 19 -59 25
-71 13 -3 -4 38 -50 92 -103 96 -93 191 -212 191 -237 0 -38 -35 -11 -174 133
l-154 158 -21 -19 c-11 -11 -21 -15 -21 -10 -1 26 -20 -26 -20 -53 0 -19 -10
-43 -24 -60 -22 -25 -25 -26 -31 -10 -4 9 -3 50 2 91 8 67 7 73 -9 68 -9 -2
-20 -13 -23 -23 -10 -32 -85 -119 -102 -119 -22 0 -12 69 16 109 12 16 21 35
21 42 0 7 9 23 21 35 31 33 18 58 -44 81 -47 18 -53 24 -66 62 -14 44 -11 61
22 156 22 62 55 74 76 28 l13 -28 15 30 c22 43 54 76 88 91 36 16 37 16 51 6z
m1079 -99 c38 -18 42 -28 22 -52 -14 -17 -47 -291 -47 -387 0 -81 -19 -98
-117 -102 l-80 -4 -13 32 c-17 40 -2 163 34 290 13 47 27 108 31 137 7 55 25
79 71 93 44 13 60 12 99 -7z m220 -44 c113 -36 265 -98 265 -108 0 -4 -4 -11
-10 -17 -5 -5 -22 -93 -36 -194 -15 -102 -30 -189 -34 -195 -12 -15 -286 -12
-337 3 l-43 13 0 50 c0 27 7 116 15 197 25 236 36 282 71 282 8 0 57 -14 109
-31z m-360 -581 c54 -36 79 -81 72 -131 -4 -23 -13 -89 -21 -147 -9 -58 -16
-126 -16 -151 0 -72 -10 -75 -145 -44 -76 18 -119 33 -122 42 -17 43 47 307
87 367 20 29 92 86 109 86 3 0 19 -10 36 -22z m433 -63 c48 -11 75 -23 82 -35
12 -23 13 -75 1 -98 -20 -38 -41 -101 -57 -170 -14 -60 -23 -78 -49 -97 -47
-37 -115 -64 -177 -71 -48 -6 -57 -4 -66 12 -5 11 -12 108 -14 217 -3 130 -9
202 -17 210 -17 17 -13 37 12 47 30 14 198 5 285 -15z"/>
</g>
</svg>
