<?xml version="1.0" standalone="no"?>
<!DOCTYPE svg PUBLIC "-//W3C//DTD SVG 20010904//EN"
 "http://www.w3.org/TR/2001/REC-SVG-20010904/DTD/svg10.dtd">
<svg version="1.0" xmlns="http://www.w3.org/2000/svg"
 width="2400.000000pt" height="1600.000000pt" viewBox="0 0 2400.000000 1600.000000"
 preserveAspectRatio="xMidYMid meet">
<metadata>
Created by potrace 1.13, written by Peter Selinger 2001-2015
</metadata>
<g transform="translate(0.000000,1600.000000) scale(0.100000,-0.100000)"
fill="#000000" stroke="none">
<path d="M3742 15947 l-53 -54 -54 5 c-75 6 -100 -2 -124 -44 -31 -53 -28 -98
13 -145 30 -36 33 -43 26 -81 -5 -23 -6 -47 -3 -54 2 -7 -10 -20 -27 -29 -17
-9 -48 -31 -68 -49 -37 -33 -37 -33 -99 -23 -100 17 -191 -25 -223 -103 -11
-27 -17 -30 -60 -30 -34 0 -65 -9 -103 -29 -53 -28 -58 -29 -164 -24 -183 9
-283 -26 -396 -138 -49 -49 -77 -88 -104 -145 -34 -72 -37 -85 -41 -189 -7
-172 33 -280 144 -388 105 -102 212 -147 349 -147 134 1 232 40 331 133 75 70
115 130 144 217 19 55 21 81 18 175 -4 99 -11 133 -43 208 -7 16 30 17 671 19
374 2 725 1 781 0 173 -6 443 40 443 74 0 10 14 14 53 14 84 0 234 26 269 47
65 37 72 139 15 208 -37 46 -81 65 -147 65 l-50 0 0 48 c0 26 -3 57 -6 70 -8
27 -52 52 -92 52 -47 0 -192 28 -255 48 -117 39 -195 117 -209 211 -5 31 -13
73 -19 94 l-10 37 -427 0 -428 0 -52 -53z"/>
<path d="M7935 6881 c-175 -55 -788 -301 -839 -336 -11 -8 -38 -15 -60 -15
-32 0 -46 -7 -82 -42 -45 -43 -56 -74 -30 -84 8 -3 79 22 158 56 78 34 148 64
154 67 11 4 35 -56 49 -124 5 -27 2 -34 -24 -54 -32 -24 -42 -59 -16 -59 8 0
15 -7 15 -15 0 -8 4 -23 9 -33 23 -44 89 -212 100 -257 20 -80 31 -95 64 -95
19 0 31 6 34 18 3 9 40 40 82 68 l76 51 -3 44 c-2 24 -13 67 -26 94 -13 28
-38 95 -56 150 -49 149 -61 161 -132 130 -14 -5 -18 -2 -18 12 0 11 -11 42
-25 68 -13 27 -23 50 -22 51 1 1 36 16 77 33 105 42 408 101 525 101 142 0
135 -5 135 111 0 73 -3 99 -12 99 -7 -1 -67 -18 -133 -39z"/>
<path d="M4636 5312 c-6 -10 -154 -45 -277 -66 -48 -8 -109 -24 -138 -36 -48
-21 -51 -25 -51 -59 0 -52 18 -191 37 -288 l16 -83 -25 -37 c-112 -171 -406
-851 -465 -1073 l-9 -35 -84 -2 c-75 -1 -81 0 -50 9 l35 11 -27 11 c-33 12
-34 17 -8 41 29 26 26 49 -5 41 -18 -5 -25 -2 -25 9 0 24 -24 18 -55 -15 -16
-16 -32 -30 -36 -30 -3 0 -9 18 -13 40 -3 22 -11 40 -16 40 -6 0 -10 -18 -10
-40 0 -44 1 -43 -85 -44 -36 -1 -40 -4 -43 -28 -3 -26 -4 -26 -37 -12 -46 19
-89 18 -106 -3 -10 -11 -10 -17 -3 -20 6 -2 19 -10 29 -17 15 -11 -2 -14 -111
-19 -197 -10 -473 -8 -495 3 -10 6 -86 28 -168 50 -83 21 -182 49 -220 61
l-71 21 0 76 c0 92 -19 140 -79 197 -39 37 -46 40 -110 43 -58 4 -78 0 -123
-20 -64 -30 -131 -96 -165 -163 -30 -57 -42 -165 -25 -214 6 -17 7 -33 3 -35
-4 -3 -93 2 -197 10 -130 11 -199 21 -221 32 -18 10 -188 149 -377 310 -293
248 -350 292 -377 292 -38 0 -99 -28 -99 -45 0 -7 -11 -20 -25 -29 -14 -9 -25
-22 -25 -28 0 -48 115 -206 270 -370 l82 -88 -326 0 -326 0 0 -455 0 -455
4040 0 4040 0 0 645 0 645 -24 38 c-50 79 -110 112 -204 112 -80 0 -199 -58
-222 -108 l-16 -33 -22 31 c-37 49 -76 63 -170 62 -66 -1 -95 -7 -137 -26 -58
-26 -145 -100 -145 -122 0 -8 -7 -14 -14 -14 -25 0 -102 -57 -114 -85 -7 -14
-12 -37 -12 -50 0 -28 -6 -29 -360 -45 -364 -16 -690 -38 -985 -66 -148 -14
-322 -28 -387 -31 -108 -5 -119 -4 -165 18 -43 22 -59 24 -164 22 -164 -4
-267 -24 -363 -71 l-81 -40 -320 -19 c-176 -11 -322 -18 -324 -16 -9 7 81 309
122 413 23 58 104 230 180 383 131 263 140 278 175 293 57 24 208 63 273 70
33 4 59 12 59 18 1 6 0 104 0 217 0 113 4 217 9 231 12 32 -16 67 -33 40z"/>
</g>
</svg>
