<?xml version="1.0" standalone="no"?>
<!DOCTYPE svg PUBLIC "-//W3C//DTD SVG 20010904//EN"
 "http://www.w3.org/TR/2001/REC-SVG-20010904/DTD/svg10.dtd">
<svg version="1.0" xmlns="http://www.w3.org/2000/svg"
 width="2400.000000pt" height="1600.000000pt" viewBox="0 0 2400.000000 1600.000000"
 preserveAspectRatio="xMidYMid meet">
<metadata>
Created by potrace 1.13, written by Peter Selinger 2001-2015
</metadata>
<g transform="translate(0.000000,1600.000000) scale(0.100000,-0.100000)"
fill="#000000" stroke="none">
<path d="M0 15935 l0 -65 65 0 c59 0 65 -2 65 -21 0 -27 53 -79 80 -79 22 0
59 35 60 57 0 26 54 63 92 63 22 0 38 -5 38 -12 0 -25 -65 -126 -114 -178 -71
-74 -133 -160 -207 -286 -34 -57 -66 -107 -70 -110 -5 -3 -9 -362 -9 -799 l0
-794 58 -12 c33 -6 94 -9 145 -6 87 4 89 4 83 -17 -4 -11 -16 -70 -28 -129
-20 -99 -24 -110 -50 -123 -18 -9 -38 -35 -55 -70 -14 -30 -37 -63 -51 -74
-28 -22 -72 -26 -90 -8 -9 9 -12 -1153 -12 -5230 l0 -5242 4040 0 4040 0 0
1256 0 1255 -58 -32 c-31 -17 -72 -41 -89 -51 -25 -15 -33 -16 -33 -6 0 7 -12
24 -25 37 -14 13 -28 35 -31 50 -9 46 -20 56 -62 59 -31 2 -43 -1 -54 -17 -15
-20 -16 -20 -58 19 -56 52 -121 83 -188 88 -43 4 -63 0 -105 -22 -30 -15 -82
-30 -123 -35 -111 -14 -156 -47 -217 -160 -22 -42 -31 -51 -47 -46 -21 7 -88
-47 -107 -87 -6 -13 -25 -53 -43 -90 -32 -68 -35 -71 -105 -83 -87 -15 -150
-67 -204 -170 -37 -70 -77 -119 -90 -110 -6 3 -37 -2 -71 -12 l-61 -16 7 -59
c6 -51 4 -61 -12 -74 -52 -41 -63 -45 -98 -38 -29 5 -36 11 -36 30 0 18 -19
72 -36 102 -1 2 -30 10 -64 18 -81 19 -100 13 -100 -32 0 -19 -2 -34 -5 -34
-3 0 -34 20 -70 44 -100 69 -179 71 -265 8 -43 -32 -207 -200 -258 -264 -34
-43 -41 -47 -87 -50 l-50 -3 -6 -43 c-5 -37 -16 -54 -77 -115 -53 -53 -72 -79
-72 -99 0 -14 5 -28 11 -30 7 -2 6 -27 -5 -80 -9 -43 -16 -93 -16 -112 0 -30
-6 -39 -42 -64 -24 -16 -56 -32 -73 -36 -16 -4 -50 -29 -75 -55 -56 -59 -86
-65 -192 -44 -73 15 -78 18 -78 42 0 14 -7 35 -16 46 -8 11 -19 36 -24 57 -9
32 -16 38 -45 44 -20 3 -66 4 -103 2 -47 -3 -73 0 -89 10 -13 8 -31 11 -44 7
-32 -10 -259 -244 -259 -266 0 -17 -8 -19 -70 -19 -63 0 -86 9 -61 24 5 3 7
15 4 26 -5 18 0 20 41 20 65 0 90 26 81 83 -4 23 -12 45 -18 49 -6 3 -45 9
-88 13 l-77 7 19 42 c26 61 49 153 49 203 l0 43 38 0 c41 0 62 14 62 41 0 9
12 24 26 34 15 10 23 22 20 31 -3 9 1 14 14 14 33 0 251 70 327 105 74 34 138
74 130 81 -8 8 -114 24 -218 33 -123 10 -187 2 -241 -34 -22 -15 -40 -21 -43
-15 -15 25 -86 50 -140 50 -30 0 -55 4 -55 9 0 5 12 34 26 66 15 31 32 80 40
108 14 54 18 219 6 297 l-7 45 -36 -45 c-146 -182 -232 -408 -200 -525 11 -41
6 -65 -15 -65 -36 0 -38 -104 -2 -116 17 -5 12 -11 -33 -35 -29 -16 -60 -35
-68 -43 -9 -7 -31 -16 -50 -20 -52 -10 -118 -53 -151 -98 -17 -23 -30 -46 -30
-53 0 -6 -11 -22 -25 -35 -14 -13 -25 -35 -25 -48 0 -23 -1 -24 -22 -9 -15 9
-23 25 -23 42 0 39 -26 53 -58 32 -19 -12 -28 -29 -33 -63 -7 -49 -1 -147 12
-178 6 -17 4 -18 -17 -12 -13 4 -118 10 -234 13 l-210 6 -90 -29 c-136 -42
-312 -37 -267 8 19 19 14 27 -23 34 -26 5 -35 11 -35 26 0 16 -5 19 -24 16
-18 -4 -26 0 -29 14 -9 33 -48 21 -96 -30 l-46 -49 -155 -6 c-184 -8 -291 -24
-465 -72 -146 -40 -138 -38 -130 -25 4 6 -6 10 -22 10 -27 0 -26 2 32 56 52
49 58 57 42 65 -14 8 -29 0 -79 -45 -42 -38 -67 -54 -79 -51 -11 4 -26 -3 -39
-17 -18 -19 -22 -20 -30 -8 -5 8 -10 21 -10 28 0 17 -19 15 -27 -3 -3 -9 1
-23 10 -33 8 -9 17 -28 19 -41 2 -20 -3 -26 -37 -36 -36 -10 -50 -8 -135 20
-52 17 -141 44 -197 60 -57 16 -103 31 -103 35 0 3 14 19 30 35 17 16 30 37
30 46 0 11 13 22 35 30 19 7 35 19 35 27 0 16 -39 10 -112 -19 l-47 -18 19 31
c21 35 18 48 -9 48 -14 0 -17 6 -13 30 3 23 0 30 -12 30 -10 0 -32 -33 -61
-91 l-46 -90 -24 35 c-13 19 -25 45 -27 58 -2 18 -9 23 -31 23 -27 -1 -28 1
-22 36 4 23 2 45 -6 57 -11 18 -10 24 5 41 21 23 17 57 -7 55 -12 -1 -16 4
-12 20 24 122 11 152 -41 91 l-32 -38 -16 71 c-17 76 -57 391 -80 637 -15 157
-9 463 14 700 16 170 14 165 65 165 34 0 47 5 55 19 15 29 12 63 -9 112 -38
85 -44 137 -25 210 l17 67 -31 129 c-69 281 -95 506 -95 798 0 236 19 422 52
498 18 42 44 161 40 184 -4 22 4 23 34 5 17 -11 59 -22 92 -26 55 -6 64 -4
105 22 25 16 57 32 72 35 14 4 40 23 56 42 29 32 31 39 25 87 -9 80 -19 98
-63 116 -24 10 -40 24 -40 34 0 21 -13 29 -50 30 -38 1 -40 -1 -47 -51 l-6
-41 -47 0 c-26 0 -61 -3 -78 -6 -29 -6 -30 -4 -48 47 -15 44 -19 83 -19 209 0
149 1 159 33 250 18 52 54 131 80 175 56 95 199 244 320 333 140 104 360 217
417 214 81 -3 168 -11 173 -16 3 -3 37 -6 76 -6 64 0 72 -2 92 -27 20 -26 23
-26 61 -15 51 15 93 54 93 86 0 13 -10 37 -23 53 -13 15 -26 36 -30 45 -3 10
-19 20 -34 23 -15 4 -37 10 -48 15 -11 4 -28 11 -38 14 -36 12 10 60 83 85 19
7 116 19 215 27 99 8 208 19 242 24 43 7 75 7 105 -1 93 -23 99 -23 122 4 23
28 146 81 238 103 54 13 60 12 90 -6 19 -12 51 -20 76 -20 35 0 49 6 77 35 19
19 35 38 35 43 0 5 43 23 96 41 l96 33 14 -21 c9 -12 25 -21 37 -21 12 0 31
-7 41 -15 43 -32 125 -6 141 45 4 12 22 24 48 31 23 6 71 26 106 45 35 20 67
31 70 26 24 -37 286 -122 377 -122 62 0 84 21 84 81 0 31 -7 42 -42 71 -24 19
-52 40 -63 46 -17 10 -10 12 40 12 33 1 96 5 139 9 68 8 83 6 110 -10 49 -29
135 -35 198 -14 75 24 121 61 115 92 -3 19 2 27 24 39 34 17 40 59 12 79 -16
12 -15 15 16 32 75 40 87 73 51 142 -31 62 -74 82 -198 92 -59 4 -140 8 -181
8 l-74 1 21 23 c26 27 28 50 7 67 -24 20 -3 43 73 84 75 39 82 48 82 107 0 57
-29 73 -125 67 -59 -4 -75 -2 -75 9 0 25 -74 16 -100 -12 -21 -22 -29 -24 -69
-19 -34 4 -61 0 -101 -15 -47 -18 -55 -19 -63 -6 -9 17 -47 21 -47 5 0 -6 -13
-4 -30 5 -69 36 -140 4 -140 -63 0 -28 -3 -32 -30 -34 -79 -4 -75 -6 -72 34 5
60 -10 78 -68 78 -39 0 -83 -16 -229 -80 -146 -65 -185 -79 -200 -70 -11 5
-49 10 -85 10 -57 0 -75 -5 -141 -40 -156 -82 -281 -181 -320 -253 -14 -26
-28 -36 -64 -46 -119 -32 -300 -135 -733 -420 -303 -199 -356 -225 -456 -225
-70 -1 -75 0 -102 31 -27 30 -50 87 -50 123 0 9 16 24 36 35 59 32 124 105
161 182 19 39 43 79 54 89 10 9 19 27 19 38 0 12 13 36 29 55 l28 34 39 -15
c21 -9 78 -19 125 -23 97 -7 135 4 165 50 14 21 24 25 66 25 55 0 91 15 128
54 28 31 23 48 -29 83 -29 19 -30 22 -12 28 20 6 38 41 27 52 -3 4 -45 8 -93
11 -49 2 -95 8 -104 13 -26 13 -102 -17 -152 -61 -41 -36 -47 -39 -78 -30 -51
15 -179 12 -238 -6 -77 -23 -112 -58 -118 -121 -5 -43 -2 -52 16 -65 19 -13
20 -17 6 -28 -8 -7 -15 -21 -15 -30 0 -28 -88 -86 -151 -100 -73 -16 -145 -6
-160 22 -6 11 -9 46 -7 78 4 52 9 63 72 144 38 47 102 117 144 154 42 37 101
90 131 119 36 33 77 59 114 73 31 12 108 58 170 102 135 98 347 239 439 292
42 25 73 51 84 71 17 32 147 133 578 449 161 117 193 137 208 127 21 -13 55
-15 62 -2 3 4 38 6 78 4 78 -5 148 14 148 41 0 24 36 46 74 46 29 0 45 8 73
35 36 35 36 35 104 29 61 -6 72 -4 114 20 30 16 63 26 89 26 22 0 53 6 67 14
17 8 45 12 77 8 36 -3 57 0 73 12 13 9 35 16 49 16 14 1 38 7 55 14 27 11 31
11 40 -8 14 -29 77 -34 112 -9 14 10 37 25 51 33 13 8 30 31 36 50 11 34 13
35 89 49 60 10 77 17 77 30 0 9 -5 22 -10 27 -7 7 0 22 22 48 l33 37 60 -12
c34 -6 110 -9 175 -7 108 5 153 15 190 44 9 6 71 14 150 18 142 6 260 28 382
70 76 27 98 45 98 81 0 17 10 24 53 34 94 24 252 86 289 115 41 31 78 97 78
140 0 59 -146 161 -265 186 l-55 11 22 42 c14 29 21 62 22 105 1 59 -1 66 -29
88 -52 42 -117 57 -214 51 -47 -3 -104 -13 -126 -21 -61 -23 -66 -21 -59 22 4
29 2 43 -11 56 -16 16 -16 20 4 67 26 59 22 77 -24 118 -43 38 -94 48 -165 32
-115 -26 -137 -26 -162 1 -17 18 -42 28 -94 37 -75 13 -114 37 -114 70 0 11
-6 21 -14 24 -17 7 -100 -54 -110 -78 -9 -26 -7 -83 4 -90 16 -10 12 -25 -7
-25 -10 0 -28 17 -40 38 -19 34 -57 61 -105 76 -35 10 -12 86 25 86 26 0 67
38 67 62 0 8 -9 27 -20 41 -18 22 -19 29 -8 47 16 25 16 25 163 49 150 24 168
31 199 78 29 43 33 88 10 114 -14 15 -14 21 -1 46 21 42 27 85 17 129 -9 37
-7 41 29 78 38 37 40 38 62 22 41 -28 94 -20 184 29 45 24 88 51 95 59 6 9 28
18 47 22 24 4 37 14 44 31 11 29 44 159 59 234 l11 56 45 -16 c41 -15 44 -18
38 -41 -4 -14 -8 -38 -8 -55 -1 -41 35 -54 105 -36 34 9 75 11 120 7 89 -9
131 9 172 76 24 38 36 48 57 48 14 0 50 7 79 16 l53 15 36 -42 c43 -50 84 -69
151 -69 42 0 56 5 86 31 19 17 38 43 42 58 11 48 41 95 91 147 86 89 91 172
16 269 l-34 45 40 52 c54 72 65 124 46 218 -18 87 -59 177 -109 243 -21 26
-37 49 -37 50 0 2 33 25 74 51 147 93 230 214 260 384 l5 32 -3159 0 -3160 0
0 -65z m796 -234 c-38 -59 -61 -138 -50 -170 9 -25 13 -26 87 -29 42 -2 77 -6
77 -11 0 -4 -13 -20 -30 -36 -16 -16 -30 -34 -30 -41 0 -6 -7 -17 -15 -24 -31
-25 -8 -139 30 -154 19 -7 19 -30 0 -46 -22 -18 -18 -39 9 -46 30 -7 166 12
180 26 7 7 7 16 -1 29 -10 16 -5 24 30 58 65 61 135 116 212 165 73 47 168 98
183 98 13 0 37 -79 26 -88 -199 -168 -384 -350 -526 -519 -61 -72 -78 -98 -78
-123 0 -23 -12 -45 -46 -83 -68 -78 -211 -283 -294 -421 l-74 -123 -44 34
c-24 18 -54 36 -67 39 -20 5 -23 10 -18 35 5 26 2 30 -25 35 -21 4 -34 15 -43
35 -20 51 -75 65 -107 29 -9 -11 -22 -37 -28 -58 -10 -34 -14 -37 -52 -40 -23
-2 -42 -1 -42 1 0 2 11 37 26 78 24 70 59 204 119 459 57 238 189 562 275 675
25 33 56 78 69 100 44 73 91 115 131 115 19 1 51 9 70 20 19 11 43 19 53 20
15 0 14 -4 -7 -39z m2494 -385 c0 -2 -9 -23 -19 -47 -11 -24 -26 -81 -34 -125
-12 -72 -19 -87 -58 -134 -71 -85 -176 -170 -208 -170 -50 0 -180 -149 -303
-347 -58 -92 -117 -194 -133 -225 -20 -43 -41 -68 -83 -99 -32 -23 -70 -54
-87 -69 -20 -18 -55 -32 -105 -43 -41 -10 -106 -29 -143 -43 -68 -26 -68 -26
-90 -6 -56 51 -140 58 -201 17 -20 -14 -41 -25 -46 -25 -5 0 -19 33 -31 73
-42 141 -80 187 -154 187 -23 0 -56 -5 -73 -11 -25 -9 -36 -8 -54 5 -12 9 -33
16 -45 16 -43 0 -149 -56 -179 -94 -27 -33 -33 -36 -80 -36 -56 0 -76 -14 -94
-67 -10 -28 -19 -33 -133 -67 -67 -20 -128 -36 -135 -36 -17 0 -72 32 -72 42
0 8 179 233 309 386 194 229 234 279 309 384 42 60 120 179 173 265 62 103
100 157 110 154 8 -1 59 -8 114 -14 55 -6 103 -16 108 -21 4 -6 5 -32 1 -57
-5 -42 -3 -48 22 -68 29 -23 74 -27 105 -10 11 5 37 9 59 7 l40 -3 -31 -60
c-38 -74 -45 -158 -16 -180 25 -18 141 -38 202 -33 46 3 50 5 53 31 3 25 1 27
-35 27 l-38 0 33 22 c27 17 54 22 135 26 57 2 114 11 129 18 25 13 27 12 30
-9 2 -16 11 -23 30 -25 35 -4 118 49 290 185 69 55 171 131 225 168 54 38 111
79 126 92 24 19 77 33 77 19z m305 -176 c-40 -77 2 -132 111 -149 l43 -6 -17
-35 c-9 -19 -98 -116 -198 -215 -100 -99 -189 -195 -198 -212 -21 -41 -21
-106 0 -124 9 -7 41 -15 72 -17 l57 -4 185 124 c174 115 296 187 347 202 21 7
21 5 12 -26 -5 -18 -9 -60 -9 -94 0 -69 6 -77 86 -117 65 -33 82 -52 66 -77
-6 -11 -14 -37 -18 -58 -5 -33 -11 -41 -40 -51 -18 -7 -58 -34 -88 -62 -52
-47 -56 -49 -113 -49 -79 0 -138 -30 -178 -91 -16 -25 -47 -58 -69 -74 -52
-38 -80 -101 -74 -171 l4 -52 -35 -5 c-29 -4 -42 1 -66 23 -47 43 -70 51 -124
44 -42 -5 -54 -3 -77 15 -25 20 -28 28 -29 94 -2 70 -25 144 -48 159 -6 3 -36
9 -68 13 -68 8 -162 -13 -226 -50 -23 -14 -51 -25 -63 -25 -18 0 -6 15 54 71
93 87 195 233 179 258 -21 33 -75 36 -175 8 -51 -14 -94 -25 -95 -24 -1 2 17
43 41 93 47 98 78 145 155 232 28 31 76 91 109 132 32 41 98 112 147 158 74
69 109 93 200 137 60 30 120 54 133 54 22 1 22 0 7 -29z m-636 -1590 c34 -53
106 -113 177 -148 36 -18 42 -27 48 -61 5 -33 14 -46 44 -65 20 -14 50 -28 65
-32 19 -4 32 -17 41 -39 19 -45 69 -77 128 -83 38 -4 52 -10 68 -31 10 -15 34
-36 54 -46 l35 -19 -5 -70 c-8 -116 -8 -116 -55 -116 -30 0 -57 10 -100 37
-44 27 -74 38 -114 41 -49 4 -57 2 -83 -24 -15 -16 -33 -37 -39 -47 -9 -18
-13 -18 -63 -3 -113 34 -223 13 -390 -74 -97 -51 -153 -110 -177 -187 -19 -62
-15 -75 36 -110 42 -28 224 -71 340 -80 79 -5 91 -8 85 -22 -3 -9 -8 -43 -11
-76 l-6 -60 -173 -87 c-160 -80 -174 -85 -168 -63 4 18 1 27 -11 32 -47 17
-239 -87 -310 -170 -43 -49 -95 -148 -80 -154 39 -14 35 -32 -30 -131 -1 -1
-28 4 -61 13 -88 23 -240 20 -317 -6 -153 -51 -338 -180 -516 -359 -125 -125
-140 -137 -216 -164 -87 -32 -187 -89 -275 -155 -103 -79 -160 -102 -267 -109
l-83 -5 -16 39 c-31 75 -22 133 51 319 107 271 133 347 140 410 15 137 83 284
156 336 20 14 29 29 29 48 0 25 22 42 228 179 125 83 270 174 322 203 129 70
191 110 285 185 155 122 305 279 305 320 0 29 -51 102 -132 189 -67 72 -70 78
-65 113 11 64 74 140 202 244 112 90 124 98 184 108 60 10 66 10 100 -13 71
-46 94 -50 229 -44 126 6 243 31 332 70 19 9 38 16 41 17 3 0 20 -23 38 -50z
m-2233 -39 c85 -82 110 -91 244 -91 155 0 305 28 472 89 65 24 149 27 207 9
l39 -12 -69 -77 c-52 -57 -69 -83 -69 -105 0 -16 -10 -45 -21 -64 -12 -19 -77
-130 -145 -247 -117 -202 -123 -215 -130 -283 -4 -40 -12 -73 -18 -75 -6 -2
-24 -6 -39 -9 -37 -9 -46 -34 -19 -57 12 -9 22 -19 22 -21 0 -3 -24 -3 -52 0
-33 2 -134 -9 -268 -32 -118 -19 -238 -38 -266 -42 l-51 -6 -37 48 c-44 57
-88 149 -106 219 -7 28 -24 76 -38 108 -25 58 -25 59 -14 190 13 136 48 327
79 432 l19 60 61 5 c34 3 68 11 75 18 24 24 52 11 124 -57z"/>
<path d="M7627 15963 c-13 -21 -31 -58 -41 -82 -9 -25 -38 -67 -63 -95 -65
-72 -75 -90 -71 -127 2 -24 12 -39 35 -55 18 -12 30 -24 27 -27 -3 -3 -3 -15
1 -26 14 -44 138 -19 211 42 27 23 35 25 70 17 21 -5 69 -10 107 -10 39 0 67
-4 67 -10 0 -29 -64 -129 -159 -250 -59 -74 -136 -173 -171 -220 -35 -47 -68
-91 -73 -97 -20 -26 23 -26 51 -1 26 24 35 26 168 31 l142 5 31 -28 c24 -23
31 -37 31 -67 0 -49 -40 -135 -91 -195 -44 -53 -49 -73 -17 -82 22 -5 21 -7
-17 -46 -22 -22 -49 -40 -61 -40 -37 0 -83 -21 -89 -41 -5 -14 -16 -19 -40
-19 -19 0 -37 5 -40 10 -3 6 -15 10 -25 10 -24 0 -50 -48 -50 -93 0 -29 -9
-42 -66 -92 -86 -76 -130 -161 -121 -235 4 -29 0 -66 -9 -95 -8 -27 -14 -65
-14 -86 0 -46 17 -59 103 -84 58 -17 127 -17 297 0 80 8 87 -1 56 -63 -14 -29
-37 -59 -50 -67 -30 -20 -50 -67 -41 -96 7 -21 11 -21 94 -16 47 3 96 9 109
13 18 5 22 3 22 -17 0 -14 -9 -41 -20 -62 -11 -21 -18 -42 -16 -46 3 -5 -22
-31 -55 -60 -43 -36 -70 -51 -90 -51 -16 0 -47 -7 -69 -16 -39 -16 -40 -18
-40 -63 0 -46 0 -46 -87 -116 -47 -39 -101 -83 -120 -99 -30 -26 -42 -29 -88
-27 -84 4 -141 -27 -216 -116 -16 -20 -42 -36 -70 -43 -66 -18 -105 -46 -128
-94 -43 -89 -15 -146 73 -146 52 0 78 10 117 46 24 23 27 24 55 9 36 -19 57
-19 93 -1 24 13 31 13 48 1 43 -30 93 -28 213 9 63 19 123 38 134 42 17 7 17
5 2 -24 -21 -40 -21 -39 17 -62 44 -27 107 -25 192 5 45 16 92 25 133 25 l62
0 0 1630 0 1630 -215 0 -215 0 -23 -37z"/>
<path d="M8053 12650 c-14 -31 -28 -43 -63 -57 -25 -10 -80 -44 -123 -76 l-78
-59 -112 -6 c-155 -9 -230 -5 -317 16 -96 23 -110 20 -110 -23 0 -18 7 -38 15
-45 33 -28 165 -211 165 -230 0 -11 5 -28 11 -38 10 -16 3 -31 -41 -94 -42
-61 -54 -86 -58 -127 -4 -45 -7 -51 -28 -51 -31 0 -44 -27 -44 -90 0 -46 4
-56 34 -86 19 -19 42 -34 53 -34 26 0 80 35 87 58 5 13 65 44 209 105 111 47
239 101 285 121 92 39 97 36 25 -13 -63 -43 -107 -113 -123 -195 -15 -75 -9
-90 43 -102 25 -5 34 -2 49 15 l17 22 66 -36 65 -37 0 551 c0 303 -2 551 -4
551 -2 0 -13 -18 -23 -40z"/>
<path d="M8018 11319 c-32 -31 -58 -51 -58 -44 0 25 -53 25 -90 -1 -76 -53
-93 -73 -87 -103 6 -27 0 -32 -66 -76 -189 -126 -478 -368 -460 -386 8 -8 204
44 351 92 35 12 65 19 68 16 6 -5 -54 -85 -107 -143 -45 -50 -65 -87 -78 -145
-7 -30 -6 -47 1 -56 14 -17 86 -16 173 2 38 8 71 15 71 15 1 0 4 -9 7 -19 8
-31 66 -37 120 -13 63 28 130 97 123 126 -5 20 2 26 44 46 l50 23 0 364 c0
200 -1 362 -2 362 -2 -1 -29 -28 -60 -60z"/>
<path d="M8028 10014 l-38 -24 -20 20 c-27 27 -53 25 -106 -6 -42 -25 -44 -28
-44 -73 l0 -46 -107 -75 c-104 -73 -130 -103 -101 -121 18 -12 75 -11 83 1 3
6 14 10 23 10 10 0 -43 -60 -128 -145 l-144 -144 -41 6 c-31 4 -52 0 -82 -16
-45 -22 -103 -86 -103 -112 0 -9 -7 -33 -15 -52 -17 -42 -20 -87 -4 -87 5 0
-2 -15 -16 -34 -18 -23 -25 -44 -23 -63 3 -25 8 -28 41 -31 33 -3 53 6 145 66
228 148 434 250 659 326 l68 23 3 301 c1 166 -1 302 -5 301 -5 0 -25 -11 -45
-25z"/>
<path d="M7950 9322 c-163 -113 -257 -206 -299 -295 -33 -68 -35 -97 -7 -97 8
0 16 -5 18 -11 5 -14 74 -39 109 -39 15 0 37 12 54 30 16 17 37 30 47 30 13 0
18 8 18 30 0 28 7 33 95 77 l95 48 0 157 c0 87 -1 158 -2 158 -2 0 -59 -40
-128 -88z"/>
<path d="M6629 8508 c-1 -7 -1 -20 0 -28 1 -9 -21 -39 -49 -68 -43 -45 -50
-57 -50 -92 0 -32 7 -48 36 -80 33 -36 41 -40 85 -40 l49 0 0 -45 c0 -33 6
-50 22 -65 12 -11 24 -20 27 -20 3 0 7 -15 8 -34 3 -74 64 -150 151 -188 45
-20 86 -68 64 -76 -6 -2 -22 -12 -34 -22 -20 -15 -23 -30 -26 -98 -5 -102 16
-156 57 -149 14 2 33 7 41 11 11 4 24 -11 48 -59 60 -116 122 -170 392 -343
232 -149 246 -160 270 -207 27 -53 126 -144 196 -180 22 -10 62 -33 89 -50 28
-17 56 -35 63 -39 9 -6 12 167 12 848 0 783 -1 856 -16 856 -13 0 -14 3 -5 13
11 14 -3 37 -23 37 -5 0 -18 7 -28 17 -13 11 -23 13 -37 7 -36 -17 -121 -105
-121 -124 0 -24 12 -21 -130 -29 l-115 -6 -5 -28 c-7 -36 -54 -67 -104 -67
l-39 0 21 23 c24 26 28 57 10 75 -20 20 -122 15 -162 -9 -32 -19 -40 -19 -118
-9 -46 7 -109 9 -140 5 -47 -5 -58 -3 -58 9 0 8 -11 27 -24 43 -13 15 -25 37
-27 48 -3 15 -15 21 -49 27 -25 3 -61 13 -80 21 -19 8 -54 18 -77 22 -42 7
-42 7 -45 53 -3 46 -3 47 -40 50 -26 2 -38 -1 -39 -10z"/>
</g>
</svg>
