<?xml version="1.0" standalone="no"?>
<!DOCTYPE svg PUBLIC "-//W3C//DTD SVG 20010904//EN"
 "http://www.w3.org/TR/2001/REC-SVG-20010904/DTD/svg10.dtd">
<svg version="1.0" xmlns="http://www.w3.org/2000/svg"
 width="2400.000000pt" height="1600.000000pt" viewBox="0 0 2400.000000 1600.000000"
 preserveAspectRatio="xMidYMid meet">
<metadata>
Created by potrace 1.13, written by Peter Selinger 2001-2015
</metadata>
<g transform="translate(0.000000,1600.000000) scale(0.100000,-0.100000)"
fill="#000000" stroke="none">
<path d="M2996 8200 c-15 -63 -25 -810 -16 -1190 5 -223 9 -532 10 -688 l0
-283 -41 3 -41 3 -2 509 -1 509 -72 28 c-126 51 -237 63 -441 50 -180 -11
-358 -34 -370 -46 -13 -13 -14 -243 -2 -445 7 -122 13 -491 14 -912 l2 -707
-50 -11 c-85 -18 -496 -40 -763 -40 l-253 0 0 -1090 0 -1090 3003 0 3002 0 -1
298 c-1 289 -10 418 -40 592 -23 129 -31 162 -46 171 -28 18 -158 41 -257 46
l-103 6 7 796 c6 584 4 829 -4 921 -9 89 -9 197 -3 375 5 138 7 252 5 254 -3
4 -469 -25 -570 -35 l-53 -5 0 -495 0 -494 -250 0 -250 0 0 496 0 496 -70 -7
-70 -7 0 318 c0 426 -18 1089 -31 1139 -16 61 -50 135 -59 130 -5 -3 -48 3
-97 14 -117 26 -289 51 -350 51 l-50 0 -7 -52 c-3 -29 -6 -143 -6 -254 l0
-201 -215 0 c-118 0 -218 -3 -222 -7 -5 -4 -10 -127 -11 -272 l-4 -265 -246 7
c-136 4 -248 8 -250 9 -1 1 2 172 8 381 11 418 12 850 2 932 l-7 53 -160 4
c-88 2 -222 9 -298 15 -138 12 -221 8 -233 -11 -3 -6 -11 -3 -19 8 -13 17 -14
16 -19 -7z m204 -110 c46 -23 58 -55 40 -101 -15 -35 -37 -49 -80 -49 -34 0
-80 38 -80 65 0 27 27 83 47 94 25 14 28 14 73 -9z m342 -10 c22 -27 23 -50 4
-95 -14 -34 -17 -35 -69 -35 -42 0 -58 5 -72 20 -26 29 -23 85 7 117 20 21 29
24 68 20 29 -3 50 -12 62 -27z m-742 -1055 c36 -18 38 -45 9 -86 -24 -33 -70
-39 -107 -13 -27 19 -28 39 -2 82 22 36 52 42 100 17z m-550 -20 c32 -17 40
-39 27 -75 -13 -37 -37 -60 -64 -60 -28 0 -83 50 -83 75 0 21 54 75 75 75 9 0
29 -7 45 -15z m1594 -357 c19 -70 28 -264 17 -359 -6 -55 -11 -118 -11 -141 0
-60 -17 -35 -23 32 -2 30 -10 75 -17 100 -14 51 -19 296 -7 353 9 41 31 49 41
15z m-1051 -349 c41 -22 49 -61 21 -104 -21 -33 -78 -34 -111 -3 -61 57 14
146 90 107z m1204 -13 c30 -34 35 -92 35 -375 -1 -249 -1 -254 -23 -277 l-23
-24 -20 20 c-20 20 -21 31 -21 323 0 285 5 357 23 357 5 0 18 -11 29 -24z
m2443 -136 c24 -24 26 -77 4 -108 -26 -38 -126 -24 -140 20 -8 25 4 75 23 93
22 22 89 19 113 -5z m-2228 -247 c14 -15 16 -66 19 -330 l4 -312 -23 -22 -24
-22 -24 25 c-21 21 -27 40 -35 124 -12 108 -6 373 11 469 13 77 41 103 72 68z
m1518 -823 c108 -14 118 -17 125 -41 19 -60 -50 -108 -137 -96 -103 14 -233
47 -250 65 -18 18 -18 19 5 40 13 13 45 25 77 31 77 12 85 12 180 1z m-4450
-225 c37 -19 39 -52 5 -89 -28 -30 -69 -34 -103 -10 -27 19 -28 39 -2 82 22
36 52 42 100 17z m1942 -118 c13 -20 9 -34 -19 -67 -23 -28 -31 -32 -65 -27
-49 7 -68 22 -68 56 0 27 30 63 60 73 18 6 81 -18 92 -35z m-214 -23 c24 -16
28 -40 11 -77 -17 -38 -45 -50 -85 -37 -45 15 -59 41 -44 85 19 56 60 66 118
29z m1516 -675 c33 -26 34 -67 1 -103 -29 -32 -53 -33 -90 -4 -23 18 -26 26
-21 56 11 68 59 91 110 51z"/>
</g>
</svg>
