<?xml version="1.0" standalone="no"?>
<!DOCTYPE svg PUBLIC "-//W3C//DTD SVG 20010904//EN"
 "http://www.w3.org/TR/2001/REC-SVG-20010904/DTD/svg10.dtd">
<svg version="1.0" xmlns="http://www.w3.org/2000/svg"
 width="2400.000000pt" height="1600.000000pt" viewBox="0 0 2400.000000 1600.000000"
 preserveAspectRatio="xMidYMid meet">
<metadata>
Created by potrace 1.13, written by Peter Selinger 2001-2015
</metadata>
<g transform="translate(0.000000,1600.000000) scale(0.100000,-0.100000)"
fill="#000000" stroke="none">
<path d="M200 15985 c-36 -7 -79 -13 -97 -14 -31 -1 -33 -3 -63 -96 l-30 -96
2 -607 3 -607 20 42 c11 23 23 43 27 43 4 0 21 -20 38 -45 17 -24 40 -51 52
-60 52 -36 123 -8 172 67 13 19 17 45 16 95 -2 90 -3 88 18 71 34 -30 62 -40
77 -28 10 8 19 8 35 0 24 -13 60 -5 60 14 0 7 -16 48 -35 90 -33 70 -38 76
-60 70 -24 -6 -25 -4 -25 35 0 46 8 51 36 20 17 -19 26 -20 89 -15 118 9 144
16 151 40 3 11 17 32 29 46 32 34 48 79 35 95 -8 10 0 17 32 29 24 10 61 29
83 44 22 15 66 34 98 43 l59 17 -36 -37 c-46 -47 -48 -81 -6 -81 36 0 126 33
159 59 18 13 24 29 25 57 1 43 0 42 83 28 33 -5 49 -2 82 16 51 29 57 46 24
62 -14 7 -30 23 -34 36 -7 19 -4 24 19 33 42 16 82 59 112 120 l27 57 27 -34
c31 -39 46 -43 53 -14 3 10 13 22 23 25 9 3 22 17 28 30 10 21 19 25 54 25 50
0 118 35 132 67 17 38 72 56 184 61 106 4 121 12 86 46 -29 29 -55 37 -112 35
-31 -1 -70 4 -87 11 -172 70 -240 87 -434 105 -193 19 -1133 18 -1231 0z"/>
<path d="M11 12978 l1 -703 40 85 c38 79 51 139 38 180 -4 11 8 16 50 21 57 6
107 27 129 52 10 13 7 17 -16 24 l-28 10 42 21 c44 23 83 65 83 90 0 8 -11 30
-25 48 -17 22 -25 45 -25 72 0 24 -8 49 -19 64 l-19 24 35 34 c39 39 56 68 71
123 11 38 10 38 -26 55 -20 9 -38 17 -40 18 -1 0 10 22 24 49 23 40 26 53 18
84 l-9 36 -75 -3 c-113 -3 -151 11 -95 36 27 12 34 42 11 42 -8 0 0 14 20 34
45 45 43 66 -7 99 -33 22 -44 25 -61 16 -19 -10 -37 0 -38 22 0 10 -62 69 -72
69 -4 0 -8 -316 -7 -702z"/>
<path d="M1183 13118 c-6 -7 -13 -51 -16 -98 -6 -100 -10 -113 -43 -130 -13
-8 -24 -22 -24 -34 0 -30 -11 -42 -43 -50 -15 -4 -31 -14 -34 -24 -4 -9 -19
-27 -34 -39 -32 -27 -45 -69 -28 -89 9 -12 2 -25 -41 -70 -46 -49 -52 -59 -48
-92 3 -37 3 -37 -29 -34 l-32 4 6 62 c5 52 3 64 -11 69 -21 8 -46 -2 -46 -18
0 -8 -18 -51 -40 -96 -34 -71 -40 -92 -40 -149 0 -54 -4 -70 -20 -85 -24 -22
-26 -53 -4 -62 13 -5 11 -10 -12 -34 -18 -19 -25 -34 -21 -49 8 -31 -54 -108
-114 -142 -50 -29 -84 -67 -117 -134 -30 -59 -90 -108 -157 -129 -56 -18 -57
-18 -68 1 -5 10 -29 37 -52 59 l-42 40 10 57 c7 42 15 59 29 64 10 3 26 18 35
32 9 15 36 46 58 69 68 68 84 180 30 205 -19 8 -37 1 -118 -45 -52 -30 -98
-53 -101 -49 -4 3 -6 -206 -5 -464 0 -407 2 -466 14 -444 8 14 14 33 15 42 0
24 75 73 163 107 87 33 157 79 190 124 13 17 44 69 67 115 24 45 49 82 56 82
6 0 28 -13 49 -30 21 -16 46 -30 55 -30 22 0 42 23 35 41 -3 9 9 22 32 34 53
28 57 67 12 91 l-33 17 39 20 c26 13 40 16 43 8 5 -16 32 -14 32 2 0 21 189
161 238 176 29 10 42 20 42 33 0 16 9 18 86 18 112 0 144 16 144 73 0 15 9 37
20 49 l20 21 54 -26 c71 -35 137 -36 170 -4 13 12 38 30 57 40 62 33 123 101
117 130 -2 7 14 29 35 49 41 39 47 72 17 88 -28 15 -25 28 5 22 29 -5 65 21
65 48 0 15 10 16 79 12 72 -4 83 -2 130 23 28 16 51 32 51 37 0 4 7 8 15 8 27
0 126 62 153 96 15 19 35 34 45 34 9 0 17 6 17 14 0 8 6 16 14 19 8 3 16 18
18 33 2 20 11 30 33 37 45 14 87 57 74 74 -6 7 -24 13 -40 13 -23 0 -28 5 -31
27 -2 17 -10 29 -21 31 -23 5 -239 -86 -250 -104 -4 -8 -31 -26 -59 -40 -48
-24 -50 -27 -45 -59 5 -31 3 -34 -31 -48 -61 -24 -149 -39 -215 -35 -56 3 -62
1 -65 -18 -2 -11 6 -28 18 -39 11 -10 20 -21 20 -25 0 -14 -32 -20 -46 -9 -7
6 -25 9 -41 7 -24 -2 -28 -7 -26 -30 2 -26 -8 -33 -125 -94 -70 -37 -146 -85
-169 -106 -35 -31 -50 -38 -85 -38 -48 0 -133 -36 -162 -69 -22 -24 -59 -27
-118 -9 -38 11 -38 11 -20 32 11 12 22 33 26 49 3 15 13 27 22 27 31 0 74 32
93 68 15 29 47 55 146 117 153 97 172 111 162 121 -6 7 -28 1 -94 -23 -9 -4
-12 6 -10 34 2 37 1 38 -35 41 -45 4 -47 13 -10 47 22 21 24 27 12 35 -19 12
-12 18 40 33 52 15 70 38 50 62 -11 13 -24 16 -55 12 -22 -3 -45 -3 -50 1 -6
4 -12 41 -14 82 -2 41 -5 78 -8 83 -7 12 -50 8 -60 -5z"/>
<path d="M875 10713 c-85 -52 -245 -133 -264 -133 -5 0 -5 17 1 38 5 20 12 46
14 58 8 30 -20 50 -50 36 -37 -17 -206 -183 -206 -202 0 -31 -28 -50 -73 -50
-50 0 -82 20 -91 55 -11 45 -95 60 -161 28 l-35 -17 0 -590 c0 -581 0 -590 21
-634 20 -39 20 -49 10 -100 -13 -60 -10 -360 4 -420 5 -22 3 -37 -6 -48 -14
-17 -15 -24 -25 -256 l-5 -138 25 0 c26 0 36 -23 16 -35 -6 -3 -10 -26 -10
-49 0 -27 -6 -48 -15 -56 -12 -10 -15 -46 -15 -206 0 -169 3 -202 20 -252 11
-32 21 -85 21 -120 1 -38 6 -68 15 -76 11 -12 10 -15 -11 -20 -30 -8 -58 -47
-49 -69 8 -21 107 -77 137 -77 13 0 37 -11 53 -25 34 -30 59 -38 105 -33 50 5
46 35 -11 68 -34 20 -46 34 -51 59 -4 18 -17 46 -28 62 l-22 29 45 0 c32 0 49
5 58 18 7 10 31 27 52 38 62 30 67 48 26 88 -19 19 -61 50 -93 69 -39 24 -52
37 -42 41 24 9 18 52 -11 75 -15 12 -34 21 -42 21 -12 0 -8 8 11 28 28 29 37
84 17 97 -31 19 18 40 56 23 29 -13 58 6 51 34 -6 23 -5 23 51 -7 58 -31 83
-31 118 -2 l27 23 -28 22 c-15 12 -25 27 -22 34 5 16 -18 64 -37 75 -7 4 -16
34 -20 66 -6 56 -6 58 21 68 45 17 73 49 73 84 0 23 8 37 30 53 17 13 30 29
30 38 0 19 -59 44 -105 44 -22 0 -43 8 -56 21 -18 18 -30 21 -85 17 -47 -3
-64 -1 -64 9 0 7 -10 17 -21 24 -20 10 -19 12 22 37 24 14 48 32 52 39 5 7 26
25 49 39 34 22 39 29 34 50 -5 20 0 32 24 54 40 37 38 67 -6 113 -29 30 -33
37 -18 37 29 0 81 36 89 61 9 28 -16 49 -59 49 -29 1 -27 2 17 20 61 23 77 37
77 64 0 51 -48 60 -113 22 -41 -24 -140 -67 -183 -80 -20 -6 -22 -2 -29 71 -7
85 -31 146 -70 183 l-25 24 52 29 c118 66 121 67 230 67 100 -1 104 -1 158
-35 69 -45 132 -48 197 -10 47 28 52 42 26 81 -23 35 -54 46 -153 53 l-85 6
38 22 c38 23 49 57 25 81 -9 9 -8 21 2 51 15 47 10 56 -32 65 -33 6 -84 -21
-179 -95 -25 -19 -49 -29 -72 -29 -40 0 -59 -17 -51 -47 5 -17 -2 -27 -33 -46
-50 -32 -93 -40 -93 -18 0 9 9 31 20 49 26 43 25 64 -5 92 -14 13 -25 28 -25
33 0 5 16 27 35 50 37 43 46 92 23 115 -20 20 -32 14 -63 -35 l-30 -48 -3 31
c-3 33 46 196 77 253 18 33 21 35 69 32 53 -3 139 16 127 27 -3 4 -20 12 -38
18 -41 14 -47 34 -10 34 32 0 48 9 55 29 2 8 15 15 29 17 85 8 270 44 290 57
13 8 37 18 54 22 41 9 55 23 55 54 0 21 -8 31 -32 42 l-31 15 55 31 c110 62
252 222 217 244 -19 12 -14 14 -114 -48z"/>
<path d="M6028 8732 c-16 -9 -28 -26 -28 -38 0 -16 -10 -24 -42 -34 -24 -7
-56 -21 -71 -32 -17 -12 -36 -18 -50 -14 -12 3 -32 3 -45 -1 -19 -5 -23 -11
-20 -34 3 -21 -1 -30 -19 -38 -31 -14 -39 -14 -78 5 -51 24 -79 16 -83 -23 -4
-38 -2 -37 -66 -18 -27 8 -70 15 -97 15 -41 0 -51 -4 -78 -35 -35 -41 -42 -91
-13 -102 9 -4 23 -13 30 -20 7 -7 19 -13 26 -13 8 0 11 -10 9 -27 -9 -59 93
-155 179 -168 97 -14 98 -15 98 -46 0 -28 -2 -29 -46 -29 -50 0 -84 -14 -84
-34 0 -8 -7 -16 -15 -20 -8 -3 -15 -17 -15 -31 0 -18 -5 -25 -20 -25 -34 0
-93 -35 -132 -79 -20 -23 -44 -41 -53 -41 -23 0 -54 -40 -55 -70 0 -24 -6 -27
-59 -38 -70 -15 -83 -28 -79 -79 l3 -38 87 -28 c47 -15 89 -34 91 -42 4 -10
-10 -8 -56 9 -34 13 -82 27 -107 31 -32 5 -58 19 -91 49 -82 73 -170 90 -304
60 -38 -9 -104 -17 -145 -18 -68 -1 -79 -4 -122 -35 -39 -28 -48 -40 -48 -64
0 -17 7 -38 16 -48 14 -15 12 -18 -17 -28 -18 -6 -57 -11 -88 -11 -79 0 -101
-8 -101 -35 0 -12 7 -28 15 -35 14 -11 12 -17 -15 -43 -36 -35 -38 -60 -8 -81
25 -18 133 -22 143 -6 3 6 27 10 53 10 40 0 216 26 302 45 l26 6 -1 -82 0 -82
33 -11 32 -11 -28 -13 c-74 -32 -93 -88 -37 -107 26 -9 30 -14 27 -42 -2 -18
4 -43 13 -56 14 -22 14 -26 0 -37 -26 -22 -18 -49 20 -64 25 -11 35 -21 35
-37 0 -12 8 -31 18 -42 16 -19 16 -20 -5 -34 -25 -17 -31 -61 -11 -81 8 -8 8
-15 0 -25 -9 -11 -9 -24 3 -57 8 -23 12 -53 9 -66 -5 -20 -10 -22 -37 -16 -56
12 -111 7 -152 -14 -34 -18 -40 -26 -43 -57 -3 -34 -1 -37 22 -37 22 0 26 -5
26 -29 0 -25 -6 -31 -34 -41 -61 -20 -86 -47 -86 -91 0 -23 5 -41 13 -43 98
-29 186 -41 299 -41 121 1 127 0 130 -20 4 -30 73 -35 81 -6 4 15 13 21 34 21
33 0 47 -8 56 -32 7 -20 42 -23 81 -8 21 8 25 6 28 -13 3 -19 11 -23 66 -27
l64 -5 -26 -24 c-16 -15 -26 -35 -26 -52 0 -29 -1 -29 -90 -44 -24 -4 -42 -1
-55 9 -20 15 -20 15 3 16 37 0 25 25 -25 51 -62 31 -180 34 -212 5 -17 -15
-30 -17 -94 -11 -101 10 -147 -16 -147 -80 0 -27 -4 -34 -22 -37 -19 -2 -24
-10 -26 -41 -2 -21 1 -44 7 -51 7 -9 7 -22 -1 -44 -10 -27 -9 -34 7 -53 11
-12 38 -30 59 -40 l40 -18 -40 -3 c-37 -3 -39 -5 -42 -40 -2 -28 2 -40 20 -52
12 -9 30 -16 39 -16 9 0 19 -7 23 -15 8 -22 63 -19 162 10 96 28 117 30 112
14 -2 -6 -33 -22 -68 -35 -79 -28 -104 -55 -96 -103 3 -19 12 -39 21 -43 35
-20 11 -25 -30 -7 -45 20 -93 19 -120 -1 -5 -4 -34 -10 -63 -12 -68 -7 -102
-36 -102 -89 l0 -37 -93 -31 c-51 -17 -113 -31 -140 -31 -52 0 -91 -16 -121
-49 -10 -11 -34 -23 -52 -27 -31 -6 -34 -10 -34 -39 0 -31 3 -34 32 -37 29 -3
32 -6 33 -38 0 -28 7 -39 35 -58 33 -23 41 -24 140 -18 58 3 118 9 134 12 l29
7 -39 -51 c-25 -32 -52 -55 -74 -63 -56 -19 -79 -41 -80 -73 0 -27 2 -28 33
-22 17 4 41 6 52 4 111 -13 297 13 377 53 40 20 133 26 143 9 14 -23 82 -41
145 -39 36 1 94 -5 130 -12 l65 -14 -160 -5 -160 -5 -3 -30 c-2 -16 -12 -35
-23 -43 -14 -10 -19 -25 -19 -62 0 -27 5 -52 10 -55 16 -10 12 -19 -20 -37
-38 -22 -41 -64 -6 -97 13 -13 27 -33 30 -46 3 -13 22 -33 41 -45 29 -18 38
-20 51 -10 8 8 12 21 9 31 -8 24 -5 24 44 -4 l40 -23 -19 -37 c-28 -52 -26
-93 5 -113 l25 -16 -44 -62 c-24 -33 -59 -96 -80 -138 -41 -87 -78 -118 -143
-118 -28 0 -51 9 -81 31 -24 17 -41 34 -40 38 2 3 17 32 32 63 25 48 27 59 17
72 -20 23 -50 19 -73 -9 -11 -14 -28 -25 -39 -25 -10 0 -28 -9 -39 -20 -25
-25 -51 -25 -73 0 -18 21 -81 28 -92 10 -3 -6 -21 6 -40 26 -24 25 -41 35 -57
32 -20 -3 -23 -9 -26 -55 -2 -36 -7 -53 -16 -53 -23 0 -149 -69 -181 -98 -16
-15 -47 -50 -67 -78 -46 -63 -122 -134 -143 -134 -9 0 -34 10 -57 21 l-42 21
22 17 c30 22 11 41 -41 41 l-38 0 17 29 c21 35 13 61 -19 61 -20 0 -23 4 -19
25 4 22 1 25 -24 25 -35 0 -47 -8 -63 -39 -14 -26 -28 -19 -33 18 -4 29 -29
47 -53 38 -14 -6 -16 -16 -11 -65 l6 -57 -67 -41 -67 -42 -28 39 c-36 50 -54
50 -63 -1 -4 -22 -11 -42 -16 -46 -5 -3 -9 -18 -9 -35 0 -26 -3 -29 -32 -29
-17 0 -39 -7 -49 -15 -15 -14 -18 -14 -32 0 -9 8 -29 15 -46 15 -26 0 -31 -4
-31 -23 0 -13 9 -32 20 -42 30 -27 25 -35 -23 -35 -37 0 -54 8 -114 53 -124
94 -219 101 -370 25 -81 -40 -93 -43 -168 -43 -68 0 -89 4 -140 30 -33 16 -70
32 -83 35 -21 5 -19 10 47 108 69 101 91 150 91 205 0 55 -32 31 -96 -70 -33
-54 -72 -104 -85 -110 -23 -12 -24 -11 -27 25 -4 63 -11 82 -31 82 -10 0 -23
11 -29 25 -15 32 -50 33 -57 3 -3 -13 -6 -68 -8 -123 l-2 -100 -22 45 c-12 25
-30 52 -40 61 -10 9 -29 31 -42 48 -29 38 -39 39 -52 4 -8 -23 -5 -37 20 -87
17 -32 31 -64 31 -71 0 -9 -30 -14 -97 -18 -54 -3 -129 -11 -168 -17 -38 -5
-189 -14 -335 -19 l-265 -10 -33 32 c-19 18 -54 58 -78 89 l-44 57 100 113
c55 62 99 117 97 123 -10 29 -42 8 -131 -86 -53 -55 -96 -98 -96 -95 0 3 22
40 49 83 27 42 47 81 45 85 -3 4 -15 8 -27 8 -16 0 -30 -14 -50 -50 -16 -28
-32 -50 -36 -50 -20 0 -33 33 -33 82 1 29 -4 56 -11 60 -13 8 10 62 89 205 42
76 49 95 38 104 -23 19 -40 3 -113 -106 l-70 -106 -7 71 c-7 75 -13 85 -44 75
-16 -5 -20 -15 -20 -49 0 -41 -1 -43 -25 -38 l-25 4 0 -81 c0 -44 -4 -81 -8
-81 -4 0 -26 18 -47 40 -21 22 -44 40 -51 40 -26 0 -23 -34 6 -86 29 -50 45
-94 34 -94 -2 0 -33 27 -69 60 -35 32 -75 62 -89 66 -31 8 -58 2 -63 -13 -5
-13 100 -116 150 -147 53 -35 11 -29 -131 17 -127 42 -307 87 -409 103 l-43 7
0 -592 0 -591 4035 0 4035 0 0 1440 0 1440 -29 0 c-53 0 -127 -81 -201 -220
-35 -68 -76 -135 -90 -149 -14 -14 -32 -42 -40 -61 -31 -80 -71 -150 -86 -150
-8 0 -29 -7 -47 -16 -21 -12 -32 -13 -35 -5 -2 6 -15 11 -28 11 -24 0 -24 -1
-22 -87 3 -83 4 -88 26 -91 13 -2 30 2 38 9 29 24 25 -2 -17 -98 -48 -109
-119 -220 -174 -273 l-36 -35 -132 0 c-155 0 -195 11 -331 88 -82 46 -88 51
-67 61 12 5 20 15 17 21 -2 7 14 16 39 23 24 6 56 22 71 36 25 21 27 26 16 50
-6 14 -17 26 -25 26 -9 0 -11 12 -9 39 4 38 2 41 -33 55 l-37 16 44 33 c35 26
44 40 46 69 3 33 0 36 -38 52 -22 9 -47 16 -55 16 -8 0 -15 5 -15 10 0 6 15
10 33 10 37 0 139 48 145 67 2 7 -8 17 -22 23 -15 5 -37 19 -49 31 -12 12 -44
32 -72 45 -67 32 -193 34 -243 4 -46 -28 -55 -25 -32 13 11 17 20 42 20 54 0
32 -69 79 -137 93 -52 11 -54 13 -32 24 17 9 23 19 21 36 -1 13 -5 26 -8 29
-2 3 -58 7 -124 9 -112 4 -119 6 -110 23 15 27 12 47 -9 54 -27 8 -33 44 -15
92 15 39 15 45 0 68 -14 21 -14 25 -2 25 8 0 17 -9 21 -19 10 -34 103 -119
160 -146 69 -34 127 -41 207 -25 70 13 120 36 166 75 31 26 33 26 146 19 108
-6 116 -5 155 17 41 22 90 84 77 96 -3 3 -64 13 -135 22 -114 14 -128 18 -120
32 6 12 3 24 -10 40 -10 13 -20 33 -22 44 -3 12 -25 30 -60 47 -52 24 -62 26
-123 18 -37 -4 -79 -16 -94 -27 -20 -13 -52 -19 -120 -23 l-92 -5 0 40 c0 77
-44 104 -170 105 -65 1 -65 1 -33 15 18 8 38 25 45 40 6 14 15 25 21 25 5 0 7
7 3 15 -3 8 -2 15 2 15 16 0 102 -30 132 -45 38 -19 179 -23 224 -6 23 9 37 8
72 -5 l43 -16 31 28 c16 16 30 37 30 47 0 13 6 16 23 12 33 -7 139 -25 149
-25 14 0 9 27 -7 40 -13 11 -11 16 17 35 18 12 44 26 58 30 14 4 41 17 60 29
19 12 44 26 54 32 27 14 30 30 9 39 -10 4 -67 9 -126 12 l-108 6 24 26 c32 34
60 89 51 102 -3 6 -24 24 -47 40 -22 16 -45 39 -51 51 -18 35 -85 49 -216 46
l-115 -2 3 33 c1 20 -5 43 -18 61 -21 29 -21 29 -1 40 31 16 44 46 31 71 -15
27 -110 69 -156 69 -25 0 -41 7 -54 23 -18 21 -20 21 -47 7 -18 -10 -30 -26
-33 -45 -4 -25 -11 -30 -45 -36 -22 -4 -53 -12 -68 -18 -41 -16 -46 -14 -38
16 7 25 10 27 63 24 45 -2 57 1 62 16 4 11 1 22 -8 28 -11 9 -4 14 35 28 43
16 49 21 49 46 0 16 7 34 15 41 8 7 15 21 15 31 0 18 10 19 133 19 127 0 135
1 155 23 29 31 30 89 1 118 -29 29 -19 33 30 13 29 -11 62 -15 110 -12 73 4
90 14 123 78 7 14 17 28 23 32 6 5 -1 17 -16 30 -15 13 -29 31 -32 40 -5 14 4
12 47 -12 29 -17 63 -30 75 -30 27 0 73 44 65 63 -4 11 1 13 19 10 29 -6 44
12 27 32 -9 11 -5 15 27 20 61 10 65 13 62 43 -3 22 5 36 39 67 59 53 67 70
47 101 -15 23 -21 24 -109 24 -51 0 -130 -5 -175 -11 -77 -10 -84 -10 -104 9
-34 30 -62 42 -102 42 -89 0 -244 -89 -306 -175 -34 -47 -58 -56 -80 -29 -20
25 -65 44 -103 44 -25 0 -49 10 -81 35 -51 38 -99 55 -162 55 l-42 0 15 35 c8
19 12 45 9 58 -3 12 -1 28 4 36 7 11 14 10 37 -6 32 -23 71 -36 157 -54 54
-12 59 -11 81 10 21 20 28 21 62 12 85 -24 147 -10 202 42 50 47 55 61 36 99
-31 64 -122 98 -170 64 -21 -16 -44 -5 -44 20 0 19 -44 28 -88 19 -20 -5 -60
-7 -88 -6 -35 1 -55 -4 -64 -14 -16 -19 -27 -19 -47 0 -24 24 -93 -7 -93 -42
0 -30 -18 -10 -22 25 -5 41 57 209 91 247 10 11 22 37 25 58 7 37 -1 46 -21
26 -8 -8 -17 -7 -34 1 -31 17 -30 15 -24 32 5 13 22 15 94 10 102 -5 153 8
226 58 40 28 46 36 43 62 -4 46 -53 68 -148 69 -52 0 -69 3 -54 9 28 11 54 48
47 67 -16 42 -152 59 -205 25z"/>
</g>
</svg>
