<?xml version="1.0" standalone="no"?>
<!DOCTYPE svg PUBLIC "-//W3C//DTD SVG 20010904//EN"
 "http://www.w3.org/TR/2001/REC-SVG-20010904/DTD/svg10.dtd">
<svg version="1.0" xmlns="http://www.w3.org/2000/svg"
 width="2400.000000pt" height="1600.000000pt" viewBox="0 0 2400.000000 1600.000000"
 preserveAspectRatio="xMidYMid meet">
<metadata>
Created by potrace 1.13, written by Peter Selinger 2001-2015
</metadata>
<g transform="translate(0.000000,1600.000000) scale(0.100000,-0.100000)"
fill="#000000" stroke="none">
<path d="M0 15727 l0 -274 153 -12 c202 -16 194 -13 202 -68 4 -28 16 -55 30
-69 21 -21 34 -24 92 -24 79 1 139 13 195 40 l39 19 41 -46 c48 -51 98 -80
156 -89 27 -4 42 -12 45 -25 6 -21 63 -59 90 -59 31 0 179 69 226 106 43 33
61 36 61 8 0 -10 13 -14 48 -14 54 0 127 31 186 79 62 50 138 40 151 -19 11
-50 -4 -138 -25 -145 -29 -9 -90 -179 -90 -251 0 -18 7 -45 15 -60 9 -18 13
-41 9 -61 -7 -35 14 -53 62 -53 18 0 42 -14 73 -43 30 -28 72 -53 118 -71 70
-27 72 -28 66 -56 -3 -19 2 -44 17 -75 24 -49 48 -61 105 -52 32 5 36 2 64
-41 25 -39 71 -135 71 -147 0 -2 -31 -20 -69 -40 -71 -37 -148 -105 -178 -155
-20 -35 -69 -46 -84 -18 -6 11 -21 18 -41 18 -17 0 -39 7 -49 16 -23 20 -44 9
-98 -52 -47 -53 -59 -88 -42 -116 10 -16 6 -21 -36 -39 -75 -33 -184 -69 -209
-69 -18 0 -23 7 -29 39 -4 22 -21 63 -38 93 -40 67 -64 71 -147 27 -72 -38
-142 -105 -206 -197 -26 -37 -51 -71 -55 -75 -4 -5 -6 58 -5 140 1 131 -1 154
-19 186 -23 43 -55 57 -130 57 -49 0 -53 2 -59 26 -5 18 -2 30 8 38 17 12 46
113 46 157 0 98 -89 166 -137 105 l-19 -24 -43 28 c-42 28 -116 50 -171 50
-16 0 -65 -16 -109 -35 -43 -19 -82 -35 -85 -35 -3 0 -6 15 -6 34 0 39 -14 46
-102 46 -96 0 -88 36 -88 -381 l0 -369 68 -1 c125 -1 170 -12 208 -51 61 -60
47 -128 -59 -291 -29 -45 -90 -125 -135 -177 l-82 -95 0 -706 0 -706 57 14
c65 17 185 28 207 20 12 -5 10 -18 -9 -82 -32 -102 -58 -259 -50 -298 10 -47
42 -77 82 -77 30 0 33 -3 33 -30 0 -24 -13 -40 -73 -90 -39 -34 -111 -89 -159
-123 l-88 -62 0 -212 0 -213 38 15 c20 7 100 37 177 66 236 87 322 134 490
269 87 70 158 120 171 120 12 0 27 6 33 13 6 8 30 19 53 26 81 24 332 122 487
191 86 37 174 70 197 73 23 3 70 19 105 35 35 17 89 36 121 42 45 9 67 21 113
61 66 58 129 92 154 84 10 -3 37 2 60 10 44 15 121 11 121 -6 0 -5 17 -9 39
-9 44 0 83 26 107 72 16 31 12 78 -6 78 -6 0 -1 13 11 29 28 39 22 75 -13 79
-16 2 -28 6 -28 10 0 4 25 27 56 52 90 71 180 173 188 210 10 52 -24 111 -98
170 -46 36 -65 58 -70 81 -13 68 -8 82 39 114 24 17 45 35 45 41 0 6 13 35 30
65 16 30 30 62 30 73 0 10 11 31 25 48 41 49 35 55 -63 63 l-89 7 14 51 c29
107 -5 202 -92 252 -44 27 -44 27 -101 10 -31 -9 -58 -14 -61 -11 -2 2 0 13 6
24 6 11 8 27 5 36 -6 17 -32 29 -44 21 -5 -3 -14 4 -20 15 -19 35 -79 27 -139
-19 -78 -58 -101 -94 -101 -158 l0 -53 -47 -24 c-27 -13 -95 -58 -153 -99 -65
-47 -109 -72 -114 -66 -23 22 -76 8 -142 -36 -37 -24 -71 -46 -76 -47 -6 -2
-11 -25 -12 -52 l-2 -47 -85 -61 c-108 -77 -149 -98 -195 -98 -43 0 -63 21
-64 67 0 74 -35 103 -123 103 -57 0 -86 -15 -182 -94 -93 -77 -90 -76 -61 -21
14 28 30 57 35 65 5 8 15 30 22 49 15 40 73 101 96 101 29 0 91 50 120 97 23
35 49 56 141 108 63 36 115 65 117 65 3 0 2 -6 -1 -14 -3 -7 7 -23 23 -36 24
-19 36 -21 81 -17 28 3 78 18 110 32 41 20 71 27 108 26 36 -1 55 3 64 14 12
14 10 20 -15 39 l-29 23 22 28 c26 33 28 52 7 75 -14 16 -6 25 92 112 60 53
133 125 163 161 l55 66 55 0 c31 1 94 -4 140 -9 85 -11 327 -66 350 -80 7 -4
16 -25 19 -45 8 -48 41 -74 106 -81 42 -5 56 -2 86 18 19 14 56 28 82 31 66 9
126 40 251 131 113 80 234 149 248 140 4 -3 8 -14 8 -25 0 -11 10 -23 24 -28
13 -5 26 -19 29 -32 5 -20 10 -22 67 -16 78 7 147 47 173 100 10 20 22 37 27
37 4 0 50 -13 103 -29 52 -16 122 -35 155 -41 l61 -12 3 -42 c3 -37 6 -41 33
-44 17 -2 35 -7 40 -12 14 -11 257 -9 272 2 19 15 27 -11 9 -31 -20 -22 -20
-48 0 -59 8 -5 21 -20 27 -33 15 -29 49 -36 79 -15 32 23 78 21 78 -2 0 -11
-9 -27 -20 -37 -35 -31 -26 -53 25 -60 60 -10 138 11 187 49 52 39 57 53 22
62 -25 6 -26 8 -10 20 14 10 15 17 7 33 -6 11 -11 33 -11 48 0 33 -16 53 -42
53 -18 0 -18 1 -1 26 13 20 14 30 5 44 -13 21 -2 34 39 43 41 10 90 48 133
104 23 29 67 71 99 93 51 35 65 40 116 40 77 0 146 22 211 68 59 41 73 74 33
80 -17 3 -23 10 -23 29 0 15 -7 35 -16 45 -15 15 -15 23 -4 63 15 55 9 135
-14 170 -10 15 -37 35 -60 46 -49 21 -213 39 -366 39 -119 0 -130 5 -130 60 0
30 8 44 46 80 94 91 133 235 81 295 -16 19 -35 28 -67 32 -39 4 -48 1 -69 -21
l-24 -25 -35 24 c-56 38 -129 51 -215 36 -40 -6 -115 -19 -167 -27 -52 -9
-140 -16 -195 -16 -92 -1 -109 3 -210 39 -60 22 -111 42 -113 46 -8 17 23 125
45 157 13 19 23 44 23 56 0 12 9 52 21 90 19 62 20 75 9 163 -9 80 -9 108 4
168 17 79 12 110 -26 150 -19 20 -22 21 -61 7 -23 -8 -46 -13 -52 -10 -6 2
-17 24 -24 47 -31 105 -107 155 -223 147 -46 -4 -68 -2 -69 6 -5 50 24 128 73
194 l39 52 -1721 0 -1720 0 0 -273z m719 -2784 c24 -46 14 -79 -45 -143 -31
-33 -95 -115 -143 -183 -187 -265 -266 -365 -304 -388 -77 -43 -197 -7 -197
59 0 30 53 165 80 202 11 16 20 32 20 38 0 5 7 16 17 23 9 8 31 47 50 87 80
177 202 299 429 432 l69 40 6 -73 c4 -40 11 -83 18 -94z"/>
<path d="M3832 15923 c11 -105 23 -145 69 -234 37 -71 102 -151 159 -195 14
-10 33 -41 42 -69 40 -120 44 -126 114 -181 38 -29 78 -54 90 -54 15 0 28 15
50 62 33 70 61 95 124 109 55 12 108 36 136 61 18 16 34 18 95 16 l74 -3 -3
-51 c-2 -30 3 -66 12 -87 13 -33 19 -37 50 -37 61 0 126 37 126 72 0 10 -4 18
-10 18 -28 0 -3 20 55 45 69 29 95 59 95 108 0 14 7 30 15 37 20 16 19 57 -1
68 -10 6 -17 26 -19 56 -3 45 -1 49 39 77 60 44 86 92 86 159 0 30 -3 65 -6
78 l-6 22 -697 0 -697 0 8 -77z"/>
<path d="M1589 10806 c-46 -16 -131 -68 -187 -113 l-43 -35 7 49 c6 47 4 51
-26 76 -17 15 -41 27 -52 27 -43 0 -292 -151 -454 -275 -75 -58 -82 -61 -93
-44 -11 19 -13 18 -59 -5 -132 -67 -255 -184 -356 -339 -81 -125 -120 -164
-242 -244 l-84 -54 0 -345 0 -344 87 66 c53 41 89 62 91 54 2 -6 -1 -17 -7
-23 -29 -29 5 -77 56 -77 36 0 83 40 83 70 0 13 9 24 25 30 14 5 25 16 25 24
0 7 11 21 25 30 14 9 23 21 20 26 -4 6 -2 10 2 10 12 0 123 103 123 115 0 6
19 22 42 37 36 22 44 25 51 13 6 -11 26 -15 67 -15 49 0 64 4 90 26 17 15 37
39 46 55 9 17 23 29 35 29 21 0 94 34 103 49 9 15 196 23 275 11 106 -15 152
-38 199 -101 68 -92 98 -119 129 -119 40 1 97 23 137 53 34 27 76 101 76 137
0 29 37 46 59 26 21 -19 42 -20 90 -5 138 44 151 54 186 155 30 84 31 110 6
124 -19 9 -19 11 -1 57 10 27 21 71 24 98 6 43 4 55 -14 78 l-21 27 24 0 c27
0 71 31 87 60 14 26 2 50 -25 50 -29 0 -41 16 -25 35 6 8 10 26 8 42 -3 24 -8
28 -41 31 -36 3 -37 4 -22 25 23 33 19 76 -8 86 -38 15 -46 34 -49 121 -3 73
-6 85 -21 88 -10 2 -26 0 -35 -4 -9 -4 -57 -6 -107 -5 -81 2 -96 -1 -151 -27
l-61 -30 16 45 c16 44 16 45 -8 64 -27 22 -52 23 -102 5z"/>
<path d="M1 10209 c1 -107 3 -187 6 -177 2 9 18 22 34 29 53 21 87 64 99 126
12 56 12 58 -14 79 -23 20 -24 26 -14 54 9 27 8 35 -9 52 -11 11 -39 22 -62
25 l-41 6 1 -194z"/>
<path d="M4418 9737 c-44 -32 -54 -34 -154 -40 -87 -5 -111 -3 -130 10 -18 12
-37 14 -80 8 -80 -10 -239 -50 -319 -80 -79 -29 -78 -23 3 20 63 33 80 67 46
92 -44 32 -207 2 -335 -62 -58 -30 -69 -39 -69 -60 0 -30 41 -58 111 -76 47
-12 47 -13 32 -36 -8 -13 -25 -23 -36 -23 -81 0 -266 -78 -345 -145 -32 -28
-41 -44 -47 -80 -9 -67 4 -78 80 -72 192 17 292 41 436 103 45 18 83 34 85 34
3 0 9 -11 14 -24 8 -21 17 -25 57 -28 46 -3 48 -4 67 -51 l20 -47 -21 -44
c-19 -38 -27 -44 -58 -48 -27 -3 -39 0 -45 13 -23 41 -174 28 -278 -25 -26
-13 -97 -58 -158 -99 -217 -145 -232 -161 -169 -179 40 -12 104 -2 143 22 44
27 90 18 94 -19 3 -26 3 -26 98 -28 84 -1 112 4 238 40 l143 40 94 -93 c52
-52 95 -103 97 -114 2 -11 28 -37 58 -58 43 -30 65 -38 100 -39 44 0 44 -1
-25 -18 -160 -39 -251 -115 -279 -233 -6 -25 -4 -27 37 -33 30 -5 55 -2 81 9
53 22 77 20 140 -11 52 -25 56 -26 74 -10 10 9 29 17 43 17 13 0 47 11 75 24
l52 24 -8 -31 c-5 -18 -14 -58 -20 -89 -8 -43 -16 -58 -28 -58 -20 0 -60 -48
-91 -108 -19 -36 -24 -41 -41 -32 -11 6 -20 23 -22 43 -3 32 -3 32 -62 35 -39
2 -80 -4 -120 -17 -34 -10 -80 -23 -103 -29 -41 -9 -44 -8 -81 27 l-39 37 25
32 c21 28 22 33 8 38 -9 3 -34 -1 -56 -10 -38 -15 -40 -15 -40 2 0 30 -29 61
-65 68 -19 3 -39 12 -46 20 -18 22 -60 16 -105 -14 -63 -42 -104 -79 -104 -94
0 -8 -9 -31 -20 -53 -11 -22 -20 -44 -20 -50 0 -15 58 -45 88 -45 45 0 12 -16
-126 -60 -132 -42 -162 -61 -162 -101 0 -18 30 -49 48 -49 6 0 19 9 30 20 19
21 78 45 157 64 44 11 55 10 90 -6 22 -9 47 -18 56 -18 9 0 24 -9 34 -20 42
-46 214 -72 313 -46 77 20 72 20 72 -1 0 -10 6 -30 14 -44 7 -14 16 -79 20
-148 7 -120 7 -122 -13 -112 -25 14 -136 14 -161 1 -16 -9 -22 -5 -34 19 -9
17 -34 38 -61 51 -66 32 -197 26 -276 -13 -69 -34 -133 -88 -149 -127 -19 -45
0 -77 80 -139 39 -29 70 -55 70 -57 0 -3 -7 -16 -16 -29 -27 -41 -13 -55 54
-55 46 0 73 7 118 30 32 16 74 30 92 30 18 0 73 16 123 35 50 20 95 35 100 33
5 -2 -52 -32 -126 -67 -100 -47 -135 -68 -133 -80 3 -13 18 -16 81 -16 42 1
77 -3 77 -8 0 -15 72 -38 111 -36 21 2 44 -2 51 -9 17 -17 43 -15 89 9 23 11
42 19 44 17 2 -2 6 -20 10 -40 7 -36 6 -38 -18 -38 -13 0 -48 -7 -76 -17 l-51
-16 0 -72 c0 -56 4 -74 15 -79 8 -3 15 -12 15 -20 0 -17 29 -36 54 -36 8 0 40
11 70 25 30 14 58 25 63 25 4 -1 24 -35 43 -78 19 -42 45 -91 57 -109 39 -58
35 -74 -26 -95 -30 -11 -83 -22 -118 -25 -56 -5 -70 -3 -118 22 l-55 27 20 25
c27 34 26 79 -1 94 -52 27 -189 -24 -189 -71 0 -11 -9 -28 -20 -37 -11 -10
-20 -25 -20 -35 0 -16 -10 -18 -87 -18 -137 0 -193 -9 -193 -31 0 -24 34 -45
85 -54 67 -10 69 -18 15 -50 -58 -34 -63 -55 -20 -85 34 -24 129 -60 159 -60
11 0 22 -8 25 -18 4 -10 22 -27 42 -39 l36 -20 -31 -22 c-17 -12 -31 -29 -31
-36 0 -32 86 -30 122 2 19 17 39 15 144 -16 39 -12 111 -27 160 -34 l89 -13 3
-65 c2 -56 -4 -84 -42 -195 -25 -71 -50 -153 -57 -182 -9 -46 -13 -51 -23 -36
-10 12 -20 15 -41 10 l-28 -7 6 -142 c4 -78 11 -338 17 -577 6 -251 17 -482
25 -545 23 -178 37 -367 30 -413 -4 -24 -22 -93 -42 -155 -25 -80 -34 -123
-30 -153 4 -37 2 -43 -17 -48 -42 -11 -97 -5 -208 23 -62 16 -169 34 -238 41
-69 6 -150 18 -181 26 -31 8 -101 14 -155 15 -108 0 -104 8 14 29 65 12 72 15
72 37 0 22 -2 23 -91 23 l-91 0 32 26 c30 26 30 27 13 46 -15 17 -26 19 -65
15 -60 -7 -76 8 -54 52 9 16 24 36 34 43 19 14 82 104 82 117 0 5 -7 14 -15
21 -25 21 -74 -9 -131 -79 -27 -33 -52 -61 -55 -61 -6 0 -23 352 -35 708 -3
101 -3 262 1 358 l8 174 43 25 c52 31 64 63 64 184 0 66 -4 91 -21 121 -28 50
-62 69 -91 51 l-21 -13 8 150 c6 140 5 153 -15 199 l-21 48 7 803 c6 720 9
804 23 811 9 4 79 27 156 51 141 43 211 72 253 106 21 17 21 21 8 39 -13 18
-18 19 -68 8 -29 -6 -60 -14 -69 -18 -11 -4 -18 0 -22 14 -7 30 -44 27 -211
-14 -273 -69 -573 -169 -578 -193 -2 -10 -93 -44 -267 -99 -318 -101 -329
-106 -340 -136 -8 -19 -52 -41 -251 -121 -133 -54 -324 -135 -424 -180 -179
-81 -181 -82 -184 -116 l-3 -33 58 6 c32 4 86 18 120 32 35 14 64 25 65 25 2
0 4 -141 6 -313 1 -171 7 -456 12 -632 6 -176 15 -518 20 -760 6 -242 14 -543
20 -670 18 -433 23 -700 13 -690 -5 6 -26 34 -47 63 -27 37 -44 52 -61 52 -36
0 -38 -15 -15 -86 12 -36 19 -68 16 -71 -3 -4 -17 -1 -31 5 -58 27 -115 8
-115 -37 l0 -29 -81 -4 c-80 -3 -82 -4 -114 -41 -40 -46 -63 -47 -201 -12
-137 35 -196 33 -324 -11 -88 -31 -123 -37 -217 -42 l-113 -5 0 -393 0 -394
4040 0 4040 0 0 423 -1 422 -66 45 c-63 42 -124 100 -253 237 -62 67 -143 111
-218 119 -42 5 -55 1 -123 -40 -95 -56 -201 -135 -272 -204 -58 -55 -76 -62
-97 -37 -7 9 -29 15 -51 15 -33 0 -39 3 -39 21 0 44 -18 59 -70 59 -60 0 -110
-36 -110 -80 0 -25 -6 -30 -72 -54 -69 -24 -80 -25 -215 -21 -141 5 -142 6
-172 35 -16 17 -35 30 -41 30 -22 0 -68 -57 -81 -98 -7 -23 -15 -42 -19 -42
-3 0 -33 -16 -65 -35 -65 -40 -107 -43 -113 -10 -7 34 -23 45 -68 45 -45 0
-63 -11 -95 -60 l-16 -25 -37 33 c-20 17 -47 34 -61 38 -28 7 -102 1 -127 -10
-15 -7 -18 -3 -18 27 0 66 -74 88 -141 43 -24 -16 -38 -35 -42 -56 l-7 -30
-152 7 c-138 7 -460 7 -657 1 l-75 -3 -44 89 c-82 169 -134 371 -153 601 -13
150 -6 560 11 740 25 259 33 308 51 326 10 10 25 33 32 51 18 41 220 238 307
300 36 25 77 48 93 52 15 3 38 9 52 12 17 4 32 1 44 -10 15 -14 32 -16 92 -11
41 3 94 2 119 -2 39 -7 45 -12 48 -35 2 -19 19 -37 60 -65 145 -101 204 -117
210 -59 3 22 -4 35 -28 57 -17 16 -30 34 -28 40 5 14 67 37 133 51 61 12 75
23 75 58 0 53 -109 130 -186 130 -11 0 -31 11 -43 24 l-22 23 40 32 c48 38 81
89 81 124 0 23 -5 27 -57 37 -32 6 -72 16 -88 22 -26 9 -39 6 -90 -20 -33 -16
-114 -51 -180 -77 -145 -57 -211 -91 -290 -150 -54 -41 -65 -45 -115 -45 -30
0 -65 -3 -77 -6 -13 -4 -23 -2 -23 3 0 6 48 59 108 120 59 60 134 149 167 196
37 53 67 86 78 87 10 0 37 10 60 21 l42 21 -27 -29 c-29 -30 -35 -48 -19 -57
5 -4 60 21 123 55 137 74 268 140 268 136 0 -2 -36 -32 -80 -68 -47 -37 -79
-70 -78 -79 5 -25 76 -25 109 -1 16 12 37 21 48 21 11 0 78 20 149 45 129 45
157 48 176 17 16 -28 157 9 270 71 l61 34 30 -19 c59 -36 134 -2 90 41 -35 34
-116 71 -156 71 -70 0 -73 7 -26 64 75 89 89 113 78 135 -13 24 -32 31 -83 31
-30 0 -39 3 -35 14 3 7 -1 23 -10 35 -9 14 -12 32 -9 47 9 34 -12 52 -65 56
-33 2 -43 7 -40 18 17 68 11 80 -45 80 -31 0 -162 -42 -247 -79 -44 -19 -51
-20 -70 -6 -21 15 -20 15 13 16 61 1 115 22 115 44 0 12 21 36 55 61 30 23 83
71 118 106 56 58 63 69 60 99 -3 32 -5 34 -44 37 -48 4 -166 -37 -276 -95
l-74 -38 24 42 c26 47 74 89 142 123 24 13 61 34 82 47 37 25 108 47 108 34 0
-14 77 -31 138 -31 33 0 72 -7 88 -15 34 -18 117 -19 180 -4 39 10 44 15 44
40 0 15 5 31 10 34 15 9 12 51 -3 64 -24 19 -138 51 -186 51 -43 1 -45 2 -27
15 11 8 32 15 47 15 17 0 35 9 47 25 15 18 29 25 56 25 20 0 62 8 94 19 31 10
98 21 147 24 58 3 111 13 148 27 76 28 70 51 -17 65 l-39 6 33 34 c20 20 30
40 27 49 -7 19 -47 45 -92 60 l-35 13 25 11 c19 9 25 19 25 41 0 38 -29 55
-84 49 -48 -6 -85 11 -133 60 -46 47 -94 45 -143 -6 -41 -44 -74 -57 -91 -36
-18 22 -49 16 -78 -14 -20 -22 -45 -33 -101 -46 -41 -9 -85 -19 -97 -22 -17
-5 -23 -2 -23 9 0 35 -88 51 -126 22 -31 -23 -43 -18 -46 22 -2 28 -9 41 -27
49 -23 12 -23 13 27 38 28 14 53 34 57 45 6 19 90 56 186 81 101 27 258 131
274 181 15 46 -74 79 -214 80 -78 0 -93 2 -77 12 52 33 61 45 50 64 -9 15 -25
18 -80 18 -54 0 -69 3 -72 15 -4 23 -38 40 -92 47 l-48 6 5 36 c3 20 10 44 14
53 14 27 10 49 -12 67 -21 17 -19 18 98 73 66 31 186 84 267 119 133 57 163
77 136 94 -5 3 -39 -1 -75 -10 -87 -20 -92 -19 -67 8 25 27 29 69 7 87 -20 16
-66 0 -145 -51 -33 -21 -63 -39 -65 -39 -3 0 -5 10 -5 23 0 59 -75 65 -144 12
-29 -22 -57 -35 -76 -35 -38 0 -98 -24 -126 -51 -30 -28 -48 -131 -41 -228 4
-58 2 -81 -9 -95 -19 -26 -18 -70 2 -87 13 -11 6 -16 -53 -35 -97 -33 -109
-31 -153 19 l-38 42 -90 3 c-103 4 -175 -8 -249 -43 -49 -22 -53 -27 -53 -58
0 -39 16 -57 62 -66 20 -4 38 -16 45 -31 13 -24 9 -29 -84 -117 -54 -51 -106
-92 -116 -93 -10 0 -29 -12 -43 -27 l-25 -28 6 30 c4 17 13 66 19 109 10 67
15 80 34 87 18 7 22 16 22 53 0 49 -24 76 -67 76 -28 0 -31 6 -39 74 l-7 56
64 0 c101 0 212 30 377 102 88 39 93 42 89 67 -4 18 1 33 16 49 17 18 19 26
10 40 -19 30 -86 18 -185 -33 -88 -45 -120 -53 -146 -36 -11 6 -8 12 10 27 39
31 41 42 11 79 -27 34 -30 35 -99 35 l-70 0 -10 38 -9 37 -126 7 c-70 3 -154
13 -188 22 -70 18 -84 14 -125 -35 -35 -41 -35 -91 0 -124 21 -20 23 -26 13
-43 -16 -25 -5 -52 20 -52 14 0 21 -10 26 -37 13 -71 66 -145 130 -182 16 -9
8 -10 -40 -5 -59 7 -61 8 -132 84 -40 43 -102 101 -137 130 l-65 53 30 29 c23
24 29 38 29 75 0 56 32 121 107 223 68 91 65 88 70 73 11 -32 148 -6 255 48
65 33 283 121 346 140 49 14 64 46 41 88 -33 58 -121 91 -246 91 l-67 0 34 35
c44 45 20 46 -42 2z m512 -1297 c0 -5 -9 -14 -20 -20 -11 -6 -18 -15 -15 -20
3 -4 -10 -18 -29 -29 -96 -60 -136 -151 -80 -187 34 -23 21 -32 -67 -51 -41
-8 -99 -25 -129 -38 -96 -40 -100 -40 -100 -10 0 30 95 131 213 225 38 30 84
74 103 98 32 38 40 42 80 42 24 0 44 -4 44 -10z m-309 -446 c-50 -53 -80 -115
-81 -162 0 -30 5 -35 46 -54 38 -16 64 -20 138 -17 50 1 110 2 132 1 l41 -2 6
-52 c3 -29 1 -57 -4 -62 -12 -14 -11 -50 5 -124 11 -54 11 -70 -1 -110 -23
-72 -32 -87 -57 -88 -20 -2 -22 3 -22 40 l1 41 -45 3 c-25 2 -53 10 -62 19
-13 11 -31 14 -68 11 -27 -3 -50 -2 -50 2 0 9 57 50 105 75 88 47 116 155 39
155 -12 0 -27 7 -34 15 -7 8 -24 15 -39 15 -37 0 -157 -81 -266 -179 -99 -89
-185 -143 -185 -117 0 8 -9 20 -20 26 -25 13 -21 33 37 210 41 126 48 139 106
205 35 38 75 86 90 107 21 29 42 41 99 61 40 14 86 26 102 26 l29 1 -42 -46z
m537 -226 c38 -21 42 -27 42 -60 0 -36 -23 -73 -125 -195 -43 -52 -67 1 -82
189 l-6 77 54 4 c30 2 59 4 64 5 6 1 29 -8 53 -20z m122 -377 c0 -14 -11 -23
-37 -31 -44 -14 -95 -43 -136 -77 -20 -16 -41 -23 -73 -23 -24 0 -44 3 -44 8
1 13 64 78 90 93 24 14 148 46 183 48 10 1 17 -6 17 -18z m-584 -208 c-8 -28
-25 -156 -36 -278 -13 -127 -21 -166 -62 -293 -24 -74 -35 -96 -55 -105 -19
-9 -26 -8 -34 4 -17 27 -9 45 41 83 55 42 62 69 18 74 -30 4 -90 -24 -135 -62
-35 -30 -43 -26 -43 23 0 20 -5 54 -11 75 -9 34 -9 40 8 49 10 6 46 38 80 71
50 48 61 64 57 82 -4 14 2 33 17 53 18 25 20 33 9 46 -7 8 -24 15 -39 15 -15
0 -31 8 -39 20 -9 15 -23 20 -58 20 -40 0 -51 -5 -80 -36 -19 -19 -34 -40 -34
-45 0 -5 -9 -9 -20 -9 -11 0 -20 2 -20 4 0 2 -12 30 -26 62 -18 42 -21 54 -9
44 33 -27 256 25 407 95 63 30 71 30 64 8z m259 -79 c34 -22 47 -62 35 -103
-8 -27 -6 -40 6 -58 14 -23 13 -26 -28 -72 -24 -27 -59 -77 -77 -111 -29 -55
-33 -68 -27 -111 4 -30 2 -57 -5 -70 l-11 -21 -15 22 c-13 19 -23 22 -63 18
l-48 -5 4 51 c2 28 9 127 16 221 l12 169 85 82 86 83 3 -40 c2 -28 10 -44 27
-55z m-2857 -81 c-111 -114 -173 -313 -148 -471 14 -87 69 -191 130 -245 59
-52 207 -116 293 -125 53 -6 62 -10 65 -28 4 -25 -53 -74 -120 -104 -189 -83
-402 -25 -507 138 -102 161 -112 372 -24 547 31 61 109 168 156 213 27 26 168
111 187 112 2 0 -12 -17 -32 -37z m3128 -424 c24 -25 35 -30 66 -27 24 2 39
-1 42 -9 3 -7 13 -13 23 -13 24 0 5 -16 -29 -24 -16 -3 -30 -1 -34 5 -8 14
-94 5 -154 -16 -43 -15 -90 -20 -90 -9 0 4 51 83 66 103 2 3 49 15 75 20 3 1
18 -13 35 -30z m-670 -293 c3 -14 -4 -65 -15 -114 -12 -49 -21 -103 -21 -120
0 -22 -11 -43 -35 -69 -19 -21 -41 -47 -49 -58 -13 -18 -15 -15 -21 39 -12 93
-1 257 17 267 9 5 35 25 58 44 50 42 58 43 66 11z"/>
</g>
</svg>
