<?xml version="1.0" standalone="no"?>
<!DOCTYPE svg PUBLIC "-//W3C//DTD SVG 20010904//EN"
 "http://www.w3.org/TR/2001/REC-SVG-20010904/DTD/svg10.dtd">
<svg version="1.0" xmlns="http://www.w3.org/2000/svg"
 width="1100.000000pt" height="800.000000pt" viewBox="0 0 1100.000000 800.000000"
 preserveAspectRatio="xMidYMid meet">
<metadata>
Created by potrace 1.13, written by Peter Selinger 2001-2015
</metadata>
<g transform="translate(0.000000,800.000000) scale(0.100000,-0.100000)"
fill="#000000" stroke="none">
<path d="M43 7972 l-43 -27 2 -157 2 -158 38 0 c32 0 40 -4 48 -25 5 -14 21
-30 34 -35 14 -5 30 -18 36 -30 14 -27 44 -27 35 0 -9 28 9 25 23 -4 13 -30
80 -46 97 -23 8 11 16 13 26 6 8 -5 24 -9 37 -9 12 0 22 -6 22 -13 0 -18 43
-37 82 -37 30 0 30 1 14 19 -16 17 -16 19 4 24 14 4 32 -6 62 -34 23 -21 48
-39 54 -39 20 0 26 18 15 39 -17 31 32 35 65 5 14 -13 33 -24 42 -24 20 1 76
49 85 73 8 22 15 21 77 -3 55 -22 70 -24 70 -12 0 4 -30 22 -66 40 -47 24 -64
36 -56 44 6 6 8 16 6 22 -8 20 42 36 89 30 35 -5 45 -2 61 15 32 35 10 44 -96
39 -71 -4 -98 -1 -116 10 l-22 15 25 33 c22 29 24 35 11 40 -9 3 -29 1 -46 -5
-49 -17 -25 7 34 35 64 30 77 30 122 -1 39 -27 59 -31 69 -15 3 6 19 10 36 10
22 0 29 5 29 20 0 24 4 25 35 4 13 -9 32 -14 42 -12 15 3 13 8 -14 37 -18 18
-33 34 -33 37 0 2 14 4 30 4 35 0 81 -21 122 -56 15 -12 54 -28 85 -34 88 -18
85 -17 71 -40 -11 -16 -10 -23 4 -37 16 -16 20 -16 51 -1 28 13 36 14 52 2 26
-19 81 -18 89 2 8 21 2 29 -36 45 -31 12 -47 26 -48 39 0 10 64 30 93 30 15 0
27 4 27 9 0 5 9 11 20 14 25 7 25 22 0 47 -15 15 -34 20 -77 20 -35 1 -66 6
-77 15 -11 8 -32 15 -47 15 -15 0 -29 4 -31 9 -2 6 -44 6 -112 -1 -83 -9 -111
-8 -114 0 -6 18 -69 14 -147 -7 -40 -11 -71 -16 -73 -10 -2 5 -12 9 -23 9 -10
0 -19 5 -19 10 0 6 -25 10 -56 10 -66 0 -116 -26 -190 -98 -60 -59 -114 -73
-204 -56 -35 6 -60 20 -60 33 0 4 15 15 33 25 17 10 47 35 65 56 l33 38 -228
0 -228 1 -42 -27z"/>
<path d="M3990 7185 c0 -8 -6 -15 -14 -15 -23 0 -27 -16 -12 -44 15 -30 10
-90 -6 -62 -15 27 -30 18 -27 -16 1 -18 -2 -41 -6 -50 -4 -9 -4 -22 0 -28 3
-6 -3 -10 -14 -10 -14 0 -21 -6 -21 -19 0 -10 -7 -24 -15 -31 -20 -17 -19 -27
5 -47 30 -26 24 -41 -17 -45 -35 -3 -38 -6 -36 -30 1 -16 -2 -28 -7 -28 -14 0
-20 31 -9 51 12 23 -3 49 -28 49 -8 0 -23 10 -33 23 -29 34 -55 13 -56 -47 -1
-36 -6 -50 -22 -62 -12 -8 -22 -22 -22 -31 0 -12 10 -14 59 -8 50 6 67 3 109
-16 38 -17 48 -27 44 -41 -2 -11 -14 -18 -28 -18 -31 0 -32 -28 -2 -39 14 -5
17 -10 10 -15 -7 -4 -12 -14 -12 -23 0 -11 7 -14 26 -10 16 3 28 0 31 -9 3 -8
14 -14 25 -14 18 0 19 -4 13 -42 -9 -55 -11 -57 -35 -51 -16 4 -20 0 -20 -21
0 -14 -4 -26 -10 -26 -5 0 -18 -10 -30 -22 -28 -30 -25 -13 5 26 30 40 32 60
5 53 -13 -3 -21 1 -25 14 -10 31 -32 22 -39 -16 -4 -20 -11 -33 -15 -31 -5 3
-20 0 -35 -7 -21 -9 -25 -17 -21 -34 4 -15 1 -23 -8 -23 -30 0 -48 -24 -41
-58 6 -32 35 -45 49 -22 11 18 35 10 45 -15 5 -14 14 -25 19 -25 15 0 33 29
25 42 -5 9 -4 10 3 3 6 -5 13 -24 16 -41 6 -30 4 -32 -33 -38 -21 -3 -52 -14
-69 -23 -26 -15 -30 -23 -26 -42 4 -13 1 -27 -5 -31 -17 -11 0 -42 21 -37 21
6 24 0 41 -76 5 -23 21 -49 42 -67 24 -22 32 -36 29 -53 -4 -18 2 -26 22 -35
21 -10 25 -17 19 -35 -9 -30 -11 -32 -27 -19 -17 15 -27 6 -27 -25 0 -14 -3
-23 -7 -21 -62 29 -82 45 -87 64 -4 13 -16 33 -28 44 -19 18 -21 22 -8 31 8 5
25 8 37 6 14 -3 25 3 33 19 14 26 6 44 -19 44 -16 0 -17 4 -8 40 12 44 7 56
-20 45 -10 -4 -28 -7 -40 -6 -19 2 -23 -3 -23 -26 0 -21 -8 -33 -31 -47 -17
-10 -35 -29 -41 -42 -6 -13 -17 -24 -25 -24 -7 0 -13 -6 -13 -14 0 -20 -43
-29 -53 -11 -14 26 -37 17 -37 -15 0 -30 0 -30 -47 -23 l-46 6 6 -48 c4 -26 7
-56 7 -67 0 -31 29 -33 60 -3 31 30 58 28 67 -4 5 -19 5 -19 24 0 10 10 19 24
19 29 0 6 20 10 44 10 25 0 48 -4 51 -10 10 -15 25 -12 25 6 0 9 7 14 16 12
18 -3 103 -133 104 -157 0 -19 39 -51 62 -51 12 0 18 -7 18 -23 0 -12 7 -32
15 -44 8 -12 12 -29 9 -38 -6 -14 -8 -14 -25 1 -18 16 -21 16 -44 -6 -14 -13
-25 -18 -25 -12 0 15 -46 16 -55 1 -8 -12 -45 18 -45 37 0 7 16 18 36 24 44
15 43 43 -1 48 -17 2 -34 10 -38 18 -11 19 -33 18 -41 -1 -4 -11 -13 -14 -32
-9 -24 6 -26 4 -22 -14 4 -13 0 -23 -8 -26 -18 -7 -18 -30 0 -45 7 -6 11 -22
8 -36 -3 -18 0 -25 12 -25 9 0 16 -8 16 -20 0 -30 19 -24 34 10 9 23 15 27 24
18 18 -18 14 -45 -8 -51 -28 -7 -25 -19 10 -39 25 -14 29 -22 24 -43 -5 -19
-2 -25 9 -25 9 0 19 5 22 10 8 12 45 13 45 1 0 -5 -7 -11 -15 -15 -8 -3 -15
-15 -15 -26 0 -16 -7 -20 -37 -21 -33 0 -35 -1 -15 -9 25 -11 28 -23 9 -38
-22 -18 -56 -3 -59 27 -2 22 -8 26 -30 24 -32 -2 -38 13 -9 22 23 7 36 34 18
40 -6 2 -27 6 -46 9 -19 3 -40 15 -48 26 -17 24 -33 26 -33 5 0 -8 -7 -15 -16
-15 -17 0 -44 -23 -44 -39 0 -5 8 -14 17 -20 15 -8 15 -13 5 -36 -16 -34 -15
-45 3 -45 8 0 21 12 30 28 l16 27 -6 -37 c-4 -29 -3 -38 8 -38 8 0 20 -6 26
-13 9 -12 -11 -15 -117 -20 -166 -8 -224 -25 -257 -77 -13 -21 -33 -41 -44
-45 -40 -12 -120 -153 -121 -212 0 -12 -16 -39 -36 -60 -60 -64 -93 -160 -115
-333 -9 -67 -13 -398 -14 -1140 -2 -991 -6 -1161 -29 -1092 -12 37 -28 26 -23
-17 3 -33 1 -40 -16 -45 -28 -7 -49 12 -41 37 6 17 3 19 -22 13 l-29 -8 29 30
c26 28 29 52 5 52 -10 0 -61 -55 -94 -101 -25 -36 -33 -36 -37 -1 -2 19 -9 27
-23 27 -18 0 -20 -7 -21 -61 -1 -34 -4 -66 -8 -72 -3 -5 -24 -12 -45 -14 -37
-3 -40 -1 -45 26 -5 25 -65 96 -81 96 -12 0 -4 -79 15 -145 11 -38 20 -71 20
-72 0 -6 -97 -1 -140 6 l-45 7 38 19 c55 28 46 39 -24 31 l-61 -6 71 58 c95
76 66 82 -45 8 -46 -31 -86 -56 -89 -56 -3 0 6 22 20 50 14 27 25 52 25 55 0
14 -31 2 -44 -17 -9 -12 -16 -18 -17 -13 0 6 0 48 0 95 0 58 -3 79 -9 65 -5
-11 -9 -44 -9 -73 -1 -33 -5 -51 -11 -47 -5 3 -10 45 -10 93 0 126 -19 91 -22
-42 -3 -120 -17 -145 -43 -83 -32 77 -45 51 -21 -41 l15 -54 -37 6 c-21 4 -47
18 -60 33 -13 14 -38 29 -55 32 -21 5 -39 18 -52 39 -11 17 -23 31 -27 32 -14
0 -8 -24 17 -77 l24 -53 -22 -5 c-39 -8 -157 -10 -157 -2 0 4 -7 7 -15 7 -13
0 -15 7 -9 35 4 22 2 35 -4 35 -6 0 -9 15 -7 38 4 33 3 33 -6 -8 -6 -25 -17
-63 -24 -85 l-13 -40 -17 40 c-26 60 -138 387 -174 508 l-32 107 20 44 c10 25
37 68 59 98 70 94 72 101 72 268 0 177 7 200 68 218 22 7 47 12 56 12 23 0 78
29 93 49 23 29 16 67 -14 80 -37 16 -63 39 -92 79 -16 22 -29 32 -41 29 -34
-9 -42 6 -28 57 11 41 15 46 33 41 11 -4 55 -9 98 -12 67 -5 77 -3 77 11 0 9
-5 16 -12 16 -6 0 -3 9 7 20 17 18 17 20 1 20 -9 0 -31 -8 -49 -17 -32 -17
-69 -18 -96 -3 -9 5 -1 10 25 14 57 10 74 16 74 27 0 5 -20 9 -45 9 -49 0 -53
4 -29 31 13 15 27 17 83 12 49 -4 83 -1 127 12 56 17 58 18 32 27 -15 5 -28
16 -30 25 -2 12 -8 11 -31 -7 -17 -14 -48 -24 -75 -27 l-47 -5 43 27 c60 37
53 60 -12 35 -24 -9 -24 -7 14 63 38 70 50 117 30 117 -5 0 -21 -25 -35 -55
-15 -30 -45 -78 -67 -106 -22 -28 -41 -57 -42 -65 -5 -32 -130 -134 -164 -134
-6 0 -8 17 -5 41 5 32 3 41 -7 37 -23 -7 -40 -76 -34 -133 6 -49 5 -52 -17
-58 -15 -4 -30 0 -41 10 -22 19 -22 31 -4 69 8 16 17 48 21 72 6 35 4 42 -9
42 -10 0 -19 -12 -23 -30 -3 -17 -9 -32 -12 -35 -14 -8 -87 42 -100 70 -8 17
-15 56 -15 88 -1 31 -5 57 -11 57 -16 -1 -26 -51 -21 -103 l5 -47 -34 25 c-33
26 -74 108 -90 183 -3 17 -11 32 -16 32 -12 0 -11 -92 1 -126 13 -33 11 -35
-26 -26 -22 6 -38 24 -67 73 -20 35 -42 66 -47 67 -30 10 8 -103 48 -145 18
-18 109 -53 139 -53 5 0 20 -11 33 -25 13 -14 19 -25 14 -25 -24 0 -92 24
-116 41 -31 23 -38 24 -38 5 0 -38 95 -84 209 -100 43 -7 101 -33 101 -47 0
-4 -29 -4 -65 -1 -58 4 -65 3 -65 -13 0 -10 27 -45 60 -78 56 -56 58 -61 45
-80 -19 -27 -19 -78 0 -103 24 -32 18 -95 -13 -145 -27 -42 -32 -45 -118 -67
-49 -12 -118 -36 -153 -52 -82 -39 -139 -40 -206 -3 -46 26 -60 28 -187 31
-131 4 -140 3 -195 -23 -32 -14 -74 -39 -93 -54 -21 -16 -53 -30 -78 -34 -50
-6 -81 -31 -119 -96 -26 -44 -26 -44 -7 -78 10 -19 31 -45 46 -58 15 -13 28
-28 28 -34 0 -6 14 -11 30 -11 36 0 36 0 10 50 -30 58 -36 120 -16 158 9 18
24 32 33 32 14 0 14 -3 -4 -22 -30 -34 -34 -55 -22 -103 12 -49 40 -82 113
-131 34 -23 59 -51 83 -94 l34 -62 -46 -51 c-26 -29 -57 -64 -71 -79 -22 -25
-25 -37 -31 -165 -4 -94 -11 -142 -20 -151 -15 -15 -18 -59 -4 -64 5 -2 11
-16 13 -33 3 -28 0 -30 -29 -32 -23 -1 -33 3 -33 13 0 8 -4 14 -10 14 -5 0
-10 -4 -10 -9 0 -20 -31 -39 -75 -45 l-45 -7 0 -181 0 -181 203 6 c111 4 1029
7 2040 7 l1837 0 0 1800 c0 990 -3 1800 -7 1800 -5 0 -8 29 -9 65 0 37 4 65
10 65 5 0 0 10 -12 23 -27 28 -27 36 -4 53 14 11 15 16 4 34 -13 22 -8 45 9
35 5 -4 9 19 9 54 0 33 -5 63 -10 66 -8 5 -7 11 1 21 9 11 8 18 -2 31 -11 13
-11 17 -1 20 19 7 16 73 -4 73 -10 0 -14 5 -10 15 3 8 1 26 -4 40 -5 14 -5 27
0 30 4 3 13 -7 18 -22 9 -23 11 -15 11 48 1 47 -5 90 -14 112 -13 31 -13 36 0
41 12 4 15 25 15 91 0 50 -4 85 -10 85 -5 0 -10 5 -10 11 0 5 5 7 10 4 6 -4
10 20 10 64 0 66 -2 71 -30 91 -16 12 -29 26 -27 32 1 7 -7 14 -18 16 -23 5
-55 31 -55 44 0 5 8 11 18 15 9 3 25 13 35 21 21 18 19 20 50 -48 l25 -55 1
55 c0 30 -4 76 -8 103 -4 26 -4 47 0 47 12 0 8 412 -3 427 -6 7 -5 19 1 30 12
23 13 213 1 213 -5 0 -13 -7 -18 -15 -7 -13 -10 -12 -20 10 -13 27 -42 34 -42
10z m-811 -3564 c-15 -866 -20 -993 -36 -964 -16 27 -17 172 -3 833 10 487 24
831 38 900 13 66 13 -77 1 -769z m-157 682 c-5 -237 -23 -466 -47 -612 -38
-232 -40 -225 -25 89 14 276 55 630 73 630 1 0 1 -48 -1 -107z m303 -350 c-4
-214 -11 -392 -15 -397 -20 -20 -22 61 -11 318 25 592 37 624 26 79z m190 77
c0 -49 -3 -90 -6 -90 -3 0 -14 9 -24 20 -30 33 -37 11 -11 -35 19 -35 21 -45
10 -49 -8 -3 -14 -19 -14 -36 0 -18 -6 -33 -15 -36 -21 -8 -19 -24 3 -24 32 0
33 -13 5 -43 l-28 -29 32 7 c28 6 31 4 26 -14 -7 -29 11 -26 35 4 22 28 32 23
32 -17 0 -16 6 -31 14 -34 8 -3 16 -17 19 -32 3 -15 24 -49 47 -76 29 -35 40
-56 36 -70 -3 -12 -6 -31 -6 -43 0 -14 -6 -23 -15 -23 -8 0 -15 -5 -15 -11 0
-6 -9 -8 -21 -4 -13 5 -25 2 -31 -6 -6 -8 -11 -10 -14 -4 -14 32 -23 40 -35
28 -9 -9 -7 -20 9 -47 16 -28 18 -36 7 -36 -20 0 -29 -19 -16 -34 8 -10 7 -17
-4 -26 -8 -7 -15 -25 -15 -41 l0 -29 40 26 c21 14 45 24 52 21 7 -2 -3 -11
-23 -20 -54 -22 -58 -37 -10 -37 37 0 41 -2 41 -25 0 -38 18 -30 36 15 9 23
18 39 21 37 5 -6 -25 -180 -37 -209 -5 -13 -9 -17 -9 -10 -1 13 -31 17 -31 4
0 -4 -12 -8 -27 -7 -25 0 -28 -3 -25 -32 2 -31 0 -33 -33 -33 -41 0 -45 -13
-9 -36 22 -15 23 -19 10 -26 -34 -19 -17 -31 34 -24 40 5 50 4 50 -7 0 -8 -7
-20 -15 -27 -11 -9 -13 -16 -6 -23 7 -7 22 -1 46 17 39 30 48 28 71 -16 13
-26 14 -35 2 -62 -7 -17 -13 -65 -13 -106 0 -56 -5 -81 -18 -100 -10 -14 -20
-42 -23 -62 -5 -31 -12 -39 -40 -48 -19 -7 -40 -21 -48 -32 -13 -18 -21 -20
-60 -14 l-45 7 6 -38 c5 -31 22 -81 40 -114 2 -4 -12 -17 -32 -29 -19 -12 -35
-29 -35 -38 0 -11 -3 -13 -10 -6 -23 23 -51 1649 -34 1937 l7 105 61 -34 61
-34 0 -90z m-491 -1276 c11 -142 0 -434 -17 -451 -17 -16 -22 16 -22 130 0
167 16 442 25 426 4 -8 11 -55 14 -105z m-2168 -244 c50 -9 97 -21 103 -24 6
-4 11 -28 11 -52 0 -25 7 -73 16 -107 14 -51 15 -87 9 -199 -7 -129 -8 -138
-27 -138 -14 0 -18 5 -14 15 3 8 9 22 12 30 9 23 -10 18 -41 -11 -20 -18 -31
-22 -38 -15 -8 8 -8 14 1 23 14 14 16 42 3 33 -5 -3 -12 4 -16 15 -7 22 -49
28 -61 9 -4 -8 -9 -7 -15 2 -6 10 -9 8 -9 -9 0 -19 -4 -21 -25 -16 -19 5 -25
2 -25 -10 0 -28 -33 -53 -80 -60 -25 -4 -55 -9 -67 -12 -20 -5 -23 -1 -29 35
-8 52 -19 59 -37 24 l-15 -27 -11 39 c-5 21 -16 62 -22 91 l-12 53 63 68 c34
37 67 79 73 93 7 14 16 28 21 32 5 4 2 17 -8 33 -10 14 -24 44 -31 65 l-14 39
37 6 c20 4 48 10 62 14 15 5 38 2 59 -7 19 -7 76 -22 127 -32z m304 -52 c0
-19 99 -188 140 -241 42 -52 73 -148 51 -155 -7 -2 -23 -16 -37 -31 l-26 -26
7 45 c7 39 6 43 -8 32 -12 -10 -16 -10 -21 4 -3 8 -6 26 -6 39 0 13 -4 27 -10
30 -6 4 -10 -11 -10 -37 0 -24 -3 -60 -7 -81 l-6 -38 -24 40 c-31 53 -59 58
-38 7 l14 -33 -47 4 c-44 4 -46 3 -28 -11 19 -15 19 -16 -7 -16 -33 0 -33 2
-7 155 11 64 20 135 20 157 0 46 30 168 42 168 4 0 8 -5 8 -12z m-785 -170
c-11 -49 -10 -63 13 -175 24 -111 27 -159 12 -168 -5 -3 -10 -1 -10 4 0 14
-37 51 -51 51 -8 0 -10 -12 -6 -35 5 -32 4 -35 -20 -35 l-26 0 6 138 c6 150
15 193 49 229 30 32 42 29 33 -9z"/>
<path d="M85 7020 c-16 -4 -42 -5 -57 -2 l-28 5 0 -167 c0 -182 1 -184 61
-152 14 7 43 16 65 20 47 9 84 31 84 51 0 14 10 18 68 30 24 5 38 2 51 -9 14
-13 27 -14 81 -5 34 5 72 15 84 22 20 11 18 12 -16 17 -52 7 -82 34 -68 60 14
26 7 36 -34 50 -30 10 -33 14 -31 43 4 48 -32 61 -89 32 -36 -19 -65 -19 -72
0 -7 16 -46 18 -99 5z"/>
<path d="M560 6154 c-58 -19 -90 -39 -90 -56 0 -10 7 -18 16 -18 8 0 12 -4 9
-10 -3 -5 -24 -10 -45 -10 -51 0 -70 -8 -70 -31 0 -10 -5 -19 -10 -19 -6 0
-21 -10 -33 -22 -13 -13 -34 -29 -47 -35 -14 -7 -32 -17 -40 -22 -8 -5 -41
-20 -72 -32 -68 -26 -84 -17 -85 46 0 55 -26 139 -44 142 -41 8 -44 -7 -46
-233 -2 -171 0 -214 10 -206 32 25 81 32 131 17 60 -18 99 -19 94 -3 -2 6 -23
18 -45 25 -47 16 -67 53 -28 53 12 0 33 8 46 19 20 16 22 21 9 36 -16 20 -7
28 53 47 24 7 37 17 37 28 0 10 9 20 20 23 11 3 20 12 20 20 0 11 15 17 53 21
83 10 106 8 136 -10 18 -10 36 -14 47 -10 17 7 17 9 -9 30 l-27 22 23 22 c15
14 27 18 33 12 15 -15 154 -25 154 -11 0 7 -15 18 -34 26 -18 8 -36 24 -39 35
-3 12 -15 24 -26 27 -16 4 -19 9 -11 23 17 31 12 43 -15 36 -19 -5 -23 -3 -19
9 6 15 -22 20 -56 9z"/>
<path d="M1 5084 c1 -44 6 -85 12 -92 7 -9 7 -16 -1 -24 -7 -7 -12 -29 -12
-50 0 -35 2 -38 28 -38 l27 -1 -27 -22 -27 -22 -1 -162 0 -163 31 0 c40 0 126
46 132 71 3 11 13 19 22 19 10 0 40 14 68 31 35 22 53 27 60 20 6 -6 19 -11
29 -11 10 0 39 -13 64 -29 l46 -28 -53 -41 c-48 -37 -54 -39 -66 -24 -12 16
-16 14 -36 -12 -79 -104 -114 -140 -146 -153 -42 -17 -81 -51 -81 -70 0 -7
-16 -30 -35 -52 l-35 -38 0 -144 1 -144 25 30 c13 17 36 54 50 83 21 41 31 52
50 52 25 0 33 15 12 23 -8 3 -2 9 13 17 15 7 35 31 48 58 22 49 88 144 103
150 11 5 10 42 -2 42 -5 0 -10 4 -10 9 0 5 26 7 58 4 42 -3 62 -1 77 11 20 15
20 15 -5 16 -14 0 -32 4 -40 10 -12 8 -12 10 3 16 10 3 17 14 15 23 -1 9 25
44 59 79 53 54 66 62 97 62 41 0 56 21 38 51 -10 16 -9 19 11 23 12 3 36 8 52
11 75 17 111 17 124 1 8 -9 22 -16 32 -16 16 0 18 5 13 25 l-6 25 76 0 c72 0
92 9 64 27 -7 4 -40 10 -73 13 l-60 5 45 17 c25 9 64 22 88 28 34 9 42 15 42
33 0 33 19 47 60 47 20 0 44 6 54 13 16 12 16 14 2 26 -12 10 -13 18 -5 33 13
25 14 25 -43 33 -41 6 -48 5 -48 -9 0 -9 -12 -21 -26 -26 -14 -6 -56 -30 -93
-54 -37 -23 -78 -46 -91 -49 -14 -3 -90 -26 -170 -50 -80 -25 -148 -43 -153
-40 -4 2 -4 15 -1 29 8 33 -17 32 -61 -2 l-35 -26 -45 22 c-39 19 -49 20 -80
10 -20 -6 -48 -22 -63 -35 -17 -14 -33 -20 -41 -16 -9 6 -8 11 4 21 17 14 21
50 5 50 -5 0 -10 9 -10 20 0 13 -7 20 -19 20 -18 0 -19 2 -5 30 14 28 20 30
69 30 44 0 55 3 60 19 3 11 20 25 38 31 18 6 41 17 51 25 20 15 20 15 -1 34
-19 18 -28 19 -88 10 -36 -5 -79 -16 -95 -24 -36 -19 -41 -19 -34 0 4 11 -3
18 -23 26 -31 10 -65 49 -77 86 -4 12 -13 27 -21 33 -13 11 -15 1 -14 -66z"/>
</g>
</svg>
