<?xml version="1.0" standalone="no"?>
<!DOCTYPE svg PUBLIC "-//W3C//DTD SVG 20010904//EN"
 "http://www.w3.org/TR/2001/REC-SVG-20010904/DTD/svg10.dtd">
<svg version="1.0" xmlns="http://www.w3.org/2000/svg"
 width="2400.000000pt" height="1600.000000pt" viewBox="0 0 2400.000000 1600.000000"
 preserveAspectRatio="xMidYMid meet">
<metadata>
Created by potrace 1.13, written by Peter Selinger 2001-2015
</metadata>
<g transform="translate(0.000000,1600.000000) scale(0.100000,-0.100000)"
fill="#000000" stroke="none">
<path d="M1339 15955 c-29 -25 -63 -45 -76 -45 -16 0 -30 -12 -47 -38 -17 -28
-42 -47 -88 -69 -70 -34 -113 -76 -123 -122 -4 -20 -27 -47 -63 -79 -83 -71
-86 -70 -50 3 28 56 31 67 18 75 -8 5 -20 10 -27 10 -6 0 -42 -59 -80 -131
l-68 -131 -153 -130 c-154 -131 -172 -151 -172 -187 0 -26 -102 -117 -272
-244 l-138 -102 0 -177 c0 -98 4 -178 8 -178 13 0 99 94 116 126 32 65 348
264 418 264 22 0 78 28 156 77 31 20 141 76 244 124 138 64 215 94 295 113
151 36 326 65 476 78 108 10 127 15 127 29 0 9 -7 20 -16 23 -27 10 -284 5
-382 -8 -51 -6 -91 -9 -90 -5 2 4 54 47 117 95 63 49 153 123 200 165 68 60
109 86 199 128 112 52 307 121 341 121 23 0 135 56 151 75 10 12 10 18 0 30
-15 18 -52 13 -137 -16 -45 -15 -53 -16 -64 -3 -22 27 -91 16 -208 -32 -62
-25 -115 -44 -118 -41 -3 3 -8 35 -10 71 -6 65 -6 66 -36 66 l-29 0 3 -101 4
-102 -120 -61 c-66 -34 -138 -73 -160 -87 -77 -50 -195 -150 -212 -181 -10
-16 -55 -56 -99 -88 -81 -58 -131 -83 -318 -159 -52 -21 -109 -49 -126 -61
-17 -12 -33 -20 -36 -18 -2 3 3 28 11 56 17 55 51 101 208 280 148 169 470
419 523 406 13 -3 26 0 31 8 4 7 62 35 128 61 66 26 170 72 230 101 l110 54
-81 1 c-66 1 -92 -4 -138 -24 -52 -23 -56 -24 -46 -6 5 11 10 22 10 25 0 3
-65 6 -144 6 l-144 0 -53 -45z"/>
<path d="M1795 14883 c-43 -22 -86 -36 -110 -37 -38 -1 -40 -3 -45 -36 -3 -19
-29 -76 -58 -126 -53 -91 -53 -92 -110 -108 -31 -10 -83 -26 -115 -37 -31 -11
-66 -17 -77 -14 -18 6 -16 10 20 44 47 45 50 62 13 89 l-27 19 42 53 c48 60
60 93 42 115 -29 35 -31 33 -225 -230 -69 -93 -140 -199 -159 -235 -19 -36
-59 -89 -91 -120 -31 -30 -76 -82 -100 -115 -43 -61 -135 -232 -135 -252 0 -6
-33 -45 -74 -86 -87 -88 -127 -164 -152 -287 -34 -173 -104 -249 -276 -295
-68 -18 -94 -47 -132 -149 l-26 -68 0 -832 0 -833 32 5 c18 2 38 10 43 17 6 7
60 51 120 98 127 99 142 104 299 92 157 -11 161 -11 161 4 0 14 -43 40 -99 62
l-31 12 33 10 c24 7 32 16 32 33 0 21 -5 24 -34 24 -49 0 -232 -36 -302 -60
-75 -25 -90 -25 -97 0 -3 12 -14 20 -25 20 -18 0 -13 12 37 101 l56 102 100
22 c105 24 190 57 265 104 29 18 76 34 130 45 114 21 330 46 406 46 46 0 63 4
68 15 7 18 -17 29 -84 39 -112 17 -114 15 56 76 129 46 160 61 162 77 5 32
-20 34 -105 8 -44 -14 -113 -31 -155 -39 -41 -8 -93 -24 -114 -35 -21 -12 -44
-21 -50 -21 -7 0 -23 -13 -36 -29 -17 -20 -38 -31 -69 -36 -24 -4 -75 -16
-114 -26 -125 -34 -245 -57 -250 -49 -6 10 56 89 70 89 6 1 43 25 82 55 156
118 432 259 548 281 63 11 85 20 103 41 60 68 -9 81 -154 29 -54 -19 -100 -35
-101 -35 -11 0 1 40 15 52 25 22 159 98 172 98 7 0 55 27 107 60 53 33 105 60
117 60 11 0 31 11 45 23 15 13 55 34 91 47 131 48 190 79 190 100 0 31 -22 33
-96 11 -38 -11 -70 -19 -71 -17 -9 9 22 63 70 121 30 36 63 81 73 100 17 31
17 37 4 45 -8 5 -21 10 -28 10 -21 0 -118 -97 -154 -154 -17 -28 -49 -69 -69
-92 -20 -23 -39 -50 -43 -60 -4 -14 -33 -27 -103 -49 -58 -17 -119 -44 -152
-67 -30 -20 -57 -36 -59 -34 -1 2 22 43 53 90 61 93 131 236 141 285 6 28 4
31 -17 31 -20 0 -35 -17 -79 -87 -113 -183 -165 -261 -246 -369 -72 -97 -92
-117 -156 -154 -73 -44 -180 -117 -249 -171 -20 -16 -43 -29 -51 -29 -7 0 -36
-22 -63 -50 -27 -27 -53 -50 -58 -50 -6 0 -7 18 -3 43 4 23 11 128 16 232 6
147 13 205 29 255 12 36 25 71 29 77 4 7 32 17 62 23 108 21 167 83 195 209
13 60 24 84 59 125 24 28 75 94 114 147 76 104 116 143 200 196 l55 35 206 -6
c113 -4 235 -9 271 -12 57 -5 68 -3 84 15 29 32 14 48 -56 59 -53 10 -219 26
-348 35 -31 2 -18 9 105 63 123 54 140 64 140 85 0 20 -6 25 -32 27 -18 2 -33
6 -33 10 0 13 100 131 120 142 26 14 27 60 2 60 -45 0 -163 -114 -206 -197
-23 -46 -30 -51 -98 -77 -105 -41 -279 -125 -382 -185 -49 -28 -90 -50 -92
-48 -2 1 10 54 26 117 16 63 41 174 56 245 21 105 33 142 64 195 78 132 242
279 295 266 14 -4 25 -14 25 -22 0 -13 7 -15 33 -10 29 5 44 -1 110 -45 91
-60 208 -112 221 -99 12 12 -30 57 -87 97 l-41 28 75 5 c57 4 75 9 77 21 2 13
-23 21 -123 44 -69 16 -122 32 -118 36 5 4 41 19 81 32 80 27 107 50 137 117
11 25 25 50 31 55 7 6 14 19 16 30 2 11 38 43 88 76 94 63 156 121 146 138
-12 19 -49 11 -121 -26z"/>
<path d="M7908 11980 c-59 -75 -65 -80 -94 -74 -39 7 -64 -15 -64 -57 0 -17
-11 -45 -26 -65 -21 -26 -25 -41 -20 -66 8 -45 -1 -54 -59 -62 l-50 -7 0 48
c0 47 0 48 -30 45 -16 -2 -56 -2 -87 -2 -56 1 -58 0 -58 -24 0 -24 -4 -26 -40
-26 -47 0 -60 -18 -36 -52 9 -12 16 -32 16 -44 0 -12 7 -27 14 -34 11 -8 12
-18 5 -36 -5 -14 -9 -36 -9 -48 0 -13 -7 -29 -15 -36 -19 -16 -20 -70 -2 -70
8 0 24 -12 38 -26 13 -15 39 -33 57 -40 19 -9 32 -21 32 -32 0 -24 -58 -21
-121 6 -25 11 -71 25 -102 32 -34 7 -57 17 -57 24 0 8 -7 19 -15 26 -8 7 -15
21 -15 31 0 30 -44 25 -58 -6 -13 -29 -24 -31 -42 -10 -29 34 -70 3 -56 -42 6
-18 -35 -51 -79 -63 -24 -7 -33 -49 -13 -61 7 -5 25 -9 40 -9 15 0 30 -4 33
-10 11 -18 71 -11 90 10 31 34 56 25 113 -39 28 -33 52 -64 52 -69 0 -6 -17
-14 -37 -19 -45 -10 -55 -39 -23 -68 20 -18 28 -55 11 -55 -4 0 -25 14 -46 30
-22 18 -50 30 -67 30 -16 0 -31 6 -34 15 -4 9 -19 15 -35 15 -22 0 -29 -5 -29
-20 0 -11 5 -29 12 -39 16 -26 3 -51 -26 -51 -27 0 -86 -44 -86 -65 0 -7 7
-18 15 -25 8 -7 15 -20 15 -30 0 -14 12 -18 63 -24 62 -7 62 -6 92 28 40 47
87 55 150 27 44 -19 46 -23 40 -50 -11 -53 60 -91 116 -61 25 14 24 47 -2 55
-36 12 -16 14 39 4 75 -14 138 -43 172 -80 l29 -32 -59 -38 c-32 -21 -66 -49
-75 -62 -12 -19 -27 -26 -67 -30 -28 -4 -53 -9 -56 -11 -3 -3 0 -29 6 -58 8
-43 7 -54 -5 -63 -20 -15 -13 -49 12 -53 11 -2 36 -21 56 -43 48 -51 86 -54
91 -6 3 36 1 36 83 5 62 -24 115 -65 115 -90 0 -8 5 -19 12 -26 9 -9 7 -17
-10 -35 -12 -13 -22 -33 -22 -46 0 -12 -16 -43 -35 -68 -19 -25 -35 -50 -35
-54 0 -17 52 -9 91 13 l39 22 28 -20 c26 -20 92 -108 92 -124 0 -4 -13 -13
-30 -20 -25 -10 -30 -18 -30 -46 0 -38 31 -64 108 -95 46 -18 47 -18 14 -19
-18 0 -51 -9 -72 -20 -71 -36 -44 -93 57 -120 66 -17 83 -39 83 -109 l0 -56
-71 -59 c-92 -77 -123 -118 -116 -153 3 -18 -3 -39 -21 -65 -23 -35 -24 -43
-14 -72 9 -24 9 -47 1 -91 -15 -80 -74 -240 -101 -275 -22 -27 -120 -110 -131
-110 -3 0 -35 18 -72 40 -53 30 -72 37 -87 29 -20 -11 -25 -45 -7 -51 19 -6
-10 -43 -44 -56 -28 -11 -29 -14 -23 -50 4 -28 2 -43 -8 -51 -8 -7 -18 -41
-22 -77 -6 -60 -5 -67 15 -80 28 -20 27 -62 -4 -155 -86 -250 -129 -499 -114
-649 9 -95 55 -241 110 -353 49 -102 54 -126 34 -173 -21 -50 -55 -190 -55
-227 0 -16 -8 -40 -19 -53 -30 -39 -35 -88 -12 -139 16 -35 18 -51 10 -74 -6
-15 -9 -57 -7 -92 3 -64 3 -64 33 -64 l30 0 -1 -125 c0 -140 -11 -178 -45
-160 -32 18 -58 3 -65 -37 -5 -27 -3 -39 9 -48 15 -10 13 -15 -13 -40 -23 -22
-39 -29 -64 -27 -48 3 -209 -56 -202 -74 3 -8 9 -20 12 -28 3 -8 -3 -16 -18
-19 -13 -4 -37 -20 -53 -37 l-30 -32 22 -17 22 -18 -25 -12 c-14 -6 -29 -23
-35 -39 -5 -15 -23 -35 -39 -44 -32 -18 -41 -55 -15 -64 8 -3 30 4 50 16 40
25 43 20 16 -24 -11 -17 -38 -99 -61 -181 -79 -286 -142 -355 -379 -416 -103
-26 -123 -25 -115 5 6 27 -21 60 -42 52 -47 -19 -45 -20 -33 7 15 34 5 57 -24
57 -30 0 -40 -13 -55 -71 -6 -26 -22 -70 -34 -99 l-23 -53 -33 52 c-29 48 -35
52 -64 49 -47 -4 -47 -32 2 -131 l42 -84 -35 -54 c-29 -45 -124 -216 -304
-547 -33 -60 -36 -63 -53 -47 -33 30 -55 16 -58 -39 -2 -35 -11 -58 -28 -79
-13 -15 -24 -37 -24 -48 0 -20 -19 -31 -77 -44 -30 -6 -33 -4 -33 16 0 20 -24
54 -89 128 -27 31 -27 52 0 22 27 -28 60 -41 110 -41 34 0 39 3 39 23 0 15
-11 29 -30 40 -44 27 -90 67 -90 80 0 7 4 18 9 26 7 11 17 10 54 -8 31 -15 60
-21 89 -19 37 3 43 7 46 27 4 27 -12 41 -49 41 -33 0 -88 55 -71 72 9 9 16 8
29 -4 26 -23 64 -31 96 -19 21 8 27 17 27 41 0 25 -4 30 -24 30 -13 0 -35 10
-50 21 -26 20 -26 22 -10 40 16 18 17 18 42 -1 32 -26 84 -26 107 0 21 23 18
27 -37 55 -23 12 -44 27 -46 34 -3 10 0 11 16 2 11 -6 31 -11 44 -11 28 0 71
28 63 41 -4 5 7 9 23 9 16 0 36 7 43 16 12 15 11 19 -8 31 -21 14 -22 17 -7
45 23 44 12 62 -32 55 -29 -5 -40 -2 -53 15 -15 18 -21 19 -40 8 -20 -10 -22
-18 -19 -61 3 -48 -4 -64 -16 -33 -3 9 -6 25 -6 35 0 16 -6 20 -27 17 -27 -3
-28 -5 -26 -61 2 -61 -6 -67 -27 -17 -15 36 -18 37 -49 4 -24 -25 -24 -25 -6
-65 17 -37 17 -41 2 -56 -15 -15 -18 -13 -37 20 -44 75 -90 26 -50 -52 20 -39
20 -81 1 -81 -5 0 -18 23 -30 50 -22 50 -37 60 -59 38 -18 -18 -15 -36 15
-106 27 -64 24 -96 -6 -52 -9 13 -28 38 -42 55 -21 23 -24 34 -16 47 13 20 -6
48 -32 48 -9 0 -60 -13 -114 -29 l-98 -29 -10 25 c-5 13 -9 26 -9 27 0 2 19 6
42 10 32 5 52 18 86 52 24 25 41 51 39 57 -6 20 -69 19 -137 -2 -35 -11 -66
-18 -68 -16 -13 13 14 33 71 54 71 25 93 42 83 66 -7 20 -31 19 -101 -5 -83
-29 -112 -25 -52 6 36 19 47 30 47 48 0 30 -32 39 -84 25 -56 -15 -67 1 -33
47 14 21 23 42 20 47 -3 5 -23 7 -44 4 -21 -3 -40 -3 -43 0 -3 3 8 18 25 34
38 36 36 64 -6 64 -17 -1 -40 -4 -52 -9 -18 -6 -23 -4 -23 10 0 10 7 25 16 35
27 30 10 52 -35 46 -33 -4 -43 -1 -62 19 -12 13 -29 24 -36 24 -7 0 -21 13
-32 30 -38 63 -43 -12 -6 -86 14 -27 25 -59 25 -70 0 -12 11 -29 25 -38 28
-19 32 -38 10 -56 -8 -7 -15 -24 -15 -37 0 -26 6 -27 59 -12 26 8 21 -16 -9
-36 -21 -14 -30 -28 -30 -47 0 -33 17 -39 53 -21 31 16 57 11 57 -10 0 -7 -16
-28 -35 -47 -39 -38 -37 -50 8 -50 27 -1 30 -3 17 -13 -25 -20 -47 -51 -54
-73 -11 -36 21 -38 76 -4 57 35 73 40 73 22 0 -7 -31 -32 -70 -55 -74 -45 -94
-78 -61 -103 15 -10 12 -19 -23 -85 -21 -41 -47 -96 -56 -122 -12 -32 -21 -45
-28 -38 -7 7 3 44 28 110 20 55 34 104 31 109 -9 15 -41 3 -64 -21 -11 -12
-35 -50 -54 -84 -23 -42 -38 -59 -46 -54 -10 6 -5 25 17 77 38 89 42 117 17
122 -23 5 -81 -50 -109 -105 -21 -39 -23 -41 -49 -30 l-26 12 20 64 c21 67 16
88 -19 77 -11 -3 -30 -24 -42 -46 -12 -22 -24 -40 -26 -40 -2 0 5 25 15 55 17
51 18 57 3 62 -24 9 -45 -8 -78 -65 -18 -30 -37 -51 -47 -52 -21 0 -22 15 -7
76 9 33 9 48 1 56 -17 17 -62 -18 -80 -63 -17 -43 -27 -49 -35 -19 -6 24 -20
26 -40 6 -8 -8 -27 -16 -43 -18 -37 -4 -48 -46 -15 -55 12 -3 21 -14 21 -24 0
-22 46 -37 63 -20 18 18 27 13 27 -18 0 -41 9 -61 29 -61 22 0 41 19 41 42 0
10 7 18 15 18 12 0 15 -14 15 -65 0 -69 15 -90 45 -65 13 11 15 8 15 -17 0
-64 62 -89 68 -28 5 48 22 105 31 105 5 0 19 -8 31 -18 22 -18 22 -21 10 -83
-16 -81 -5 -124 31 -124 16 0 25 6 27 20 11 78 26 135 36 132 6 -2 10 -19 8
-38 -1 -19 -3 -76 -5 -127 -2 -99 5 -115 48 -110 18 3 20 11 21 73 1 77 13
126 34 133 10 4 11 -4 6 -34 -4 -22 -13 -75 -20 -118 -11 -73 -14 -81 -46
-103 l-35 -24 -3 26 c-6 45 -41 32 -96 -35 l-50 -60 -12 29 c-15 35 -28 44
-54 36 -24 -8 -28 -60 -6 -84 8 -9 17 -37 21 -62 l7 -45 -60 -32 -60 -32 -48
20 c-26 11 -73 23 -106 27 -58 6 -58 6 -58 39 0 33 -1 34 -39 34 -33 0 -39 3
-44 25 -3 16 5 44 21 74 29 54 25 81 -12 81 -19 0 -35 -13 -63 -51 l-38 -50
-7 44 c-11 77 -53 118 -86 85 -7 -7 -12 -19 -12 -29 0 -9 -9 -28 -20 -42 -11
-14 -20 -37 -20 -51 0 -30 -2 -31 -40 -11 -16 8 -36 12 -45 9 -9 -4 -42 5 -73
19 -72 33 -165 57 -215 57 -39 0 -39 0 -33 32 3 17 8 33 10 36 3 2 32 -13 64
-33 66 -41 124 -53 161 -33 36 19 36 35 -1 53 -93 47 -198 111 -198 123 0 18
13 15 61 -13 47 -27 88 -31 120 -14 27 14 16 26 -75 85 -39 26 -72 48 -74 49
-1 1 0 9 4 18 5 14 9 14 39 1 19 -8 59 -14 90 -14 47 0 55 3 55 19 0 14 -18
28 -62 49 -90 44 -92 45 -78 71 l11 22 44 -25 c52 -31 95 -33 119 -7 17 18 15
21 -53 66 -61 41 -69 50 -60 66 11 22 25 24 36 6 25 -42 92 -59 127 -34 17 13
14 17 -38 67 -31 29 -56 56 -56 60 0 3 7 15 15 26 14 19 14 19 30 -4 19 -26
85 -62 114 -62 20 0 36 26 22 34 -14 9 -80 124 -74 130 3 2 20 -11 39 -30 63
-62 91 -37 50 45 -30 57 -19 70 13 16 22 -37 50 -45 70 -21 9 11 9 20 2 35
-16 29 -14 30 23 24 42 -7 51 7 31 46 -19 38 -20 36 10 55 24 16 26 16 37 -9
9 -21 18 -25 42 -23 28 3 31 6 29 36 l-1 34 19 -21 c24 -25 42 -27 63 -5 20
19 20 19 0 49 -23 35 -7 52 18 20 14 -19 28 -25 47 -23 23 3 26 7 24 36 -1 28
2 32 15 26 40 -17 57 -10 60 24 3 30 6 32 43 32 21 0 39 5 39 10 0 6 6 10 14
10 15 0 29 27 18 34 -20 12 -83 17 -116 8 -21 -6 -38 -7 -42 -1 -9 15 -36 10
-50 -9 -12 -16 -13 -16 -27 2 -20 28 -52 17 -52 -18 -1 -21 -7 -31 -23 -37
-12 -5 -22 -4 -22 1 0 5 -10 12 -21 15 -16 5 -27 0 -45 -21 -13 -16 -23 -23
-24 -16 0 9 -10 12 -27 10 -25 -3 -28 -7 -27 -40 1 -32 -3 -39 -25 -46 -21 -7
-28 -5 -36 12 -14 28 -47 27 -60 -1 -11 -25 -25 -29 -41 -13 -6 6 -19 8 -28 4
-15 -6 -17 -15 -12 -58 5 -49 5 -50 -10 -29 -10 14 -27 23 -42 23 -24 0 -24
-2 -18 -50 9 -66 -9 -74 -64 -30 -22 17 -45 28 -51 24 -14 -8 -4 -80 15 -109
12 -18 11 -24 -10 -50 l-23 -29 -10 26 c-12 31 -24 40 -44 32 -25 -9 -31 -59
-11 -93 15 -25 15 -33 4 -60 l-12 -31 -38 30 c-40 31 -70 39 -70 17 0 -9 -16
-10 -75 -3 -67 9 -75 12 -75 32 0 18 8 23 43 28 84 13 128 39 112 66 -3 4 -32
11 -65 15 -33 4 -60 11 -60 16 0 4 41 10 91 11 74 2 94 6 103 20 5 9 8 19 5
22 -3 3 -40 11 -82 18 -51 8 -77 16 -77 25 0 9 17 13 59 13 40 0 65 5 75 15
18 18 11 45 -13 46 -9 0 -4 5 12 11 33 12 36 45 5 58 -22 8 -21 9 6 9 28 1 55
24 56 48 0 6 -22 16 -50 23 -57 14 -57 30 0 30 53 0 71 30 35 58 l-24 19 24
11 c33 15 32 41 -3 53 -15 5 -32 19 -37 32 -12 26 -55 36 -55 12 0 -8 -12 -20
-26 -25 -22 -9 -25 -14 -19 -40 5 -25 3 -30 -12 -30 -25 0 -63 -28 -63 -46 0
-8 12 -20 28 -26 27 -12 27 -12 -18 -17 -37 -5 -46 -10 -48 -28 -3 -17 4 -26
24 -33 15 -6 24 -13 22 -16 -3 -2 -17 0 -30 7 -19 8 -31 8 -47 0 -29 -16 -27
-49 5 -63 26 -12 26 -12 -18 -23 -36 -8 -43 -14 -43 -35 0 -19 6 -25 33 -31
61 -12 48 -21 -20 -14 l-68 7 0 -31 c0 -28 5 -34 45 -52 25 -11 45 -24 45 -29
0 -5 -29 -7 -67 -3 -38 3 -101 5 -141 5 -56 -1 -72 2 -72 13 0 9 18 19 45 26
61 15 75 34 47 61 -19 19 -26 21 -67 11 -54 -12 -66 0 -46 45 11 22 10 28 -5
39 -10 7 -26 13 -37 13 -10 0 -21 9 -24 20 -3 11 -21 28 -40 37 -30 14 -36 14
-44 2 -13 -21 -11 -59 4 -59 7 0 18 -5 25 -12 9 -9 8 -16 -4 -29 -21 -23 -12
-46 18 -51 35 -5 34 -34 -1 -46 -43 -15 -41 -42 3 -42 33 0 46 -13 46 -44 0
-6 -14 -17 -30 -23 -23 -9 -30 -18 -30 -37 0 -23 4 -26 34 -26 28 0 34 -4 38
-25 4 -21 1 -26 -21 -32 -14 -3 -28 -9 -31 -12 -3 -3 -14 -11 -24 -17 -40 -22
-30 -34 28 -34 32 0 56 -4 56 -10 0 -6 -6 -12 -12 -14 -90 -24 -128 -39 -128
-50 0 -25 25 -36 87 -36 78 0 82 -15 6 -25 -70 -9 -96 -18 -123 -45 -38 -38
-27 -43 80 -35 81 5 100 4 100 -7 0 -9 -33 -20 -103 -34 -92 -17 -108 -18
-138 -6 -19 8 -67 23 -107 33 -54 14 -81 27 -102 49 -35 37 -68 50 -131 50
-54 0 -93 -16 -123 -49 -27 -30 -69 -27 -86 5 -20 36 -60 54 -123 54 -54 0
-77 -12 -77 -39 0 -9 -5 -32 -10 -52 -9 -32 -16 -38 -55 -49 -27 -8 -80 -11
-137 -8 -76 4 -107 10 -169 36 -114 49 -216 121 -347 246 -122 116 -206 175
-292 205 -28 10 -52 20 -55 23 -3 3 19 25 49 49 91 73 67 120 -36 72 -120 -56
-148 -64 -169 -50 -10 8 -17 16 -14 19 3 3 -1 11 -10 18 -18 15 -63 1 -111
-35 -31 -23 -32 -24 -37 -5 -3 11 -10 20 -16 20 -20 0 -64 -47 -75 -80 -10
-32 -18 -37 -103 -68 l-93 -34 0 -789 0 -789 4040 0 4040 0 0 4551 c0 3637 -3
4549 -12 4543 -7 -4 -27 -18 -45 -30 -31 -23 -63 -31 -76 -18 -3 3 7 29 22 58
42 75 56 123 41 141 -22 27 -39 16 -102 -65z m-158 -1479 c0 -5 6 -16 13 -23
18 -18 47 -61 47 -69 0 -4 -11 -10 -25 -13 -14 -4 -25 -11 -25 -16 0 -11 -40
-13 -64 -4 -9 3 -16 14 -16 23 0 9 -13 25 -30 34 -43 26 -37 44 18 60 57 18
82 20 82 8z"/>
<path d="M622 10906 c-23 -25 -109 -148 -192 -273 -82 -125 -150 -226 -150
-223 0 3 7 29 14 58 13 47 13 54 -1 59 -36 14 -70 -37 -118 -179 -16 -48 -33
-79 -43 -83 -10 -2 -43 -31 -75 -63 l-57 -58 2 -322 3 -321 84 237 c46 130
103 275 126 322 23 47 52 115 64 152 21 62 30 74 107 144 64 58 91 92 116 141
27 56 53 84 199 216 202 183 216 212 74 148 -36 -17 -79 -39 -95 -51 -17 -12
-30 -19 -30 -16 0 3 15 35 32 71 28 56 31 67 18 75 -25 16 -36 12 -78 -34z"/>
</g>
</svg>
