<?xml version="1.0" standalone="no"?>
<!DOCTYPE svg PUBLIC "-//W3C//DTD SVG 20010904//EN"
 "http://www.w3.org/TR/2001/REC-SVG-20010904/DTD/svg10.dtd">
<svg version="1.0" xmlns="http://www.w3.org/2000/svg"
 width="2400.000000pt" height="1600.000000pt" viewBox="0 0 2400.000000 1600.000000"
 preserveAspectRatio="xMidYMid meet">
<metadata>
Created by potrace 1.13, written by Peter Selinger 2001-2015
</metadata>
<g transform="translate(0.000000,1600.000000) scale(0.100000,-0.100000)"
fill="#000000" stroke="none">
<path d="M5163 15985 c-58 -18 -133 -63 -133 -80 0 -18 31 -35 62 -35 21 0 20
-2 -11 -21 -18 -11 -38 -33 -44 -49 -8 -22 -22 -33 -52 -43 -34 -12 -40 -18
-43 -44 -3 -31 -3 -31 53 -38 32 -4 86 -5 122 -2 54 4 65 2 69 -12 3 -9 15
-36 27 -61 12 -25 23 -48 25 -53 8 -16 -246 29 -263 47 -21 21 -132 40 -230
41 l-90 0 -3 -35 c-3 -28 2 -39 25 -58 l28 -22 -46 16 c-55 20 -79 14 -79 -21
0 -18 12 -33 40 -54 l40 -29 -27 -7 c-32 -8 -43 -21 -43 -54 0 -13 -11 -39
-25 -57 -14 -18 -25 -41 -25 -52 0 -13 9 -22 25 -26 14 -4 25 -10 25 -14 0 -5
-11 -19 -25 -32 -26 -24 -33 -64 -14 -75 6 -4 31 -1 56 5 37 11 46 11 53 0 7
-11 14 -12 35 -2 42 19 42 14 -1 -17 -42 -31 -84 -95 -84 -129 0 -57 152 -37
262 35 49 31 43 4 -10 -50 -29 -29 -52 -61 -52 -71 0 -16 6 -18 50 -14 27 3
71 16 99 30 l49 24 4 -45 3 -46 -155 0 c-173 -1 -232 -12 -354 -70 -39 -18
-105 -49 -146 -68 -41 -19 -97 -51 -125 -71 -27 -20 -78 -55 -112 -77 -35 -22
-63 -45 -63 -49 0 -50 68 -54 166 -10 36 17 70 30 74 28 5 -2 -22 -28 -58 -58
-39 -32 -68 -65 -70 -78 -4 -26 4 -27 78 -7 69 19 200 21 182 3 -7 -7 -12 -22
-12 -35 0 -30 41 -41 75 -19 31 20 32 20 38 -4 3 -11 12 -20 21 -20 25 0 133
46 185 79 25 16 67 32 93 35 l47 7 -6 -35 c-5 -35 -5 -36 26 -36 17 0 48 7 68
15 33 14 38 14 45 0 5 -8 20 -15 33 -15 30 0 36 -10 29 -49 -4 -20 -21 -42
-50 -64 -92 -72 -254 -235 -254 -256 0 -29 42 -38 75 -17 32 21 46 13 43 -22
-3 -26 -2 -27 59 -30 47 -2 72 2 103 18 40 21 41 21 31 1 -25 -47 20 -68 66
-31 16 12 41 20 64 20 21 0 41 5 44 10 3 6 25 10 48 10 23 0 61 9 84 19 l41
19 -14 -34 c-19 -45 -18 -113 1 -120 11 -5 12 -11 4 -25 -12 -24 -77 -27 -85
-4 -8 19 -38 19 -69 -1 -19 -13 -73 -16 -304 -21 l-279 -6 -49 42 c-58 52
-105 77 -169 91 -26 6 -54 19 -61 29 -16 24 -69 34 -96 19 -12 -6 -48 -19 -81
-29 -57 -17 -58 -17 -63 2 -9 32 -44 22 -140 -37 -39 -25 -131 -54 -170 -54
-2 0 -3 -8 -3 -19 0 -10 10 -25 23 -34 18 -12 20 -19 11 -33 -13 -23 -27 -29
-99 -45 -59 -14 -60 -15 -60 -49 0 -27 5 -35 23 -40 22 -5 22 -5 3 -22 -11 -9
-29 -21 -40 -28 -26 -13 -27 -46 -3 -52 10 -3 26 -22 36 -42 20 -42 37 -45
122 -20 84 24 93 13 20 -26 -53 -28 -66 -40 -66 -59 0 -23 2 -24 63 -18 34 3
71 8 82 12 11 4 1 -10 -22 -30 -24 -20 -43 -44 -43 -54 0 -21 19 -41 38 -41
14 0 69 43 128 101 27 27 35 30 85 27 l54 -3 -92 -55 c-81 -48 -93 -59 -93
-82 0 -34 5 -34 90 -4 37 14 91 29 119 34 50 9 53 8 61 -14 9 -22 15 -24 70
-24 60 0 105 15 143 48 29 26 19 32 -40 26 -44 -6 -54 -4 -48 6 5 9 26 11 72
7 35 -2 67 -8 70 -11 4 -3 -6 -19 -21 -35 -33 -35 -31 -61 7 -79 15 -7 27 -17
27 -21 0 -15 172 -10 202 5 17 9 42 12 72 8 31 -5 58 -1 86 10 50 20 47 20 53
-4 4 -16 14 -20 46 -20 34 0 49 7 84 39 23 21 52 43 65 50 24 13 27 9 34 -34
4 -27 44 -32 57 -7 6 11 24 25 40 32 25 10 34 9 51 -3 20 -14 20 -15 -19 -40
-52 -34 -130 -118 -131 -139 0 -28 -210 -87 -366 -103 l-61 -7 -59 51 c-62 54
-128 84 -206 96 -43 7 -51 4 -115 -37 -37 -25 -90 -64 -117 -87 -28 -24 -67
-55 -88 -68 l-38 -26 -68 46 c-89 59 -182 106 -199 100 -19 -8 -16 -58 7 -103
25 -49 25 -60 2 -60 -11 0 -29 -9 -41 -19 -13 -11 -48 -25 -79 -32 -75 -15
-172 -54 -219 -88 -21 -15 -77 -44 -125 -65 -49 -22 -88 -45 -88 -52 0 -20 54
-44 102 -45 33 0 38 -2 23 -9 -38 -15 -50 -40 -52 -111 -2 -73 6 -85 52 -73
20 5 24 2 27 -23 5 -42 41 -42 113 2 32 19 62 35 66 35 13 0 59 -46 59 -59 0
-7 16 -19 36 -27 l36 -15 -21 -23 c-27 -29 -29 -76 -2 -76 32 0 45 -72 15 -84
-22 -9 -14 -50 11 -54 11 -1 59 17 107 42 81 41 86 42 76 20 -15 -31 15 -69
47 -59 48 15 96 22 101 14 12 -21 64 -8 110 27 l47 36 59 -28 c32 -15 66 -36
75 -46 9 -10 29 -18 44 -18 19 0 30 -6 34 -20 8 -26 40 -26 73 1 20 15 35 19
59 14 24 -4 46 1 85 21 29 14 47 20 41 13 -7 -7 -13 -27 -13 -44 0 -26 -7 -34
-58 -61 l-57 -30 -85 27 c-109 35 -318 79 -373 79 -23 0 -61 -5 -85 -10 -56
-13 -311 -42 -321 -36 -10 6 -156 -12 -211 -26 -25 -6 -61 -19 -80 -29 -20 -9
-81 -22 -139 -27 -113 -12 -151 -28 -151 -66 0 -20 6 -25 40 -31 45 -8 47 -11
22 -41 -13 -16 -47 -28 -146 -48 -70 -14 -132 -29 -137 -32 -14 -8 -11 -46 6
-64 8 -9 18 -30 21 -47 6 -30 5 -32 -37 -43 -24 -6 -50 -13 -56 -15 -19 -6
-16 -53 5 -64 15 -9 13 -11 -15 -21 -25 -9 -33 -18 -33 -36 0 -19 5 -24 28
-25 15 -1 -11 -9 -58 -18 -51 -10 -85 -22 -84 -29 1 -7 2 -17 3 -23 2 -19 223
-4 310 21 40 11 74 19 75 18 1 -2 7 -10 14 -20 11 -14 5 -22 -48 -63 -99 -76
-77 -102 51 -60 l81 27 26 -25 c25 -26 25 -27 7 -47 -30 -33 -6 -43 117 -51
131 -9 118 -7 118 -18 0 -4 -15 -12 -32 -17 -26 -8 -34 -16 -36 -37 -4 -32 6
-34 81 -13 105 29 109 29 102 6 -16 -49 47 -65 127 -32 24 10 78 26 121 37 75
18 79 18 151 0 l74 -18 -5 -39 c-6 -38 -5 -38 29 -38 19 0 61 9 93 20 73 25
75 25 75 -5 0 -25 1 -25 80 -25 67 0 80 -3 80 -16 0 -16 23 -16 76 1 20 6 22
3 26 -42 3 -26 4 -49 2 -51 -1 -2 -77 -5 -170 -9 -197 -6 -351 8 -647 63 -344
63 -387 75 -434 120 -51 49 -123 90 -186 104 -61 13 -87 1 -87 -40 0 -29 -1
-30 -50 -30 -37 0 -64 8 -103 30 -53 30 -82 35 -124 24 -38 -10 -30 -49 13
-66 l37 -15 -69 -7 c-38 -4 -109 -16 -158 -28 -58 -13 -104 -18 -133 -14 -24
3 -65 1 -91 -6 -26 -6 -90 -10 -143 -9 -107 3 -179 -11 -179 -35 0 -18 44 -64
62 -65 24 -1 -47 -28 -77 -29 -16 0 -39 -7 -49 -15 -10 -8 -42 -22 -70 -31
-67 -21 -330 -149 -346 -169 -19 -22 -4 -64 25 -71 20 -5 24 -11 19 -29 -7
-28 5 -33 95 -41 46 -5 94 -1 150 10 73 15 83 15 97 1 21 -21 73 -19 134 5 72
28 80 27 73 -14 -7 -44 18 -53 84 -30 35 12 89 17 195 18 l147 3 -48 -17 c-84
-28 -141 -80 -127 -115 8 -23 30 -18 123 27 71 34 89 39 104 30 26 -16 116
-15 174 3 62 18 69 12 17 -14 -38 -19 -82 -64 -82 -82 0 -13 32 -11 76 4 22 8
53 17 69 21 27 7 26 4 -18 -29 -39 -30 -48 -42 -45 -63 2 -19 -5 -34 -24 -50
-30 -26 -38 -69 -14 -78 8 -3 32 4 55 15 48 25 61 26 61 6 0 -26 49 -30 78 -6
78 62 103 74 174 82 40 5 92 12 115 17 33 7 43 6 48 -5 10 -28 195 3 277 46
32 17 73 31 91 31 18 0 78 14 132 32 82 26 114 31 175 29 48 -1 92 3 120 13
61 21 73 6 31 -38 -27 -28 -32 -40 -29 -72 5 -59 34 -57 142 11 48 30 90 55
92 55 2 0 4 -15 4 -33 0 -29 -5 -36 -45 -55 -39 -19 -45 -26 -45 -52 0 -26 -3
-30 -29 -30 -35 0 -81 -35 -81 -61 0 -15 -7 -19 -34 -19 -18 0 -48 -3 -67 -7
l-33 -6 22 28 c12 15 22 39 22 53 0 22 -3 24 -33 19 -19 -3 -85 -29 -148 -58
-123 -57 -143 -60 -234 -35 -97 26 -235 20 -235 -10 0 -7 -11 -16 -24 -20 -16
-4 -27 -15 -31 -33 l-6 -28 -117 1 c-115 1 -117 1 -120 -22 -3 -16 -8 -21 -20
-18 -22 7 -369 70 -502 91 -58 9 -143 32 -190 50 -169 66 -226 74 -217 29 6
-34 -8 -41 -93 -47 -124 -9 -220 -35 -251 -68 -16 -17 -37 -29 -52 -29 -97 0
-102 -68 -8 -101 29 -10 31 -13 17 -28 -9 -10 -16 -29 -16 -43 0 -21 9 -29 52
-47 51 -21 51 -22 30 -37 -41 -28 -26 -53 37 -64 27 -4 37 -11 41 -30 6 -24 9
-25 99 -28 86 -3 171 7 214 24 13 5 20 1 24 -15 5 -20 12 -21 104 -21 54 0
109 -4 124 -10 22 -8 24 -12 14 -29 -7 -10 -9 -26 -5 -36 6 -16 16 -17 86 -12
44 3 83 1 86 -4 3 -5 20 -9 37 -9 18 -1 51 -11 75 -23 l43 -23 -21 -19 c-14
-13 -19 -26 -16 -41 4 -14 -1 -28 -14 -39 -34 -31 -20 -85 22 -85 10 0 35 15
55 33 82 72 112 90 128 77 21 -17 87 -6 155 27 55 26 103 38 191 49 l45 6 -4
-38 c-3 -22 -15 -53 -28 -70 -13 -17 -24 -41 -24 -54 0 -21 3 -22 55 -18 71 6
111 34 109 75 -1 25 6 34 43 57 46 27 83 28 83 1 0 -7 16 -19 35 -25 49 -16
51 -27 11 -47 -37 -17 -42 -28 -27 -52 8 -12 16 -13 49 -3 22 7 47 12 57 12
17 0 16 -2 -3 -23 -26 -27 -28 -50 -7 -67 12 -10 26 -9 72 9 54 21 56 21 39 2
-24 -26 -13 -61 19 -61 14 0 40 14 60 31 31 27 41 31 74 25 25 -4 55 0 82 10
34 12 66 15 136 10 89 -5 95 -7 160 -51 37 -25 78 -45 91 -45 17 0 27 -9 38
-35 8 -20 30 -53 49 -73 l34 -38 -14 -500 c-8 -274 -19 -687 -26 -917 -16
-563 1 -800 77 -1112 78 -322 84 -380 94 -905 5 -261 11 -710 14 -998 l5 -523
-29 -17 c-17 -9 -30 -22 -30 -29 0 -6 -12 -43 -26 -82 -24 -64 -29 -71 -67
-86 -41 -16 -147 -33 -147 -23 0 35 -26 121 -45 150 -53 80 -182 109 -289 65
-32 -13 -74 -36 -92 -51 -32 -25 -34 -31 -34 -86 0 -52 4 -64 31 -95 19 -21
26 -35 18 -35 -8 -1 -59 -9 -113 -19 l-99 -19 -31 33 c-33 35 -113 65 -172 65
-43 0 -64 -30 -64 -90 l0 -46 -137 -15 c-109 -11 -154 -12 -213 -3 -159 25
-393 37 -579 30 -102 -3 -202 -9 -221 -12 l-35 -7 48 51 c26 28 47 56 47 62 0
21 -27 8 -103 -51 -71 -55 -77 -58 -63 -30 18 33 21 77 7 85 -16 10 -41 -6
-47 -30 -9 -36 -20 -29 -30 17 -11 50 -40 74 -55 46 -6 -9 -19 -17 -29 -17
-26 0 -25 -11 5 -100 14 -40 24 -74 22 -75 -1 -2 -48 -9 -105 -17 l-102 -15
-35 63 c-20 35 -46 76 -59 91 -13 16 -28 54 -34 88 -18 93 -34 617 -25 815 4
96 7 192 5 213 -4 41 -9 37 111 81 37 14 47 22 47 40 0 12 -4 26 -9 32 -14 14
-39 148 -34 180 3 16 11 49 19 74 13 41 19 47 62 62 26 10 64 31 84 48 49 41
98 142 105 217 14 151 -90 348 -248 470 -59 46 -73 75 -48 100 7 7 10 36 7 76
-5 84 -47 152 -117 190 -27 15 -53 33 -58 39 -15 19 -33 181 -33 299 0 57 -4
119 -9 136 -8 26 -6 35 5 41 13 7 13 19 -6 92 l-21 84 30 43 c35 49 38 65 16
83 -10 8 -15 30 -15 62 0 59 -19 99 -62 129 -18 13 -41 33 -50 45 -31 38 -94
56 -192 56 -78 -1 -97 -5 -150 -31 -96 -47 -110 -68 -137 -201 -21 -99 -24
-144 -24 -322 0 -185 -2 -205 -16 -198 -9 5 -24 7 -35 4 -29 -8 -115 -130
-129 -183 -16 -63 -35 -96 -94 -166 -74 -87 -110 -144 -117 -184 -4 -20 -16
-46 -27 -58 -20 -22 -20 -23 -2 -70 41 -110 158 -298 290 -468 76 -97 77 -100
66 -131 -20 -57 -33 -215 -27 -329 15 -259 17 -276 40 -287 21 -9 22 -20 34
-231 7 -122 17 -285 23 -362 5 -77 9 -206 7 -287 -2 -80 0 -149 3 -152 3 -4
-2 -46 -12 -94 -10 -48 -19 -117 -19 -154 0 -55 -3 -68 -15 -68 -28 0 -168 31
-255 56 -57 17 -122 27 -199 31 l-114 6 27 24 c22 19 24 24 12 29 -23 9 -57
-2 -100 -31 -32 -22 -37 -23 -43 -9 -3 9 1 29 11 44 31 54 9 99 -35 72 -13 -9
-9 4 15 46 19 31 32 60 29 64 -14 23 -47 2 -100 -64 -31 -40 -57 -74 -58 -75
0 -1 -12 1 -27 4 -24 5 -26 7 -16 29 8 18 8 27 -3 40 -31 38 -2 119 65 182 26
24 36 42 36 63 0 38 -18 44 -65 25 -48 -20 -48 -20 -29 9 28 43 -2 60 -46 25
-34 -27 -45 -25 -26 5 26 39 21 65 -11 65 -21 0 -39 -12 -70 -49 l-43 -50 0
-620 0 -621 4040 0 4040 0 0 1350 c0 1306 -1 1350 -18 1341 -10 -5 -41 -30
-68 -54 -27 -24 -63 -51 -79 -60 -48 -24 -69 -54 -82 -118 -6 -32 -18 -71 -25
-86 -21 -44 -89 -75 -175 -81 -69 -4 -76 -7 -98 -36 -13 -17 -29 -44 -35 -60
-6 -17 -31 -62 -56 -102 -39 -63 -49 -73 -82 -79 -45 -8 -141 -56 -188 -93
-24 -18 -38 -41 -46 -70 -14 -55 -56 -92 -107 -92 -20 0 -41 4 -47 10 -5 5
-65 13 -132 16 l-121 7 -45 -36 c-52 -43 -77 -46 -159 -17 -107 38 -149 25
-270 -82 -117 -104 -163 -156 -237 -266 -88 -129 -102 -137 -252 -138 -64 -1
-121 -5 -127 -8 -15 -10 -30 29 -39 99 l-7 60 -52 15 c-45 13 -55 20 -82 66
-49 79 -100 208 -134 334 -29 110 -31 124 -32 330 l-2 215 -60 155 c-49 126
-63 177 -77 270 -26 191 -35 277 -46 472 -6 103 -15 222 -21 265 -16 128 -22
565 -11 743 l11 165 -31 32 -31 32 27 76 c19 52 25 86 21 106 -4 18 -2 36 6
45 6 8 9 17 6 20 -11 11 -37 -5 -47 -28 -6 -17 -9 1 -9 63 -1 128 4 144 50
162 49 19 159 99 155 112 -4 13 -57 7 -128 -15 -57 -18 -59 -18 -53 0 3 10 26
49 50 85 51 76 57 110 21 126 l-24 12 39 49 c21 27 39 54 39 58 0 22 -14 40
-31 40 -10 0 -19 5 -19 10 0 6 18 10 39 10 53 0 92 16 98 40 5 17 11 18 52 13
120 -18 142 4 52 49 -30 15 -56 30 -59 32 -2 3 23 8 57 12 34 4 64 11 67 16
11 17 -16 54 -53 75 l-35 20 35 7 c38 7 49 22 40 55 -4 15 -1 21 11 21 26 0
19 39 -15 72 -21 22 -27 34 -20 41 6 6 11 29 12 51 0 23 10 68 23 101 l23 60
60 6 c65 6 125 35 121 59 -2 8 -19 23 -38 32 l-35 18 57 0 c81 0 108 12 108
50 0 26 -6 32 -42 48 l-43 17 104 6 c93 5 106 8 122 28 18 22 24 23 92 17 39
-4 78 -2 86 3 25 16 4 38 -49 52 -39 10 -47 15 -34 22 11 7 28 3 55 -12 26
-15 52 -21 76 -19 l38 3 -3 46 c-3 40 0 48 22 63 33 21 34 65 4 107 -36 48 -9
53 78 13 40 -19 87 -37 104 -41 26 -5 32 -2 37 16 5 20 10 22 45 16 28 -5 46
-2 64 10 26 17 29 16 124 -29 109 -51 113 -52 129 -32 16 20 -1 51 -40 75
l-30 19 38 7 c21 4 61 15 89 25 l51 17 57 -28 c69 -34 87 -36 112 -8 15 16 16
24 6 39 -10 17 -7 50 4 50 3 0 14 -9 26 -20 12 -11 34 -20 50 -20 23 0 28 4
28 23 0 13 -6 29 -12 36 -14 14 -17 15 97 -10 22 -4 65 -8 95 -9 32 0 63 -7
74 -15 11 -8 32 -15 47 -15 14 0 32 -7 39 -15 13 -16 46 -20 54 -7 3 5 19 7
36 4 27 -4 32 -1 42 26 l11 29 54 -23 c64 -28 122 -31 166 -6 20 10 53 17 87
17 55 0 55 0 58 32 3 30 7 32 48 39 36 5 47 12 55 31 5 13 9 134 9 267 l0 244
-22 6 c-13 3 -36 6 -52 6 -23 0 -27 3 -18 12 29 29 2 68 -47 68 -16 0 -21 6
-21 25 0 14 -9 30 -20 37 -11 7 -20 23 -20 35 0 21 -5 23 -49 23 -28 0 -53 5
-56 10 -10 16 -78 12 -144 -9 -52 -16 -72 -17 -153 -9 -106 11 -276 4 -391
-16 l-77 -13 -39 38 c-36 36 -43 39 -96 39 -66 0 -190 -39 -331 -105 -88 -41
-91 -42 -103 -22 -10 16 -20 18 -51 14 -21 -3 -43 0 -48 5 -6 6 -36 8 -67 6
l-57 -3 37 31 c29 24 36 36 31 52 -8 25 -32 35 -54 23 -23 -12 -158 -152 -163
-170 -7 -19 -174 -28 -232 -12 l-44 13 11 40 c10 37 9 42 -13 59 -31 26 -63
24 -90 -5 -27 -29 -24 -60 7 -64 18 -3 21 -8 16 -30 -4 -15 -9 -30 -13 -34 -3
-3 -40 -8 -82 -9 -61 -3 -79 0 -93 14 -22 22 -41 21 -96 -4 -67 -30 -104 -62
-124 -107 -21 -46 -38 -57 -68 -41 -18 10 -20 18 -15 72 3 34 11 102 18 150
10 69 16 87 27 82 89 -34 173 -30 234 10 l41 28 169 -13 c94 -6 172 -9 175 -7
11 12 -9 45 -33 56 -48 22 -15 24 35 2 54 -23 106 -27 117 -10 3 6 1 16 -5 22
-30 30 -1 35 86 12 67 -18 172 -19 228 -3 54 15 118 12 154 -7 38 -19 90 -19
119 1 26 18 28 36 7 54 -8 7 -15 15 -15 19 0 3 61 3 135 -1 l135 -7 34 -35
c42 -42 104 -65 117 -45 5 8 9 22 9 32 0 22 6 22 37 -3 31 -24 70 -26 94 -4
14 12 21 13 37 3 31 -19 56 -4 49 30 l-6 28 68 7 c38 3 81 13 97 21 16 8 48
15 71 15 56 0 73 8 73 34 0 19 4 21 34 18 46 -5 106 15 106 36 0 33 -33 100
-53 109 l-22 10 22 7 c12 4 25 17 29 29 5 16 -1 27 -27 49 -18 15 -28 28 -21
28 7 0 12 7 12 15 0 12 -14 15 -65 15 -37 0 -65 4 -65 10 0 6 15 10 34 10 59
0 85 44 44 73 l-23 16 30 1 c17 0 37 5 45 10 13 9 12 13 -5 26 -25 20 -143 13
-285 -17 -127 -26 -321 -57 -395 -64 -33 -2 -116 -14 -185 -26 -69 -11 -162
-26 -207 -34 -181 -29 -345 -38 -600 -31 -199 5 -258 10 -283 22 -21 11 -47
15 -75 12 -36 -5 -44 -2 -48 13 -4 14 -14 19 -38 19 -30 0 -31 1 -16 18 21 23
22 48 1 56 -24 9 -69 7 -99 -4 l-26 -10 18 31 c30 52 45 60 84 49 85 -25 366
-2 377 30 2 6 47 10 100 10 161 0 342 37 342 70 0 10 -10 24 -22 33 -22 14
-19 15 38 10 67 -6 104 7 104 36 0 16 16 18 201 24 111 3 204 9 207 12 10 10
-17 23 -90 46 -38 12 -68 25 -68 29 0 5 30 11 68 15 120 11 145 17 166 40 20
21 27 22 117 17 66 -3 98 -1 103 7 4 6 22 11 40 11 74 0 126 12 126 30 0 24
-45 42 -122 48 -38 2 -68 7 -68 10 0 3 7 13 15 22 12 14 26 16 62 12 l46 -5
-6 30 c-5 25 -1 33 28 56 34 27 34 27 92 12 70 -18 84 -19 116 -2 l25 13 -32
21 c-17 11 -52 26 -79 33 -57 15 -67 26 -29 34 32 8 55 38 46 61 -4 9 -20 19
-37 22 l-30 6 36 14 c35 14 52 36 41 54 -3 5 -34 9 -70 9 l-64 0 16 25 c9 14
24 25 33 25 9 0 36 11 60 25 52 30 61 31 129 5 60 -23 154 -26 232 -8 49 11
52 13 47 41 -6 45 30 54 111 28 40 -14 89 -21 137 -21 l75 0 0 149 0 149 -26
5 c-15 3 -43 -2 -63 -11 -47 -20 -209 -18 -310 5 -80 18 -104 13 -109 -26 -3
-16 -10 -21 -35 -21 -18 0 -88 -9 -157 -20 -69 -11 -159 -20 -202 -20 l-76 0
9 28 c5 15 11 47 14 72 3 25 10 52 15 60 9 13 11 13 20 0 6 -8 13 -26 16 -40
12 -53 34 -90 59 -96 59 -15 68 15 35 111 -27 77 -26 81 13 49 36 -31 103 -63
130 -64 12 0 20 10 24 30 6 34 8 35 43 15 14 -8 44 -14 67 -15 36 0 44 4 48
23 5 19 12 22 51 21 36 0 51 -7 78 -33 44 -43 80 -40 84 6 3 27 -3 35 -40 61
-24 17 -61 49 -83 72 l-40 42 53 -32 c84 -51 176 -80 260 -80 l72 0 0 29 c0
24 -12 38 -69 82 -66 50 -78 69 -46 69 15 0 30 34 21 49 -4 5 -25 12 -49 16
-74 13 -72 19 13 60 108 50 140 78 140 119 0 42 -16 56 -62 56 -44 0 -48 13
-15 48 l22 24 -26 21 c-14 12 -29 30 -32 40 -9 25 -84 57 -134 57 -35 0 -42 3
-45 22 -5 36 -52 45 -100 18 -30 -17 -50 -21 -79 -17 -21 3 -41 2 -44 -3 -3
-4 -38 -23 -79 -43 -40 -19 -100 -52 -132 -73 -33 -21 -82 -52 -111 -69 l-51
-32 -64 21 c-49 15 -69 27 -81 48 -9 16 -24 31 -33 35 -20 7 -264 -116 -264
-134 0 -21 43 -43 85 -43 l40 -1 -33 -14 c-78 -34 -117 -83 -77 -99 24 -9 17
-26 -10 -26 -14 0 -47 -9 -75 -19 l-50 -19 6 26 c4 15 10 32 14 37 4 6 10 30
13 55 10 73 12 79 48 123 20 23 74 101 120 172 47 72 119 171 159 222 92 115
100 113 100 -33 0 -101 1 -104 23 -104 13 0 33 14 50 36 25 30 28 41 23 77 -3
23 -8 63 -12 89 l-6 48 33 -6 c19 -3 51 -10 71 -16 60 -18 90 21 51 65 -18 19
-17 20 22 13 57 -11 138 -41 192 -71 40 -22 49 -24 61 -11 21 21 6 53 -41 88
-34 25 -37 30 -17 25 14 -3 66 -13 115 -22 50 -9 99 -21 111 -27 31 -15 78 -6
82 15 2 10 -8 36 -23 59 -15 22 -24 42 -21 45 3 3 27 -13 54 -36 55 -46 110
-57 119 -22 3 11 17 21 33 25 17 3 31 14 35 26 5 15 15 20 41 20 33 0 34 1 34
40 0 29 -4 40 -15 40 -8 0 -15 5 -15 10 0 6 7 13 15 16 13 5 15 45 15 275 l0
269 -40 -6 c-32 -5 -40 -4 -40 9 0 9 -10 23 -22 31 -12 9 -18 16 -12 16 23 0
64 49 64 76 0 25 -2 26 -43 22 -125 -14 -455 -207 -494 -289 -10 -20 -33 -32
-115 -59 -112 -36 -150 -39 -354 -25 -128 9 -187 -1 -285 -46 l-66 -31 -39 27
c-50 34 -88 31 -92 -8 -2 -15 -13 -32 -24 -38 -17 -9 -20 -18 -16 -60 l5 -49
-36 0 c-37 0 -101 -32 -101 -50 0 -5 -8 -10 -18 -10 -10 0 -28 -7 -40 -15 -17
-13 -29 -14 -59 -6 -21 6 -52 11 -70 11 -25 0 -35 6 -47 32 -20 40 -21 38 17
38 23 0 41 -8 57 -25 13 -14 29 -25 36 -25 24 0 22 27 -7 95 -17 38 -27 75
-25 82 3 7 19 13 35 13 40 0 49 19 21 40 -30 23 -9 36 23 15 48 -31 82 16 53
73 -29 56 -19 91 19 66 13 -9 39 -14 57 -12 l33 3 5 68 5 69 39 -31 c46 -37
91 -41 99 -10 7 24 -1 49 -15 49 -5 0 -6 5 -3 10 11 18 39 10 71 -21 37 -36
60 -34 70 6 4 18 1 32 -11 45 -27 30 -8 24 35 -10 72 -57 160 -80 160 -41 0
30 14 33 65 11 62 -26 83 -25 97 5 9 21 8 28 -7 45 -23 25 -15 33 19 20 15 -5
38 -10 50 -10 24 0 76 41 76 59 0 19 -136 120 -209 155 -41 19 -99 41 -130 47
-62 13 -86 29 -108 73 -12 24 -13 30 -1 40 7 7 44 39 82 71 l68 59 32 -18 c77
-45 94 -54 149 -74 79 -30 97 -29 97 6 0 20 -11 35 -40 56 -60 45 -59 55 9 49
97 -9 132 26 66 67 -19 12 -35 27 -35 35 0 21 37 24 164 13 113 -9 123 -12
155 -40 61 -53 150 -84 166 -57 4 6 -2 21 -14 33 -12 12 -21 25 -21 29 0 4 32
7 70 7 64 0 70 2 70 20 0 12 -10 25 -25 32 -30 14 -31 19 -5 36 26 16 26 57 1
98 l-19 32 23 22 c23 22 26 22 49 6 28 -17 63 -21 85 -7 19 12 0 44 -45 74
-20 14 -46 46 -60 76 -19 38 -38 58 -72 79 -43 25 -57 27 -174 30 l-126 4 10
31 c15 43 15 43 38 22 27 -25 36 -13 22 32 -6 20 -9 39 -7 42 3 2 23 -2 44 -9
52 -17 74 -8 69 28 -4 29 -4 29 43 24 42 -4 48 -2 54 19 6 18 2 28 -19 46
l-27 23 100 0 c92 0 101 2 112 21 9 17 8 25 -5 37 -13 13 -44 17 -152 20 -116
4 -137 7 -141 21 -2 9 -22 28 -43 44 l-38 27 -1134 -1 c-908 0 -1141 -3 -1175
-14z m1762 -274 c-3 -11 3 -33 15 -53 21 -35 26 -74 11 -97 -8 -12 -37 -12
-203 3 -106 9 -215 16 -243 16 -46 1 -48 2 -31 15 11 8 36 17 55 20 176 27
260 47 325 79 39 19 72 35 74 35 2 1 1 -8 -3 -18z m-1154 -467 c28 -25 89 -43
152 -44 62 0 81 -20 20 -21 -21 0 -56 -6 -78 -13 -33 -9 -40 -16 -40 -36 0
-23 4 -25 53 -28 28 -2 52 -7 52 -12 0 -12 -54 -103 -102 -172 l-40 -56 -86
-16 c-93 -17 -235 -36 -239 -32 -1 1 25 26 59 56 52 46 63 52 79 42 28 -18 59
-14 104 11 38 22 40 25 38 69 -1 30 -15 75 -42 134 -23 48 -39 89 -36 92 5 5
76 40 84 41 3 1 12 -6 22 -15z m859 -189 c0 -2 -34 -55 -75 -118 -82 -125
-115 -152 -139 -114 -18 28 -72 144 -81 176 -6 21 -5 23 11 16 11 -5 45 -11
78 -13 l59 -4 -5 31 -5 31 79 0 c43 0 78 -2 78 -5z m219 -1682 c-45 -80 -130
-210 -168 -258 -18 -22 -39 -54 -46 -72 l-14 -32 -40 17 c-40 17 -40 17 -20
38 25 27 24 43 -6 77 -28 32 -58 34 -153 12 -55 -13 -66 -13 -84 -1 l-20 14
21 11 c34 18 25 38 -29 65 -62 31 -143 86 -137 93 6 6 68 -27 127 -66 45 -31
112 -42 124 -22 7 11 88 51 103 51 19 0 53 51 53 79 l0 26 18 -23 c45 -58 132
-85 132 -40 0 12 -7 30 -17 40 -15 17 -14 18 38 19 30 0 72 6 94 14 22 7 44
13 48 14 5 1 -6 -25 -24 -56z m33 -835 c-17 -17 -15 -43 3 -58 13 -11 26 -8
76 13 l61 26 -8 -47 c-5 -26 -8 -64 -9 -84 0 -43 -3 -44 -84 -24 -138 35 -319
41 -690 24 -37 -2 -47 2 -65 25 -12 15 -31 27 -43 27 -28 0 -115 -61 -130 -91
-12 -24 -35 -37 -66 -38 -16 -1 -14 6 13 57 l31 59 141 37 c131 36 143 37 181
25 22 -7 63 -13 90 -14 48 0 55 4 74 43 0 2 11 -3 23 -10 18 -11 20 -19 16
-50 -8 -47 10 -59 38 -27 17 19 33 25 79 27 43 2 84 15 164 52 102 47 131 54
105 28z m-463 -606 l-257 -85 -52 22 c-41 18 -67 22 -117 19 l-65 -3 -4 46 -4
45 317 21 c496 31 483 36 182 -65z m-1479 -703 c6 -23 9 -53 5 -68 -11 -42
-87 -201 -97 -201 -5 0 -20 7 -33 16 -37 24 -55 12 -55 -37 0 -36 -2 -40 -17
-33 -10 4 -46 9 -80 9 -35 1 -65 3 -67 6 -2 2 29 32 68 65 40 34 101 99 134
145 70 95 109 139 122 139 5 0 14 -19 20 -41z m-3795 -5089 c48 -120 59 -158
63 -220 4 -73 3 -77 -43 -168 -26 -51 -52 -91 -58 -89 -16 5 -34 43 -52 113
-20 80 -67 172 -127 251 l-49 66 103 97 c57 54 104 97 104 96 1 0 27 -66 59
-146z m310 -1407 c3 -32 18 -125 31 -208 17 -96 25 -185 24 -246 0 -53 7 -157
16 -230 18 -143 26 -559 10 -559 -4 0 -9 20 -10 44 -2 51 -37 103 -96 143 -22
14 -42 33 -44 42 -22 74 -27 248 -21 644 l8 427 38 0 38 0 6 -57z"/>
</g>
</svg>
