<?xml version="1.0" standalone="no"?>
<!DOCTYPE svg PUBLIC "-//W3C//DTD SVG 20010904//EN"
 "http://www.w3.org/TR/2001/REC-SVG-20010904/DTD/svg10.dtd">
<svg version="1.0" xmlns="http://www.w3.org/2000/svg"
 width="2400.000000pt" height="1600.000000pt" viewBox="0 0 2400.000000 1600.000000"
 preserveAspectRatio="xMidYMid meet">
<metadata>
Created by potrace 1.13, written by Peter Selinger 2001-2015
</metadata>
<g transform="translate(0.000000,1600.000000) scale(0.100000,-0.100000)"
fill="#000000" stroke="none">
<path d="M2071 5650 c-13 -6 -58 -11 -100 -13 -94 -3 -186 -43 -250 -108 -119
-122 -261 -298 -261 -324 0 -29 -26 -26 -137 19 -61 25 -119 43 -129 40 -11
-3 -36 6 -59 22 -58 39 -316 144 -354 144 -77 0 -141 -62 -141 -136 0 -67 25
-85 239 -174 107 -44 198 -85 201 -90 4 -6 67 -34 141 -64 l134 -54 3 -41 c3
-35 0 -41 -17 -41 -16 0 -20 8 -23 38 -3 33 -6 38 -40 46 -45 11 -94 -7 -104
-38 -7 -19 -8 -18 -16 10 -9 34 -33 50 -52 35 -8 -7 -33 -4 -75 9 -70 22 -135
25 -178 9 -15 -6 -55 -14 -87 -17 -56 -7 -60 -9 -72 -42 -7 -19 -13 -30 -13
-23 -1 12 -13 17 -68 28 -33 7 -33 7 -33 -35 0 -28 -4 -39 -11 -34 -8 5 -10
-1 -7 -19 4 -23 1 -26 -26 -29 -20 -2 -32 -10 -36 -23 -4 -17 -13 -20 -54 -20
-46 0 -50 -2 -57 -29 -5 -18 -3 -44 6 -70 8 -22 15 -53 15 -68 0 -23 7 -29 47
-45 l48 -18 2 -76 1 -76 -31 -15 c-25 -12 -35 -26 -46 -61 -12 -44 -12 -49 12
-90 14 -24 33 -49 41 -56 8 -7 63 -18 121 -24 75 -7 105 -14 105 -24 0 -17 31
-17 208 2 79 8 148 13 153 10 5 -4 9 -24 9 -45 0 -22 5 -40 13 -43 19 -6 -276
-16 -705 -23 l-388 -7 0 -583 0 -584 4040 0 4040 0 0 414 0 414 -96 7 c-116 9
-144 5 -229 -34 -109 -51 -101 -51 -217 30 -170 120 -332 244 -425 326 -197
174 -354 264 -532 308 -141 34 -386 5 -584 -69 -94 -36 -171 -76 -317 -164
-200 -121 -380 -196 -588 -243 -130 -30 -339 -35 -568 -15 -104 9 -245 21
-314 27 -68 6 -176 22 -240 35 -301 64 -607 114 -691 114 -34 0 -35 3 -10 38
20 29 39 89 43 137 3 28 5 30 41 27 24 -2 37 1 37 8 0 18 52 6 92 -21 18 -12
48 -41 67 -65 39 -52 127 -99 214 -115 76 -13 87 -9 87 39 0 30 -5 41 -27 54
-16 10 -41 29 -58 43 l-30 26 50 -5 c28 -3 160 -19 295 -36 163 -20 290 -30
380 -30 127 0 137 1 165 24 29 24 30 26 33 128 4 126 2 130 -102 153 l-73 16
4 92 c3 51 9 96 13 101 5 4 0 27 -9 50 -21 48 -12 101 18 111 17 5 19 19 23
143 3 109 1 139 -10 149 -8 6 -43 12 -78 12 -35 0 -68 2 -72 5 -13 8 -273 34
-512 52 -118 8 -244 18 -280 21 -61 4 -68 3 -113 -28 l-49 -32 -226 33 c-452
65 -574 86 -583 101 -6 8 -7 66 -2 144 4 72 8 159 8 195 l0 65 -90 23 c-79 20
-195 34 -375 48 -30 2 -66 -1 -79 -6z m-163 -178 c13 -21 16 -21 32 -7 13 12
30 14 74 9 64 -8 79 -24 51 -54 -27 -30 -13 -34 52 -13 54 17 58 20 61 51 l3
33 72 -2 c42 -2 81 2 94 9 32 18 80 15 102 -7 25 -25 17 -64 -20 -95 -27 -23
-28 -24 -6 -30 l21 -5 -22 -24 c-20 -22 -21 -25 -7 -31 10 -3 15 -13 12 -20
-3 -8 1 -17 9 -20 21 -8 17 -25 -8 -36 -13 -5 -17 -9 -10 -9 15 -1 16 -31 1
-31 -5 0 -7 -4 -4 -10 3 -5 3 -15 -1 -22 -13 -21 -15 -70 -2 -85 8 -10 8 -17
0 -25 -8 -8 -17 -1 -33 26 -15 26 -26 35 -39 31 -9 -3 -30 -1 -46 5 -25 10
-31 8 -45 -9 -15 -18 -28 -21 -101 -21 -120 0 -290 26 -305 46 -13 18 -4 44
24 72 11 11 10 17 -5 37 -9 14 -20 25 -23 25 -3 0 -24 -16 -47 -36 -35 -29
-45 -33 -62 -24 -39 21 -15 91 36 104 15 4 36 18 46 32 11 13 25 24 31 24 7 0
18 4 26 9 11 7 10 14 -8 39 -58 83 -57 138 2 104 16 -9 36 -27 45 -40z m-43
-1342 c134 -12 413 -12 555 0 143 13 269 4 277 -19 5 -14 40 -92 51 -113 2 -5
-45 -8 -105 -8 -59 0 -221 -9 -358 -21 -280 -23 -407 -21 -601 11 -65 11 -120
20 -121 20 -1 0 6 14 14 32 13 25 14 37 5 60 -6 16 -8 36 -5 45 7 17 41 16
288 -7z"/>
</g>
</svg>
