<?xml version="1.0" encoding="UTF-8" standalone="no"?>
<svg
   xmlns:dc="http://purl.org/dc/elements/1.1/"
   xmlns:cc="http://creativecommons.org/ns#"
   xmlns:rdf="http://www.w3.org/1999/02/22-rdf-syntax-ns#"
   xmlns:svg="http://www.w3.org/2000/svg"
   xmlns="http://www.w3.org/2000/svg"
   viewBox="0 0 272.5 422.5"
   height="422.5"
   width="272.5"
   xml:space="preserve"
   version="1.1"
   id="svg2"><metadata
     id="metadata8"><rdf:RDF><cc:Work
         rdf:about=""><dc:format>image/svg+xml</dc:format><dc:type
           rdf:resource="http://purl.org/dc/dcmitype/StillImage" /></cc:Work></rdf:RDF></metadata><defs
     id="defs6" /><g
     transform="matrix(1.25,0,0,-1.25,0,422.5)"
     id="g10"><g
       transform="scale(0.1,0.1)"
       id="g12"><path
         id="path14"
         style="fill:#000000;fill-opacity:1;fill-rule:nonzero;stroke:none"
         d="m 2169.14,3370 -39.99,0 -39.98,-39.98 -39.99,39.98 -2039.18,0 0,-186.93 454.316,0 c 0.5,1 0.5,2 1,3 0.5,1.5 1,3 1.5,4.5 1.5,0.5 2.5,1.5 4,2 6.497,3.5 8.497,8.5 5.997,15 -0.5,0.5 -1.5,1 -2,1.49 -2.497,1 -5.497,2 -7.997,2.5 -18.492,-3.49 -35.484,-10.49 -51.48,-20.49 -1.996,0.5 -3.996,1.5 -5.996,2 4.5,2.5 9.496,4 14.496,5.5 5.496,1.5 9.496,4.5 12.992,9 3,1.49 6,3.49 8.996,5.99 4,1 8,3 12.496,5.5 17.993,11.49 36.985,15.99 57.477,13.49 4,-3.5 7.996,-7.49 12.496,-10.99 15.492,-13.49 29.488,-13.99 40.984,-1.5 6.996,0.5 13.993,1 21.493,1.5 0.496,0.5 0.996,1 1.496,1.5 1,1 2,2 2.5,3 0.5,0.5 0.5,1.5 1,2 0,2.49 0,4.99 0,7.49 0,2.5 0,5 0,7.5 0.5,0 1,0 1.5,-0.5 10.996,-12.5 23.488,-17.49 36.984,-14.99 1.5,-0.5 2.5,-1.5 4,-2 1,0.5 1.996,0.5 3.496,1 -1.5,1 -2.496,1.99 -3.496,2.49 -1,1 -2,2 -2.5,2.5 0,1 0,2 -0.5,2.5 0,1 0,2 -0.5,2.5 -0.5,1 -0.5,2 -0.5,2.5 -1.5,1 -2.5,2 -3.5,2.5 -9.496,8.5 -18.992,16 -28.488,22.49 15.496,0 30.488,-1 45.984,-2.5 10.496,-3.99 19.492,-9.99 27.988,-17.49 16.493,-14.5 34.485,-22.99 54.977,-25.49 5.5,-5 11.996,-5 19.492,-0.5 1,0 2,0 3,0 5.996,-1.5 11.496,-4 16.492,-6.5 0.5,-1 0.5,-2 1,-2.99 -2,-1.5 -4,-2.5 -5.996,-4 -0.5,-0.5 -0.5,-1 -0.5,-1.5 -2,-0.5 -4,-1.5 -6,-2.5 -1.5,-0.5 -2.496,-1.5 -2.996,-3 0.5,-4.5 1.996,-8.5 4.996,-12 0.5,-0.5 1.5,-1.5 2,-2.5 l 33.985,0 c 3.5,0.5 6.5,2 8.996,4.5 0.5,0.5 0.5,1.5 1,2 2,-2.5 4.5,-4.5 7,-6.5 l 46.98,0 c 1.5,2.5 3,6 3.996,9.5 -0.5,0.5 -0.5,1.5 -0.996,2 -11.496,8.5 -23.992,14.49 -37.988,16.99 -2.496,5.5 -4.496,11 -5.996,16.5 9.496,2.49 18.992,6.99 28.488,13.49 8.496,-3.5 16.992,-4.5 25.988,-3.5 0.5,0.5 1,1.5 1.5,2 1,1.5 2,3.5 3.5,5 -0.5,1.5 -0.5,3.5 -1,5 -0.5,0.5 -0.5,1.5 -1,2.5 3,-0.5 6,-1 9.496,-1.5 4,-0.5 7.497,0.5 10.497,3 0.5,1.5 1,3.5 1,4.99 0.5,1.5 0.5,3.5 0,5 -1,1 -2,2 -2.5,2.5 -1,1 -2,2 -3.497,2.5 0.5,9 -3.5,14 -12.496,15 -19.492,1.5 -38.484,2.99 -57.976,3.49 -0.5,0.5 -1.5,1 -2,1.5 -0.5,0.5 -1.5,1 -2,1.5 l 1270.994,-0.5 0,-106.96 80.47,0 0,186.93 z M 310.879,3280.04 c 3,3.5 6,6.99 9.496,10.49 l 119.953,0 c -14.496,-9.99 -27.988,-21.49 -40.484,-34.98 -3,-1.5 -5.496,-4 -7.496,-7 -2.5,-4.5 -5.5,-8.5 -8.996,-12.5 -18.493,0.5 -37.485,-3 -55.981,-10.99 -13.492,11.49 -28.488,14.99 -45.48,11.49 0,1 0,2 0,2.5 0,1 0,2 0,2.5 -3,4 -5.996,7.5 -9.496,11 5.5,1.5 10.496,4 14.996,6.99 4.496,2.5 8.496,5 12.992,7.5 3,1.5 6,2.5 8.996,4 0.5,0.5 1,1.5 1.5,2.5 0.5,0.5 0.5,1.5 0.5,2.5 0.5,0.5 0.5,1.5 0.5,2.5 -0.5,0.5 -0.5,1 -1,1.5" /><path
         id="path16"
         style="fill:#000000;fill-opacity:1;fill-rule:nonzero;stroke:none"
         d="m 860.66,3183.07 -46.98,0 c 1.5,-1.5 3.496,-2.5 5.496,-3.5 19.992,-10.49 33.988,-8.99 41.484,3.5" /><path
         id="path18"
         style="fill:#000000;fill-opacity:1;fill-rule:nonzero;stroke:none"
         d="m 796.684,3183.07 -33.985,0 c 3.996,-4.49 8.996,-7.99 14.492,-10.49 1.5,0 3,0 4.5,0 0.5,0.5 1.5,1.5 2,2.5 0.5,0.5 0.5,1.5 0.5,2.5 0,0.5 -0.5,1.5 -1,2.49 -1,2.5 2.5,3.5 9.997,3 1,0 2,0 3.496,0" /><path
         id="path20"
         style="fill:#000000;fill-opacity:1;fill-rule:nonzero;stroke:none"
         d="m 533.289,3157.59 c -0.5,0.5 -1.496,1 -1.996,1.5 -4.5,0.99 -9.496,1.99 -14.496,2.49 l 0,-0.5 c -12.496,-0.5 -24.988,-1.99 -36.984,-4.99 -7.997,5.99 -15.993,11.49 -24.493,16.49 1,2 2,4 3,6.5 1,0.49 2,0.99 3.5,1.49 0.5,0.5 0.5,1 1,1.5 0.5,0.5 1,0.5 1.496,1 l -454.316,0 0,-186.42 79.4688,0 0,129.45 c 6.496,0.5 13.4922,1 20.4922,1.5 0,-2.5 0.5,-5.5 1.5,-8.5 4.996,-16.49 13.492,-24.49 25.488,-24.99 0,-0.5 0,-0.5 0.5,-1 3,-1.5 5.996,-3.5 8.496,-5 0.5,-1 1,-2 1.5,-3.5 0,-1.5 0,-2.5 0,-3.99 1,-0.5 2,-1.5 2.5,-2.5 0.5,0 1,0 1.5,0 0.996,-1.5 1.996,-3.5 2.996,-5 6,-3.5 10.997,-3.5 15.497,0 -1.5,2.5 -2.5,5 -3,7.5 -0.5,3.99 -1.5,7.49 -3,10.99 3,0 6,0.5 8.996,1 2,-9.5 7,-17.99 14.496,-25.99 1.5,-0.5 3.496,-1.5 4.996,-2 4.5,-3.49 9.996,-3.99 15.996,-2 0.5,-0.99 1.5,-1.99 2.496,-2.49 4.5,-2.5 8.5,-2.5 12.496,0.5 0.5,1 1,1.99 1.5,2.49 0.5,1 1.5,2 2,2.5 0.5,1 1,2 1.5,2.5 0,1 0,2 0,2.5 0,1 0,2 0,2.5 0,1.5 0,3.5 0,5 -0.5,1 -1,2 -1,2.5 9.496,-9.5 20.992,-15.5 34.984,-17.5 1.5,1.5 2.5,3 3.5,4.5 1,-1.5 2.5,-2.5 3.997,-3.5 -0.5,-0.5 -1,-1 -1.497,-1.5 0,-1.49 0,-3.49 0,-4.99 -0.5,-3 0.497,-5.5 2.497,-7.5 17.492,-9.5 34.488,-13.5 51.48,-12.5 1,1.5 1.5,3.5 1.5,5 0.5,1.5 0,3.5 -0.5,5 -5,3 -9.496,6.5 -13.996,10.5 6.5,1.5 12.496,3.5 17.992,6.99 6.5,-5.49 13.496,-10.99 20.492,-16.49 5.5,-3.5 9.496,-8.5 11.996,-14.5 3,-1.49 6,-3.49 8.496,-4.99 2.5,-1.5 5.5,-2.5 8.497,-3.5 4.5,-1.5 7.5,0 9.996,3.5 1.5,2.5 2,4.99 1,7.49 -2.496,7.5 -5.996,15 -9.996,22.5 5,-2.5 10.496,-3.5 16.496,-4 0.5,0.5 1,1 1.496,1.5 0.5,1 1.5,2 2.5,2.5 4.5,-0.5 8.996,-1.5 13.496,-2.5 2.5,-8 7.996,-14 16.492,-17.5 15.496,-6.49 25.492,-3.5 28.988,8 2.5,0 5.5,0 8.496,0.5 0.5,1.5 1,3.5 1.5,5 0,1.5 0,2.5 0,4 6.997,1.5 11.997,5.99 14.497,13.49 -0.5,0.5 -0.5,1.5 -1,2.5 -0.5,0.5 -0.5,1.5 -1,2.5 0.5,1 1.5,2 2,3 0.5,0.5 0.5,1.5 1,2 0.5,1.5 0.996,2.49 1.496,3.99 18.496,-7.49 37.488,-14.49 56.48,-20.99 6.496,-4.99 11.992,-4.99 16.492,0 0.5,0.5 0.5,1 0,2 -21.492,14 -44.98,25.99 -69.972,36.49 1.5,0.5 2.5,0.5 3.5,1 0.5,0.5 1.5,1 2.496,1.5 1,1.5 2,3.5 3.5,5 0.5,1 1,2 1.5,2.49 0.5,2.5 -0.5,4.5 -2,6 -2.5,2 -4.496,4 -6.996,5.5 1,0 2,0 3.5,0.5 2.496,0.5 5.496,0.5 7.996,0.5 0.5,0.5 0.5,1.5 1,2 3.496,1.5 7.496,3 11.492,5.49 13.496,7 20.492,8 21.492,2.5 0,-0.5 0,-1.5 0.5,-2 0.5,-1 1.5,-1.99 2,-2.99 13.996,-3.5 25.988,0 35.984,9.99 5.5,5.5 6.5,12 3.5,18.5 -13.496,5.49 -27.988,5.49 -43.484,0" /><path
         id="path22"
         style="fill:#000000;fill-opacity:1;fill-rule:nonzero;stroke:none"
         d="m 2088.67,2996.65 80.4688,0 0,186.426 -80.4688,0 0,-186.426 z" /><path
         id="path24"
         style="fill:#000000;fill-opacity:1;fill-rule:nonzero;stroke:none"
         d="m 2065.68,2910.18 c -0.5,-1.5 -1,-3.5 -1.5,-4.99 -0.5,-2.5 -0.5,-4.5 -0.5,-7 -2.5,0.5 -5.5,0.5 -8,0.5 l 0,-0.5 c -1.5,-0.5 -2.5,-0.5 -4,-1 -0.5,0 -1,0 -1.5,-0.5 -0.5,-0.5 -1.5,-1 -2,-1.5 -1.5,-1.5 -2.5,-3.5 -3.99,-5 0,-1.5 0,-3.49 0,-4.99 0,-1.5 0,-3.5 0,-5 1.49,-1.5 2.99,-3 4.99,-3.5 2.5,-1 4.5,-2 7,-3.5 -0.5,-1 -1.5,-2 -2,-3 0,-1.5 0.5,-3 1,-4.5 0.5,-2.5 1,-5.5 1.5,-7.99 -0.5,-0.5 -1.5,-1.5 -2,-2.5 -0.5,-0.5 -1,-1.5 -1.5,-2.5 0,-1.5 0,-3.5 0.5,-5 0.5,-2 1,-4 2,-6.5 l -0.5,0 c -0.5,-1.5 -0.5,-3.5 -0.5,-5 0,-2.5 0,-5 0,-7.5 -3.5,7.5 -7,14.5 -10.49,21.5 -1.5,0.5 -3.5,1 -5,1.5 -1.5,0 -2.5,-0.5 -4,-1 -1,-0.5 -2,-1 -2.5,-1.5 -2,-2.5 -2.5,-6 -1,-9.5 3,-9.5 4.5,-18.49 5,-27.49 -2,-0.5 -4,-1.5 -5.5,-2 l 137.95,0 0,186.43 -80.47,0 0,-112.95 c -1,12.99 -6.5,22.49 -15.99,28.98 -1.5,-0.5 -2.5,-0.5 -4,-1 -1,-0.5 -2,-1 -3,-1.5 z m 8.5,-79.97 c 0.5,-0.5 0.99,-1.5 1.49,-1.99 -0.5,-0.5 -0.99,-1 -1.49,-1.5 0,1.5 0,2.49 0,3.49" /><path
         id="path26"
         style="fill:#000000;fill-opacity:1;fill-rule:nonzero;stroke:none"
         d="m 2031.19,2810.22 c -0.5,-0.5 -1.5,-0.5 -2,-1 -0.5,-1.49 -1,-3.49 -1.5,-4.99 -0.5,-2.5 0.5,-5 2.5,-7.5 2,-0.5 4,-1 5.5,-1.5 0,-1 0,-2 -0.5,-3.5 -1.5,-0.5 -3,-1 -4.5,-1.5 -2.5,1 -5.49,2 -7.99,2.5 -5,0 -8,-2 -9.5,-6.5 0,-1.5 0,-3.5 0.5,-5 0.5,-1.5 1,-3.49 1.5,-4.99 -5.5,-4.5 -10,-9.5 -14.5,-15 0,-1.49 0,-3.49 -0.5,-4.99 -0.5,-2.5 0,-5 0.5,-7.5 5.5,-7 12,-12 19.5,-15 0,-4.49 0,-8.49 0,-12.49 -13.5,2.5 -25.99,1 -37.49,-4.5 -2,-2 -3,-4.5 -3,-7.49 0,-2.5 0.5,-5 1,-7.5 1,-0.5 2,-1.5 3,-2 0.5,0 1,0 1.5,-0.5 -0.5,0 -0.5,0 -1,-0.5 0,-1 0,-2 0.5,-2.5 -0.5,-0.5 -1,-0.5 -1.5,-1 -1.5,-2 -2.5,-4.5 -2.5,-7 -0.5,0.5 -1,0.5 -1.5,1 -5.5,7.5 -10.5,13.5 -13.99,17.5 1,1 1.99,2 2.99,3 5,3.99 8.5,8.99 10,14.49 -4,13.49 -13.99,18.49 -30.49,15.99 0,1 0,2 0,2.5 -0.49,11.5 -6.49,17.99 -18.49,18.99 -1.5,-0.5 -2.5,-0.5 -4,-1 -0.5,0 -1.5,0 -2,-0.5 -0.5,-1.49 -1.5,-2.49 -2.5,-3.99 -2,-3.5 -3.99,-6.5 -6.49,-10 0,-5 0,-10 -0.5,-15 -0.5,-9.49 0.5,-18.49 3,-27.48 -9.5,-1.5 -17,-6.5 -22.49,-14.5 0,-1.5 0,-3.5 0,-5 -0.5,-2.49 0.5,-4.99 2.5,-7.49 12.99,-3 24.98,-0.5 36.48,7.49 8.5,-3.49 17.49,-4.99 26.99,-5.49 6.5,-4.5 13.99,-8 21.49,-10.5 6.5,-2 13,-4 19.49,-6.49 0,0 0,0 -0.5,-0.5 -0.5,-3.5 -1,-6.5 -1,-10 0.5,-3.5 0.5,-6.5 0.5,-10 -8.49,2 -16.99,1.5 -24.49,-1 -1.5,-2 -2.5,-4.5 -3,-7.49 0,-2.5 0.5,-5 1.5,-7.5 1.5,-0.5 2.5,-1.5 3.5,-2 l 191.43,0 0,186.92 -137.95,0 z m 51.98,-37.48 c 1.5,-0.5 2.5,-1.5 3,-3 0.5,-0.5 0.5,-1 0.5,-2 0,-0.5 0,-1 0,-1.5 l -0.5,0 c -2.5,1 -5.5,2 -8.5,3 -0.5,1.5 -1.5,2.5 -2.5,3.5 2.5,0 5.5,0 8,0 z m -38.48,-3.5 c 1.49,2 2.99,4 4.49,5.5 0.5,-1.5 0.5,-2.5 1,-4 -1.5,-0.5 -3,-1.5 -4.5,-2.5 -0.49,-0.5 -1.49,-1.5 -1.99,-2 l -0.5,0.5 c 0.5,1 1,2 1.5,2.5 z m 15.99,-76.47 c 1.5,0.5 3,0.5 4.5,0 0.5,0 1.5,-0.5 2.5,-1 0.5,-0.5 1.5,-1.5 2.5,-2 0.5,-0.5 1.5,-0.5 2.5,-1 1.5,-6.5 3.49,-12.49 4.99,-18.49 1,-0.5 2,-1.5 3.5,-2.5 1.5,-1 3.5,-2 5.5,-3.5 -0.5,-3.49 0,-6.49 1,-9.99 0.5,-1.5 0.5,-2.5 1,-4 l 0,-1 c -1.5,0 -2.5,-0.5 -3.5,-1 -1,-0.5 -2,-1 -2.5,-1.5 -0.5,-0.5 -0.5,-1 -1,-1.5 -1.5,1.5 -3.5,2.5 -5,4 -2.99,2.5 -5.99,4.5 -8.99,6.5 0,1 0,2 0,3.5 -1.5,1.5 -2.5,2.99 -4,3.99 -4.5,2.5 -9,3.5 -13.5,2 0.5,1.5 1,2.5 1.5,4 0,0.5 0,0.5 0.5,0.5 2.5,0.5 4.5,1.5 7,3 1.5,3 2.5,6.5 2,9.99 -0.5,3.5 -0.5,6.5 -0.5,10 z m -5.5,-53.98 c -0.5,0.5 -1.5,0.5 -2,0.5 0.5,0.5 0.5,0.5 1,0.5 0,-0.5 0.5,-0.5 1,-1" /><path
         id="path28"
         style="fill:#000000;fill-opacity:1;fill-rule:nonzero;stroke:none"
         d="m 2035.19,2582.32 c 0,0 0,0 0.5,-0.5 -1.5,-5.5 -3,-11 -4.5,-16.5 -2.5,-9.5 -4.5,-18.99 -5.99,-28.49 5.49,-5.49 11.49,-5.49 17.49,0 0.5,2.5 1,5 2,7.5 0.5,0.5 0.5,1 0.99,1.5 0,-3.5 0.5,-7 2,-10.49 -1.5,-1.5 -3.49,-3.5 -4.99,-5 -0.5,-1 -1.5,-2 -2,-3 -3.5,-1.5 -6.5,-2.5 -9,-3.5 -0.5,0.5 -0.5,1.5 -1,2.5 -4,7.5 -9.99,12.99 -17.99,16.49 0,-0.5 0,-0.5 -0.5,-0.5 -1.5,-0.5 -3,-1 -4.5,-1.5 -1,-0.5 -2,-1 -2.5,-1.5 -1.5,-2 -2.5,-4.49 -2,-7.49 0.5,-5.5 0.5,-10.5 -0.5,-15 -0.5,-0.5 -0.5,-1 -1,-1 -6.49,-1.5 -12.99,-3.5 -18.99,-5.5 -1,-1.5 -1.5,-3.5 -2,-4.99 -0.5,-2 -0.5,-4 -0.5,-6.5 l 65.97,0 0,0.5 c 1.5,1.5 3.5,3.5 5.5,5 9.5,2.49 18.5,8.49 26.49,18.49 1,-0.5 2,-0.5 3.5,-0.5 2.5,-6 4.5,-12 7,-17.99 l 0,-5.5 80.47,0 0,124.45 -191.43,0 c 6.5,-2.5 12,-4 16.5,-4.5 -1.5,-1.5 -3.5,-3.5 -5,-5 -2.5,-2 -4.5,-4.5 -6,-7.5 0,-1 0,-2 0,-2.5 0,-0.99 0,-1.99 0.5,-2.49 0,-1 0,-2 0.5,-2.5 7.5,-4.5 14.99,-4 23.49,0.5 1.5,-1.5 2.5,-3.5 4,-5 1.5,-2.5 3.5,-5 5,-7.5 6.5,-3.49 12.99,-4.99 18.49,-4.49 z m 49.98,3.99 c -1.5,5.5 -3.5,11.5 -5,17.49 0.5,1 1,2 1.5,2.5 1.5,-1 2.5,-2 4,-2.99 0.5,-5.5 1,-11.5 1.5,-17.5 -0.5,0.5 -1.5,0.5 -2,0.5" /><path
         id="path30"
         style="fill:#000000;fill-opacity:1;fill-rule:nonzero;stroke:none"
         d="m 2042.69,2496.35 c 1.5,0.5 2.5,1.5 3.49,2.5 l -65.97,0 0,-0.5 c -1.5,0.5 -3.5,0.5 -5,0.5 l -49.98,0 c 0,-0.5 0,-0.5 0.5,-1 -14.49,-1 -24.99,-7 -32.48,-18.49 0,-1.5 0,-3 0.5,-4.5 0,-1 0,-2 0.5,-3 1,-0.5 2,-1.5 2.5,-2.5 1,-0.5 2,-1.5 2.49,-2.5 -0.49,-1.5 -1.49,-3.5 -1.99,-5 -0.5,-3.5 -0.5,-6.49 0.5,-9.99 7.49,-4.5 15.49,-4 23.98,2 0.5,1.5 1,2.5 1.5,3.99 0.5,1 0.5,2 1,2.5 7.5,2.5 13,1.5 16.5,-3.49 1,-1.5 1.5,-3.5 2,-5 0.5,-5.5 1.5,-10.5 4,-14.99 12.99,-2.5 19.99,2.99 20.98,15.99 -0.99,1 -1.99,2 -2.99,2.5 -1.5,1 -3,1.99 -4.5,2.49 12.99,0.5 25.49,4 36.98,10.5 0,-1 0,-2 0.5,-3 10.5,-6.5 19,-4 25.5,7.5 0.5,0 1.5,0 2.5,-0.5 1.49,-0.5 3.49,-1.5 4.99,-2.5 -1,0 -2,0 -3,-0.5 -1,-0.5 -1.5,-1.5 -1.99,-2.5 -0.5,-0.5 -0.5,-1 -0.5,-1.5 -2.5,-0.5 -5.5,-2 -8.5,-5 0,-1.5 0,-3.49 0,-4.99 0,-1.5 0,-2.5 0,-3.5 -12,4 -24.49,6.49 -37.49,7.49 -1.5,0 -2.5,-0.5 -4,-1 -0.5,0 -0.5,0 -1,-0.5 -0.5,-0.5 -1.5,-0.99 -2.5,-1.49 -0.5,-1.5 -1,-3.5 -1,-5 -0.5,-4.5 -0.5,-8.5 0,-12.5 0.5,-1.49 1,-3.49 2,-4.99 1.5,-1 2.5,-2 3.5,-3 1.5,-1.5 3,-2.5 4.5,-4 -2,-2.5 -4,-5 -6.5,-7.5 -2.5,1.5 -5.5,2.5 -8.49,3 -3.5,1 -7,0.5 -10,-2 -0.5,-1 -0.5,-2 -1,-3.5 -3.5,1.5 -7.49,2 -11.99,2 l 0,-0.5 c -2,-0.5 -4,-1 -6,-1.5 -1.5,-1.5 -3.5,-3.5 -5,-5 -0.5,-0.5 -1.5,-1.5 -2.5,-2.5 -2.5,-0.5 -5,-0.99 -7.5,-1.49 -0.5,-0.5 -1,-0.5 -1.5,-1 -1.5,-3.5 -4.49,-5.5 -8.49,-6 -0.5,0 -1,0 -1.5,-0.5 -0.5,-0.5 -0.5,-1 -1,-1.5 -0.5,-1 -1,-2 -1.5,-2.5 0,-1 0,-2 0,-2.5 0.5,-4 2,-7.5 5.5,-10.5 0.5,-0.5 1.5,-1.5 2,-2 -0.5,-1.5 -0.5,-3.49 -1,-4.99 0,-0.5 0,-1 0,-1.5 l 34.48,0 c 0.5,1 0.5,2 1,3 0.5,1.49 1,3.49 1.5,4.99 0,1 0,2 0.5,2.5 0.5,0 0.5,0 1,0.5 2.5,-4.5 6,-8.49 9.5,-10.99 l 96.96,0 c 0.5,1.5 1,3 1.5,4.49 0,1 0,2 0,2.5 -0.5,4.5 -2.5,7.5 -5.5,10 -1.5,0.5 -3,0.5 -4.5,1 -0.5,-0.5 -0.5,-0.5 -1,-1 -2,-2 -4,-4 -5.49,-6.5 -1,2.5 -2.5,4.5 -4,6 0.5,2.5 1.5,4.5 2.5,6.5 1.5,-0.5 2.5,-1 3.99,-1 1.5,-0.5 2.5,-0.5 4,-0.5 1,0.5 2,1.5 2.5,2 4.5,-2.5 9.5,-5.5 14,-8.5 1.5,-5 3.5,-10 5,-14.99 l 96.96,0 0,123.95 -80.47,0 0,-42.98 c -3,2.49 -6,4.49 -9,6.49 0.5,1 1.5,2 2,3 0,1 0,2 0,2.5 0.5,6.5 -2.5,10.5 -8.99,11.5 -1.5,-0.5 -3,-0.5 -4.5,-1 l -0.5,-0.5 c -1.5,-1.5 -3.5,-3 -5,-4.5 -1.5,1 -3,2 -4.5,3 -0.5,2.5 -1,5.5 -2.5,8 -0.5,1 -1,1.5 -2,2 -2.5,1.49 -5.5,2.49 -8.49,2.99 -1.5,1.5 -2.5,3.5 -3,5 -0.5,0.5 0,1 0.5,2 z m -20.49,-80.47 c 0.5,0.5 1,0.5 1.5,0.5 0.5,0.5 1.5,0.5 2,0.5 0.49,-0.5 0.49,-0.5 0.99,-1 0.5,-2.5 0,-4.5 -0.5,-6.5 -0.99,-2.49 -1.49,-4.49 -1.49,-6.49 -1,0.5 -2,0.5 -3,1 -0.5,3.5 -0.5,7.49 0,10.99 0.5,0.5 0.5,0.5 0.5,1" /><path
         id="path32"
         style="fill:#000000;fill-opacity:1;fill-rule:nonzero;stroke:none"
         d="m 1965.72,2562.82 c -1.5,-0.5 -2.5,-0.5 -4,-1 -1,-0.5 -2,-1.5 -3.5,-2.5 -1.5,-2.5 -2.5,-5.99 -2.5,-9.99 0.5,-10 -1.5,-19.49 -5,-28.99 0,1 0,2 -0.5,2.5 -1,3.5 -2,7 -2.5,10 -0.49,0 -1.49,0 -1.99,0 -1,-0.5 -2,-0.5 -3,-1 -1.5,-2.5 -3.5,-4.5 -7,-5.5 -1.5,-2.5 -3,-5 -3.5,-7.5 -2,1.5 -4,2.5 -6.5,3 -2.5,-1.5 -5,-2.5 -7.49,-4 0,-1.5 0,-3.5 -0.5,-5 0,-1.5 0,-3.5 0,-5 0.5,-0.5 0.99,-1.5 1.99,-1.99 2,-2.5 4,-4.5 5.5,-7 l 49.98,0 c -1.5,0.5 -2.5,0.5 -3.5,0.5 12,12.49 21.5,25.99 28.99,39.98 -7.49,9.5 -15.99,9 -24.99,-1.5 0,0.5 0,0.5 0,1 2.5,11.5 -1,19.49 -9.99,23.99" /><path
         id="path34"
         style="fill:#000000;fill-opacity:1;fill-rule:nonzero;stroke:none"
         d="m 2056.68,2368.9 c 0.5,2 1.5,4 2.5,6 l -96.96,0 c 7.49,-5 16.99,-5.5 28.49,-2 4.5,-2.5 9.49,-4.5 14.49,-6 -4.5,-1 -8.49,-2 -12.49,-3.5 -2.5,-1 -4.5,-2 -7,-2.5 -4.5,1.5 -8,1 -11,-2.49 -3.5,-0.5 -7,-1 -10.49,-1 -2.5,2.49 -5,3.99 -8.5,4.49 l 0,-0.5 c -2,-1 -4,-1.99 -6,-2.99 -0.5,0.5 -1.5,0.5 -1.99,0.5 0.49,2.49 0.49,4.99 0.49,7.49 0,2.5 0,5 0,7.5 0.5,0.5 0.5,0.5 0.5,1 l -34.48,0 c 0,-1.5 0,-2.5 -0.5,-3.5 0,-0.5 0,-0.5 -0.5,-1 -1.5,0.5 -2.5,1 -4,1.5 -1.5,-0.5 -3,-1.5 -4.5,-3 -0.5,-0.5 -0.5,-1 -0.5,-2 0,-0.5 0,-1.5 0.5,-2 0.5,-2.5 1,-5.49 1.5,-7.99 0.5,-0.5 0.5,-1.5 0.5,-2.5 1,-0.5 2,-1.5 2.5,-2.5 8.5,-1.5 15.99,-0.5 21.49,3 -0.5,-2.5 -0.5,-5.5 0,-8.5 1.5,-1.5 3.5,-3 5,-4.5 1,-0.5 2,-1.5 3,-2 -1.5,-0.5 -2.5,-2 -3.5,-3.5 0.5,-8.49 2,-16.49 4.5,-23.99 l 53.48,0 c -0.5,1 -0.5,2 0,2.5 1.5,-0.5 3,-1.5 4.49,-2.5 l 23,0 c 0,1.5 0,3 0,4.5 0.5,-1.5 0.5,-2.5 1,-4 l 0.5,-0.5 146.94,0 0,62.48 -96.96,0 c 1,-2.5 2,-5 2.99,-7.5 -6.49,0.5 -12.49,1 -18.49,1.5 z m 26.99,-24.49 c 0,-0.5 0,-0.5 0.5,-1 -0.5,0.5 -1.5,0.5 -2,1 0.5,0.5 1,0.5 1.5,0 z m -60.47,2 c -1,-1 -2,-2 -2.5,-3.5 0,-1 0,-2 0,-2.5 -1,-0.5 -2,-0.5 -3,-1 0,1 0,2 -0.5,2.5 -0.5,1.5 -1.5,3.5 -2.5,5 0.5,0 0.5,0 1,0 2.5,0 5,0 7.5,-0.5 z m -67.48,-11 c 0.5,-1.5 0.5,-3.5 1,-4.99 -0.5,-0.5 -1.5,-1.5 -2.5,-2.5 -0.5,-0.5 -1,-1.5 -1.5,-2.5 -1.5,3.5 -3,7.49 -4.5,10.99 2.5,-0.5 5,-0.5 7.5,-1" /><path
         id="path36"
         style="fill:#000000;fill-opacity:1;fill-rule:nonzero;stroke:none"
         d="m 2022.2,2312.42 c 0.5,-0.5 1,-1 1.5,-1.99 0.5,-0.5 1.5,-1.5 2,-2.5 -1,-0.5 -2,-1 -2.5,-1.5 0,-1 0,-2 0,-2.5 0,-1 0,-2 0.5,-2.5 0,-1 0,-2 0.5,-2.5 1.5,-0.5 2.49,-1.5 3.99,-2.5 -0.5,-0.5 -0.5,-0.5 -0.5,-1 -0.5,-1.5 -0.5,-3.5 -0.5,-5 0,-1.5 0,-3.5 0.5,-5 1.5,-1 3.5,-2 5,-2.5 -1.5,0.5 -2.5,0.5 -4,0 -2,1.5 -3.99,2.5 -5.49,3.5 0,0.5 0,1 0,1.5 1,2.5 1.5,5 1,7.5 -0.5,1 -1,2 -1.5,2.5 -0.5,1 -1.5,2 -2,2.5 0,2.5 0,5 0,7.5 0,1.5 0,3 0,4.49 l -23,0 c 1,-0.5 2,-0.5 3,-1 0.5,-2.49 0.5,-4.99 0,-7.49 0.5,-1 1.5,-2 2,-2.5 0.5,-1 1,-2 1.5,-2.5 0,-2.5 0,-5 0,-7.5 -0.5,-2 0,-4 1,-5.5 -0.5,0 -0.5,0 -0.5,-0.5 -0.5,-0.5 -1,-1.5 -1.5,-2.5 0,-0.5 0,-1.49 0,-2.49 0,-1.5 0,-3.5 0.5,-5 0,-0.5 0,-1.5 0,-2 -6,3 -11.49,6.5 -16.49,9.99 0.5,1.5 1,3 1,4.5 0.5,0 0.5,0 1,0.5 0.5,0 0.5,0 1,0.5 0.5,0.5 0.5,1 0.5,1.5 2,3 3,6.5 2.5,10 0,4 0,8 0,11.99 l -53.48,0 c 1,-3.49 2.5,-7.49 4.5,-10.99 0,-1 0,-2 0,-3.5 -0.5,-2.5 0.5,-5 2.5,-7.5 1.99,-0.5 3.99,-1 5.49,-1 1,-1.5 2,-2.5 3.5,-4 7.5,-7.99 15.49,-14.49 24.99,-19.49 0,-1 0,-2 -0.5,-3 -1.5,-0.5 -3.5,-0.99 -5,-1.49 -0.5,-0.5 -1.5,-0.5 -2,-1 0,-0.5 0,-1 -0.5,-1.5 -0.5,-1 -1.5,-2 -2,-2.5 0,-1.5 0,-3.5 0.5,-5 0,-0.5 0,-0.5 0,-1 l 94.97,0 c -2.5,1 -4.5,2 -7,2.5 -3,4.5 -6.5,9 -10,12.49 1,1.5 2,2.5 3.5,4 3.5,-4 7.5,-7.99 12,-11.49 1.5,-2.5 2.5,-5 4,-7.5 l 100.46,0 0,61.97 -146.94,0" /><path
         id="path38"
         style="fill:#000000;fill-opacity:1;fill-rule:nonzero;stroke:none"
         d="m 2037.19,1875.1 c -0.5,-0.5 -0.5,-1.5 0,-2.5 -7,0 -13.99,0 -20.99,-0.5 -1,1.5 -2,3.5 -3,5 l -62.48,0 c 2.5,-1.5 4.5,-3 7,-4.5 0,-0.5 0,-1 0,-1.5 -9,0 -17.99,0 -26.49,-0.5 -1.5,2.5 -3.5,4.5 -5.5,6 0.5,0.5 0.5,0.5 1,0.5 l -99.96,0 c 0.5,-0.5 1.5,-1.5 2.5,-2.5 3,-2.5 6.5,-4.5 10,-6 -22.99,-0.5 -45.98,-1 -68.47,-1.5 -15.5,-0.5 -31.49,-2 -47.98,-4 -9,-1.49 -17.5,-2.99 -26,-5.49 -9.49,-1 -18.49,-3 -27.48,-6.5 -4.5,-1.5 -9.5,-3.5 -14,-6 -4,-2.5 -7,-5.5 -8.5,-9.5 -7.49,-16.49 -18.49,-28.48 -33.98,-35.48 -4.5,-2 -7.5,-4.5 -10,-8 -24.49,-30.49 -39.48,-63.97 -45.48,-101.46 l 611.76,0 0,186.43 -153.94,0 c 2,-0.5 4,-0.5 5.5,-1 5.99,-1.5 11.49,-2 16.49,-1 z m -314.87,-41.99 c 0.5,-0.99 1.49,-1.99 1.99,-2.49 -13.99,-10.5 -29.99,-17.5 -48.48,-21.49 -2.49,-0.5 -4.49,-2 -6.49,-3.5 -1.5,-1.5 -2.5,-3 -3.5,-4.5 -1.5,0 -3.5,0 -5.5,0.5 -0.5,0 -1.5,0.5 -2,1.5 1,9.5 4.5,16.99 11,22.49 5,4.5 11.49,7.49 19.49,8.99 8.49,1.5 16.49,3.5 23.99,5 4.5,-0.5 7.5,-3 9.5,-6.5 z m 68.47,-22.98 c 5,2 9.5,3.99 13.49,5.99 3.5,0 7.5,0 11,-0.5 1.5,0 2.5,0 4,0 0.5,-1 0.5,-2 0,-2.49 -0.5,-3 -2,-5.5 -4,-7.5 -13.5,-3 -25.49,-8.5 -35.99,-17 -1,0.5 -2,1 -3,1.5 -0.5,0.5 -1.5,1.5 -2,2 2.5,8.5 8,14.5 16.5,18 z m -166.43,-30.99 c -0.5,0 -1,0.5 -1.5,1.5 2.5,4.99 6.99,8.49 12.99,9.99 2.5,0.5 5,1 7.5,0.5 -2.5,-7.99 -9,-11.99 -18.99,-11.99 z m 105.95,23.49 c 1.5,0.5 2.5,0.5 4,0.5 -8,-11.5 -20.99,-20.49 -38.99,-27.49 -9.99,-4 -18.49,-9.5 -25.98,-17 -1,-0.5 -2,-1.5 -2.5,-2.5 -2.5,-0.5 -4.5,-1 -6.5,-1 -0.5,0 -1.5,0.5 -2,1 3.5,5.5 7,11 11,16 14.99,17.49 35.48,27.49 60.97,30.49 z m 73.47,-41.49 c 1,0 2,0 3,0 -11.99,-6 -24.49,-12.49 -36.98,-19.49 -1,-0.5 -2.5,-1.5 -4,-2 8.49,9.5 21.49,16.49 37.98,21.49 z m -87.96,6.5 0,0.5 c 2.5,-1.5 4.5,-3 6.5,-4.5 0.5,-0.5 1.49,-1.5 1.99,-2.5 -1.49,-3.5 -2.99,-6.5 -4.49,-9.99 -0.5,-0.5 -1,-1.5 -1.5,-2.5 -1,-0.5 -2,-1.5 -3,-2.5 -1,-0.5 -2,-1.5 -2.5,-2.5 -1.5,0 -2.5,0 -3.5,-0.5 -2.5,1.5 -5,2.5 -7.5,4 0,1.5 0,3.5 0,5 0,1.5 0,3.49 0,4.99 2.5,2.5 5,5 7.5,7.5 0.5,0.5 1,1 1.5,1.5 0.5,0.5 1.5,0.5 2,1 1,0 2,0 3,0.5 z m 69.47,-32.49 c 0.5,0.5 1.5,0.5 2.5,1 2.5,0 5,0 7.5,-0.5 0.5,-0.99 1.5,-1.99 2,-2.99 0.5,-0.5 1,-1.5 1,-2 -1,-4 -3.5,-6.5 -8,-8 -1,-0.5 -2,-1 -2.5,-1.5 -3.5,1.5 -6.5,3 -9.5,4.5 -0.5,0.5 -0.5,1 -0.5,1.5 0.5,3.5 3,6 7.5,7.99" /><path
         id="path40"
         style="fill:#000000;fill-opacity:1;fill-rule:nonzero;stroke:none"
         d="m 1557.38,1690.67 c -0.5,-5.49 -1.5,-10.49 -2,-15.99 -2,0.5 -4,0.5 -6,0.5 l 0,-0.5 c -1.5,-0.5 -3.49,-1 -4.99,-1.5 -1.5,-1.5 -3,-3.5 -4.5,-5 -5.5,-6.5 -11.5,-13.49 -17,-19.99 -0.5,-2.5 -1,-5 -2.5,-7.5 -2,-3.49 -4.99,-6.99 -8.49,-9.99 0,-0.5 0,-1.5 0,-2.5 0,-0.5 0,-1.5 0,-2 -0.5,-1 -0.5,-2 -1,-3 -1,-1.5 -2,-3.5 -2.5,-5 -12.49,-37.49 -20.99,-75.47 -25.49,-114.45 l 93.47,0 c 1.49,8.99 3.49,17.49 5.99,25.99 -0.5,-2.5 -0.5,-5.5 -0.5,-8 0,-6 0,-11.99 -0.5,-17.99 l 74.97,0 c 1,13.49 2,26.98 3.5,40.48 0.5,-13 1,-25.99 1.5,-38.98 0,-0.5 0,-1 0,-1.5 l 507.8,0 0,186.92 -611.76,0 z m 131.95,-72.47 c 4.5,0 8.99,-1.5 12.49,-4.5 0.5,-0.5 1,-1.5 1.5,-2.5 -6.5,-11.49 -14.49,-13.49 -23.99,-6.49 -0.5,0.5 -1,1 -1,1.5 0.5,1.5 1,3.49 2,4.99 1,1.5 2.5,3.5 4,5 1.5,0.5 3.5,1 5,1.5 l 0,0.5 z m -149.94,13.5 c 1.5,2.5 4,3.5 7.5,3 0.99,-1.5 1.99,-3.5 2.49,-5 0.5,-0.5 0.5,-1.5 1,-2.5 -6.99,-16 -14.99,-31.99 -23.49,-47.49 -3,-1 -6,-1.99 -8.99,-3.49 1.49,20.49 8.99,38.98 21.49,55.48 z m 59.97,-10.5 c 0.5,-1.5 1,-3.5 1,-5 0.5,-0.5 0.5,-1.5 0,-2.5 -3.5,-4.5 -8.49,-7.49 -14.49,-8.99 -2.5,1.5 -5.5,2.5 -8,3.99 -1,3.5 -1,6.5 -0.5,10 0.5,1.5 1.5,3.5 2,5 2.5,0.5 4.5,1.5 6.5,2.5 4.5,0.5 8,-0.5 11.49,-3 0.5,-0.5 1.5,-1 2,-2 z m -43.98,-13.99 c 3,3.99 7,5.99 12.5,5.99 1,-1 2,-2 3,-2.5 -2.5,-3.49 -5,-6.49 -7,-9.99 -0.5,-1 -0.5,-2 -1,-2.5 -2,-0.5 -4,-0.5 -5.5,0 -1,0.5 -1.5,1 -2,1.5 -0.5,1.5 -0.5,3.5 -0.5,5 0,1 0,2 0.5,2.5" /><path
         id="path42"
         style="fill:#000000;fill-opacity:1;fill-rule:nonzero;stroke:none"
         d="m 2069.68,2248.45 c -1.5,0.5 -2.5,1.5 -3.5,2 l -94.97,0 c 0,-2.5 0,-4.5 0.5,-6.5 2.5,-1.5 5,-2.5 7.5,-4 7.5,-4 14.5,-7.49 20.99,-10.99 -0.5,-1 -1,-2 -1.5,-2.5 -2,-2.5 -3.99,-5 -5.99,-7.5 0.5,-1.5 0.5,-3.5 0.5,-5 0,-2.5 0.5,-4.5 1.5,-6.5 -2,-0.5 -4,-1.5 -6,-3 -2.5,4.5 -5.5,8.5 -9.5,12 l 0,-0.5 c -1.5,-0.5 -2.5,-0.5 -4,-1 -0.5,0 -0.5,0 -1,-0.5 -3.5,-2.5 -6,-6.5 -6.5,-11.49 -0.5,-5.5 -0.99,-10.5 -1.49,-16 l -0.5,0 c -0.5,-0.5 -1.5,-1.5 -2,-2 -3.5,2.5 -6.5,5 -10,7.5 -6.99,5.5 -14.49,10 -22.49,12.99 -2,0.5 -4,1.5 -6,2 l 0,0.5 c -4.5,20.5 -14.49,34.99 -29.98,42.49 l -67.48,0 c 0,-0.5 0,-1 0.5,-1.5 0.5,-0.5 0.5,-1 1,-1.5 -8.5,-2 -16.49,-4 -23.99,-6 0.5,2.5 0,4.5 -1,6.5 -0.5,1 -0.5,2 -1,2.5 l -20.49,0 0,-0.5 c -0.5,-4.5 0.5,-9 3,-13 -0.5,-2.5 -1.5,-4.99 -2,-7.49 -0.5,-1.5 -0.5,-3.5 -0.5,-5 -5,0 -9,1 -12.49,3 -10,6.49 -20,8.49 -30.49,6.49 -0.5,-0.5 -0.5,-1 -1,-1.49 -0.5,-1 -1,-2 -1.5,-3 -0.5,-11 1,-22 4,-32.49 2.49,-9.5 3.49,-19.49 2.49,-29.99 4.5,-8.5 11,-10 18.5,-5 9,6.5 16.49,14.5 22.49,24.49 1.5,0.5 3.5,0.5 5,0.5 3,-1 5.5,-2.5 8,-4.99 4.49,-4.5 8.99,-7.5 13.99,-8.5 -0.5,-1 -1.5,-2 -2,-3 -0.5,-0.5 -1,-1.5 -1.5,-2.5 -0.5,-0.5 -0.5,-1.5 -0.5,-2.5 0,-0.5 0,-1.5 0,-2.5 0.5,-0.5 1.5,-1 2,-1 2,0 4,0.5 6.5,1 0,1 0,2 0,2.5 0,1 0,2 0,2.5 -0.5,1 -0.5,2 -1,2.5 0.5,0.5 0.5,1.5 1,2 2.5,0 5.49,0.5 8.49,1.5 0.5,1.5 1.5,2.5 2.5,4 0.5,1.5 1.5,3.5 2.5,5 0,1.99 0,3.99 -0.5,5.99 2,2 4,3.5 6,5 10,-5 22.49,-6 36.98,-2.5 0,-0.5 0,-1.5 0,-2 0.5,-0.5 1.5,-1.5 2,-2.5 1.5,-2.5 3.5,-4.99 5.5,-7.49 1.5,0 2.5,0 4,0 1,1 1.5,2 2,3 0.5,0.5 1,1.49 1.5,1.99 -1,3.5 -1.5,6.5 -1,9.5 2.5,0.5 5.5,0.5 8.5,0.5 3.99,0 7.99,-0.5 11.99,-1 5.5,-12.49 11.49,-24.49 18.49,-36.49 l 18.5,0 c -4,6 -7.5,12.5 -10,20 -1.5,3.5 -2.5,6.5 -3,9.49 9,-3.49 17.49,-8.99 25.99,-16.49 -0.5,-4.5 -0.5,-8.5 0,-13 l 211.92,0 0,93.47 -100.46,0 c 0.5,-0.5 0.5,-1.5 1,-2 z m 18.99,-32.49 0,-9 c -2.5,-1.5 -4.5,-2.5 -6.5,-3.99 -2.5,5.49 -5.5,10.99 -7.99,16.49 0.99,1 1.49,2 1.99,3 l 0.5,0 c 4,-2 8,-4 12,-6.5 z m -53.48,12 c 2,-3.5 4,-7.5 6.5,-11.5 -3,1.5 -6.5,2.5 -10,3 0,3 -1,6 -3.5,9.5 2.5,-0.5 4.5,-1 7,-1 z m -149.44,-1 c -0.5,1.5 -0.5,3 -0.5,4.5 2.5,-1.5 5,-3 7.5,-4.5 0.5,0.5 1.5,0.5 2,1 1.5,-4.5 3,-9.5 4.49,-14 -2.99,0.5 -5.99,0.5 -8.99,1 0,1.5 0,3 0.5,4.5 0,1 -0.5,2 -1,2.5 -1,1.5 -2.5,3.5 -4,5 z m -58.98,-26.99 c 0,-0.5 0,-1 0,-1.5 -0.5,0.5 -1,1.5 -1.5,2 -2.5,1 -4.5,2 -6.99,2.5 2,0 3.99,0 5.49,0 1,-1 2,-2 3,-3" /><path
         id="path44"
         style="fill:#000000;fill-opacity:1;fill-rule:nonzero;stroke:none"
         d="m 1959.22,2146.99 c -1.5,-0.5 -3,-1.5 -4.5,-2.5 l 0,-0.5 c -4,4 -7.49,8.5 -10.49,12.99 l -18.5,0 c 4,-6.49 8,-12.99 12.5,-19.49 2.5,-3.49 5.5,-6.99 8.5,-10.49 0,-0.5 0,-1 0,-1.5 -0.5,-6.5 0.5,-12 2.49,-17.5 3.5,-2 7.5,-4.49 11,-7.49 0,-0.5 0,-1.5 0,-2.5 0.5,-0.5 0.5,-1.5 0.5,-2.5 14.49,-4.5 29.49,-5.5 45.98,-3 0.5,0.5 1,1 1.5,1.5 1,0.5 2,1.5 2.5,2.5 2.5,0 5.5,0 8,-0.5 -4,-4 -8,-8 -11.5,-12.49 0,2 0,3.99 -0.5,5.49 -0.5,0.5 -1.5,1.5 -2.5,2.5 -0.5,0 -1,0 -1.5,0 -6.49,0.5 -11.49,-2.5 -14.99,-8.49 -1,-7.5 0,-14 3.5,-19.5 l 20.99,0 c -2,2.5 -4,5.5 -6,8 5,-2 10,-2.5 14.5,-1.5 0,-0.5 0,-0.5 0,-1 -0.5,-1.5 0,-3.5 0.5,-5.5 l 20.49,0 c -1.5,0.5 -2,1.5 -1.5,3 7.99,1.5 10.99,1 8.99,-1.5 -1,-0.5 -2,-0.5 -3.5,-1 -0.49,0 -0.49,0 -0.99,-0.5 l 124.45,0 0,93.46 -211.92,0 c 0.5,-3.49 1,-6.49 2,-9.99 z m 91.46,-3.5 c -4.5,-0.5 -8.49,-2 -12.49,-3.5 -0.5,2.5 -0.5,4.5 0,6.5 l 0,0.5 c 1,1 2,1.5 3,2 0.5,0.5 1.5,0.5 2,0.5 2.99,-1.5 5.99,-2.5 9.49,-3 -0.5,-0.5 -0.5,-1.5 -0.5,-2 -0.5,-0.5 -1,-0.5 -1.5,-1 z M 2017.7,2133 c -0.5,0.5 -0.5,0.5 -1,1 l 0,0.5 c 1,0.99 2,1.49 2.5,1.99 0.5,0 0.5,-0.5 1,-1 -0.5,-0.49 -0.5,-1.49 -0.5,-2.49 -0.5,0 -1.5,0 -2,0 z m 68.97,-11.5 c 0.5,-0.5 1.5,-1 2,-1.5 l 0,-4.5 c -1.5,1.5 -3,3 -4.5,4 0.5,0.5 1.5,1.5 2.5,2" /><path
         id="path46"
         style="fill:#000000;fill-opacity:1;fill-rule:nonzero;stroke:none"
         d="m 1886.75,2100.51 c -0.5,-0.5 -0.5,-1 -1,-1.5 -0.5,-1 -1,-2 -1.5,-2.5 -3.5,-5.5 -7.5,-10.99 -11,-16.49 -0.5,0 -0.5,0.5 -1,1 -2.5,5.99 -6.49,9.99 -12.99,11.49 -2,-0.5 -4,-1.5 -5.5,-2.5 -0.5,-0.5 -1.5,-1 -2,-2 -0.5,-1.5 -0.5,-3.49 -0.5,-4.99 -0.5,-0.5 -0.5,-1.5 -0.5,-2.5 1.5,-1.5 3,-3.5 4,-5 1,-1.5 2,-3.5 3,-5 -5.5,-0.5 -9.49,-2.5 -12.49,-5.5 0,-0.5 0,-1 0,-1.5 l 83.96,0 0.5,0.5 c 9,3.5 12,9 9.5,17.5 -2.5,1.5 -4.5,2 -7,2.5 -9.5,2 -18.49,3.49 -27.99,3.99 0,1 0,2 0,2.5 -1.5,6.5 -5,10.5 -11.49,12 l 0,-0.5 c -1.5,-0.5 -3,-0.5 -4.5,-1 -0.5,0 -1,0 -1.5,-0.5" /><path
         id="path48"
         style="fill:#000000;fill-opacity:1;fill-rule:nonzero;stroke:none"
         d="m 1901.24,2049.53 c 0,1 0,2 0.5,3 9,3.5 17.99,7.49 27.49,10.99 l -83.96,0 c -0.5,-1 -0.5,-2 -1,-3.5 -0.5,-4.49 0,-8.99 2.5,-12.49 5.49,-1 8.99,-3.5 10.99,-7.5 -1,-1.5 -2,-3.49 -2.5,-5.49 -1,-2.5 -2.5,-5 -4.5,-7 0,-1.5 0.5,-3.5 1,-5 0.5,-1.5 1,-3.5 1.5,-5 7,-3 13,-2 17.49,2.5 0,-1 0,-2 0,-2.5 0,-1 -0.5,-2 -1,-2.5 -3.49,-6 -2.99,-11.99 0.5,-17.49 4.5,-2.5 8,-2.5 11.5,0.5 1.5,2.5 2.5,5 4,7.5 0.5,1 0.5,2 1,2.49 1,5.5 1.5,11.5 1,17.5 2.5,-1.5 4.5,-3 7,-3.5 2.5,-2 4.99,-4 7.49,-6.5 1.5,-1.5 3.5,-2.5 5,-4 -0.5,-0.5 -1.5,-0.5 -2,-0.5 -1,-0.5 -2,-0.5 -2.5,-1 -0.5,-1.5 -1,-3.49 -1.5,-5.49 -0.5,-2.5 0,-5 2,-7 -6.49,0 -11.99,-1.5 -17.49,-4.5 -0.5,-1.5 -0.5,-3.5 -1,-5 -0.5,-2.5 0,-5 2,-7.5 8.5,-1.99 15.49,-5.49 21.49,-9.99 l 179.93,0 c -0.5,1.5 -1.5,2.5 -2.5,3.5 1,-0.5 2,-0.5 3,-0.5 l 0,-3 80.47,0 0,92.96 -124.45,0 c -1.5,0 -2.5,0 -3,0 l -20.49,0 c 0,-0.5 0,-1.5 0.5,-2 5.49,-7.49 12.49,-12.49 20.99,-14.99 1,0.5 2,0.5 2.99,0.5 0.5,0.5 1.5,0.5 2,0.5 0.5,-2.5 1,-4.5 2,-6 -3,0.5 -7.49,-0.5 -12.99,-3.5 -9,8 -16.99,16.5 -24.49,25.49 l -20.99,0 c 0.5,-0.5 0.5,-1 1,-1.5 4.49,-6.99 9.49,-13.49 14.99,-19.99 -0.5,0 -1.5,0 -2,0 -0.5,0 -0.5,0 -1,-0.5 -4.5,-2.5 -7.5,-6.49 -7.99,-11.99 0,-0.5 0,-0.5 0,-1 -1.5,2.5 -3,4.5 -5.5,5.5 -0.5,0.5 -0.5,1 -0.5,1.5 -0.5,1 -1.5,1.99 -2,2.49 -2.5,4.5 -7,7 -12.5,7 l 0,-0.5 c -1.5,-0.5 -3.5,-1 -5,-1.5 -0.5,-0.5 -1.5,-1.5 -2.5,-2.5 -5.49,-4.99 -9.99,-10.49 -13.99,-16.49 -0.5,1 -0.5,2 -0.5,3.5 -0.5,1.5 -0.5,3.5 -0.5,5 -1,1.5 -2.5,2.5 -4,3 -14.49,5.49 -22.49,1 -23.99,-14 -1.5,1.5 -2.5,2.5 -3.5,4 -6.49,8 -13.49,15.49 -20.49,22.49 0,0.5 0,1 0,1.5 z m 153.44,-12.49 c 0.5,0 0.5,0 1,-0.5 9,-4.5 18.5,-7.5 27.99,-8.5 -0.5,-0.5 -0.5,-0.5 -1,-0.5 -3.5,-6.5 -7,-12 -11.49,-17 -1,2.5 -3,4.5 -5.5,6 -3.5,2.5 -7.5,5 -11,7.5 1,5.5 1,10 0,13 z m -50.48,-60.48 c 0.5,0.5 1,0.5 1.5,1 0.5,-1 1.5,-2 2.5,-3.5 -1.5,1 -2.5,2 -4,2.5 z m -31.49,23.99 c -1.5,-0.5 -2.5,-1.5 -3.5,-2.5 -3.99,1 -7.99,1.5 -11.49,1.5 -0.5,1.5 -1,3 -2.5,3.5 -0.5,0 -0.5,0 -0.5,0.5 7,5.49 12.99,10.99 18.49,16.49 0.5,-6.5 0,-12.99 -0.5,-19.49 z m 55.48,2.5 c 0,-0.5 0,-1 -0.5,-1.5 -0.5,-6.5 -2.49,-11.5 -5.99,-15 -0.5,0.5 -0.5,1.5 -1,2.5 -2.5,5.5 -4,11.5 -5.5,17.5 4,-0.5 8.5,-1.5 12.99,-3.5" /><path
         id="path50"
         style="fill:#000000;fill-opacity:1;fill-rule:nonzero;stroke:none"
         d="m 2088.67,1970.56 0,-1 c 0,0.5 0,0.5 -0.5,1 l -179.93,0 c 1.5,-1.5 3,-2.5 4.5,-4 -0.5,-1.5 -1,-3.5 -1.5,-5 -0.5,-1.5 -0.5,-3.49 -0.5,-4.99 -0.5,-1 -1.5,-2 -2.5,-2.5 0,-1.5 0,-3.5 0,-5 0,-1.5 0,-3.5 0,-5 2.5,-1.5 5,-2.5 7.5,-4 1.5,0 2.5,0.5 2.99,1 7.5,5.5 13.5,9.5 19,12 4.5,-4 9.5,-5.5 14.49,-4.5 -4.49,-4.5 -9.49,-8 -15.49,-11 -0.5,-1.5 -1.5,-3.5 -2.5,-5 -1,-1.5 -2,-3.49 -3.5,-4.99 0,-1.5 0,-2.5 0.5,-4 l 23.49,0 c 3.5,2.5 6.5,6 9.5,9.49 0.5,-1.5 0.5,-3.49 0.5,-4.99 0,-1.5 0,-3 0.5,-4.5 l 203.92,0 0,46.98 -80.47,0 z m -28.99,-11.99 c 1,0.5 2,0.5 3,0.99 2.5,-3.49 5,-7.49 7.5,-11.49 -2.5,-4.5 -5.5,-8.5 -9,-13 -15.5,2.5 -30.49,7.5 -43.98,14.5 0,0.5 0,0.5 0,1 1,5 1,9.49 -0.5,12.99 3.5,-3.5 8,-7.49 12.49,-10.99 10,-2.5 19.49,-2 28.99,2.5 0.5,1 1,2 1.5,3.5 z m -79.47,-12 c 0.5,-0.5 1.5,-1 2.5,-1.5 2,-1.5 4,-3 6.5,-4.5 0.5,0 1.5,0 2,0 0.5,-0.5 0.5,-1.5 1,-2.5 -2.5,0.5 -5,-0.5 -7.5,-2 -2.5,-1.5 -4,-3 -4.5,-5.5 -0.5,5.5 -0.5,10.5 0,16 z m 108.46,-4 c -1.5,-0.5 -3,-0.5 -4.5,-1 0.5,1.5 0.5,2.5 1,3.5 1,-0.5 2,-1 3.5,-1.5 l 0,-1" /><path
         id="path52"
         style="fill:#000000;fill-opacity:1;fill-rule:nonzero;stroke:none"
         d="m 1828.27,1963.06 c -0.5,1 -1,1.5 -2,2 -0.5,0.5 -1,0.5 -1.5,1 -0.5,1.5 -1,3 -1.5,4.5 l -14.49,0 c -0.5,-1 -0.5,-2 -0.5,-2.5 0,-3.5 -0.5,-6.5 -1.5,-9.99 -3.5,1 -7.49,2.49 -10.99,4.49 -2.5,-1.5 -5,-3 -7.5,-4.49 0,-0.5 0,-1.5 -0.5,-2.5 0,-0.5 0,-1.5 0,-2.5 -6,-2.5 -9.5,-6.5 -10,-12.5 2.5,-9 9,-13.49 19,-12.99 -0.5,-0.5 -1,-1.5 -1,-2 -0.5,-0.5 -0.5,-1.5 -0.5,-2 l 56.47,0 c -0.5,0.5 -0.5,1 -1,1.5 12.5,0.5 21.49,5.99 26.99,15.49 -1.5,6.5 -5.5,10.5 -11.99,11 -12,2 -23.99,3.5 -35.99,4.5 -0.5,2.5 -1,4.49 -1.5,6.99" /><path
         id="path54"
         style="fill:#000000;fill-opacity:1;fill-rule:nonzero;stroke:none"
         d="m 1965.22,1923.58 c 0,-1 0,-2 0,-3 -5.5,-3 -11.5,-6.5 -17,-9.99 -4.49,3.49 -8.49,5.49 -12.49,6.99 6.5,0 12.99,2 18.99,6 l -23.49,0 c 0.5,-0.5 0.5,-0.5 0.5,-1 0.5,-1.5 1,-3 1.5,-4.5 -6.5,1.5 -12.5,0.5 -17.99,-3 0,-0.5 0,-1.5 -0.5,-2.5 -3.5,2.5 -7.5,5 -12,6.5 0,-0.5 0,-0.5 -0.5,-0.5 -1.5,-0.5 -2.5,-1.5 -3.99,-3 -0.5,-0.5 -0.5,-1 -0.5,-1.5 1.49,-3 4.49,-4.99 8.99,-6.49 1.5,0 3.5,0 5,0.5 1,0 2,0 2.5,0.5 0,-0.5 0,-0.5 0,-1 2,-2 4,-4 6.49,-6.5 -0.5,0 -1,0 -1.5,-0.5 -0.5,-0.5 -0.99,-1.5 -1.49,-2.5 -2,-5 -5.5,-9 -10,-11.5 -6.5,4.5 -12.99,6 -18.49,4.5 -1.5,1 -3,2 -4,2.5 2.5,15.5 -2.5,25.49 -15.99,28.99 0,-0.5 0,-0.5 0,-1 -2.5,-1 -5,-2 -7.5,-3.5 -0.5,-0.5 -0.5,-1.5 -1,-2 -0.5,-1 -1.5,-2 -2,-3 -1,1 -2,2 -3.5,3 -0.5,0.5 -0.5,0.5 -1,1 -0.5,2.5 -1,4.5 -2.5,6.5 l -56.47,0 c -3,-7.5 -6.5,-13.99 -11,-20.49 0,-1.5 0,-3.5 0,-5 -0.5,-2.5 0.5,-5 2.5,-7.5 4,-2 8,-2 11.5,0 0.5,0.5 0.5,1 1,1.5 1.5,2 2.49,4 3.99,5.5 0.5,1.5 1,3 1.5,4.5 2.5,5 4.5,9.99 7,14.49 2,-2.5 3,-5 2.5,-7.49 0,-1 0,-2 -0.5,-2.5 -2,-7.5 -4,-15 -5.5,-22.5 2.5,-1.5 5,-2.5 7.5,-3.99 1.5,0 2.5,0.5 3.5,1 1,0.49 1.99,0.99 2.49,1.49 1,0.5 2,1.5 2.5,2 0,-2.5 1,-4.99 2.5,-7.49 l 99.96,0 c 0.5,0.5 0.5,1 1,1.5 2.5,2.5 4.5,4.99 6.5,7.99 0.5,0.5 0.5,1.5 0.5,2 5,-4 10.5,-7.99 15.99,-11.49 l 62.48,0 c -0.5,0.5 -0.5,0.5 -0.5,1 1,-0.5 2,-0.5 2.5,-1 l 153.94,0 0,46.48 -203.92,0 z m -126.95,-19.49 c 1.5,-1.5 3.5,-3 5,-3.5 0,-0.5 0,-1 -0.5,-1.5 -0.5,-1 -1,-2 -1.5,-2.5 -0.5,-1 -0.5,-2 -1,-2.5 -4,-0.5 -8,-1.5 -11.5,-3 2,4.5 2.5,9 2,14 2,0 4,0 6,0 0.5,0 1,-0.5 1.5,-1 z m 152.44,8.99 c 0.5,0.5 0.5,1 0.5,1.5 1.5,-1 3.5,-2 5,-3 -0.5,-0.5 -0.5,-0.5 -1,-0.99 0,-0.5 0,-1.5 0.5,-2 0.5,-0.5 0.99,-1.5 1.49,-2.5 -4.99,-2 -9.49,-4.5 -13.49,-8 1.5,5.5 3.5,10.5 7,14.99" /><path
         id="path56"
         style="fill:#000000;fill-opacity:1;fill-rule:nonzero;stroke:none"
         d="m 1823.27,1970.56 c 0,0.5 0,0.5 -0.5,1 -0.5,0.5 -1.5,1.5 -1.99,2 -1.5,1 -3.5,1.5 -5,2 -1.5,-0.5 -2.5,-0.5 -4,-1 -0.5,-0.5 -1.5,-1 -2.5,-1.5 -0.5,-1 -0.5,-2 -0.5,-2.5 l 14.49,0" /><path
         id="path58"
         style="fill:#000000;fill-opacity:1;fill-rule:nonzero;stroke:none"
         d="m 1939.73,2268.94 c 2.5,1.5 4.5,4 5.5,6.5 -1,13.99 -9.5,18.49 -26,13.49 0.5,1.5 1,2.5 1.5,4 0.5,3.5 1.5,6.5 2,10 0.5,1 1,2 1.5,2.5 10,13.99 9.5,25.48 -1.5,33.98 -1.5,0 -2.5,-0.5 -4,-1 -0.99,-0.5 -1.99,-1 -2.99,-1.5 -3.5,-3.5 -6.5,-6.5 -10,-9.99 -1,0 -2,0 -3,-0.5 -4.49,5.49 -9.99,6.49 -15.99,3.99 -0.5,-0.49 -0.5,-0.99 -1,-1.49 -0.5,-1 -1,-2 -1.5,-2.5 0,-1.5 0,-3.5 0,-5 0,-2.5 0,-5 0,-7.5 1,-1.5 2,-3.49 2.5,-5.49 0.5,-0.5 0.5,-1.5 0,-2 -5,-3.5 -10,-7 -15.5,-10 -15.49,-8.5 -25.48,-20.49 -28.98,-34.98 -2,0.49 -4,0.99 -6.5,1.49 l 0,-0.5 c -1.5,-0.5 -2.5,-0.5 -4,-0.99 -0.5,0 -1.5,-0.5 -2.5,-1 -2,-3.5 -2.5,-6.5 -1.5,-10 l 67.48,0 c 9.49,7.5 19.49,11 30.48,10 0.5,-0.5 1,-1.5 1.5,-2 0.5,-1 1.5,-2 2,-3 2.5,0 4.5,0.5 6.5,1 0.5,0 0.5,0 1,0.5 0.5,1.5 0.5,3.5 0,4.99 0,1.5 -0.5,3.5 -1,5 1.5,0.5 3,1.5 4,2" /><path
         id="path60"
         style="fill:#000000;fill-opacity:1;fill-rule:nonzero;stroke:none"
         d="m 1785.79,2256.95 c -1.5,-2 -2.5,-4 -3,-6.5 l 20.49,0 c -3.49,8 -8.99,10 -17.49,6.5" /><path
         id="path62"
         style="fill:#000000;fill-opacity:1;fill-rule:nonzero;stroke:none"
         d="m 89.4688,2996.65 -79.4688,0 0,-373.35 79.4688,0 0,34.49 c 8.496,2.5 16.9922,6.99 25.4882,12.49 6.5,1.5 12.496,2.5 18.492,3 18.492,1.5 32.489,8.5 42.485,21.99 0,1 0,2 0,2.5 -0.5,1 -0.5,2 -1,2.5 -0.5,1 -0.5,2 -0.5,2.5 -1.5,1 -2.5,2 -3.496,2.5 19.492,4 38.984,7.99 58.972,11.49 0,-0.5 0,-0.5 0,-1 0.5,-0.5 0.5,-1.5 1,-2.5 2.5,-2.49 4.5,-4.99 6,-7.99 2,-3.5 5.496,-5.5 9.996,-6 1,0.5 2,0.5 2.996,1 0.5,0.5 1,0.5 1.5,1 0.5,0.5 1,0.5 1.5,1 0.5,0.5 1.5,1.5 2,2 25.489,-0.5 49.481,5 71.973,15.99 -0.5,0.5 -1.5,1 -2,1.5 -12.996,4.5 -24.492,6.5 -33.988,6 -0.5,0.5 -1,1.5 -1.5,2 0,0.5 0,0.5 -0.5,0.5 -3.496,3.99 -8.496,5.49 -13.992,4.99 0,1.5 -0.5,3 -1,4.5 -1.5,4.5 -2,8 -1.5,10.5 9.996,13.99 6.496,23.49 -9.997,28.99 -4.496,1.49 -8.996,2.99 -13.492,3.99 -0.5,0.5 -1,1 -1.5,1.5 -1.5,0.5 -2.5,1.5 -4,2 -1.5,-0.5 -2.5,-1 -3.5,-1.5 -0.5,0.5 -1.496,0.5 -1.996,0.5 l 0,0.5 c 1.996,3 3.996,6 5.496,9.5 0.5,1 1,2 1.5,2.5 0,1 0,2 0,2.5 0,2.5 -0.5,5 -2,7.5 -0.5,0.99 -1.5,1.99 -2,2.49 0,1.5 0,3.5 0.5,5 0.5,1 0.5,2 1,2.5 l 1,1.5 c -7.496,3.5 -14.992,5.5 -23.492,5.5 -11.492,-1.5 -21.488,-5.5 -29.984,-12 -9,2 -18.992,1.5 -29.989,-1.5 0.5,1.5 1,3.5 1.497,5.5 0.5,2.5 0,5 -1.497,7 -0.5,1 -1,1.5 -2,2 -2.5,1 -5,2 -7.996,2.49 -18.992,-4.49 -38.484,-8.99 -58.9762,-12.49 0,0.5 0,1 -0.5,1.5 -0.5,1 -0.5,2 -1,2.5 l 0,176.43 z M 218.418,2804.23 c -2,-1.5 -4,-2.5 -6,-4 -1.5,1.5 -2.496,2.5 -3.496,3 3.496,1.5 6.996,3 10.496,4.5 0.496,0.5 1.496,0.5 2.496,0.5 1.5,0 3.5,0 5,0 -3,-1.5 -6,-2.5 -8.496,-4" /><path
         id="path64"
         style="fill:#000000;fill-opacity:1;fill-rule:nonzero;stroke:none"
         d="m 89.4688,2623.3 -79.4688,0 0,-372.85 214.914,0 c -0.5,0.5 -0.5,1.5 -0.5,2.5 1.5,0.5 3.5,1.5 5,2.5 3.996,2 8.496,3.5 12.992,5 0.5,0.5 1,1 1.5,1.5 2,2.49 3,4.99 3.5,7.49 0,1.5 0,3.5 -0.5,5 -0.5,1 -1.5,1.5 -2,2 l -0.5,0 c 16.492,-4 34.485,-2.5 53.977,5 0.5,1.49 1.5,2.49 2,3.99 12.496,-2.5 24.492,-5.49 36.984,-8.99 3,-4.5 6.5,-7.5 10.996,-10 8.496,-4.49 14.996,-2.5 19.992,5.5 -0.5,7.5 -4.496,11.99 -11.496,13.99 -1.496,0.5 -2.496,0.5 -3.496,1 -2,2.5 -4,4 -6.5,5.5 -1.496,0.5 -2.496,1.5 -3.496,2 3.496,4.5 7.996,9 12.496,12.5 2.496,2.5 4.996,4.99 7.496,7.49 1.5,0 2.5,0 3.996,-0.5 0,-1 0,-2 0.5,-2.5 0,-0.99 0,-1.99 0.5,-2.49 26.993,-5.5 53.981,-8.5 81.469,-10 0.5,0.5 0.5,1 1,1.5 0.5,0.5 1,1.5 1,2.5 0,0.5 0,1.5 0,2.5 -0.5,0.5 -1,1.5 -1.5,2 -9.496,8.49 -19.492,13.49 -30.988,14.49 -1.5,3.5 -3.5,6 -5.996,8.5 -0.5,0.49 -0.5,0.99 0,1.49 0.5,1 0.5,2 1,2.5 0,1 0,2 0.5,2.5 -0.5,1 -0.5,2 -1,2.5 -4.5,8.5 -11.496,12 -20.992,10.5 -2.5,1.5 -5.5,2.5 -8.496,3 l 0.5,0 c 3.496,1.5 7.496,3.5 10.992,5 0.5,1.5 1,3.49 1.5,4.99 0,0.5 0,1.5 0,2.5 2.5,4 3,8 2.5,12.5 -0.5,0.5 -1,1 -2,1.49 -2.496,1.5 -4.996,2 -7.996,2.5 -5.496,-2.5 -10.496,-4.49 -15.993,-5.99 2,2.5 3.997,4.99 5.497,7.99 -0.5,0.5 -0.5,1.5 -1,2.5 -2,5 -5.997,7 -11.497,6.5 -4.996,-1.5 -10.492,-3 -16.992,-4.5 -18.492,-4.5 -34.484,-12.49 -47.98,-24.49 0,-1.5 0,-3.5 0.5,-4.99 0.5,-1.5 1,-3.5 2,-5 6.996,-3 13.992,-5 21.492,-6 -2,-0.5 -4,-1.5 -6,-2 -5.496,-1.5 -10.996,-4 -15.492,-6.5 -15.496,4.5 -29.988,2.5 -43.485,-5.5 -0.5,-0.5 -0.5,-1.5 -1,-2 -0.5,-0.5 -0.996,-1.49 -1.496,-2.49 0,-1.5 0,-3.5 0,-5 -0.5,-2 0,-4 1.496,-6 -12.492,-3.5 -22.488,-10.49 -29.988,-21.49 0.5,-1 1.5,-2 2,-2.5 -2.496,-0.5 -4.496,-1 -6.996,-1.5 -0.5,-0.5 -0.5,-1 -0.5,-1.5 l -0.5,0 c -13.496,-5 -23.988,-11.49 -32.488,-19.99 -5.496,2.5 -11.492,2 -17.492,-2 -15.493,-10.49 -31.489,-16.49 -47.981,-17.99 -1.5,8.5 -5.996,12.49 -13.492,12.99 0.996,1.5 1.996,3 2.496,4.5 8.496,17.49 6.5,32.99 -5.496,45.48 -0.5,1.5 -1,3.5 -1,5 0,13.49 -3.5,25.99 -9.9962,37.49 -1.5,0.5 -3.5,1.5 -5,2 -1.496,-0.5 -2.496,-1 -3.996,-1.5 l 0,265.89" /><path
         id="path66"
         style="fill:#000000;fill-opacity:1;fill-rule:nonzero;stroke:none"
         d="m 224.914,2247.95 c 0,0.5 0,1.5 0,2.5 l -214.914,0 0,-373.35 79.4688,0 0,264.89 c 9.496,2.5 18.4922,5 27.4882,8 22.492,-8.5 45.481,-13.5 69.973,-15.49 0.5,0.99 1.5,1.99 2,2.49 0.5,1 1.5,2 1.996,2.5 -0.996,1.5 -1.996,3.5 -2.496,5 -1,1.5 -2,3 -3,3.5 -13.496,4.5 -26.989,8.99 -40.985,13.49 0,0.5 0,1.5 0.5,2.5 0.5,1.5 0.5,3.5 0.5,5 0,0.5 0,1.5 -0.5,2.5 -2.5,2 -4.496,4 -6.496,6.5 6.496,0.5 13.492,1 19.992,1.5 0.5,0.5 1.5,1.5 2,2 0.5,0.5 0.997,1.5 1.497,2.49 13.996,1 21.492,7.5 22.992,19 -0.5,0.49 -0.5,1.49 -1,1.99 -2.5,1.5 -4.496,3 -6.996,4.5 -0.5,0 -0.5,0 -1,0 0,0.5 0,0.5 0,1 -0.5,0.5 -0.5,1.5 -1,2 -0.5,1 -1.5,2 -2.5,3 -0.5,0.5 -1,1 -1.496,1.5 1.496,1.5 3.496,3 5.496,4.5 15.992,5 31.488,10.5 45.98,16.49 0.5,0.5 1,1.5 1.5,2.5 1,2.5 1.5,5 1,7.5" /><path
         id="path68"
         style="fill:#000000;fill-opacity:1;fill-rule:nonzero;stroke:none"
         d="m 589.77,1809.63 0,-0.5 c -2,-0.5 -4,-0.5 -5.5,-1 -1,-1 -2,-2 -2.5,-2.5 -0.5,-1 -0.5,-2 -0.997,-2.5 0,-1 0,-2 0,-2.5 0,-1 0,-2 0,-2.5 0,-1 0,-2 0,-2.5 -2.5,-1.5 -5,-3.5 -7.5,-5.5 -1.5,-1.5 -2.496,-2.5 -3.996,-4 -0.5,0.5 -1.5,0.5 -2.5,0.5 -27.488,-14.49 -54.476,-30.99 -80.968,-49.98 -6.496,0.5 -12.493,-0.5 -17.993,-2.49 -27.988,-10.5 -56.476,-19.5 -85.964,-27.5 -10.497,-2.99 -21.493,-6.49 -31.989,-9.99 -7.496,-2.5 -15.492,-4.5 -22.988,-6 l 160.934,0 c 24.988,11.5 51.48,19.49 79.468,24.99 0.5,0.5 1.5,1.5 2,2 0.5,0.5 1.5,1.5 2,2.5 0.496,0.5 0.496,1.5 0.996,2.5 0,1.5 0,3 -0.5,4.5 -0.996,3.5 -2.496,7 -4.496,10.49 1,0.5 2,1 3.5,1.5 5.496,7.5 12.493,12 20.989,14 16.496,-3 31.988,0.5 46.484,9.99 -1,1.5 -2.5,3 -4,4 -1.5,1.5 -3.5,2.5 -5.996,3.5 -2.5,0.5 -4.5,1.5 -6.5,2.5 0,0.5 0,1.5 -0.5,2.5 -0.5,0.5 -1,1.5 -1.496,2.5 -0.5,0.5 -1,1.5 -1.5,2.5 -0.5,0.5 -1.5,0.5 -2,0.5 2.5,1.5 5.496,2.5 8.496,3.49 0.5,0.5 0.5,1.5 1,2 0.5,1.5 1.5,3.5 2,5 0.5,1.5 0.5,3.5 0.5,5 -5.5,7.5 -13.496,9.5 -23.992,6.5 -1,0.5 -2,1.5 -2.5,2 -3.496,2.5 -7.496,4 -11.992,4.5 z m -58.477,-65.98 c 0,-0.5 0,-1 0.5,-1.5 l -0.5,1 0,0.5" /><path
         id="path70"
         style="fill:#000000;fill-opacity:1;fill-rule:nonzero;stroke:none"
         d="m 222.414,1828.62 c -3.496,-1.5 -7.496,-2 -11.496,-2 -29.488,-1.5 -56.477,-10.5 -80.965,-25.99 -1.5,-0.5 -2.5,-0.5 -4,0 l 0,1 c 3.5,2 6.496,4 9.496,6.5 1.5,1 2.5,2.5 4,4 0.5,2.49 -0.5,4.99 -2,6.99 -4.5,6 -11.496,9.5 -19.992,10.5 -2.5,0.5 -4.996,0.5 -7.496,1 -0.5,0.5 -1,0.5 -1.5,1 -1.5,2.99 -3,5.99 -4.5,9.49 -2.496,7 -6.9962,12 -12.9922,15.5 -0.5,0.5 -0.5,1.5 -0.5,2.5 -0.5,1.5 -0.5,2.5 -1,3.99 l 0,14 -79.4688,0 0,-186.43 139.945,0 c 4.496,3.5 8.996,7 12.493,11.5 0,1 0,2 0,2.5 0,7.49 -3.997,11.49 -11.493,12.49 0.5,1 0.5,2 0.5,2.5 -0.5,15.49 -7.5,19.99 -21.992,14.5 0,1.49 0,3.49 0,4.99 0,0.5 0,1.5 0,2.5 1.5,0.5 3.496,1 4.996,1.5 0.5,0.5 1,1 1.5,1.5 4.5,4.5 6.996,9.5 6.496,14.99 -0.5,1 -0.996,1.5 -1.996,2 2.996,1.5 5.996,3.5 9.496,5 14.493,-0.5 28.989,-1.5 43.481,-2 6.5,1.5 9.496,5.5 8.996,12 -0.5,2.5 0,5 1,7.49 20.492,5.5 37.984,14.5 52.48,26.5 -0.5,5.49 -3.5,8.49 -8.996,9.49 -1.5,0.5 -3,1 -4.5,1.5 -3.496,8.5 -10.496,10.5 -19.992,7 z M 89.4688,1750.65 c 1.5,0.5 3.5,1.5 5.496,2.5 -0.5,-3.5 -1.5,-6.5 -2.996,-9.5 -1,-0.5 -2,-1 -2.5,-1.5 l 0,8.5" /><path
         id="path72"
         style="fill:#000000;fill-opacity:1;fill-rule:nonzero;stroke:none"
         d="m 226.414,1709.16 c -3,1.5 -6,2 -9.496,1.5 -16.992,-2.5 -31.988,-9.49 -44.984,-19.99 l 139.945,0 c 0,0.5 0,1 0,1.5 -0.5,1 -1,2 -1.5,2.5 -0.5,1.5 -1.5,3.5 -2,5 1.5,1 2.5,2 4,2.5 0.5,1.5 1.5,3.49 2,4.99 1.5,3 1,5.5 -1,7.5 -0.5,1 -1.5,1.5 -2,2 -1.5,1 -3,2 -4.496,2.5 -1.5,-0.5 -3,-0.5 -4.5,-1 -0.5,-0.5 -1,-0.5 -1.5,-1 -11.996,-7.5 -22.988,-15.49 -33.485,-24.99 -13.996,3.5 -27.492,9 -40.984,16.99" /><path
         id="path74"
         style="fill:#000000;fill-opacity:1;fill-rule:nonzero;stroke:none"
         d="m 311.379,1688.67 c 0.5,0.5 0.5,1.5 0.5,2 l -139.945,0 c -5.496,-4.49 -10.496,-8.99 -14.993,-14.49 0.5,0.5 0.5,1.5 0.5,2 -1,0.5 -2,0.5 -3,0.5 0,0.5 0,1 0,1.5 -2.996,1.5 -5.996,3 -8.496,4.5 -1.5,0.5 -2.5,1 -4,1.5 3,1.49 5.5,2.99 8,4.49 l -139.945,0 0,-186.92 79.4688,0 0,61.97 c 23.4882,3.5 44.4802,13.99 62.9722,31.49 -0.5,1 -0.5,2 -0.5,2.5 -0.496,1 -0.496,2 -0.996,2.5 -0.5,1 -1,2 -1,2.5 0,0.5 0,0.5 0.5,1 1.496,0.5 2.496,1.5 3.996,2 10.497,2.49 20.493,5.49 29.989,9.99 2.5,1 4.5,2.5 6.496,4 0.5,0.5 0.5,1.5 1,2.5 0,0.5 0,1.5 0.5,2.5 10.996,1.5 19.492,6 25.992,13.49 4.496,-1 8.496,-2.99 12.992,-6.49 5.5,-4.5 11.996,-6.5 18.492,-6 1.5,0 3,0 4.5,0 1,-0.5 2,-1.5 3.5,-2.5 5.496,-4 11.493,-7 16.993,-9 6.496,-5 13.992,-8.99 21.992,-12.49 -17.996,-15.5 -36.989,-28.99 -57.481,-41.49 0,0.5 0,1.5 0,2.5 0,6.5 -2.996,10 -9.496,11.5 -1.496,-0.5 -2.496,-0.5 -3.996,-1 -1,-0.5 -2,-1 -2.5,-1.5 -2,-3 -3.996,-6 -5.996,-9.5 -2,-1 -3.5,-2 -5,-3.5 0,-1 0,-1.99 0,-3.49 -13.492,-18.5 -27.488,-36.49 -42.98,-53.48 l 26.488,0 -0.5,0.5 c 0.5,0.5 1,1 1.5,1.5 -0.5,-0.5 -0.5,-1.5 -1,-2 l 20.492,0 c 0,0.5 0,0.5 0.5,1 0,-0.5 0,-0.5 0.5,-1 l 69.473,0 c 0,0.5 0,1.5 0.5,2 0,0.5 0,1.5 0,2.5 -1,3.49 -3.5,5.49 -7.5,5.49 -12.493,-0.5 -20.989,1.5 -24.989,5 1.5,1.5 2.5,3 4,4 3.496,1.5 6.996,3 10.493,4.5 1,2 1.5,3.99 2,6.49 0.5,3 0,5.5 -1.5,7.5 -1.497,1.5 -3.497,2.5 -5.497,3.5 6.497,5 13.497,10 20.493,14.5 15.492,10.49 25.488,23.48 29.988,38.48 0.5,-0.5 1.5,-0.5 2,-0.5 2.496,1.5 4.496,3 6.996,5 0.5,0.5 0.5,1 1,2 14.492,-1.5 27.988,-0.5 40.984,3.99 1.996,3.5 2.996,8 3.496,12.5 0.5,4.5 -1,8 -3.496,10.5 -3.5,3.5 -7.5,6.49 -10.996,8.99 3.496,1.5 7.496,2.5 11.992,2.5 22.493,0 41.485,4.5 57.981,14 5.496,-3.5 11.992,-3.5 19.492,-1 1.996,0.5 3.996,1 5.996,1.49 7.996,-11.49 17.992,-16.99 29.489,-16.49 1,0.5 2,1.5 2.5,2 0.5,0.5 0.5,1.5 1,2 0.496,1 0.496,2 0.996,2.5 -0.5,1.5 -1.496,3.5 -2.496,5 -1.5,3.5 -4,5.49 -7.5,6.99 1.5,0 2.5,0.5 4,1 0.5,0.5 1,1 1.5,1.5 0.5,0.5 0.5,1.5 1,2.5 21.992,3.5 43.98,3 65.972,-1 1,0.5 2,0.5 3,1 0.5,0 1.5,0 1.996,0.5 0,0.5 0,1.5 0.5,2 0.5,0.5 1,1.5 1.5,2.5 0.5,0.5 0.5,1.5 0.5,2.5 -1,2.5 -2.5,4.5 -4.996,6 -18.992,11.49 -39.984,13.99 -63.476,7 -1,1.5 -2,2.49 -2.996,3.49 1.496,1 3.496,2 4.996,2.5 l -160.934,0 c -5.5,-1 -10.496,-1.5 -15.496,-2" /><path
         id="path76"
         style="fill:#000000;fill-opacity:1;fill-rule:nonzero;stroke:none"
         d="m 922.137,1285.34 c -0.5,0.99 -1.5,1.49 -2,1.99 -1.5,1.5 -2.5,3 -3.5,4.5 -1.5,0.5 -2.5,1 -3.996,1 -1,-0.5 -1.5,-1 -2,-1.5 -6,-4.5 -8.996,-10.49 -8.496,-17.49 -15.497,-31.99 -34.989,-60.48 -58.477,-85.47 0,-0.49 0,-1.49 0,-1.99 l -1,0 c -0.5,-0.5 -0.5,-1.5 -1,-2 -0.5,-0.5 -1,-1.5 -1,-2 0,-0.5 0,-1.5 0,-2.5 0.5,-2 1,-4 2.5,-6 -8.996,-11.5 -18.992,-22.49 -30.488,-32.99 -2,-2.5 -4,-4.5 -6,-6.5 -0.5,0.5 -0.5,0.5 -1,0.5 -2.996,-1.5 -5.996,-2.5 -8.996,-4 l 89.964,0 c 0,1.5 0,2.5 -0.5,4 -0.5,1.5 -1.5,2 -2,2 -15.992,1.5 -31.984,1 -47.98,-0.5 -0.5,0.5 -0.5,0.5 -1,0.5 7,8.5 13.996,16.5 21.492,24.49 1.5,-1 3.5,-1.5 5,-2 40.485,-6.99 79.469,-2.49 116.953,13.5 -4.5,3.5 -10.496,6 -16.992,7 -4,0.5 -8,1 -11.496,1 2.496,4 3.996,8.49 3.996,13.49 -1.5,0.5 -2.496,0.5 -3.496,0.5 -0.5,0.5 -1,0.5 -1.5,0.5 0,-0.5 0,-0.5 -0.5,-0.5 -1.5,-0.5 -2.5,-1 -3.5,-1.5 -6.496,-3.5 -11.496,-7.49 -14.992,-12.49 0,-0.5 0,-1.5 0,-2 -3.5,-0.5 -6.5,-1.5 -9.496,-3 -18.492,-6 -35.989,-6 -51.481,-0.5 22.992,2.5 40.485,12.5 51.981,28.99 -0.5,0.5 -0.5,1 -1,1.5 -2,1.5 -4,2.99 -6,3.99 -13.492,-4.49 -26.489,-8.99 -39.985,-14.49 22.993,26.49 38.985,56.48 47.985,89.97" /><path
         id="path78"
         style="fill:#000000;fill-opacity:1;fill-rule:nonzero;stroke:none"
         d="m 551.285,1273.84 c -0.5,0.5 -0.5,0.5 -1,0 -6,-27.99 -2.5,-55.98 9.996,-83.97 -9.496,3.5 -18.992,5.5 -29.488,7 -0.5,1 -1.5,1.5 -2,2 -15.996,22.99 -29.988,46.48 -42.484,70.47 -0.5,0 -1,0 -1.5,0 -1,0 -1.996,0 -2.996,-0.5 -0.5,-0.5 -0.5,-1.5 -1,-2 -1,-1.5 -2,-2.5 -2.5,-4 3.5,-27.48 14.496,-52.48 33.488,-74.46 2.996,-3 6.996,-5.5 11.492,-7 18.992,-6 37.988,-11.5 56.98,-16 0.5,-0.5 1.497,-1 2.497,-1.5 7.5,-6.99 15.996,-13.49 24.492,-19.99 -0.5,-0.5 -1.5,-0.5 -2,-0.5 -28.989,0 -53.977,9 -75.469,27.49 -1.5,-0.5 -3,-0.5 -4.5,-1 -1,-0.5 -1.5,-1.5 -2,-2 -0.5,-3 0,-6 1.5,-8.5 9.996,-12.99 22.492,-22.49 36.984,-28.49 l 103.961,0 c -2,1 -4,2 -6.5,2.5 -0.496,1.5 -0.496,2.5 -0.996,3.5 -6,4.5 -10.996,10.5 -14.996,17.5 0,0.5 0,1.5 -0.5,2 -7.496,20.49 -8.496,41.98 -3.496,63.97 0,0.5 0,1.5 0,2 -1,3 -2,6 -3.5,8.5 -1.5,0.5 -2.5,1.5 -3.5,2 -0.5,-0.5 -0.5,-0.5 -0.5,-0.5 -1,-0.5 -1.996,-0.5 -2.996,-1 -0.5,0 -0.5,0 -1,-0.5 -0.5,-1 -1,-2 -1.5,-3.5 -8.496,-25.49 -8.496,-50.98 -0.5,-76.47 -11.996,7.5 -22.992,16.49 -33.488,26.49 -0.5,1.5 -1.496,2.5 -1.996,3.5 -15.997,29.48 -26.993,60.47 -32.489,92.96 -1.5,0.5 -3,1 -4,1.5 l 0,-0.5 c -1,0 -2,-0.5 -2.496,-1" /><path
         id="path80"
         style="fill:#000000;fill-opacity:1;fill-rule:nonzero;stroke:none"
         d="m 749.703,1150.89 c -0.5,-0.5 -1,-0.5 -1.5,-0.5 -1.496,-1.5 -1.996,-2.5 -1.996,-4 -2,-5 -4,-10 -5.5,-15.5 l 17.492,0 c 0.5,5.5 1.5,11.5 2,17 -0.5,1 -1.5,1.5 -2,2 -1.496,0.5 -2.996,1.5 -4.496,2 -1.5,-0.5 -2.5,-0.5 -4,-1" /><path
         id="path82"
         style="fill:#000000;fill-opacity:1;fill-rule:nonzero;stroke:none"
         d="m 712.719,1153.39 c -1.5,-0.5 -2.5,-1 -4,-1.5 -0.5,-0.5 -0.996,-1 -1.496,-2 -2,-2 -3.5,-4 -5,-6.5 0,-1.5 0,-2.5 -0.5,-4 -1,-2.5 -2,-5.5 -2.5,-8.5 l 17.996,0 c 0.996,5 1.996,10 2.996,15 -0.5,0.5 -1,1.5 -1.5,2 -0.996,1.5 -1.496,2.5 -1.996,4 -1.5,0.5 -2.5,1.5 -3.5,2 -0.5,-0.5 -0.5,-0.5 -0.5,-0.5" /><path
         id="path84"
         style="fill:#000000;fill-opacity:1;fill-rule:nonzero;stroke:none"
         d="m 885.148,1125.9 c 0.5,1.5 1,3 1.5,4.49 l 0,0.5 -89.964,0 c -7.996,-3.99 -15.493,-8.99 -22.489,-14.99 -4,-1.5 -7.996,-2.5 -11.496,-3.5 -2.5,-0.5 -5,-1 -7.496,-1.5 1.5,6.5 2.496,13.5 2.996,19.99 l -17.492,0 c -3.996,-12.49 -6.996,-24.98 -8.496,-37.98 l 4,0 0,-34.98 c -4.5,-1 -8.5,-2.5 -12.496,-4.5 -0.5,0 -1,0 -1.5,-0.5 -0.5,0 -1,0 -1.5,0 -0.5,0 -1,0 -1.5,-0.5 -0.5,-0.5 -0.5,-0.5 -1,-1 -5.996,4.5 -11.492,9.5 -16.992,13.99 l 0,24.99 6.996,0 c 3,13.5 6,26.99 9,40.48 l -17.996,0 c -1.496,-4.99 -2.996,-9.99 -4.496,-15.49 -8.497,6 -17.993,11 -27.989,14.99 -0.5,0.5 -0.5,0.5 -1,0.5 l -103.961,0 c 10.496,-4.49 21.993,-6.99 34.489,-7.99 3.5,-3.5 7.996,-5 13.496,-5.5 21.488,-0.5 40.98,-6 58.476,-16.49 0.5,-0.5 0.5,-1 0.996,-1.5 3.5,-2.5 7,-5 10.496,-7.5 -0.5,-3.5 -0.5,-6.5 -1,-10 -18.492,10 -38.984,13.5 -60.972,11 -1,-0.5 -2,-1.5 -3,-2 l 0.5,-0.5 c -0.5,0 -1,0 -1.5,-0.5 0.5,0 0.5,0 0.5,-0.5 -2.5,-3.5 -2.5,-7.5 0,-11.49 1,-0.5 2,-1.5 2.5,-3 3,-3.5 5.496,-7 6.996,-11 13.496,-15.99 28.988,-30.49 46.48,-43.48 1.5,-0.5 2.5,-1.5 4,-2.5 -1.5,-2.5 -3.5,-4.5 -5,-6.99 -14.492,-23.997 -13.492,-45.489 3.5,-64.981 l 0,-0.5 c 0.5,-0.5 0.5,-1 1,-1.496 l 213.914,0 c 0.5,0.496 0.5,0.496 1,0.996 0,0.5 0,1 0,1 2.5,2.5 4.5,5.5 5.997,8.496 1.5,-0.5 3.5,0 5,2.5 0.5,1.5 0.5,3 0.5,4.5 0.5,2.996 0.5,5.996 0,8.496 -1,3.996 -1.5,7.996 -2,12.496 -1,2.496 -2,3.496 -3.5,3.996 -12.993,5 -25.489,12.996 -36.985,23.997 0,-0.5 0,-0.5 -0.5,-0.5 -0.5,0 -1.5,0 -2,-0.5 -7.496,8.99 -13.992,18.49 -20.488,28.98 -2.5,2.5 -5.5,5.5 -8,8 -1.5,0.5 -2.496,1 -3.996,1.5 -1,0.5 -2,0.5 -2.5,0.5 -0.5,-0.5 -0.5,-0.5 -0.5,-0.5 -1,-0.5 -2,-0.5 -3,-0.5 -0.5,-0.5 -1,-1.5 -1,-2 -0.496,-1 -1.496,-2 -1.996,-3.5 0.5,-0.5 0.5,-0.5 1,-1 -5.5,3.5 -10.996,6 -16.496,8.5 5,15.49 9.496,30.99 13.496,46.48 31.488,-9.5 64.472,-12.5 98.961,-9 0,0.5 0,1 0.5,1 0.5,1.5 0.5,3 1,4.5 0,1 0,2 -0.5,2.5 -1,3.5 -3.5,5.5 -8,6 -3.496,0.5 -6.996,0.5 -10.493,0.5 2.497,1.5 5.497,3 7.997,4.5 1.5,5.49 4.996,8.49 10.496,8.99 0.5,1 1,1.5 1,2 0.496,1.5 0.996,3 0.996,4.5 -0.5,1 -1.496,1.5 -1.996,2 -1.5,1 -2.5,1.5 -3.5,2 -13.496,-5.5 -26.489,-13 -38.485,-21.49 -15.492,2 -29.488,4.5 -41.984,7.49 0.5,0.5 0.5,1.5 0.5,2.5 l 0,0.5 c 18.992,4.5 37.984,8 56.976,11.5 z m -51.976,-106.46 c 0.5,0 0.5,0 1,-0.5 l -0.5,-0.5 c -0.5,0.5 -0.5,0.5 -0.5,1" /><path
         id="path86"
         style="fill:#000000;fill-opacity:1;fill-rule:nonzero;stroke:none"
         d="m 390.348,833.516 c -3,0.5 -5.996,1 -8.996,1.5 l -11.997,0 0,1 c -27.488,3.496 -55.476,4.496 -83.964,3.996 -22.493,-2.5 -43.485,-8.496 -62.977,-18.992 -9.996,-4.497 -19.992,-9.997 -29.488,-15.993 -3.496,-2.5 -6.996,-5.5 -9.996,-7.996 -4.496,-4 -8.496,-8 -11.992,-12.496 -12.497,-0.5 -25.493,-2.5 -38.489,-5.5 -6.496,-1.496 -12.492,-4.496 -17.492,-8.996 -4.996,-3.996 -8.996,-7.996 -12.492,-12.492 l 36.484,0 c 1.5,1.996 3.496,3.996 5.496,5.496 l 0.5,0 c 0,0 0,0 0.5,0 3,-0.5 6,-1.5 9.496,-2 -0.5,-1 -1.5,-1.996 -2,-3.496 l 630.75,0 c 0.5,31.484 0.5,56.976 1,77.469 0,22.988 0,38.984 0,47.98 l -3.5,0 c 1,2.5 2,4.496 3.5,6.496 4.497,7.996 8.997,15.996 13.493,23.992 2,1 4.5,1.996 7,2.496 5.996,1.5 11.492,4 15.992,7 4.496,0.5 8.996,1.5 13.496,2 0.996,0.497 1.996,0.497 3.496,0.997 16.992,-1.497 33.488,4.5 49.48,17.996 l -213.914,0 c 0,0 0,0 0.5,-0.5 0.5,-1 1,-2 1.5,-2.5 0,-3.5 -0.5,-6.996 -1,-10.496 -1.5,-7.997 -2,-15.993 -1,-24.493 -4.5,-7.496 -8.496,-15.492 -12.996,-22.988 l -0.5,0 c -5.496,-8.496 -10.992,-17.492 -16.492,-25.992 -3.5,0 -6.996,-0.496 -10.496,-0.996 -11.496,-1.5 -22.492,-4.5 -32.984,-8 -5.5,-0.5 -10.496,-1.996 -15.996,-3.496 -10.497,-2.5 -20.993,-6 -30.489,-9.496 -21.988,-8.496 -42.48,-18.493 -61.972,-30.989 -14.996,3.996 -30.989,5.996 -47.481,6.496 -1.5,0 -3.5,0 -5,0 -5.496,3.5 -11.496,6.5 -17.492,8.997 -8.496,7.5 -18.992,11.996 -31.488,13.996 z m 404.34,102.457 c 0.5,0.5 0.5,0.5 0.5,1 l 0.5,-0.5 c -0.5,0 -0.5,0 -1,-0.5" /><path
         id="path88"
         style="fill:#000000;fill-opacity:1;fill-rule:nonzero;stroke:none"
         d="m 285.891,1503.25 c 0.5,0.5 0.5,0.5 1,0.5 l -69.473,0 c 21.492,-9.5 43.98,-10 67.473,-2.5 0.5,0.5 0.5,1.5 1,2" /><path
         id="path90"
         style="fill:#000000;fill-opacity:1;fill-rule:nonzero;stroke:none"
         d="m 169.438,1503.75 c -3,-3.5 -6,-6.5 -9.497,-10 -1.5,-1.5 -3.5,-2.5 -5.5,-3 -18.492,-5 -33.984,-13.99 -46.98,-26.99 0,-0.5 0,-1.5 0,-2.49 0,-0.5 0,-1.5 0,-2.5 -0.5,-0.5 -1,-1.5 -1.5,-2.5 -0.5,-0.5 -1,-1.5 -1.5,-2.5 0,-0.5 0,-1.5 0,-2.5 0,-0.5 0,-1.5 0,-2.5 -4.4962,-7.5 -9.4962,-14.5 -14.9922,-20.99 l 0,75.97 -79.4688,0 0,-372.86 79.4688,0 0,157.44 c 12.4962,17.99 22.4922,36.99 29.9882,56.48 7.496,-2.5 15.492,-2 24.988,1 0.5,0.5 0.5,1.5 1,2.5 0.5,1.5 0.5,3.5 0.5,5 -5.496,3.49 -10.996,6.49 -15.992,7.99 23.988,3.5 34.985,15 33.485,34.49 7,1.5 11.496,6 13.996,12.5 -0.5,0.5 -1,1 -2,1.5 -1,0.5 -2,1 -3,1.5 7.5,6.49 14.996,13.49 22.492,20.99 0,0.49 0,1.49 0,2.49 0,0.5 0,1.5 0,2.5 0,0.5 0,1.5 0,2.5 1.5,1.5 3,3.5 4.5,5.5 6.496,9 12.492,17.99 18.992,26.99 4.496,0.5 7.496,3 8.996,7.5 0,1.49 0,3.49 0,4.99 -0.5,0.5 -0.5,1.5 -0.5,2.5 -1,0.5 -2,1.5 -3,2 -4,3 -8.496,5 -12.996,5.5 0.5,1.5 0.5,3.5 1,5 1.5,1.5 3,2.5 4.5,4 l -46.98,0" /><path
         id="path92"
         style="fill:#000000;fill-opacity:1;fill-rule:nonzero;stroke:none"
         d="m 10,757.547 79.4688,0 0,373.348 -79.4688,0 0,-373.348 z" /><path
         id="path94"
         style="fill:#000000;fill-opacity:1;fill-rule:nonzero;stroke:none"
         d="m 377.352,524.141 c -0.5,1.496 -1,2.996 -1.497,4.496 -0.5,0.5 -1.5,0.5 -2,1 -1.5,2.5 -3.5,4.996 -5,7.496 -3.996,13.996 -8.996,27.488 -14.992,40.484 8.496,0.5 16.992,1 25.489,2.5 12.996,2.5 25.492,5.496 36.984,9.496 6.5,-1.5 12.496,-4 18.492,-6.496 18.496,-7.5 55.981,-15.996 111.957,-24.992 l 0,-0.5 c 0,-2.5 1.5,-4.496 4.5,-5.496 -0.5,-33.488 5.496,-66.473 17.992,-98.461 -0.5,-6 0,-12.496 0.5,-18.992 1.5,-16.496 1,-33.488 -1.5,-50.481 l 45.481,0 c 2,13.496 4,26.989 6.496,39.985 0.5,0.5 1,0.5 1.5,1 0.5,1 0.5,1.996 1,2.496 0,5.5 0,10.996 0.5,16.496 1,6.496 2,12.492 3,18.492 -0.5,0.5 -1.5,0.5 -2,1 1,12.492 2,24.988 3.5,36.984 6.496,17.493 11.992,35.485 15.992,53.977 5.5,-21.488 15.492,-42.48 28.988,-62.473 6.496,-9.496 12.496,-19.492 17.993,-29.988 11.996,-22.492 26.988,-42.484 45.484,-59.976 -0.5,-1.5 -0.5,-3.5 -0.5,-4.997 0.5,-0.5 1,-1.5 1.5,-2 0.496,-1 0.996,-2 1.496,-2.5 0.5,-2.5 1,-5.496 1.5,-8.496 l 39.984,0 c -3,10.496 -5.996,20.493 -8.496,30.489 -0.5,0.5 -1.5,0.5 -2,0.5 -3.996,12.492 -7.996,24.988 -12.496,38.484 -4.996,13.992 -9.996,27.988 -14.992,41.98 -9.996,36.489 -20.492,72.473 -31.988,107.957 l -4.996,-5.496 c 12.492,30.489 19.492,46.981 21.492,48.981 6.996,8.996 13.992,17.992 20.488,27.488 4.5,5.5 9,11.496 12.996,17.492 3.5,6 6.996,11.996 9.996,17.996 4.5,8.497 8.996,16.493 12.996,24.989 0,7.996 0,15.492 0.5,22.492 l -630.75,0 c -0.5,-0.5 -0.5,-0.5 -0.5,-1 -17.492,-11.496 -23.988,-27.488 -20.488,-47.981 0.996,-6 2.496,-11.996 4.496,-17.496 1.5,-9.996 6.996,-18.992 15.992,-26.988 19.493,-16.492 39.985,-32.484 61.477,-46.98 1.5,-1 3.5,-2 5,-3.5 2.996,-6.997 5.996,-13.993 9.496,-20.493 6.496,-12.492 13.492,-24.488 21.488,-35.984 -5.496,-8.496 -11.992,-16.492 -19.992,-23.988 -15.992,-14.496 -28.488,-29.989 -36.984,-47.481 -1.5,0.996 -2.496,1.496 -3.496,1.496 l 0,-0.5 c -1,0.5 -2,0.5 -2.5,0 -0.5,-0.5 -1.5,-0.996 -2,-1.496 -0.5,-0.5 -1.5,-1.5 -2,-2 -1,-1.5 -2,-3 -3.496,-4.5 0,-2.5 0,-5.496 0,-8.496 -0.5,-8.496 -1.5,-16.992 -2,-25.488 -1.5,-19.992 -3,-39.984 -4,-60.477 l 43.484,0 c 2.996,18.493 5.496,36.985 7.996,55.477 5.496,7.996 10.996,15.996 17.492,23.492 1.5,1.5 3,2.5 4.5,3.496 5.496,3.5 10.996,7 16.492,10.496 -4.496,-17.992 -9.996,-35.984 -16.492,-54.476 1,-0.5 2,-1.5 2.496,-2.5 0.5,-0.5 1,-1 1.5,-1.5 1,0 2,0 3,0.5 0,0.5 0,0.5 0.5,1 1.5,-11.996 3.5,-23.989 5.496,-35.985 l 48.981,0 c -2.496,9.996 -4.496,19.993 -6.496,29.989 3,1.5 5.996,3 8.496,5.496 15.996,18.492 32.488,36.488 49.48,54.48 9.496,9.996 15.496,20.492 16.993,31.985 3,-0.5 5.5,0.5 7.5,2.5 0.5,1.5 0.5,3 0,4 -2.5,3.996 -5,7.996 -7.5,11.496" /><path
         id="path96"
         style="fill:#000000;fill-opacity:1;fill-rule:nonzero;stroke:none"
         d="m 125.453,735.055 c 2,2 3.5,4 4,6.496 2.5,6 5.496,11.496 9.496,15.996 l -36.484,0 c -4.5002,-4.5 -7.5002,-9.496 -9.9962,-14.496 -0.5,-0.5 -0.5,-1.5 -1,-2.5 -0.5,-0.5 -0.5,-1 -0.5,-1.496 -0.5,-0.5 -1,-1 -1.5,-1.5 l 0,19.992 -79.4688,0 0,-373.352 79.4688,0 0,297.379 c 7.996,-9.496 16.9922,-18.492 27.4882,-26.488 1.5,-3.5 2.5,-7.496 4,-10.996 3.996,-2.496 7.496,-2.496 10.496,0 0.5,0 0.5,0 0.996,0 0,0 0,0 0.5,0 1.5,-1 3.5,-2 5,-2.496 2,-1 3.996,-2 6.496,-3 0.5,0 1.5,0 2.5,0.5 0.5,0.5 0.5,0.5 1,0.5 0.5,0.5 0.5,1 1,1.5 0.5,4.996 -0.5,9.996 -4,15.492 -14.992,24.488 -21.492,50.48 -19.492,78.469" /><path
         id="path98"
         style="fill:#000000;fill-opacity:1;fill-rule:nonzero;stroke:none"
         d="m 1780.79,382.695 c -1,-1.5 -2,-2.5 -3,-4 -0.5,2 -0.5,4 -0.5,5.5 l -307.38,0 c -0.5,-3 -0.5,-6 -0.5,-8.996 -1.49,0.5 -2.49,1 -3.99,2 -0.5,0.5 -1,1.496 -1.5,2.496 -0.5,1.5 -1,3 -1.5,4.5 l -13.49,0 c 0.5,-5 1.49,-9.996 3.99,-14.496 -1,-1 -1.5,-1.996 -2,-2.996 -0.5,-0.5 -0.5,-1.5 -0.5,-2 1,-2 2,-4 3.5,-5.5 -3,-0.5 -5.99,-1.496 -8.99,-1.996 -5,-1 -9.5,-2.5 -14,-4.5 -4,5.5 -9,8.996 -14.99,10.996 2,3 4,5.996 5.99,8.996 0.5,1 0.5,2 0.5,2.5 0,1 0,2 -0.5,2.5 1,0.996 2,1.996 2.5,2.996 1,1 2,2 2.5,3.5 l -3.5,0 c -0.5,-0.5 -1.5,-1.5 -2.5,-2 -7.49,-1.5 -14.99,-4.496 -21.48,-8.496 -0.5,-1 -1,-2 -1.5,-2.5 -4.5,-6.496 -9,-11.996 -13.5,-15.992 -0.5,0.5 -1,0.5 -1.5,1 7,9.496 14.5,18.992 22.99,27.988 l -25.49,0 c -6.5,-7.496 -12.49,-14.996 -18.49,-22.492 -1,-0.5 -2,-0.5 -2.5,-0.5 -1.5,-1.5 -2,-3.496 -2,-5.496 -2.5,-3 -4.5,-6 -7,-8.496 -0.5,1.496 -1,2.996 -0.5,4.496 2.5,14.996 -2.5,25.492 -13.99,31.988 -5.5,-1 -9.5,-4 -12.5,-8.996 0,-1.5 0,-3.5 0,-5 0,-5.496 0,-10.496 0.5,-15.492 1,-12.496 2,-25.488 2.5,-38.484 -7.49,-3.5 -13.49,-7.496 -18.99,-11.996 0,0.5 0,0.5 -0.5,1 -2,3.5 -5,5.496 -9,5.496 -0.5,-0.5 -1,-0.5 -1,-0.996 -8.49,3.496 -14.99,-2.5 -18.99,-16.997 0.5,7 0.5,13.997 0,20.493 -0.5,20.492 -9.49,32.988 -25.99,37.484 -0.5,1 -0.5,2 -0.5,2.5 -1.5,7.496 -5.5,11.996 -11.99,14.496 -1.5,-0.5 -2.5,-1 -4,-1.5 -1,-0.5 -2,-0.5 -2.5,-1 -0.5,-24.492 3.5,-48.98 11.99,-73.473 l 924.14,0 0,92.965 -386.85,0 c -0.5,-0.5 -1,-1 -1.5,-1.5 z m -384.84,-50.48 c 1.5,2.5 1,5.5 -0.5,7.996 -0.5,0.5 -0.5,0.5 -0.5,1 1.5,1.5 3.5,2.5 5,4 2.49,-6.496 4.49,-13.496 5.99,-20.492 -0.5,0 -0.5,0 -0.5,-0.5 -0.5,0.5 -1.5,1.5 -2,2.5 -2.99,1.5 -5.99,2.496 -8.99,3.496 0.5,0.5 1,1.5 1.5,2" /><path
         id="path100"
         style="fill:#000000;fill-opacity:1;fill-rule:nonzero;stroke:none"
         d="m 1098.57,384.195 -8.5,0 -3.5,-43.484 -7.5,16.996 0,26.488 -10.99,0 c -1,-21.492 -1.5,-43.484 -1,-65.472 -0.5,0 -1.5,0 -2.5,0 -1.5,0.5 -3.5,0.996 -5,1.496 -4,0 -6.5,-1.496 -8,-3.996 -4.49,12.496 -8.49,24.488 -12.49,36.484 -1.5,1 -3,2 -4.5,2.5 -1,0 -2,0 -3,-0.5 -1.5,-0.5 -3,-1 -4.5,-2 3.5,-20.492 8.5,-40.984 15,-61.477 l 63.97,0 c 0,3 0,6 0,8.5 8.5,13.993 16.99,27.989 24.49,42.481 -4.5,7.496 -10.5,8.496 -17.49,3 -4.5,-6.496 -9,-13.496 -13,-19.992 -1,2 -1.99,4 -2.99,5.996 1.5,17.496 1.99,35.488 1.5,52.98" /><path
         id="path102"
         style="fill:#000000;fill-opacity:1;fill-rule:nonzero;stroke:none"
         d="m 1209.52,344.711 c -7.5,4 -15.99,3.5 -24.49,-2 -25.49,-15.492 -49.98,-32.984 -73.47,-51.481 l 31.49,0 c 22.49,17.997 44.48,35.989 66.47,53.481" /><path
         id="path104"
         style="fill:#000000;fill-opacity:1;fill-rule:nonzero;stroke:none"
         d="m 1245,291.23 c 0,-0.5 0,-1.496 0.5,-1.996 4,-10.996 6,-21.992 6.5,-32.488 -31.48,0.5 -62.97,3 -94.46,8.496 13.5,5.496 26.49,10.996 39.48,17.492 0.5,1 1,2 1,3 0.5,1.5 0.5,3 0.5,4.496 0,0.5 0,0.5 -0.5,1 l -24.98,0 c -13.5,-1.996 -26.99,-4.996 -40.49,-8.496 3.5,3 7,6 10.5,8.496 l -31.49,0 c -2,-1.496 -4,-3.496 -6,-4.996 0,1.5 0,3.5 0.5,4.996 l -63.97,0 c 0.5,-1.496 1.5,-3.496 2,-5.496 -7,1 -13.5,1.5 -20,2 -0.5,0.5 -0.5,0.5 -0.5,1 0,0.5 0,1.496 -0.5,2.496 l -13.99,0 c 0,-0.5 0,-0.5 0,-1 -0.5,0.5 -0.5,0.5 -1,1 l -55.979,0 c 0,-0.5 0,-0.5 0.5,-1 -4.496,0 -8.496,0 -12.992,0 -27.988,-0.496 -55.481,-2.996 -82.969,-7.496 1,2 1.5,4.5 1.5,7 0.5,0.496 0.5,0.996 1,1.496 l -34.484,0 c -1.5,-2.996 -2.5,-5.996 -4,-9.496 -0.5,0.5 -1,0.5 -1.5,0.5 -0.5,0.5 -0.5,1.5 -0.5,2 -0.5,0.5 -1,1.5 -1.5,2 -0.5,0.5 -0.5,1 -0.5,1 -0.5,1.5 -1.496,2.5 -1.996,3.996 l -542.785,0 c 0,-0.5 0,-1.496 0,-2.496 0.5,-1.5 1.5,-3 2.5,-4 -3.5,-0.5 -7.497,-1 -10.997,-1.5 -0.5,2.5 -0.5,5.5 -1,7.996 l -26.488,0 c 0,-0.5 0,-0.5 0,-1 0.5,-3.996 1.5,-7.496 3.496,-10.492 -7.496,-1 -14.992,-2 -22.488,-3 -0.5,4.996 -1,9.996 -1.5,14.492 l -44.98,0 c 0,-2.496 0,-4.496 0,-6.996 0.496,-0.5 1.496,-1.5 2.496,-2.5 -0.5,-3.496 -0.5,-7.496 -0.5,-10.996 -6.496,-0.996 -12.493,-1.996 -18.993,-2.996 0.5,0.5 0.5,1.5 1,2 0.5,0.5 0.5,1.496 0.5,2.496 -0.5,0.5 -1.5,0.5 -2,0.5 -1.996,-1 -3.996,-2.496 -5.496,-3.996 0,-0.5 0,-1.5 0,-2 -2,-0.5 -4,-0.5 -5.996,-1 0.496,6.496 -1,11.996 -4,16.992 -1.5,0.5 -2.5,1.5 -4,2 l 0,-0.5 c -1,-0.5 -1.996,-0.5 -3.496,-1 -0.5,0 -0.5,0 -0.5,-0.5 -1,-1.5 -1.5,-2.496 -2,-3.996 -1.5,-5.5 -2,-10.496 -1.5,-15.496 -12.496,-2.5 -24.488,-4.996 -36.4842,-7.996 l 0,35.984 -79.4688,0 0,-93.46 347.859,0 c -3.996,0.5 -7.996,1 -11.992,1.5 -0.5,0 -1.5,0 -2,0 4.996,0.5 9.996,1 15.492,1.5 13.496,1 26.989,1.996 40.485,2.496 46.98,1.5 93.961,-0.5 140.945,-5.496 l 109.953,0 c 3.5,0.5 7,0.5 10.996,1 -1,-0.5 -2,-0.5 -2.996,-1 l 1510.398,0 0,93.46 -924.14,0 z m -1059.57,-5.996 1.5,0 c 0,-0.5 0,-1 0,-1.5 -0.5,0.5 -1,1 -1.5,1.5" /><path
         id="path106"
         style="fill:#000000;fill-opacity:1;fill-rule:nonzero;stroke:none"
         d="m 1173.04,291.23 24.98,0 c -0.5,0.5 -0.5,0.5 -1,1 -1.49,1 -2.49,2 -3.99,2.5 -3.5,-1 -7.5,-2 -12,-2.5 -2.5,-0.5 -5.49,-0.5 -7.99,-1" /><path
         id="path108"
         style="fill:#000000;fill-opacity:1;fill-rule:nonzero;stroke:none"
         d="m 698.723,384.195 -10.993,0 c 0.997,-15.496 1.497,-30.988 0.997,-46.48 l 28.988,0 c 1,5.996 2,11.992 3,18.492 -1,0.5 -2,1.5 -2.5,2.496 -0.5,0 -0.996,0 -1.496,-0.496 -1.5,-0.5 -3.5,-1.5 -5,-3 -0.5,-0.5 -1,-1.5 -1.5,-2 -2.496,-4 -4.996,-7.996 -6.996,-12.496 0,14.496 -1.5,28.988 -4.5,43.484" /><path
         id="path110"
         style="fill:#000000;fill-opacity:1;fill-rule:nonzero;stroke:none"
         d="m 568.277,384.195 c 0,0 0,0 0,-0.5 -2.5,-15.492 -4.5,-30.488 -5,-45.98 l 43.485,0 c 2.5,15.492 4.496,30.984 6.996,46.48 l -45.481,0" /><path
         id="path112"
         style="fill:#000000;fill-opacity:1;fill-rule:nonzero;stroke:none"
         d="m 653.242,355.207 0,-0.5 c -1.5,-0.5 -3.5,-0.5 -4.996,-1 -1,-1 -1.5,-2 -2,-3 -0.5,-0.5 -0.5,-1.5 -0.5,-2 1.5,-3.496 3.5,-7.496 4.996,-10.992 l 16.496,0 c -4.5,6.496 -8.996,11.992 -13.996,17.492" /><path
         id="path114"
         style="fill:#000000;fill-opacity:1;fill-rule:nonzero;stroke:none"
         d="m 780.191,384.195 -39.984,0 c 3,-12.996 6.5,-25.988 10.996,-38.984 -4.496,-2 -8.996,-4.5 -12.496,-7.496 -0.5,0.5 -1.5,0.5 -1.996,1 -1.5,-0.5 -2.5,-0.5 -3.5,-1 l 62.973,0 c -5.496,15.492 -10.993,30.984 -15.993,46.48" /><path
         id="path116"
         style="fill:#000000;fill-opacity:1;fill-rule:nonzero;stroke:none"
         d="m 347.863,344.211 c -1.496,0.5 -2.996,1.5 -4.496,2 -1.5,-0.5 -2.5,-0.5 -4,-1 -0.5,-0.5 -1.5,-0.5 -2,-0.5 -0.496,-0.5 -0.496,-1.5 -0.996,-2 -0.5,-0.5 -1,-1.5 -1.5,-2.5 0,-0.996 0,-1.996 0,-2.496 l 15.492,0 c -0.5,1.5 -0.5,2.996 -0.5,4.496 -0.5,0.5 -1,1.5 -2,2" /><path
         id="path118"
         style="fill:#000000;fill-opacity:1;fill-rule:nonzero;stroke:none"
         d="m 308.879,384.195 -48.981,0 c 3,-15.496 6.5,-30.988 10.497,-46.48 l 49.98,0 c -3.996,15.492 -7.996,30.984 -11.496,46.48" /><path
         id="path120"
         style="fill:#000000;fill-opacity:1;fill-rule:nonzero;stroke:none"
         d="m 487.309,362.703 c -1.5,0.5 -2.5,1.5 -3.996,2 l 0,-0.5 c -1.5,-0.5 -2.5,-1 -4,-1.5 -1,-0.5 -2,-1.5 -2.5,-2.5 -0.5,-0.5 -0.5,-1.5 -1,-2.496 0,-1.5 0,-3.5 0,-5 0,-4.996 0,-9.996 0,-14.992 l 44.484,0 c 0.5,0.5 1,1.496 1.5,2.496 -0.5,1 -1,2 -1.5,2.5 -0.5,1 -1.5,2 -2,2.5 -0.5,0 -1,0 -1.5,0 -1,0 -2,0 -2.5,0 -1,-0.5 -1.996,-1 -2.496,-1.5 -0.5,-0.5 -1.5,-1.5 -2,-2 -1.5,6 -3,11.996 -5.5,17.992 -1.496,0.5 -2.996,1 -4.496,1.5 -1,0.5 -2,0.5 -3,1 0,-0.5 0,-0.5 -0.5,-0.5 -1.5,-0.5 -3,-1 -4.496,-1.5 -1,-0.5 -2,-1.5 -2.5,-2.496 l 0,-0.5 c -0.5,1.996 -1.5,3.996 -2,5.496" /><path
         id="path122"
         style="fill:#000000;fill-opacity:1;fill-rule:nonzero;stroke:none"
         d="m 464.316,365.203 c -1.496,0.5 -2.496,0.5 -2.496,-0.5 -1,-8.496 -1,-16.492 -0.5,-24.492 -5.5,3 -11.496,5.5 -17.992,7.5 l 0,-0.5 c -1,0 -2,0 -3.5,-0.5 -0.5,0 -0.5,0 -0.5,-0.5 -0.5,-0.5 -1.5,-1 -2,-1.5 -0.5,-2.5 -1,-4.5 -1,-6.996 l 38.485,0 c -1,5.496 -1.997,11.492 -2.497,17.492 -0.5,1 -1,2 -2,2.5 -2.5,2.496 -4.5,4.996 -6,7.496" /><path
         id="path124"
         style="fill:#000000;fill-opacity:1;fill-rule:nonzero;stroke:none"
         d="m 511.801,326.719 c 2.996,3.496 5.996,7.496 8.496,10.996 l -44.484,0 c 0,-1.5 0,-3 0,-4.5 -0.5,1.5 -0.5,3 -1,4.5 l -38.485,0 c 0,-1 0,-2 0,-3 0.5,-2.5 0.5,-5 0.5,-7.496 -3.496,-0.5 -5.996,-2 -7.496,-4.5 -1.5,-1.5 -2.5,-3.496 -3.5,-4.996 0,-1.5 0,-2.5 0,-4 -23.488,-2.5 -46.48,-6.996 -69.469,-12.496 -0.5,0.5 -0.5,0.5 -0.5,1 -3,11.496 -5,23.492 -5.5,35.488 l -15.492,0 c 0,-1 0,-2 0,-2.5 -0.5,-0.5 -0.5,-1.5 -0.5,-2.5 -1.5,-0.5 -3,-1.5 -4,-2.5 -0.5,-0.5 -1.5,-1.496 -2,-2.496 0,-1.5 0,-3.5 0,-5 0,-4.996 0,-9.996 0.5,-15.492 -2.996,9.996 -5.996,19.992 -8.496,30.488 l -49.98,0 c 1.5,-5.5 3,-10.996 4.5,-16.496 -0.5,-1.5 -0.5,-3.496 -0.5,-4.996 -0.5,-7.996 -1.5,-16.493 -2.5,-24.993 l 542.785,0 c -6.5,15.497 -12.996,30.989 -18.496,46.485 l -62.973,0 c -1,-0.5 -2,-1 -2.5,-1.5 -1,-1.5 -2,-3.5 -2.5,-5 -0.5,-0.5 -0.5,-1.5 -0.996,-2.496 -6.5,-6 -12.496,-12.996 -17.496,-20.992 3,9.996 5.5,19.992 7.996,29.988 l -28.988,0 0,-0.5 c -0.497,0 -1.497,0 -1.997,-0.5 -0.5,-0.5 -1.5,-1 -2,-1.5 -1.5,-2 -2.5,-4.5 -2,-7.496 0.5,-7 0.5,-13.996 -0.5,-20.492 -0.5,0.5 -0.5,1 -1,1.5 -3.496,10.496 -8.496,20.488 -13.992,28.988 l -16.496,0 c 3.5,-8 6,-16.496 8,-24.992 -10.496,6.5 -22.492,10.496 -35.488,12.496 l 0,-0.5 c -1.5,-0.5 -3.496,-0.5 -4.996,-1 -1,-1 -1.5,-2 -2,-3 -0.5,-0.5 -0.5,-1.496 -0.5,-1.996 0,-1 0,-2 0,-2.5 0.5,-1 0.5,-1.5 1,-1.5 7.996,-2.5 15.992,-5.496 23.488,-8.996 -4.496,0 -8.996,0 -13.492,0 -7.496,0 -14.496,0 -21.492,0 -0.5,3.5 -1,6.496 -1,9.496 -0.5,1.5 -0.5,3 -0.5,4.496 1,6 2,11.996 3,17.996 l -43.485,0 c -0.5,-10.496 -1,-20.492 -0.5,-30.988 -6.996,0.5 -13.992,0.5 -20.492,1 5.5,7.996 9.996,16.492 13.496,25.988 -0.5,0.5 -1.5,1.5 -2,2 -1.5,1 -2.496,1.5 -3.996,2 -11.496,-6.5 -21.492,-15.496 -28.988,-26.492 -1,-0.5 -2,-0.5 -3.5,-1 -1.5,0.5 -2.5,1.5 -3.5,2 -1,0.5 -1.496,1.5 -1.996,2.5 0,1.5 0,3.5 0,4.996 0,2.5 0,4.5 0,7 z M 456.32,314.723 c -0.5,1 -0.5,2 -0.5,2.5 -2.496,2 -3.996,4.496 -4.996,7.496 -1,2.5 -1.5,4.996 -1,7.496 2.5,1.5 5.496,1 8.496,-2.5 1.5,-1.996 3.5,-3.996 5,-5.496 -1,-0.5 -2,-0.5 -3,-1 -0.5,-0.5 -1.5,-0.5 -2,-1 -0.5,-1.5 -1,-3.496 -1.5,-5.496 0,-0.5 0,-1.5 0,-2 l -0.5,0 z m -21.988,0 0,0.5 c 0.496,0 0.496,0 0.996,-0.5 -0.5,0 -0.5,0 -0.996,0 z m 313.371,11.496 c 2.5,2.5 5,4.496 7.5,6.496 2.496,-6.996 4.996,-13.992 7.996,-21.492 1.5,-3.996 3,-8.496 4.496,-12.993 0.5,-1.5 1,-3.5 1.5,-5.5 -3.496,0.5 -6.996,1.5 -10.496,2 -1.996,10.497 -5.496,20.493 -10.496,29.989 -0.5,0.5 -0.5,1 -0.5,1.5" /><path
         id="path126"
         style="fill:#000000;fill-opacity:1;fill-rule:nonzero;stroke:none"
         d="m 844.668,363.703 c -0.5,0 -1,0 -1.5,0 -1,-0.5 -2,-0.5 -3.5,-1 0,-2.5 -1,-4.996 -3,-7.496 0,-1.5 0,-3.5 -0.5,-5 -0.5,-20.492 -4.496,-39.984 -11.492,-58.977 l 18.492,0 c 2.496,11.497 5.496,21.993 8.996,32.489 -2,1.5 -4,2.5 -5.5,4 -1.5,-0.5 -2.496,-0.5 -3.496,-1 -1,-0.5 -2,-1.5 -3.5,-2 0,0.5 0,1 0.5,1.5 3,12.996 4.5,25.488 4.5,37.484" /><path
         id="path128"
         style="fill:#000000;fill-opacity:1;fill-rule:nonzero;stroke:none"
         d="m 926.633,356.707 c -0.5,0 -0.5,0 -1,-0.5 -1,-1.5 -1.5,-2.5 -1,-4 3.5,-21.992 12.996,-42.48 27.488,-60.977 l 55.979,0 c -6.5,5.5 -12.495,11.997 -17.991,18.497 -10.996,13.492 -23.492,18.492 -36.988,13.992 -1,0.5 -1.996,1.5 -2.496,2.5 -7.5,9.496 -12.996,19.492 -16.496,29.988 -1.5,0.5 -2.996,1 -4.496,1.5 l 0,-0.5 c -1,0 -2,0 -3,-0.5" /><path
         id="path130"
         style="fill:#000000;fill-opacity:1;fill-rule:nonzero;stroke:none"
         d="m 10,291.23 79.4688,0 0,92.9648 -79.4688,0 0,-92.9648 z" /><path
         id="path132"
         style="fill:#000000;fill-opacity:1;fill-rule:nonzero;stroke:none"
         d="m 216.918,384.195 -43.484,0 c -1,-15.992 -1.5,-31.988 -2,-48.48 -0.996,1 -1.996,1.5 -2.996,2 l 0,-0.5 c -1.5,0 -3,0 -4.5,-0.5 -0.5,-1 -1.5,-2 -2.5,-2.5 0,-1.5 0,-2.5 0,-4 0,-2.496 0,-4.496 0,-6.496 -0.497,-0.5 -0.997,-1.5 -1.497,-2 -0.5,-0.5 -1.5,-1.5 -2,-2 0,-1.496 0,-2.996 0.5,-4.496 0,-4.5 0,-8.496 0.5,-12.996 2,-1 3.997,-2 6.497,-2.997 1,0 2,0 3,0 0.5,0.5 1.5,0.5 2.5,0.997 -0.5,-2.997 -0.5,-5.997 -0.5,-8.997 l 44.98,0 c -2,27.493 -2,54.481 0,81.469 0,0.5 0,1 0,1.5 0.5,3.5 1,6.496 1.5,9.996" /><path
         id="path134"
         style="fill:#000000;fill-opacity:1;fill-rule:nonzero;stroke:none"
         d="m 262.398,291.23 c -0.5,0.5 -0.5,1 -0.5,1.5 -0.5,1 -1,2 -1.5,2.5 -5.496,8.497 -11.992,13.997 -20.492,16.993 l 0,-0.5 c -1.496,-0.5 -3.496,-1 -4.996,-1.5 -0.5,-0.5 -1.5,-1.496 -2.5,-2.496 0,-1.5 0,-3.5 0,-5 0,-1.5 0,-3.497 0,-4.997 1,-0.5 2,-1.5 2.5,-2.5 0.5,-0.5 0.5,-1.5 1,-2.5 0,-0.5 0,-1 0,-1.5 l 26.488,0" /><path
         id="path136"
         style="fill:#000000;fill-opacity:1;fill-rule:nonzero;stroke:none"
         d="m 1016.6,295.23 c -2.5,-1.5 -5,-2.5 -7.5,-4 l 13.99,0 c -1,0.5 -2,1.5 -2.99,2 -1,1 -2,1.5 -3.5,2" /><path
         id="path138"
         style="fill:#000000;fill-opacity:1;fill-rule:nonzero;stroke:none"
         d="m 843.168,291.23 15.992,0 c -1,0.5 -2,1.5 -2.5,2.5 -0.5,-0.5 -1,-0.5 -1.5,-1 -2.496,0.5 -4.496,0.5 -6.996,1 -0.5,-0.5 -1,-0.5 -1.5,-1 -1.5,-0.5 -2.496,-1 -3.496,-1.5" /><path
         id="path140"
         style="fill:#000000;fill-opacity:1;fill-rule:nonzero;stroke:none"
         d="m 650.742,197.77 -109.953,0 c 6.996,-0.5 13.992,-1.5 20.988,-2.5 5,-0.5 9.996,-1 14.996,-1 18.493,-0.5 36.985,0 55.477,1.5 6,0.5 11.996,1.5 18.492,2" /><path
         id="path142"
         style="fill:#000000;fill-opacity:1;fill-rule:nonzero;stroke:none"
         d="m 658.742,197.77 c -22.492,-8.997 -45.484,-11.997 -69.472,-8.497 -6,0.5 -11.997,1 -17.497,0.5 -71.468,-3.5 -142.941,-0.5 -213.914,7.997 l -347.859,0 0,-93.461 2159.14,0 0,93.461 -1510.398,0 z m -507.797,-5.497 c -3.5,-0.5 -6.5,-1 -9.496,-1.5 -0.5,0.5 -0.5,1 -0.5,1.5 3.496,0 6.496,0 9.996,0" /><path
         id="path144"
         style="fill:#000000;fill-opacity:1;fill-rule:nonzero;stroke:none"
         d="m 10,104.309 0,-92.9652 2039.18,0 39.99,39.9843 39.98,-39.9843 39.99,0 0,92.9652 -2159.14,0" /><path
         id="path146"
         style="fill:#000000;fill-opacity:1;fill-rule:nonzero;stroke:none"
         d="m 1079.07,439.672 c -1.5,-0.5 -3.5,-0.5 -5.5,-1 -0.5,-1 -1.5,-2 -2.5,-2.496 0,-2.5 0,-5 -0.5,-7.5 -1.5,-14.492 -1.99,-29.488 -2.49,-44.481 l 10.99,0 0,55.477" /><path
         id="path148"
         style="fill:#000000;fill-opacity:1;fill-rule:nonzero;stroke:none"
         d="m 687.73,384.195 10.993,0 c -0.496,2 -0.996,3.996 -1.496,5.496 -1.5,0.5 -2.5,1 -4,1.5 -1,-0.5 -2,-0.5 -3,-1 -0.5,-0.5 -1.5,-1 -1.997,-1.5 -0.5,-0.996 -1,-1.996 -1,-2.496 0,-0.5 0,-1.5 0.5,-2" /><path
         id="path150"
         style="fill:#000000;fill-opacity:1;fill-rule:nonzero;stroke:none"
         d="m 1731.31,1484.25 c 0,1 0.5,1 2,0.5 1.5,-63.97 1,-127.95 -1.5,-192.42 -2.5,-53.48 -4,-106.95 -3.5,-161.44 l 31.99,0 c 0.5,45.99 0.5,91.97 0,138.45 -0.5,45.48 1,90.96 4,136.45 21.49,-13.5 43.98,-25.99 66.47,-36.49 0,-2.5 0,-5.5 -0.5,-8 -4,-28.48 -5.5,-56.97 -4.5,-85.46 -6.99,9.5 -14.49,17.99 -22.99,25.99 0,-0.5 0,-0.5 -0.5,-0.5 -1.49,-0.5 -2.99,-1 -4.49,-1.5 -1,-0.5 -2,-1.5 -2.5,-2.5 0,-1.5 0,-3 0.5,-4.5 4.5,-14.49 12.49,-27.49 22.99,-38.98 -4.5,-2 -8.5,-4 -13,-5.5 -0.5,-5 -1.5,-10 -2.5,-14.49 -1,-6 -1.5,-11.5 -1,-16.5 -5.49,-2.5 -10.99,-6 -15.49,-9.99 0,-0.5 0,-1.5 0.5,-2 0.5,-1 1.5,-2 2,-3 6,-1 11.99,-1.5 17.49,-1.5 2,-3 4.5,-5.5 8,-7.5 -8.5,-7.49 -16.99,-14.99 -25.49,-22.49 0,-1 0,-1.5 0.5,-2 2,-1.5 4,-3 6,-4.5 10.49,5.5 18.49,8.5 23.49,8 -1.5,-1.5 -2.5,-3.5 -4,-5 -3.5,-5 -4.5,-9.99 -2,-14.99 1.5,-0.5 2.5,-1.5 3.5,-2.5 2,0.5 3.99,0.5 5.99,1 0.5,0.5 1.5,1.5 2,2.5 6.5,8.49 13,16.49 19,24.99 0.5,-1.5 1.5,-3.5 2,-5.5 2.5,-8 3,-16.49 2,-25.49 0.5,-0.5 1,-1.5 1.5,-2.5 1.49,-2.5 2.49,-5 3.99,-7.5 2.5,-1.5 5.5,-2 8.5,-1.5 0.5,-1.5 0.5,-3.5 1,-5 l 306.38,0 0,372.86 -507.8,0 c 2.5,-47.98 3,-95.96 1.5,-143.45 -1.5,-64.47 -3,-128.44 -4,-192.42 -0.5,-12.49 -0.5,-24.49 -0.5,-36.99 l 58.48,0 c -0.5,52.49 1,104.47 3.5,156.44 2,42.49 3.49,84.97 3.99,127.45 1,1.5 2,3.5 3.5,5 3,20.99 4,42.48 3.5,64.47 z m 132.45,-321.37 2,0.5 0,-0.5 c -0.5,-0.5 -1.5,-0.5 -2,-1 -0.5,0.5 -0.5,0.5 0,1" /><path
         id="path152"
         style="fill:#000000;fill-opacity:1;fill-rule:nonzero;stroke:none"
         d="m 1906.24,1061.92 c 0.5,-1.49 1,-3.49 0.5,-4.99 -2,-13.5 -3,-26.49 -3.5,-39.99 -2.5,0.5 -4.99,0.5 -7.49,0.5 l 0,-0.5 c -1,0 -2,0 -3,-0.5 -0.5,0 -0.5,0 -1,-0.5 -3,-3 -6,-5.99 -8.5,-9.49 0,0 0,0 0,-0.5 l -0.5,0 c -0.5,-0.5 -1.5,-0.5 -2.5,-1 -0.5,0.5 -0.5,0.5 -1,1 0,0.5 0,1 0,1.5 -0.5,1 -0.5,2 -1,2.5 -0.5,1 -1,2 -1.5,2.5 -1.5,0.49 -2.5,0.99 -4,1.49 -1.5,0.5 -2.5,0.5 -3.49,1 l 0,-0.5 c -1,0 -2,0 -3,-0.5 -1,-0.5 -2,-1 -3,-1.49 -0.5,-0.5 -0.5,-1.5 -1,-2.5 -0.5,-4 -0.5,-8 -0.5,-12.501 2,-2 4,-3.5 6,-4.996 0,0 0,0 0,-0.5 l 0,-0.5 c -9.5,6.496 -16,16.497 -19.99,29.487 -1.5,0.5 -3.5,1 -5,1.5 0,-0.5 0,-0.5 -0.5,-0.5 -2.5,-1.5 -4.5,-2.5 -7,-3.5 -0.5,-1.5 -0.5,-3.5 -1,-5 0,-1.49 0,-3.49 0,-4.99 1,-1.5 2,-3.5 3,-5 4.5,-9.501 11,-17.997 18.99,-24.993 -10.49,-0.5 -17.99,-4 -23.49,-10.996 0,-3.5 2,-5.996 6.5,-6.996 1,-0.5 2,-0.5 2.5,-1 0,-1 0,-2 0,-2.5 0,-1 0,-2 0,-2.5 1,-0.5 2,-1.496 3.5,-1.996 -0.5,-0.5 -1.5,-0.5 -2,-1 -5.5,-3 -10.5,-7 -15,-11.496 -0.5,-2.5 -0.5,-5 0,-7.496 0.5,-3.5 -0.5,-7 -2.5,-9.997 0,-0.5 0,-1.5 0.5,-2.5 0,-0.5 0,-1.5 0.5,-2.5 0,-0.5 0,-1.5 0,-2.5 1,-0.496 2,-1.496 2.5,-2.496 1.5,-0.5 3.5,-0.5 5,0 1,0 2,0.5 2.5,1 10.5,12.493 23.99,20.989 40.48,25.489 1,0 2,0 3,0 -2.5,-2.5 -5,-5.496 -7.5,-8.496 -10.99,-3.5 -21.49,-7.997 -30.98,-13.497 -0.5,-1 -0.5,-2 -1,-2.496 0,-1 0,-2 -0.5,-3 0,-0.5 0,-1.5 0,-2 0,-1 0,-2 0,-2.5 7.5,-0.5 15.49,0 23.99,1.5 1.5,-1 2.5,-2 4,-2.5 8.49,1.5 12.49,1.5 11.99,-0.996 -1,-3 -2,-6 -2.5,-9.5 -1,-3.496 -1.5,-6.996 -1,-10.492 1,-0.5 2,-1.5 2.5,-2.5 1.5,-0.5 3.5,-0.5 5,0 1,0 2,0.5 2.5,1 1,0.5 2,1.5 3,2.496 0.5,0.5 1.5,1.5 2,2.5 1,3.5 2,6.5 3.5,8.996 3,7 5.49,13.996 6.99,21.492 1.5,0.5 3.5,1.5 5.5,2 -3.5,-39.484 -10.49,-78.468 -20.99,-116.953 -0.5,1.5 -1.5,2.5 -2.5,3.496 0,1.5 0,3.5 -0.5,5 -0.5,1 -0.5,2 -1,2.5 -0.5,1 -1.5,1.5 -2,2 -1.5,0.997 -3.5,1.997 -5,2.497 -1.5,-0.5 -2.5,-1 -4,-1.5 -0.5,-0.5 -1.5,-0.5 -2.49,-0.997 -1.5,-2.5 -2.5,-5 -2,-8 0.5,-3.996 0.5,-6.996 0.5,-9.496 -5,12.496 -13.5,15.996 -24.99,11.496 -1,-1.5 -1.5,-3.5 -2,-4.996 -2,-11.996 1,-22.492 8.5,-31.488 -13.5,5.496 -27,6.496 -39.99,3 -0.5,-1.5 -1.5,-3.5 -2,-5 -0.5,-1.5 -0.5,-3.5 -0.5,-4.996 4.5,-4 9.5,-7.5 14.99,-9.996 l 347.37,0 0,373.343 -306.38,0 c 6.5,-24.98 20.99,-46.48 42.48,-63.97 0.5,-1.5 0.5,-3.5 1,-5 z m -12.99,-124.447 c -1,-0.5 -2,-1 -2.5,-1.5 0.5,0.5 1,1 1.5,1.5 0.5,0 0.5,0 1,0" /><path
         id="path154"
         style="fill:#000000;fill-opacity:1;fill-rule:nonzero;stroke:none"
         d="m 1720.82,1089.91 c -1.5,1.5 -2.5,3.5 -4,5 -0.5,12 -0.5,23.99 0,35.98 l -58.48,0 c -0.5,-51.47 -1,-103.45 -1,-155.433 0.5,-64.473 -2,-128.949 -6.5,-192.922 -0.5,-8.496 -1,-16.492 -1.5,-24.988 l 37.49,0 c 0,9.496 0.5,18.492 1,27.988 1.5,27.988 2,55.977 1.5,84.465 -0.5,25.488 -2,50.48 -3.5,74.969 l 1,0 c 8.99,-61.973 10.99,-124.449 6.5,-187.422 l 71.47,0 c -1,41.48 -2,82.965 -3,124.449 -2,63.973 -2.5,127.954 -2,192.424 0.5,18.49 0.5,37.48 0.5,56.47 l -31.99,0 c 0,-10.49 0,-20.49 0,-30.98 0,-0.5 0,-1.5 0,-2.5 -1,-1.5 -2,-3.5 -3,-5 -1,-2.5 -1.5,-5 -1.5,-7.5 -0.5,-0.5 -0.5,-1 -0.99,-1.5 -0.5,1.5 -1,2.5 -1.5,4 -0.5,1 -0.5,2 -0.5,2.5 z m -23,-39.98 c 0.5,1 1,2 2,2.5 0.5,0.5 1.5,1.5 3,2 3.5,-0.5 7,-0.5 10.5,-1 1.5,-1 2.5,-2 3.5,-3 0.5,-0.5 1,-1.5 1.5,-2 0.5,-1 0.5,-2 1,-2.5 0.5,-4 -1,-7.5 -4,-10 -1,-0.5 -2,-1 -2.5,-1 -4,-0.5 -8,-0.5 -12,0 -1,1 -2,2 -3,2.5 -0.5,1 -0.5,2 -1,2.5 -1.5,3.5 -1.5,7 1,10" /><path
         id="path156"
         style="fill:#000000;fill-opacity:1;fill-rule:nonzero;stroke:none"
         d="m 1479.91,1461.27 c -1.5,-48.49 -2.5,-96.97 -4,-144.95 -1.5,-61.97 -2.5,-123.95 -3,-185.43 l 68.48,0 c 1.5,39.49 3,78.97 5.5,118.46 3.99,63.47 9.99,126.95 17.99,189.92 2.5,22 6.5,43.48 11.5,64.48 l -93.47,0 c -1.5,-14 -2.5,-27.99 -3,-42.48 z m 20.99,-111.46 c 1.5,-1.5 3,-3.5 4.5,-5 -0.5,-0.5 -0.5,-1.5 -1,-2 -1,-1.5 -2,-3 -3.5,-4.5 -2.49,0.5 -5.49,0.5 -7.99,1 -1,0.5 -2,1.5 -2.5,2.5 -1.5,1.5 -2.5,3.5 -3.5,5 0,0.5 0,1.5 0.5,2 1,1.5 2,2.5 3.5,4 l 0,0.5 c 2.5,-0.5 5,-0.5 7.5,-1 0.99,-0.5 1.99,-1.5 2.49,-2.5" /><path
         id="path158"
         style="fill:#000000;fill-opacity:1;fill-rule:nonzero;stroke:none"
         d="m 1581.37,1503.75 c -1.5,-56.48 -3.5,-112.96 -5.99,-169.43 -3,-64.48 -10,-128.45 -21.5,-191.93 -0.5,-4 -1.5,-8 -2,-11.5 l 89.97,0 c 0.5,24 0.5,47.99 0.5,71.98 0.5,64.47 2.5,128.95 6.49,192.42 2,36.49 4.5,72.47 7.5,108.46 l -74.97,0" /><path
         id="path160"
         style="fill:#000000;fill-opacity:1;fill-rule:nonzero;stroke:none"
         d="m 1641.85,1130.89 -89.97,0 c -4.49,-24.48 -8.49,-48.48 -12.49,-72.96 0.5,24.48 1.5,48.48 2,72.96 l -68.48,0 c 0,-2.49 0,-4.49 0,-6.99 -0.5,-65.47 0.5,-130.451 3,-194.923 1,-21.993 2,-43.981 3,-65.973 -0.5,-22.492 -1,-44.984 -0.5,-67.473 0.5,-12.496 0.5,-24.992 1,-37.484 l 0,-0.5 152.44,0 c 0,20.492 0.5,40.48 1.5,60.473 3,63.976 5,127.949 6.5,192.43 1,39.98 1.5,79.96 2,120.44 z m -48.48,-112.45 c 0,-1 -0.5,-2 -1,-2.5 -0.5,-1 -1.5,-2 -2,-2.5 -2,0 -4,0 -6,0 1,1.5 2,2.5 3,4 l 0.5,0.5 c 0.5,0.5 1,0.5 1.5,1 l 0,0.5 c 1.5,-0.5 2.5,-0.5 4,-1 z m -21.99,6 c 0,-1.5 0,-3.5 -0.5,-5 -1.5,-1.5 -2.5,-3.5 -4,-5.5 -0.5,-0.5 -0.5,-1 -1,-1.49 -0.5,-0.5 -1,-0.5 -1.5,-0.5 -1.5,0 -3.5,0 -5,0.5 -0.5,0.99 -1.5,1.99 -2.5,2.49 0,1 0,2 0,2.5 0,1.5 0,3.5 0,5 1.5,2.5 3.5,5 6,6.5 0.5,0.5 1,0.5 1.5,1 1.5,-0.5 2.5,-0.5 4,-0.5 1,-1 2,-2 2.5,-2.5 0.5,-1 0.5,-2 0.5,-2.5 z m -32.99,5 c -1.5,-1 -2.5,-1.5 -4,-2 -2.5,-0.5 -5,-0.5 -7.5,-0.5 -0.5,0.5 -1.5,1.5 -2,2.5 -0.5,0.5 -0.5,1.5 -0.5,2.49 0.5,0.5 1,1 1.5,1.5 1,1 2,2 3.5,2.5 2.5,-0.5 4.5,-1 6.5,-1.5 1,-1 1.5,-2 2,-2.99 0.5,-0.5 0.5,-1.5 0.5,-2 z m 10.99,-108.46 c 0.5,0.5 0.5,1 1,1.5 l 0,0.5 c 0.5,0.5 1.5,0.5 2.5,0.5 0.5,0 1,0 1.5,0 8,-33.488 12,-67.472 12,-102.46 0,-1 0,-2 -0.5,-2.5 -1.5,-1.497 -3.5,-3.497 -5,-4.997 -1,0 -2,0 -3,0 -1.5,0.5 -3,1.5 -4.5,2.5 -6.49,31.485 -8.99,63.973 -7.49,97.461 0,0.5 0,1.496 0,2.496 1.5,1.5 2.49,3.5 3.49,5" /><path
         id="path162"
         style="fill:#000000;fill-opacity:1;fill-rule:nonzero;stroke:none"
         d="m 1765.8,689.574 c -0.5,22.489 -0.5,45.481 -1,67.973 l -71.47,0 c -0.5,-1.5 -0.5,-3.5 -0.5,-5 -1.5,-20.492 -2.5,-41.484 -2.5,-62.473 -3,21.489 -4,43.981 -3.5,67.473 l -37.49,0 c -2.5,-42.984 -3,-85.969 -0.5,-128.449 -0.5,0.5 -1.5,1 -2,1.5 -1,0.5 -1.99,0.5 -2.99,1 0,0.996 0,1.996 -0.5,2.496 -3.5,1.5 -5,4 -5.5,6.5 -4,38.984 -6,77.969 -6,116.953 l -152.44,0 c 1,-62.477 1,-124.453 -0.5,-186.426 l 82.47,0 c 0.5,19.492 2,39.484 3.5,59.477 3,32.984 4.5,65.972 4,99.457 0,10.496 1.5,18.992 4.5,24.992 8.49,-60.477 11.49,-121.953 8.49,-183.926 l 68.97,0 c 0,0.5 0,0.5 0,1 1,2.996 3.5,4.496 7,4.496 0.5,0 1,0 1.5,0.5 1,-1 2,-2 2.5,-2.5 -0.5,-1.5 -0.5,-2.496 -1,-3.496 l 107.46,0 c -1,39.484 -2,78.969 -2.5,118.453 z m -253.9,-81.969 c -0.5,3.5 1,6.997 4,9.497 0.5,0 1.5,0 2,0.5 0.49,0 0.99,0 1.49,0.5 l 0,0.5 c 6.5,0.5 12.5,-1 18,-4.5 0.5,-0.5 1.5,-1.5 2,-1.997 0.5,-1 1,-2 1,-3 0.5,-2.5 0,-5 -2,-6.996 0.5,-1.5 0.5,-3.5 1,-5 0,-4.496 -1.5,-8.496 -5,-11.996 -0.5,-0.5 -1,-0.5 -1.5,-0.5 -3,0 -6,0 -8.5,0.5 -2.5,2 -4.5,4.5 -5.5,7.5 -1.49,3.996 -3.49,7.496 -5.99,9.996 -0.5,1.496 -0.5,3.496 -1,4.996 z m 92.46,-5.496 c 1.5,-0.5 2.5,-0.5 4,-1 2.5,-2.5 2.5,-5.5 0,-8 -0.5,-0.496 -0.5,-1.496 -0.5,-1.996 -0.5,-1 -1,-1.5 -1.5,-2 -1,-1 -2,-1.5 -3.5,-2 -1.5,0.5 -3.5,1 -5,1.5 0,1.5 0,3.5 0,4.996 0,0.5 0,1.5 0,2.5 1.5,1.5 3.5,2.5 5,4 1,0.5 1.5,1.5 1.5,2 z m -14.99,8.996 c 0.5,-1 1,-2 1.5,-2.5 0,-1 0,-1.5 -0.5,-1.5 -0.5,-0.5 -1.5,-1 -2.5,-1 -3.5,1.5 -4.5,4 -3,6.497 0.5,0.5 0.5,0.5 1,1 1.5,-1 2.5,-1.997 3.5,-2.497" /><path
         id="path164"
         style="fill:#000000;fill-opacity:1;fill-rule:nonzero;stroke:none"
         d="m 1581.87,571.121 c -0.5,-2 -0.5,-4 -0.5,-6 -1.5,-33.484 -3.5,-66.473 -5.99,-99.957 -2,-1.5 -4,-2.5 -6,-4 -2.5,1.5 -4.5,2.5 -6.5,4 -2.5,35.484 -3,70.469 -1.5,105.957 l -82.47,0 c -0.5,-2 -0.5,-4 -0.5,-5.5 -0.5,-25.488 -1,-51.476 -1,-76.969 -3,-34.984 -5.5,-69.972 -7.5,-104.457 l 307.38,0 c -3.5,37.485 -5.49,75.469 -6.99,112.953 -0.5,24.493 -1.5,49.481 -2,73.973 l -107.46,0 c -0.5,-1.5 -0.5,-2.5 0,-4 0,-1 0,-2 0,-2.5 -1.5,-1.496 -3.5,-2.996 -5,-4.496 -1.5,0.5 -3.5,1.5 -5,2 0,2.496 0,4.996 0,7.496 0,0.5 0,1 0,1.5 l -68.97,0 z m -44.98,-53.48 c 0.5,-0.5 1,-1.5 1.5,-2.5 1.5,-2.496 1.5,-4.996 0.5,-7.496 -1.5,-3.497 -4,-6.497 -8,-8.997 -0.5,-0.5 -1,-0.5 -1.5,-0.5 -4,0 -8,0 -11.49,0.5 -1.5,0.5 -2.5,1.5 -3.5,2.5 -0.5,0.5 -0.5,1.5 -1,2.5 -0.5,2.497 -1,4.997 -0.5,7.497 0.5,0.5 1,1.5 1.5,2.5 2.5,3.496 5.49,5.996 8.49,7.496 3.5,-0.5 7,-0.5 10.5,-1 1.5,-0.5 2.5,-1.5 3.5,-2.5 z m 67.97,-20.993 c 1.5,-2.496 2,-4.496 2,-6.996 -0.5,-1 -0.5,-2 -1,-2.5 -1.5,-1.496 -2.5,-3.496 -4,-4.996 -0.5,-0.5 -1.5,-1 -2.5,-1 -2.5,-0.5 -5.49,-0.5 -8.49,0 -1,0.5 -2,1.5 -3,2.5 -1.5,1.5 -3.5,3.496 -5,4.996 -0.5,0.5 -0.5,1.5 -0.5,2.5 -0.5,1.5 -0.5,3.5 -0.5,4.996 0,0.5 0,1.5 0,2.5 0.5,0.5 1.5,1.5 2,2.5 0.5,0.5 1.5,1.5 2,2.5 1.5,0.5 2.5,0.5 3.5,1 l 0,0.5 c 2.5,-0.5 5.5,-0.5 8.49,-0.5 3,-2 5.5,-4.5 7,-8 z m 16,-50.476 c 0,0.496 0,1.496 -0.5,2.496 0,1.5 0,3.5 0,5 2.5,5.496 6.99,8.496 12.49,8.996 1.5,-0.5 3.5,-1 5,-1.5 2,-2.5 3,-5 3,-7.496 0,-1.5 0,-3.5 0,-5 -5,-8.496 -11.5,-8.996 -19.99,-2.496 z m 111.95,21.988 0,0.5 c 2.5,-1.5 4.5,-2.996 7,-4.496 0.5,-0.5 1.5,-1.5 2,-2 1.49,-6.496 0,-11.496 -5.5,-15.496 -0.5,-0.496 -1.5,-0.996 -2,-1.496 -3.5,0 -6.5,0 -10,0 -1,1 -1.99,1.996 -3.49,2.496 -1.5,4 -1.5,8 -1,12.496 0.5,1.5 1.5,3.5 2,5 2.99,2.496 6.49,3.496 10.99,2.996 z m -44.98,47.981 c 0.5,0.5 1.5,1.5 2.5,2.5 2,0.5 3.99,0.5 5.49,1 l 0,0.5 c 3,-0.5 5.5,-1.5 8,-3 1,-0.5 1.5,-1 2,-2 0.5,-1.496 1,-3.496 1,-4.996 -0.5,-1.5 -1,-3.5 -1.5,-4.997 -6,-4.5 -11.99,-4.5 -17.49,0.997 -0.5,0.5 -0.5,1.5 -0.5,2.5 -0.5,1.5 -0.5,3.5 -0.5,5 0.5,0.5 0.5,1.496 1,2.496 z m -13.49,23.992 c 0.49,-1.5 0.49,-3.5 0.49,-5 -0.49,-1.496 -0.99,-3.496 -1.49,-4.996 -1.5,0 -2.5,0 -4,-0.5 -2,0 -4,0 -6.5,0 -1,0.5 -1.5,1.5 -2,2.5 -0.5,0.5 -0.5,1.5 -0.5,2.496 0,3 1.5,5.5 5,7.5 0.5,0.5 1.5,1 2.5,1.5 0.5,0 1,0 1.5,-0.5 1,-0.5 2,-0.5 3,-1 0.5,-0.5 1.5,-1 2,-2 z m 7.99,-112.953 c 0.5,0 0.5,0 0.5,0.496 4,0.5 7.5,-0.996 10.5,-4.496 0.5,-0.5 0.5,-1.5 0.99,-2 -1.49,-1.5 -2.99,-3 -4.49,-4.496 -1,-1 -2.5,-1.5 -4,-2 -2,1.5 -4,2.5 -6.5,3.996 0,0.5 0,1.5 0,2.5 0,0.5 0,1.5 0,2.5 0,0.5 0,1.5 0.5,2 0.5,0.5 1.5,1 2.5,1.5" /><path
         id="path166"
         style="fill:#000000;fill-opacity:1;fill-rule:nonzero;stroke:none"
         d="m 1420.93,400.188 c 0.5,1 0.5,2 1,2.5 1,7.496 -1.99,12.496 -8.99,14.496 -1.5,-0.5 -2.5,-1 -4,-1.5 -1,-0.5 -2,-0.5 -3,-1 -8.49,-9.996 -16.99,-19.993 -25.49,-30.489 l 25.49,0 c 4.5,5.496 9.5,10.996 14.99,15.993" /><path
         id="path168"
         style="fill:#000000;fill-opacity:1;fill-rule:nonzero;stroke:none"
         d="m 1455.42,399.688 c -1.5,0 -3,0 -4.5,0.5 -0.99,-0.5 -1.49,-2 -1.99,-3.497 -0.5,-4 -0.5,-8 0,-12.496 l 13.49,0 c -2,5.496 -4.5,10.496 -7,15.493" /><path
         id="path170"
         style="fill:#000000;fill-opacity:1;fill-rule:nonzero;stroke:none"
         d="m 1097.57,411.184 c -0.5,6.996 -2,12.496 -4.5,16.992 l -3,-43.981 8.49,0 c 0,8.996 -0.49,17.993 -0.99,26.989" /><path
         id="path172"
         style="fill:#000000;fill-opacity:1;fill-rule:nonzero;stroke:none"
         d="m 1426.93,384.195 c 0,0.5 0,0.5 0,1 -1,-0.5 -2,-0.5 -3.5,-0.5 l 0,-0.5 3.5,0" /><path
         id="path174"
         style="fill:#000000;fill-opacity:1;fill-rule:nonzero;stroke:none"
         d="m 1869.26,727.059 c 0,-1 0,-2 0,-2.5 -3,-2.5 -6,-4.5 -9,-6.996 -3.5,-3 -5,-6.5 -5,-10.497 0.5,-1.5 1.5,-3 3,-4.5 1.5,-1 3,-2 4.5,-2.496 1.5,0.496 2.5,1.496 4,1.996 12.99,8.997 24.99,17.993 35.98,27.489 4.5,-8.496 9.5,-16.492 15,-24.989 4.49,-7.496 5.49,-15.492 1.99,-23.988 -12.49,-30.488 -13.49,-60.976 -2.99,-90.965 -0.5,-1.5 -1.5,-3 -3,-4.5 -16.49,-16.992 -24.49,-36.984 -24.49,-60.476 -13.5,-4.996 -26.49,-10.492 -39.98,-16.992 -1.5,-3.497 -3.5,-6.997 -6,-10.497 -0.5,-1 -1.5,-1.996 -2,-2.996 -6.5,1 -13.5,0.5 -20.99,-2 -1.5,0 -2.5,0 -3.5,0.5 -0.5,1 -1.5,2 -2.5,2.5 -3.5,3.496 -7,4.996 -11.5,4.496 0,-0.5 0,-0.5 -0.5,-0.5 -2.49,-1.5 -4.49,-2.5 -6.99,-3.996 0,-9 1,-18.496 3,-27.992 3.49,-18.492 10.99,-33.984 21.99,-46.48 -11.5,-9.496 -23.49,-17.992 -35.99,-25.489 -0.5,-1.5 -0.5,-3.5 -1,-5 0,-1.5 0,-3.496 -0.5,-4.996 -0.5,-0.5 -0.5,-0.5 -0.5,-1 l 386.85,0 0,373.352 -347.37,0 c 6.5,-3 13.5,-5 21,-6.5 -14.5,-0.5 -22.99,-7.496 -24.49,-19.992 2.49,-1.5 4.99,-1.996 6.99,-1.5 14.5,4 28.99,7 43.99,8.5 -0.5,-0.5 -0.5,-0.5 -1,-1 0,-1.5 0,-3.5 0.5,-5 0,-1.5 0,-3.496 0.5,-4.996 z m -35.49,-294.383 c -0.5,0 -0.5,0 -1,-0.5 -0.5,1 -1.5,2 -2,3 1,-1 2,-2 3,-2.5" /></g></g></svg>